<?xml version="1.0" standalone="no"?>
<!DOCTYPE svg PUBLIC "-//W3C//DTD SVG 20010904//EN"
 "http://www.w3.org/TR/2001/REC-SVG-20010904/DTD/svg10.dtd">
<svg version="1.0" xmlns="http://www.w3.org/2000/svg"
 width="185.000000pt" height="185.000000pt" viewBox="0 0 185.000000 185.000000"
 preserveAspectRatio="xMidYMid meet">
<metadata>
Created by potrace 1.14, written by Peter Selinger 2001-2017
</metadata>
<g transform="translate(0.000000,185.000000) scale(0.100000,-0.100000)"
fill="#000000" stroke="none">
<path d="M740 1761 c-119 -26 -211 -64 -306 -128 -152 -101 -249 -229 -320
-423 -27 -72 -28 -84 -28 -260 -1 -178 0 -188 28 -265 30 -87 80 -191 102
-213 8 -7 14 -17 14 -22 0 -8 81 -102 105 -122 6 -4 30 -26 55 -48 60 -54 226
-134 320 -155 158 -34 391 -18 520 37 74 31 160 79 160 90 0 19 22 3 109 -80
81 -79 93 -87 104 -72 7 9 43 50 80 91 l69 74 -91 85 -92 85 27 35 c14 19 46
76 71 127 156 325 80 721 -183 960 -41 37 -80 70 -87 72 -6 2 -29 17 -51 33
-21 15 -43 28 -48 28 -4 0 -27 9 -51 20 -137 63 -353 85 -507 51z m242 -262
c179 -38 284 -229 225 -409 -17 -52 -71 -123 -115 -153 -49 -32 -133 -57 -186
-56 -96 1 -208 65 -260 147 -21 35 -40 94 -49 152 -3 19 -5 16 -6 -9 -2 -63
30 -164 77 -236 54 -85 127 -146 224 -188 66 -29 83 -31 178 -32 93 0 113 3
174 29 67 29 182 111 200 144 5 9 16 24 24 32 14 13 15 8 9 -40 -23 -212 -163
-393 -366 -473 -60 -23 -96 -31 -176 -34 -90 -5 -108 -2 -180 22 -107 35 -176
76 -244 144 -182 179 -219 472 -87 690 122 200 355 313 558 270z"/>
<path d="M937 1351 c-11 -4 5 -7 38 -7 33 0 49 3 38 7 -10 4 -27 8 -38 8 -11
0 -28 -4 -38 -8z"/>
<path d="M879 1313 l-24 -28 28 24 c25 23 32 31 24 31 -2 0 -14 -12 -28 -27z"/>
<path d="M1061 1315 c15 -16 29 -37 32 -45 5 -13 6 -13 6 1 1 8 -14 28 -31 45
l-33 29 26 -30z"/>
<path d="M932 1267 c-12 -13 -22 -33 -22 -44 0 -22 43 -63 65 -63 21 0 65 40
65 59 0 14 -6 17 -23 14 -31 -6 -55 21 -37 42 22 26 -23 18 -48 -8z m46 -55
c2 -7 -6 -12 -17 -12 -21 0 -27 11 -14 24 9 9 26 2 31 -12z"/>
<path d="M851 1264 c0 -11 3 -14 6 -6 3 7 2 16 -1 19 -3 4 -6 -2 -5 -13z"/>
<path d="M841 1230 c0 -8 4 -24 9 -35 5 -13 9 -14 9 -5 0 8 -4 24 -9 35 -5 13
-9 14 -9 5z"/>
<path d="M1082 1165 c-6 -14 -26 -34 -44 -45 -18 -11 -28 -20 -22 -20 26 0 95
73 81 86 -2 2 -9 -7 -15 -21z"/>
<path d="M860 1160 c0 -13 70 -64 77 -56 3 3 2 6 -4 6 -6 0 -25 13 -42 29 -17
16 -31 25 -31 21z"/>
</g>
</svg>
