M48
; DRILL file {KiCad (5.1.2-1)-1} date Thursday, 16 May 2019 at 11:38:00
; FORMAT={3:3/ absolute / metric / suppress leading zeros}
; #@! TF.CreationDate,2019-05-16T11:38:00+08:00
; #@! TF.GenerationSoftware,Kicad,Pcbnew,(5.1.2-1)-1
FMAT,2
METRIC,TZ
T1C0.400
T2C1.000
T3C1.500
T4C1.700
T5C2.500
T6C2.540
%
G90
G05
T1
X22860Y-17145
X34290Y-20320
X34290Y-22860
X34290Y-33020
X36830Y-19050
X39370Y-25400
X40640Y-21590
X41825Y-21590
X41910Y-27940
X43180Y-22860
X43180Y-26670
X44450Y-29210
X44775Y-25250
X45720Y-30480
X45720Y-29210
X48260Y-29210
X48260Y-31750
X49530Y-24130
X50800Y-30480
X52070Y-26670
X52070Y-27940
X52070Y-22860
X54610Y-31750
X55880Y-20320
X55880Y-22860
X55880Y-27940
X55880Y-30480
X57150Y-21590
X57150Y-19050
X58420Y-33020
X60960Y-27940
T2
X19685Y-34925
X22225Y-34925
X24765Y-34925
X27305Y-34925
X29845Y-14605
X29845Y-34925
X32385Y-14605
X32385Y-34925
X34925Y-14605
X34925Y-34925
X37465Y-14605
X37465Y-34925
X40005Y-14605
X40005Y-34925
X42545Y-14605
X42545Y-34925
X45085Y-14605
X45085Y-34925
X47625Y-14605
X47625Y-34925
X50165Y-14605
X50165Y-34925
X52705Y-14605
X52705Y-34925
X55245Y-14605
X55245Y-34925
X57785Y-14605
X57785Y-34925
T3
X17780Y-24765
T4
X15240Y-22225
X15240Y-27305
X20320Y-22225
X20320Y-27305
T5
X15875Y-15875
X15875Y-33655
T6
X61595Y-15875
X61595Y-33655
T0
M30
