G04 #@! TF.GenerationSoftware,KiCad,Pcbnew,(5.1.2-1)-1*
G04 #@! TF.CreationDate,2019-05-16T11:37:58+08:00*
G04 #@! TF.ProjectId,huzzah-cc112x-shield,68757a7a-6168-42d6-9363-313132782d73,1*
G04 #@! TF.SameCoordinates,Original*
G04 #@! TF.FileFunction,Legend,Top*
G04 #@! TF.FilePolarity,Positive*
%FSLAX46Y46*%
G04 Gerber Fmt 4.6, Leading zero omitted, Abs format (unit mm)*
G04 Created by KiCad (PCBNEW (5.1.2-1)-1) date 2019-05-16 11:37:58*
%MOMM*%
%LPD*%
G04 APERTURE LIST*
%ADD10C,0.120000*%
%ADD11C,0.100000*%
%ADD12C,0.150000*%
G04 APERTURE END LIST*
D10*
X61660000Y-17780000D02*
G75*
G03X61660000Y-17780000I-700000J0D01*
G01*
X61660000Y-20320000D02*
G75*
G03X61660000Y-20320000I-700000J0D01*
G01*
X61660000Y-30480000D02*
G75*
G03X61660000Y-30480000I-700000J0D01*
G01*
X57720000Y-19320000D02*
X59120000Y-19320000D01*
X59820000Y-20020000D02*
X59820000Y-20620000D01*
X59120000Y-21320000D02*
X57720000Y-21320000D01*
X57020000Y-20620000D02*
X57020000Y-20020000D01*
X57020000Y-20020000D02*
G75*
G02X57720000Y-19320000I700000J0D01*
G01*
X57720000Y-21320000D02*
G75*
G02X57020000Y-20620000I0J700000D01*
G01*
X59820000Y-20620000D02*
G75*
G02X59120000Y-21320000I-700000J0D01*
G01*
X59120000Y-19320000D02*
G75*
G02X59820000Y-20020000I0J-700000D01*
G01*
X57720000Y-26940000D02*
X59120000Y-26940000D01*
X59820000Y-27640000D02*
X59820000Y-28240000D01*
X59120000Y-28940000D02*
X57720000Y-28940000D01*
X57020000Y-28240000D02*
X57020000Y-27640000D01*
X57020000Y-27640000D02*
G75*
G02X57720000Y-26940000I700000J0D01*
G01*
X57720000Y-28940000D02*
G75*
G02X57020000Y-28240000I0J700000D01*
G01*
X59820000Y-28240000D02*
G75*
G02X59120000Y-28940000I-700000J0D01*
G01*
X59120000Y-26940000D02*
G75*
G02X59820000Y-27640000I0J-700000D01*
G01*
X57720000Y-21860000D02*
X59120000Y-21860000D01*
X59820000Y-22560000D02*
X59820000Y-23160000D01*
X59120000Y-23860000D02*
X57720000Y-23860000D01*
X57020000Y-23160000D02*
X57020000Y-22560000D01*
X57020000Y-22560000D02*
G75*
G02X57720000Y-21860000I700000J0D01*
G01*
X57720000Y-23860000D02*
G75*
G02X57020000Y-23160000I0J700000D01*
G01*
X59820000Y-23160000D02*
G75*
G02X59120000Y-23860000I-700000J0D01*
G01*
X59120000Y-21860000D02*
G75*
G02X59820000Y-22560000I0J-700000D01*
G01*
X57720000Y-24400000D02*
X59120000Y-24400000D01*
X59820000Y-25100000D02*
X59820000Y-25700000D01*
X59120000Y-26400000D02*
X57720000Y-26400000D01*
X57020000Y-25700000D02*
X57020000Y-25100000D01*
X57020000Y-25100000D02*
G75*
G02X57720000Y-24400000I700000J0D01*
G01*
X57720000Y-26400000D02*
G75*
G02X57020000Y-25700000I0J700000D01*
G01*
X59820000Y-25700000D02*
G75*
G02X59120000Y-26400000I-700000J0D01*
G01*
X59120000Y-24400000D02*
G75*
G02X59820000Y-25100000I0J-700000D01*
G01*
X57720000Y-29480000D02*
X59120000Y-29480000D01*
X59820000Y-30180000D02*
X59820000Y-30780000D01*
X59120000Y-31480000D02*
X57720000Y-31480000D01*
X57020000Y-30780000D02*
X57020000Y-30180000D01*
X57020000Y-30180000D02*
G75*
G02X57720000Y-29480000I700000J0D01*
G01*
X57720000Y-31480000D02*
G75*
G02X57020000Y-30780000I0J700000D01*
G01*
X59820000Y-30780000D02*
G75*
G02X59120000Y-31480000I-700000J0D01*
G01*
X59120000Y-29480000D02*
G75*
G02X59820000Y-30180000I0J-700000D01*
G01*
X57720000Y-16780000D02*
X59120000Y-16780000D01*
X59820000Y-17480000D02*
X59820000Y-18080000D01*
X59120000Y-18780000D02*
X57720000Y-18780000D01*
X57020000Y-18080000D02*
X57020000Y-17480000D01*
X57020000Y-17480000D02*
G75*
G02X57720000Y-16780000I700000J0D01*
G01*
X57720000Y-18780000D02*
G75*
G02X57020000Y-18080000I0J700000D01*
G01*
X59820000Y-18080000D02*
G75*
G02X59120000Y-18780000I-700000J0D01*
G01*
X59120000Y-16780000D02*
G75*
G02X59820000Y-17480000I0J-700000D01*
G01*
D11*
X15875000Y-36195000D02*
G75*
G02X13335000Y-33655000I0J2540000D01*
G01*
X13335000Y-27051000D02*
X13335000Y-33655000D01*
X13843000Y-26543000D02*
X13335000Y-27051000D01*
X13843000Y-22987000D02*
X13843000Y-26543000D01*
X13335000Y-22479000D02*
X13843000Y-22987000D01*
X13335000Y-15875000D02*
X13335000Y-22479000D01*
X13335000Y-15875000D02*
G75*
G02X15875000Y-13335000I2540000J0D01*
G01*
X61595000Y-13335000D02*
X15875000Y-13335000D01*
X61595000Y-13335000D02*
G75*
G02X64135000Y-15875000I0J-2540000D01*
G01*
X64135000Y-33655000D02*
X64135000Y-15875000D01*
X64135000Y-33655000D02*
G75*
G02X61595000Y-36195000I-2540000J0D01*
G01*
X15875000Y-36195000D02*
X61595000Y-36195000D01*
D10*
X48250000Y-32250000D02*
X48250000Y-17190000D01*
X48250000Y-32250000D02*
X25200000Y-32250000D01*
X25200000Y-32250000D02*
X25200000Y-17190000D01*
X48250000Y-17190000D02*
X25200000Y-17190000D01*
X16330000Y-28120000D02*
X19230000Y-28120000D01*
X16330000Y-21410000D02*
X19230000Y-21410000D01*
X21135000Y-26215000D02*
X21135000Y-23315000D01*
X14425000Y-26215000D02*
X14425000Y-23315000D01*
D12*
X53538571Y-20677142D02*
X53490952Y-20724761D01*
X53348095Y-20772380D01*
X53252857Y-20772380D01*
X53110000Y-20724761D01*
X53014761Y-20629523D01*
X52967142Y-20534285D01*
X52919523Y-20343809D01*
X52919523Y-20200952D01*
X52967142Y-20010476D01*
X53014761Y-19915238D01*
X53110000Y-19820000D01*
X53252857Y-19772380D01*
X53348095Y-19772380D01*
X53490952Y-19820000D01*
X53538571Y-19867619D01*
X53919523Y-20724761D02*
X54062380Y-20772380D01*
X54300476Y-20772380D01*
X54395714Y-20724761D01*
X54443333Y-20677142D01*
X54490952Y-20581904D01*
X54490952Y-20486666D01*
X54443333Y-20391428D01*
X54395714Y-20343809D01*
X54300476Y-20296190D01*
X54110000Y-20248571D01*
X54014761Y-20200952D01*
X53967142Y-20153333D01*
X53919523Y-20058095D01*
X53919523Y-19962857D01*
X53967142Y-19867619D01*
X54014761Y-19820000D01*
X54110000Y-19772380D01*
X54348095Y-19772380D01*
X54490952Y-19820000D01*
X54681428Y-20867619D02*
X55443333Y-20867619D01*
X55681428Y-20772380D02*
X55681428Y-19772380D01*
X56252857Y-20772380D01*
X56252857Y-19772380D01*
X53038571Y-28392380D02*
X53038571Y-27392380D01*
X53371904Y-28106666D01*
X53705238Y-27392380D01*
X53705238Y-28392380D01*
X54181428Y-28392380D02*
X54181428Y-27392380D01*
X54610000Y-28344761D02*
X54752857Y-28392380D01*
X54990952Y-28392380D01*
X55086190Y-28344761D01*
X55133809Y-28297142D01*
X55181428Y-28201904D01*
X55181428Y-28106666D01*
X55133809Y-28011428D01*
X55086190Y-27963809D01*
X54990952Y-27916190D01*
X54800476Y-27868571D01*
X54705238Y-27820952D01*
X54657619Y-27773333D01*
X54610000Y-27678095D01*
X54610000Y-27582857D01*
X54657619Y-27487619D01*
X54705238Y-27440000D01*
X54800476Y-27392380D01*
X55038571Y-27392380D01*
X55181428Y-27440000D01*
X55800476Y-27392380D02*
X55990952Y-27392380D01*
X56086190Y-27440000D01*
X56181428Y-27535238D01*
X56229047Y-27725714D01*
X56229047Y-28059047D01*
X56181428Y-28249523D01*
X56086190Y-28344761D01*
X55990952Y-28392380D01*
X55800476Y-28392380D01*
X55705238Y-28344761D01*
X55610000Y-28249523D01*
X55562380Y-28059047D01*
X55562380Y-27725714D01*
X55610000Y-27535238D01*
X55705238Y-27440000D01*
X55800476Y-27392380D01*
X53324285Y-23264761D02*
X53467142Y-23312380D01*
X53705238Y-23312380D01*
X53800476Y-23264761D01*
X53848095Y-23217142D01*
X53895714Y-23121904D01*
X53895714Y-23026666D01*
X53848095Y-22931428D01*
X53800476Y-22883809D01*
X53705238Y-22836190D01*
X53514761Y-22788571D01*
X53419523Y-22740952D01*
X53371904Y-22693333D01*
X53324285Y-22598095D01*
X53324285Y-22502857D01*
X53371904Y-22407619D01*
X53419523Y-22360000D01*
X53514761Y-22312380D01*
X53752857Y-22312380D01*
X53895714Y-22360000D01*
X54895714Y-23217142D02*
X54848095Y-23264761D01*
X54705238Y-23312380D01*
X54610000Y-23312380D01*
X54467142Y-23264761D01*
X54371904Y-23169523D01*
X54324285Y-23074285D01*
X54276666Y-22883809D01*
X54276666Y-22740952D01*
X54324285Y-22550476D01*
X54371904Y-22455238D01*
X54467142Y-22360000D01*
X54610000Y-22312380D01*
X54705238Y-22312380D01*
X54848095Y-22360000D01*
X54895714Y-22407619D01*
X55324285Y-23312380D02*
X55324285Y-22312380D01*
X55895714Y-23312380D02*
X55467142Y-22740952D01*
X55895714Y-22312380D02*
X55324285Y-22883809D01*
X53038571Y-25852380D02*
X53038571Y-24852380D01*
X53371904Y-25566666D01*
X53705238Y-24852380D01*
X53705238Y-25852380D01*
X54371904Y-24852380D02*
X54562380Y-24852380D01*
X54657619Y-24900000D01*
X54752857Y-24995238D01*
X54800476Y-25185714D01*
X54800476Y-25519047D01*
X54752857Y-25709523D01*
X54657619Y-25804761D01*
X54562380Y-25852380D01*
X54371904Y-25852380D01*
X54276666Y-25804761D01*
X54181428Y-25709523D01*
X54133809Y-25519047D01*
X54133809Y-25185714D01*
X54181428Y-24995238D01*
X54276666Y-24900000D01*
X54371904Y-24852380D01*
X55181428Y-25804761D02*
X55324285Y-25852380D01*
X55562380Y-25852380D01*
X55657619Y-25804761D01*
X55705238Y-25757142D01*
X55752857Y-25661904D01*
X55752857Y-25566666D01*
X55705238Y-25471428D01*
X55657619Y-25423809D01*
X55562380Y-25376190D01*
X55371904Y-25328571D01*
X55276666Y-25280952D01*
X55229047Y-25233333D01*
X55181428Y-25138095D01*
X55181428Y-25042857D01*
X55229047Y-24947619D01*
X55276666Y-24900000D01*
X55371904Y-24852380D01*
X55610000Y-24852380D01*
X55752857Y-24900000D01*
X56181428Y-25852380D02*
X56181428Y-24852380D01*
X53705238Y-30932380D02*
X53705238Y-29932380D01*
X54181428Y-30932380D02*
X54181428Y-29932380D01*
X54752857Y-30932380D01*
X54752857Y-29932380D01*
X55086190Y-29932380D02*
X55657619Y-29932380D01*
X55371904Y-30932380D02*
X55371904Y-29932380D01*
X53157619Y-18232380D02*
X52824285Y-17756190D01*
X52586190Y-18232380D02*
X52586190Y-17232380D01*
X52967142Y-17232380D01*
X53062380Y-17280000D01*
X53110000Y-17327619D01*
X53157619Y-17422857D01*
X53157619Y-17565714D01*
X53110000Y-17660952D01*
X53062380Y-17708571D01*
X52967142Y-17756190D01*
X52586190Y-17756190D01*
X53538571Y-18184761D02*
X53681428Y-18232380D01*
X53919523Y-18232380D01*
X54014761Y-18184761D01*
X54062380Y-18137142D01*
X54110000Y-18041904D01*
X54110000Y-17946666D01*
X54062380Y-17851428D01*
X54014761Y-17803809D01*
X53919523Y-17756190D01*
X53729047Y-17708571D01*
X53633809Y-17660952D01*
X53586190Y-17613333D01*
X53538571Y-17518095D01*
X53538571Y-17422857D01*
X53586190Y-17327619D01*
X53633809Y-17280000D01*
X53729047Y-17232380D01*
X53967142Y-17232380D01*
X54110000Y-17280000D01*
X54395714Y-17232380D02*
X54967142Y-17232380D01*
X54681428Y-18232380D02*
X54681428Y-17232380D01*
X55062380Y-18327619D02*
X55824285Y-18327619D01*
X56062380Y-18232380D02*
X56062380Y-17232380D01*
X56633809Y-18232380D01*
X56633809Y-17232380D01*
M02*
