M48
; DRILL file {KiCad (5.1.2-1)-1} date Thursday, 16 May 2019 at 11:09:28
; FORMAT={3:3/ absolute / metric / suppress leading zeros}
; #@! TF.CreationDate,2019-05-16T11:09:28+08:00
; #@! TF.GenerationSoftware,Kicad,Pcbnew,(5.1.2-1)-1
FMAT,2
METRIC,TZ
T1C0.400
T2C1.000
T3C2.500
T4C2.540
%
G90
G05
T1
X20320Y-17145
X20320Y-30480
X24765Y-17145
X26035Y-22860
X29210Y-17145
X33655Y-25400
X34925Y-25400
X34925Y-26670
X34925Y-27940
X34925Y-29210
X36195Y-25400
X38735Y-25400
X38735Y-26670
X38735Y-27940
X38735Y-29210
X40005Y-22225
X40005Y-26670
X40005Y-32385
X40640Y-27940
X41275Y-26670
X41910Y-32385
X42545Y-25400
X42545Y-26670
X42545Y-27940
X42545Y-29210
X43815Y-32385
X44640Y-20765
X45085Y-28575
X46140Y-22645
X48260Y-23495
X49530Y-19050
X50165Y-29210
X50640Y-20795
X50800Y-25400
X53975Y-25400
X57150Y-25400
X60960Y-20320
X60960Y-22225
X60960Y-24765
X60960Y-27305
X60960Y-29845
T2
X19685Y-34925
X22225Y-34925
X24765Y-34925
X27305Y-34925
X29845Y-14605
X29845Y-34925
X32385Y-14605
X32385Y-34925
X34925Y-14605
X34925Y-34925
X37465Y-14605
X37465Y-34925
X40005Y-14605
X40005Y-34925
X42545Y-14605
X42545Y-34925
X45085Y-14605
X45085Y-34925
X47625Y-14605
X47625Y-34925
X50165Y-14605
X50165Y-34925
X52705Y-14605
X52705Y-34925
X55245Y-14605
X55245Y-34925
X57785Y-14605
X57785Y-34925
T3
X15875Y-15875
X15875Y-33655
T4
X61595Y-15875
X61595Y-33655
T0
M30
