G04 #@! TF.GenerationSoftware,KiCad,Pcbnew,(5.1.2-1)-1*
G04 #@! TF.CreationDate,2019-05-16T11:09:26+08:00*
G04 #@! TF.ProjectId,huzzah-cc112x-shield,68757a7a-6168-42d6-9363-313132782d73,1*
G04 #@! TF.SameCoordinates,Original*
G04 #@! TF.FileFunction,Soldermask,Bot*
G04 #@! TF.FilePolarity,Negative*
%FSLAX46Y46*%
G04 Gerber Fmt 4.6, Leading zero omitted, Abs format (unit mm)*
G04 Created by KiCad (PCBNEW (5.1.2-1)-1) date 2019-05-16 11:09:26*
%MOMM*%
%LPD*%
G04 APERTURE LIST*
%ADD10C,0.100000*%
G04 APERTURE END LIST*
D10*
G36*
X58059187Y-34021123D02*
G01*
X58230255Y-34091982D01*
X58230257Y-34091983D01*
X58307758Y-34143768D01*
X58384214Y-34194854D01*
X58515146Y-34325786D01*
X58618018Y-34479745D01*
X58688877Y-34650813D01*
X58725000Y-34832417D01*
X58725000Y-35017583D01*
X58688877Y-35199187D01*
X58618018Y-35370255D01*
X58618017Y-35370257D01*
X58515145Y-35524215D01*
X58384215Y-35655145D01*
X58230257Y-35758017D01*
X58230256Y-35758018D01*
X58230255Y-35758018D01*
X58059187Y-35828877D01*
X57877583Y-35865000D01*
X57692417Y-35865000D01*
X57510813Y-35828877D01*
X57339745Y-35758018D01*
X57339744Y-35758018D01*
X57339743Y-35758017D01*
X57185785Y-35655145D01*
X57054855Y-35524215D01*
X56951983Y-35370257D01*
X56951982Y-35370255D01*
X56881123Y-35199187D01*
X56845000Y-35017583D01*
X56845000Y-34832417D01*
X56881123Y-34650813D01*
X56951982Y-34479745D01*
X57054854Y-34325786D01*
X57185786Y-34194854D01*
X57262242Y-34143768D01*
X57339743Y-34091983D01*
X57339745Y-34091982D01*
X57510813Y-34021123D01*
X57692417Y-33985000D01*
X57877583Y-33985000D01*
X58059187Y-34021123D01*
X58059187Y-34021123D01*
G37*
G36*
X55519187Y-34021123D02*
G01*
X55690255Y-34091982D01*
X55690257Y-34091983D01*
X55767758Y-34143768D01*
X55844214Y-34194854D01*
X55975146Y-34325786D01*
X56078018Y-34479745D01*
X56148877Y-34650813D01*
X56185000Y-34832417D01*
X56185000Y-35017583D01*
X56148877Y-35199187D01*
X56078018Y-35370255D01*
X56078017Y-35370257D01*
X55975145Y-35524215D01*
X55844215Y-35655145D01*
X55690257Y-35758017D01*
X55690256Y-35758018D01*
X55690255Y-35758018D01*
X55519187Y-35828877D01*
X55337583Y-35865000D01*
X55152417Y-35865000D01*
X54970813Y-35828877D01*
X54799745Y-35758018D01*
X54799744Y-35758018D01*
X54799743Y-35758017D01*
X54645785Y-35655145D01*
X54514855Y-35524215D01*
X54411983Y-35370257D01*
X54411982Y-35370255D01*
X54341123Y-35199187D01*
X54305000Y-35017583D01*
X54305000Y-34832417D01*
X54341123Y-34650813D01*
X54411982Y-34479745D01*
X54514854Y-34325786D01*
X54645786Y-34194854D01*
X54722242Y-34143768D01*
X54799743Y-34091983D01*
X54799745Y-34091982D01*
X54970813Y-34021123D01*
X55152417Y-33985000D01*
X55337583Y-33985000D01*
X55519187Y-34021123D01*
X55519187Y-34021123D01*
G37*
G36*
X52979187Y-34021123D02*
G01*
X53150255Y-34091982D01*
X53150257Y-34091983D01*
X53227758Y-34143768D01*
X53304214Y-34194854D01*
X53435146Y-34325786D01*
X53538018Y-34479745D01*
X53608877Y-34650813D01*
X53645000Y-34832417D01*
X53645000Y-35017583D01*
X53608877Y-35199187D01*
X53538018Y-35370255D01*
X53538017Y-35370257D01*
X53435145Y-35524215D01*
X53304215Y-35655145D01*
X53150257Y-35758017D01*
X53150256Y-35758018D01*
X53150255Y-35758018D01*
X52979187Y-35828877D01*
X52797583Y-35865000D01*
X52612417Y-35865000D01*
X52430813Y-35828877D01*
X52259745Y-35758018D01*
X52259744Y-35758018D01*
X52259743Y-35758017D01*
X52105785Y-35655145D01*
X51974855Y-35524215D01*
X51871983Y-35370257D01*
X51871982Y-35370255D01*
X51801123Y-35199187D01*
X51765000Y-35017583D01*
X51765000Y-34832417D01*
X51801123Y-34650813D01*
X51871982Y-34479745D01*
X51974854Y-34325786D01*
X52105786Y-34194854D01*
X52182242Y-34143768D01*
X52259743Y-34091983D01*
X52259745Y-34091982D01*
X52430813Y-34021123D01*
X52612417Y-33985000D01*
X52797583Y-33985000D01*
X52979187Y-34021123D01*
X52979187Y-34021123D01*
G37*
G36*
X50439187Y-34021123D02*
G01*
X50610255Y-34091982D01*
X50610257Y-34091983D01*
X50687758Y-34143768D01*
X50764214Y-34194854D01*
X50895146Y-34325786D01*
X50998018Y-34479745D01*
X51068877Y-34650813D01*
X51105000Y-34832417D01*
X51105000Y-35017583D01*
X51068877Y-35199187D01*
X50998018Y-35370255D01*
X50998017Y-35370257D01*
X50895145Y-35524215D01*
X50764215Y-35655145D01*
X50610257Y-35758017D01*
X50610256Y-35758018D01*
X50610255Y-35758018D01*
X50439187Y-35828877D01*
X50257583Y-35865000D01*
X50072417Y-35865000D01*
X49890813Y-35828877D01*
X49719745Y-35758018D01*
X49719744Y-35758018D01*
X49719743Y-35758017D01*
X49565785Y-35655145D01*
X49434855Y-35524215D01*
X49331983Y-35370257D01*
X49331982Y-35370255D01*
X49261123Y-35199187D01*
X49225000Y-35017583D01*
X49225000Y-34832417D01*
X49261123Y-34650813D01*
X49331982Y-34479745D01*
X49434854Y-34325786D01*
X49565786Y-34194854D01*
X49642242Y-34143768D01*
X49719743Y-34091983D01*
X49719745Y-34091982D01*
X49890813Y-34021123D01*
X50072417Y-33985000D01*
X50257583Y-33985000D01*
X50439187Y-34021123D01*
X50439187Y-34021123D01*
G37*
G36*
X47899187Y-34021123D02*
G01*
X48070255Y-34091982D01*
X48070257Y-34091983D01*
X48147758Y-34143768D01*
X48224214Y-34194854D01*
X48355146Y-34325786D01*
X48458018Y-34479745D01*
X48528877Y-34650813D01*
X48565000Y-34832417D01*
X48565000Y-35017583D01*
X48528877Y-35199187D01*
X48458018Y-35370255D01*
X48458017Y-35370257D01*
X48355145Y-35524215D01*
X48224215Y-35655145D01*
X48070257Y-35758017D01*
X48070256Y-35758018D01*
X48070255Y-35758018D01*
X47899187Y-35828877D01*
X47717583Y-35865000D01*
X47532417Y-35865000D01*
X47350813Y-35828877D01*
X47179745Y-35758018D01*
X47179744Y-35758018D01*
X47179743Y-35758017D01*
X47025785Y-35655145D01*
X46894855Y-35524215D01*
X46791983Y-35370257D01*
X46791982Y-35370255D01*
X46721123Y-35199187D01*
X46685000Y-35017583D01*
X46685000Y-34832417D01*
X46721123Y-34650813D01*
X46791982Y-34479745D01*
X46894854Y-34325786D01*
X47025786Y-34194854D01*
X47102242Y-34143768D01*
X47179743Y-34091983D01*
X47179745Y-34091982D01*
X47350813Y-34021123D01*
X47532417Y-33985000D01*
X47717583Y-33985000D01*
X47899187Y-34021123D01*
X47899187Y-34021123D01*
G37*
G36*
X45359187Y-34021123D02*
G01*
X45530255Y-34091982D01*
X45530257Y-34091983D01*
X45607758Y-34143768D01*
X45684214Y-34194854D01*
X45815146Y-34325786D01*
X45918018Y-34479745D01*
X45988877Y-34650813D01*
X46025000Y-34832417D01*
X46025000Y-35017583D01*
X45988877Y-35199187D01*
X45918018Y-35370255D01*
X45918017Y-35370257D01*
X45815145Y-35524215D01*
X45684215Y-35655145D01*
X45530257Y-35758017D01*
X45530256Y-35758018D01*
X45530255Y-35758018D01*
X45359187Y-35828877D01*
X45177583Y-35865000D01*
X44992417Y-35865000D01*
X44810813Y-35828877D01*
X44639745Y-35758018D01*
X44639744Y-35758018D01*
X44639743Y-35758017D01*
X44485785Y-35655145D01*
X44354855Y-35524215D01*
X44251983Y-35370257D01*
X44251982Y-35370255D01*
X44181123Y-35199187D01*
X44145000Y-35017583D01*
X44145000Y-34832417D01*
X44181123Y-34650813D01*
X44251982Y-34479745D01*
X44354854Y-34325786D01*
X44485786Y-34194854D01*
X44562242Y-34143768D01*
X44639743Y-34091983D01*
X44639745Y-34091982D01*
X44810813Y-34021123D01*
X44992417Y-33985000D01*
X45177583Y-33985000D01*
X45359187Y-34021123D01*
X45359187Y-34021123D01*
G37*
G36*
X42819187Y-34021123D02*
G01*
X42990255Y-34091982D01*
X42990257Y-34091983D01*
X43067758Y-34143768D01*
X43144214Y-34194854D01*
X43275146Y-34325786D01*
X43378018Y-34479745D01*
X43448877Y-34650813D01*
X43485000Y-34832417D01*
X43485000Y-35017583D01*
X43448877Y-35199187D01*
X43378018Y-35370255D01*
X43378017Y-35370257D01*
X43275145Y-35524215D01*
X43144215Y-35655145D01*
X42990257Y-35758017D01*
X42990256Y-35758018D01*
X42990255Y-35758018D01*
X42819187Y-35828877D01*
X42637583Y-35865000D01*
X42452417Y-35865000D01*
X42270813Y-35828877D01*
X42099745Y-35758018D01*
X42099744Y-35758018D01*
X42099743Y-35758017D01*
X41945785Y-35655145D01*
X41814855Y-35524215D01*
X41711983Y-35370257D01*
X41711982Y-35370255D01*
X41641123Y-35199187D01*
X41605000Y-35017583D01*
X41605000Y-34832417D01*
X41641123Y-34650813D01*
X41711982Y-34479745D01*
X41814854Y-34325786D01*
X41945786Y-34194854D01*
X42022242Y-34143768D01*
X42099743Y-34091983D01*
X42099745Y-34091982D01*
X42270813Y-34021123D01*
X42452417Y-33985000D01*
X42637583Y-33985000D01*
X42819187Y-34021123D01*
X42819187Y-34021123D01*
G37*
G36*
X40279187Y-34021123D02*
G01*
X40450255Y-34091982D01*
X40450257Y-34091983D01*
X40527758Y-34143768D01*
X40604214Y-34194854D01*
X40735146Y-34325786D01*
X40838018Y-34479745D01*
X40908877Y-34650813D01*
X40945000Y-34832417D01*
X40945000Y-35017583D01*
X40908877Y-35199187D01*
X40838018Y-35370255D01*
X40838017Y-35370257D01*
X40735145Y-35524215D01*
X40604215Y-35655145D01*
X40450257Y-35758017D01*
X40450256Y-35758018D01*
X40450255Y-35758018D01*
X40279187Y-35828877D01*
X40097583Y-35865000D01*
X39912417Y-35865000D01*
X39730813Y-35828877D01*
X39559745Y-35758018D01*
X39559744Y-35758018D01*
X39559743Y-35758017D01*
X39405785Y-35655145D01*
X39274855Y-35524215D01*
X39171983Y-35370257D01*
X39171982Y-35370255D01*
X39101123Y-35199187D01*
X39065000Y-35017583D01*
X39065000Y-34832417D01*
X39101123Y-34650813D01*
X39171982Y-34479745D01*
X39274854Y-34325786D01*
X39405786Y-34194854D01*
X39482242Y-34143768D01*
X39559743Y-34091983D01*
X39559745Y-34091982D01*
X39730813Y-34021123D01*
X39912417Y-33985000D01*
X40097583Y-33985000D01*
X40279187Y-34021123D01*
X40279187Y-34021123D01*
G37*
G36*
X37739187Y-34021123D02*
G01*
X37910255Y-34091982D01*
X37910257Y-34091983D01*
X37987758Y-34143768D01*
X38064214Y-34194854D01*
X38195146Y-34325786D01*
X38298018Y-34479745D01*
X38368877Y-34650813D01*
X38405000Y-34832417D01*
X38405000Y-35017583D01*
X38368877Y-35199187D01*
X38298018Y-35370255D01*
X38298017Y-35370257D01*
X38195145Y-35524215D01*
X38064215Y-35655145D01*
X37910257Y-35758017D01*
X37910256Y-35758018D01*
X37910255Y-35758018D01*
X37739187Y-35828877D01*
X37557583Y-35865000D01*
X37372417Y-35865000D01*
X37190813Y-35828877D01*
X37019745Y-35758018D01*
X37019744Y-35758018D01*
X37019743Y-35758017D01*
X36865785Y-35655145D01*
X36734855Y-35524215D01*
X36631983Y-35370257D01*
X36631982Y-35370255D01*
X36561123Y-35199187D01*
X36525000Y-35017583D01*
X36525000Y-34832417D01*
X36561123Y-34650813D01*
X36631982Y-34479745D01*
X36734854Y-34325786D01*
X36865786Y-34194854D01*
X36942242Y-34143768D01*
X37019743Y-34091983D01*
X37019745Y-34091982D01*
X37190813Y-34021123D01*
X37372417Y-33985000D01*
X37557583Y-33985000D01*
X37739187Y-34021123D01*
X37739187Y-34021123D01*
G37*
G36*
X35199187Y-34021123D02*
G01*
X35370255Y-34091982D01*
X35370257Y-34091983D01*
X35447758Y-34143768D01*
X35524214Y-34194854D01*
X35655146Y-34325786D01*
X35758018Y-34479745D01*
X35828877Y-34650813D01*
X35865000Y-34832417D01*
X35865000Y-35017583D01*
X35828877Y-35199187D01*
X35758018Y-35370255D01*
X35758017Y-35370257D01*
X35655145Y-35524215D01*
X35524215Y-35655145D01*
X35370257Y-35758017D01*
X35370256Y-35758018D01*
X35370255Y-35758018D01*
X35199187Y-35828877D01*
X35017583Y-35865000D01*
X34832417Y-35865000D01*
X34650813Y-35828877D01*
X34479745Y-35758018D01*
X34479744Y-35758018D01*
X34479743Y-35758017D01*
X34325785Y-35655145D01*
X34194855Y-35524215D01*
X34091983Y-35370257D01*
X34091982Y-35370255D01*
X34021123Y-35199187D01*
X33985000Y-35017583D01*
X33985000Y-34832417D01*
X34021123Y-34650813D01*
X34091982Y-34479745D01*
X34194854Y-34325786D01*
X34325786Y-34194854D01*
X34402242Y-34143768D01*
X34479743Y-34091983D01*
X34479745Y-34091982D01*
X34650813Y-34021123D01*
X34832417Y-33985000D01*
X35017583Y-33985000D01*
X35199187Y-34021123D01*
X35199187Y-34021123D01*
G37*
G36*
X32659187Y-34021123D02*
G01*
X32830255Y-34091982D01*
X32830257Y-34091983D01*
X32907758Y-34143768D01*
X32984214Y-34194854D01*
X33115146Y-34325786D01*
X33218018Y-34479745D01*
X33288877Y-34650813D01*
X33325000Y-34832417D01*
X33325000Y-35017583D01*
X33288877Y-35199187D01*
X33218018Y-35370255D01*
X33218017Y-35370257D01*
X33115145Y-35524215D01*
X32984215Y-35655145D01*
X32830257Y-35758017D01*
X32830256Y-35758018D01*
X32830255Y-35758018D01*
X32659187Y-35828877D01*
X32477583Y-35865000D01*
X32292417Y-35865000D01*
X32110813Y-35828877D01*
X31939745Y-35758018D01*
X31939744Y-35758018D01*
X31939743Y-35758017D01*
X31785785Y-35655145D01*
X31654855Y-35524215D01*
X31551983Y-35370257D01*
X31551982Y-35370255D01*
X31481123Y-35199187D01*
X31445000Y-35017583D01*
X31445000Y-34832417D01*
X31481123Y-34650813D01*
X31551982Y-34479745D01*
X31654854Y-34325786D01*
X31785786Y-34194854D01*
X31862242Y-34143768D01*
X31939743Y-34091983D01*
X31939745Y-34091982D01*
X32110813Y-34021123D01*
X32292417Y-33985000D01*
X32477583Y-33985000D01*
X32659187Y-34021123D01*
X32659187Y-34021123D01*
G37*
G36*
X30119187Y-34021123D02*
G01*
X30290255Y-34091982D01*
X30290257Y-34091983D01*
X30367758Y-34143768D01*
X30444214Y-34194854D01*
X30575146Y-34325786D01*
X30678018Y-34479745D01*
X30748877Y-34650813D01*
X30785000Y-34832417D01*
X30785000Y-35017583D01*
X30748877Y-35199187D01*
X30678018Y-35370255D01*
X30678017Y-35370257D01*
X30575145Y-35524215D01*
X30444215Y-35655145D01*
X30290257Y-35758017D01*
X30290256Y-35758018D01*
X30290255Y-35758018D01*
X30119187Y-35828877D01*
X29937583Y-35865000D01*
X29752417Y-35865000D01*
X29570813Y-35828877D01*
X29399745Y-35758018D01*
X29399744Y-35758018D01*
X29399743Y-35758017D01*
X29245785Y-35655145D01*
X29114855Y-35524215D01*
X29011983Y-35370257D01*
X29011982Y-35370255D01*
X28941123Y-35199187D01*
X28905000Y-35017583D01*
X28905000Y-34832417D01*
X28941123Y-34650813D01*
X29011982Y-34479745D01*
X29114854Y-34325786D01*
X29245786Y-34194854D01*
X29322242Y-34143768D01*
X29399743Y-34091983D01*
X29399745Y-34091982D01*
X29570813Y-34021123D01*
X29752417Y-33985000D01*
X29937583Y-33985000D01*
X30119187Y-34021123D01*
X30119187Y-34021123D01*
G37*
G36*
X27579187Y-34021123D02*
G01*
X27750255Y-34091982D01*
X27750257Y-34091983D01*
X27827758Y-34143768D01*
X27904214Y-34194854D01*
X28035146Y-34325786D01*
X28138018Y-34479745D01*
X28208877Y-34650813D01*
X28245000Y-34832417D01*
X28245000Y-35017583D01*
X28208877Y-35199187D01*
X28138018Y-35370255D01*
X28138017Y-35370257D01*
X28035145Y-35524215D01*
X27904215Y-35655145D01*
X27750257Y-35758017D01*
X27750256Y-35758018D01*
X27750255Y-35758018D01*
X27579187Y-35828877D01*
X27397583Y-35865000D01*
X27212417Y-35865000D01*
X27030813Y-35828877D01*
X26859745Y-35758018D01*
X26859744Y-35758018D01*
X26859743Y-35758017D01*
X26705785Y-35655145D01*
X26574855Y-35524215D01*
X26471983Y-35370257D01*
X26471982Y-35370255D01*
X26401123Y-35199187D01*
X26365000Y-35017583D01*
X26365000Y-34832417D01*
X26401123Y-34650813D01*
X26471982Y-34479745D01*
X26574854Y-34325786D01*
X26705786Y-34194854D01*
X26782242Y-34143768D01*
X26859743Y-34091983D01*
X26859745Y-34091982D01*
X27030813Y-34021123D01*
X27212417Y-33985000D01*
X27397583Y-33985000D01*
X27579187Y-34021123D01*
X27579187Y-34021123D01*
G37*
G36*
X25039187Y-34021123D02*
G01*
X25210255Y-34091982D01*
X25210257Y-34091983D01*
X25287758Y-34143768D01*
X25364214Y-34194854D01*
X25495146Y-34325786D01*
X25598018Y-34479745D01*
X25668877Y-34650813D01*
X25705000Y-34832417D01*
X25705000Y-35017583D01*
X25668877Y-35199187D01*
X25598018Y-35370255D01*
X25598017Y-35370257D01*
X25495145Y-35524215D01*
X25364215Y-35655145D01*
X25210257Y-35758017D01*
X25210256Y-35758018D01*
X25210255Y-35758018D01*
X25039187Y-35828877D01*
X24857583Y-35865000D01*
X24672417Y-35865000D01*
X24490813Y-35828877D01*
X24319745Y-35758018D01*
X24319744Y-35758018D01*
X24319743Y-35758017D01*
X24165785Y-35655145D01*
X24034855Y-35524215D01*
X23931983Y-35370257D01*
X23931982Y-35370255D01*
X23861123Y-35199187D01*
X23825000Y-35017583D01*
X23825000Y-34832417D01*
X23861123Y-34650813D01*
X23931982Y-34479745D01*
X24034854Y-34325786D01*
X24165786Y-34194854D01*
X24242242Y-34143768D01*
X24319743Y-34091983D01*
X24319745Y-34091982D01*
X24490813Y-34021123D01*
X24672417Y-33985000D01*
X24857583Y-33985000D01*
X25039187Y-34021123D01*
X25039187Y-34021123D01*
G37*
G36*
X22499187Y-34021123D02*
G01*
X22670255Y-34091982D01*
X22670257Y-34091983D01*
X22747758Y-34143768D01*
X22824214Y-34194854D01*
X22955146Y-34325786D01*
X23058018Y-34479745D01*
X23128877Y-34650813D01*
X23165000Y-34832417D01*
X23165000Y-35017583D01*
X23128877Y-35199187D01*
X23058018Y-35370255D01*
X23058017Y-35370257D01*
X22955145Y-35524215D01*
X22824215Y-35655145D01*
X22670257Y-35758017D01*
X22670256Y-35758018D01*
X22670255Y-35758018D01*
X22499187Y-35828877D01*
X22317583Y-35865000D01*
X22132417Y-35865000D01*
X21950813Y-35828877D01*
X21779745Y-35758018D01*
X21779744Y-35758018D01*
X21779743Y-35758017D01*
X21625785Y-35655145D01*
X21494855Y-35524215D01*
X21391983Y-35370257D01*
X21391982Y-35370255D01*
X21321123Y-35199187D01*
X21285000Y-35017583D01*
X21285000Y-34832417D01*
X21321123Y-34650813D01*
X21391982Y-34479745D01*
X21494854Y-34325786D01*
X21625786Y-34194854D01*
X21702242Y-34143768D01*
X21779743Y-34091983D01*
X21779745Y-34091982D01*
X21950813Y-34021123D01*
X22132417Y-33985000D01*
X22317583Y-33985000D01*
X22499187Y-34021123D01*
X22499187Y-34021123D01*
G37*
G36*
X19959187Y-34021123D02*
G01*
X20130255Y-34091982D01*
X20130257Y-34091983D01*
X20207758Y-34143768D01*
X20284214Y-34194854D01*
X20415146Y-34325786D01*
X20518018Y-34479745D01*
X20588877Y-34650813D01*
X20625000Y-34832417D01*
X20625000Y-35017583D01*
X20588877Y-35199187D01*
X20518018Y-35370255D01*
X20518017Y-35370257D01*
X20415145Y-35524215D01*
X20284215Y-35655145D01*
X20130257Y-35758017D01*
X20130256Y-35758018D01*
X20130255Y-35758018D01*
X19959187Y-35828877D01*
X19777583Y-35865000D01*
X19592417Y-35865000D01*
X19410813Y-35828877D01*
X19239745Y-35758018D01*
X19239744Y-35758018D01*
X19239743Y-35758017D01*
X19085785Y-35655145D01*
X18954855Y-35524215D01*
X18851983Y-35370257D01*
X18851982Y-35370255D01*
X18781123Y-35199187D01*
X18745000Y-35017583D01*
X18745000Y-34832417D01*
X18781123Y-34650813D01*
X18851982Y-34479745D01*
X18954854Y-34325786D01*
X19085786Y-34194854D01*
X19162242Y-34143768D01*
X19239743Y-34091983D01*
X19239745Y-34091982D01*
X19410813Y-34021123D01*
X19592417Y-33985000D01*
X19777583Y-33985000D01*
X19959187Y-34021123D01*
X19959187Y-34021123D01*
G37*
G36*
X16319579Y-31749112D02*
G01*
X16445544Y-31774168D01*
X16592991Y-31835243D01*
X16801512Y-31921615D01*
X16801513Y-31921616D01*
X17121877Y-32135676D01*
X17394324Y-32408123D01*
X17537355Y-32622184D01*
X17608385Y-32728488D01*
X17694757Y-32937009D01*
X17755832Y-33084456D01*
X17831000Y-33462351D01*
X17831000Y-33847649D01*
X17755832Y-34225544D01*
X17714310Y-34325786D01*
X17608385Y-34581512D01*
X17608384Y-34581513D01*
X17394324Y-34901877D01*
X17121877Y-35174324D01*
X17084665Y-35199188D01*
X16801512Y-35388385D01*
X16592991Y-35474757D01*
X16445544Y-35535832D01*
X16319579Y-35560888D01*
X16067651Y-35611000D01*
X15682349Y-35611000D01*
X15430421Y-35560888D01*
X15304456Y-35535832D01*
X15157009Y-35474757D01*
X14948488Y-35388385D01*
X14665335Y-35199188D01*
X14628123Y-35174324D01*
X14355676Y-34901877D01*
X14141616Y-34581513D01*
X14141615Y-34581512D01*
X14035690Y-34325786D01*
X13994168Y-34225544D01*
X13919000Y-33847649D01*
X13919000Y-33462351D01*
X13994168Y-33084456D01*
X14055243Y-32937009D01*
X14141615Y-32728488D01*
X14212645Y-32622184D01*
X14355676Y-32408123D01*
X14628123Y-32135676D01*
X14948487Y-31921616D01*
X14948488Y-31921615D01*
X15157009Y-31835243D01*
X15304456Y-31774168D01*
X15430421Y-31749112D01*
X15682349Y-31699000D01*
X16067651Y-31699000D01*
X16319579Y-31749112D01*
X16319579Y-31749112D01*
G37*
G36*
X18466000Y-29816000D02*
G01*
X13284000Y-29816000D01*
X13284000Y-28214000D01*
X18466000Y-28214000D01*
X18466000Y-29816000D01*
X18466000Y-29816000D01*
G37*
G36*
X18466000Y-21316000D02*
G01*
X13284000Y-21316000D01*
X13284000Y-19714000D01*
X18466000Y-19714000D01*
X18466000Y-21316000D01*
X18466000Y-21316000D01*
G37*
G36*
X16319579Y-13969112D02*
G01*
X16445544Y-13994168D01*
X16592991Y-14055243D01*
X16801512Y-14141615D01*
X16801513Y-14141616D01*
X17121877Y-14355676D01*
X17394324Y-14628123D01*
X17537355Y-14842184D01*
X17608385Y-14948488D01*
X17650538Y-15050255D01*
X17755832Y-15304456D01*
X17780888Y-15430421D01*
X17831000Y-15682349D01*
X17831000Y-16067651D01*
X17755832Y-16445543D01*
X17608385Y-16801512D01*
X17608384Y-16801513D01*
X17394324Y-17121877D01*
X17121877Y-17394324D01*
X16907816Y-17537355D01*
X16801512Y-17608385D01*
X16592991Y-17694757D01*
X16445544Y-17755832D01*
X16319579Y-17780888D01*
X16067651Y-17831000D01*
X15682349Y-17831000D01*
X15430421Y-17780888D01*
X15304456Y-17755832D01*
X15157009Y-17694757D01*
X14948488Y-17608385D01*
X14842184Y-17537355D01*
X14628123Y-17394324D01*
X14355676Y-17121877D01*
X14141616Y-16801513D01*
X14141615Y-16801512D01*
X13994168Y-16445543D01*
X13919000Y-16067651D01*
X13919000Y-15682349D01*
X13969112Y-15430421D01*
X13994168Y-15304456D01*
X14099462Y-15050255D01*
X14141615Y-14948488D01*
X14212645Y-14842184D01*
X14355676Y-14628123D01*
X14628123Y-14355676D01*
X14948487Y-14141616D01*
X14948488Y-14141615D01*
X15157009Y-14055243D01*
X15304456Y-13994168D01*
X15430421Y-13969112D01*
X15682349Y-13919000D01*
X16067651Y-13919000D01*
X16319579Y-13969112D01*
X16319579Y-13969112D01*
G37*
G36*
X40279187Y-13701123D02*
G01*
X40450255Y-13771982D01*
X40450257Y-13771983D01*
X40527758Y-13823768D01*
X40604214Y-13874854D01*
X40735146Y-14005786D01*
X40838018Y-14159745D01*
X40908877Y-14330813D01*
X40945000Y-14512417D01*
X40945000Y-14697583D01*
X40908877Y-14879187D01*
X40880171Y-14948488D01*
X40838017Y-15050257D01*
X40735145Y-15204215D01*
X40604215Y-15335145D01*
X40450257Y-15438017D01*
X40450256Y-15438018D01*
X40450255Y-15438018D01*
X40279187Y-15508877D01*
X40097583Y-15545000D01*
X39912417Y-15545000D01*
X39730813Y-15508877D01*
X39559745Y-15438018D01*
X39559744Y-15438018D01*
X39559743Y-15438017D01*
X39405785Y-15335145D01*
X39274855Y-15204215D01*
X39171983Y-15050257D01*
X39129829Y-14948488D01*
X39101123Y-14879187D01*
X39065000Y-14697583D01*
X39065000Y-14512417D01*
X39101123Y-14330813D01*
X39171982Y-14159745D01*
X39274854Y-14005786D01*
X39405786Y-13874854D01*
X39482242Y-13823768D01*
X39559743Y-13771983D01*
X39559745Y-13771982D01*
X39730813Y-13701123D01*
X39912417Y-13665000D01*
X40097583Y-13665000D01*
X40279187Y-13701123D01*
X40279187Y-13701123D01*
G37*
G36*
X42819187Y-13701123D02*
G01*
X42990255Y-13771982D01*
X42990257Y-13771983D01*
X43067758Y-13823768D01*
X43144214Y-13874854D01*
X43275146Y-14005786D01*
X43378018Y-14159745D01*
X43448877Y-14330813D01*
X43485000Y-14512417D01*
X43485000Y-14697583D01*
X43448877Y-14879187D01*
X43420171Y-14948488D01*
X43378017Y-15050257D01*
X43275145Y-15204215D01*
X43144215Y-15335145D01*
X42990257Y-15438017D01*
X42990256Y-15438018D01*
X42990255Y-15438018D01*
X42819187Y-15508877D01*
X42637583Y-15545000D01*
X42452417Y-15545000D01*
X42270813Y-15508877D01*
X42099745Y-15438018D01*
X42099744Y-15438018D01*
X42099743Y-15438017D01*
X41945785Y-15335145D01*
X41814855Y-15204215D01*
X41711983Y-15050257D01*
X41669829Y-14948488D01*
X41641123Y-14879187D01*
X41605000Y-14697583D01*
X41605000Y-14512417D01*
X41641123Y-14330813D01*
X41711982Y-14159745D01*
X41814854Y-14005786D01*
X41945786Y-13874854D01*
X42022242Y-13823768D01*
X42099743Y-13771983D01*
X42099745Y-13771982D01*
X42270813Y-13701123D01*
X42452417Y-13665000D01*
X42637583Y-13665000D01*
X42819187Y-13701123D01*
X42819187Y-13701123D01*
G37*
G36*
X45359187Y-13701123D02*
G01*
X45530255Y-13771982D01*
X45530257Y-13771983D01*
X45607758Y-13823768D01*
X45684214Y-13874854D01*
X45815146Y-14005786D01*
X45918018Y-14159745D01*
X45988877Y-14330813D01*
X46025000Y-14512417D01*
X46025000Y-14697583D01*
X45988877Y-14879187D01*
X45960171Y-14948488D01*
X45918017Y-15050257D01*
X45815145Y-15204215D01*
X45684215Y-15335145D01*
X45530257Y-15438017D01*
X45530256Y-15438018D01*
X45530255Y-15438018D01*
X45359187Y-15508877D01*
X45177583Y-15545000D01*
X44992417Y-15545000D01*
X44810813Y-15508877D01*
X44639745Y-15438018D01*
X44639744Y-15438018D01*
X44639743Y-15438017D01*
X44485785Y-15335145D01*
X44354855Y-15204215D01*
X44251983Y-15050257D01*
X44209829Y-14948488D01*
X44181123Y-14879187D01*
X44145000Y-14697583D01*
X44145000Y-14512417D01*
X44181123Y-14330813D01*
X44251982Y-14159745D01*
X44354854Y-14005786D01*
X44485786Y-13874854D01*
X44562242Y-13823768D01*
X44639743Y-13771983D01*
X44639745Y-13771982D01*
X44810813Y-13701123D01*
X44992417Y-13665000D01*
X45177583Y-13665000D01*
X45359187Y-13701123D01*
X45359187Y-13701123D01*
G37*
G36*
X47899187Y-13701123D02*
G01*
X48070255Y-13771982D01*
X48070257Y-13771983D01*
X48147758Y-13823768D01*
X48224214Y-13874854D01*
X48355146Y-14005786D01*
X48458018Y-14159745D01*
X48528877Y-14330813D01*
X48565000Y-14512417D01*
X48565000Y-14697583D01*
X48528877Y-14879187D01*
X48500171Y-14948488D01*
X48458017Y-15050257D01*
X48355145Y-15204215D01*
X48224215Y-15335145D01*
X48070257Y-15438017D01*
X48070256Y-15438018D01*
X48070255Y-15438018D01*
X47899187Y-15508877D01*
X47717583Y-15545000D01*
X47532417Y-15545000D01*
X47350813Y-15508877D01*
X47179745Y-15438018D01*
X47179744Y-15438018D01*
X47179743Y-15438017D01*
X47025785Y-15335145D01*
X46894855Y-15204215D01*
X46791983Y-15050257D01*
X46749829Y-14948488D01*
X46721123Y-14879187D01*
X46685000Y-14697583D01*
X46685000Y-14512417D01*
X46721123Y-14330813D01*
X46791982Y-14159745D01*
X46894854Y-14005786D01*
X47025786Y-13874854D01*
X47102242Y-13823768D01*
X47179743Y-13771983D01*
X47179745Y-13771982D01*
X47350813Y-13701123D01*
X47532417Y-13665000D01*
X47717583Y-13665000D01*
X47899187Y-13701123D01*
X47899187Y-13701123D01*
G37*
G36*
X50439187Y-13701123D02*
G01*
X50610255Y-13771982D01*
X50610257Y-13771983D01*
X50687758Y-13823768D01*
X50764214Y-13874854D01*
X50895146Y-14005786D01*
X50998018Y-14159745D01*
X51068877Y-14330813D01*
X51105000Y-14512417D01*
X51105000Y-14697583D01*
X51068877Y-14879187D01*
X51040171Y-14948488D01*
X50998017Y-15050257D01*
X50895145Y-15204215D01*
X50764215Y-15335145D01*
X50610257Y-15438017D01*
X50610256Y-15438018D01*
X50610255Y-15438018D01*
X50439187Y-15508877D01*
X50257583Y-15545000D01*
X50072417Y-15545000D01*
X49890813Y-15508877D01*
X49719745Y-15438018D01*
X49719744Y-15438018D01*
X49719743Y-15438017D01*
X49565785Y-15335145D01*
X49434855Y-15204215D01*
X49331983Y-15050257D01*
X49289829Y-14948488D01*
X49261123Y-14879187D01*
X49225000Y-14697583D01*
X49225000Y-14512417D01*
X49261123Y-14330813D01*
X49331982Y-14159745D01*
X49434854Y-14005786D01*
X49565786Y-13874854D01*
X49642242Y-13823768D01*
X49719743Y-13771983D01*
X49719745Y-13771982D01*
X49890813Y-13701123D01*
X50072417Y-13665000D01*
X50257583Y-13665000D01*
X50439187Y-13701123D01*
X50439187Y-13701123D01*
G37*
G36*
X52979187Y-13701123D02*
G01*
X53150255Y-13771982D01*
X53150257Y-13771983D01*
X53227758Y-13823768D01*
X53304214Y-13874854D01*
X53435146Y-14005786D01*
X53538018Y-14159745D01*
X53608877Y-14330813D01*
X53645000Y-14512417D01*
X53645000Y-14697583D01*
X53608877Y-14879187D01*
X53580171Y-14948488D01*
X53538017Y-15050257D01*
X53435145Y-15204215D01*
X53304215Y-15335145D01*
X53150257Y-15438017D01*
X53150256Y-15438018D01*
X53150255Y-15438018D01*
X52979187Y-15508877D01*
X52797583Y-15545000D01*
X52612417Y-15545000D01*
X52430813Y-15508877D01*
X52259745Y-15438018D01*
X52259744Y-15438018D01*
X52259743Y-15438017D01*
X52105785Y-15335145D01*
X51974855Y-15204215D01*
X51871983Y-15050257D01*
X51829829Y-14948488D01*
X51801123Y-14879187D01*
X51765000Y-14697583D01*
X51765000Y-14512417D01*
X51801123Y-14330813D01*
X51871982Y-14159745D01*
X51974854Y-14005786D01*
X52105786Y-13874854D01*
X52182242Y-13823768D01*
X52259743Y-13771983D01*
X52259745Y-13771982D01*
X52430813Y-13701123D01*
X52612417Y-13665000D01*
X52797583Y-13665000D01*
X52979187Y-13701123D01*
X52979187Y-13701123D01*
G37*
G36*
X55519187Y-13701123D02*
G01*
X55690255Y-13771982D01*
X55690257Y-13771983D01*
X55767758Y-13823768D01*
X55844214Y-13874854D01*
X55975146Y-14005786D01*
X56078018Y-14159745D01*
X56148877Y-14330813D01*
X56185000Y-14512417D01*
X56185000Y-14697583D01*
X56148877Y-14879187D01*
X56120171Y-14948488D01*
X56078017Y-15050257D01*
X55975145Y-15204215D01*
X55844215Y-15335145D01*
X55690257Y-15438017D01*
X55690256Y-15438018D01*
X55690255Y-15438018D01*
X55519187Y-15508877D01*
X55337583Y-15545000D01*
X55152417Y-15545000D01*
X54970813Y-15508877D01*
X54799745Y-15438018D01*
X54799744Y-15438018D01*
X54799743Y-15438017D01*
X54645785Y-15335145D01*
X54514855Y-15204215D01*
X54411983Y-15050257D01*
X54369829Y-14948488D01*
X54341123Y-14879187D01*
X54305000Y-14697583D01*
X54305000Y-14512417D01*
X54341123Y-14330813D01*
X54411982Y-14159745D01*
X54514854Y-14005786D01*
X54645786Y-13874854D01*
X54722242Y-13823768D01*
X54799743Y-13771983D01*
X54799745Y-13771982D01*
X54970813Y-13701123D01*
X55152417Y-13665000D01*
X55337583Y-13665000D01*
X55519187Y-13701123D01*
X55519187Y-13701123D01*
G37*
G36*
X58059187Y-13701123D02*
G01*
X58230255Y-13771982D01*
X58230257Y-13771983D01*
X58307758Y-13823768D01*
X58384214Y-13874854D01*
X58515146Y-14005786D01*
X58618018Y-14159745D01*
X58688877Y-14330813D01*
X58725000Y-14512417D01*
X58725000Y-14697583D01*
X58688877Y-14879187D01*
X58660171Y-14948488D01*
X58618017Y-15050257D01*
X58515145Y-15204215D01*
X58384215Y-15335145D01*
X58230257Y-15438017D01*
X58230256Y-15438018D01*
X58230255Y-15438018D01*
X58059187Y-15508877D01*
X57877583Y-15545000D01*
X57692417Y-15545000D01*
X57510813Y-15508877D01*
X57339745Y-15438018D01*
X57339744Y-15438018D01*
X57339743Y-15438017D01*
X57185785Y-15335145D01*
X57054855Y-15204215D01*
X56951983Y-15050257D01*
X56909829Y-14948488D01*
X56881123Y-14879187D01*
X56845000Y-14697583D01*
X56845000Y-14512417D01*
X56881123Y-14330813D01*
X56951982Y-14159745D01*
X57054854Y-14005786D01*
X57185786Y-13874854D01*
X57262242Y-13823768D01*
X57339743Y-13771983D01*
X57339745Y-13771982D01*
X57510813Y-13701123D01*
X57692417Y-13665000D01*
X57877583Y-13665000D01*
X58059187Y-13701123D01*
X58059187Y-13701123D01*
G37*
G36*
X30119187Y-13701123D02*
G01*
X30290255Y-13771982D01*
X30290257Y-13771983D01*
X30367758Y-13823768D01*
X30444214Y-13874854D01*
X30575146Y-14005786D01*
X30678018Y-14159745D01*
X30748877Y-14330813D01*
X30785000Y-14512417D01*
X30785000Y-14697583D01*
X30748877Y-14879187D01*
X30720171Y-14948488D01*
X30678017Y-15050257D01*
X30575145Y-15204215D01*
X30444215Y-15335145D01*
X30290257Y-15438017D01*
X30290256Y-15438018D01*
X30290255Y-15438018D01*
X30119187Y-15508877D01*
X29937583Y-15545000D01*
X29752417Y-15545000D01*
X29570813Y-15508877D01*
X29399745Y-15438018D01*
X29399744Y-15438018D01*
X29399743Y-15438017D01*
X29245785Y-15335145D01*
X29114855Y-15204215D01*
X29011983Y-15050257D01*
X28969829Y-14948488D01*
X28941123Y-14879187D01*
X28905000Y-14697583D01*
X28905000Y-14512417D01*
X28941123Y-14330813D01*
X29011982Y-14159745D01*
X29114854Y-14005786D01*
X29245786Y-13874854D01*
X29322242Y-13823768D01*
X29399743Y-13771983D01*
X29399745Y-13771982D01*
X29570813Y-13701123D01*
X29752417Y-13665000D01*
X29937583Y-13665000D01*
X30119187Y-13701123D01*
X30119187Y-13701123D01*
G37*
G36*
X35199187Y-13701123D02*
G01*
X35370255Y-13771982D01*
X35370257Y-13771983D01*
X35447758Y-13823768D01*
X35524214Y-13874854D01*
X35655146Y-14005786D01*
X35758018Y-14159745D01*
X35828877Y-14330813D01*
X35865000Y-14512417D01*
X35865000Y-14697583D01*
X35828877Y-14879187D01*
X35800171Y-14948488D01*
X35758017Y-15050257D01*
X35655145Y-15204215D01*
X35524215Y-15335145D01*
X35370257Y-15438017D01*
X35370256Y-15438018D01*
X35370255Y-15438018D01*
X35199187Y-15508877D01*
X35017583Y-15545000D01*
X34832417Y-15545000D01*
X34650813Y-15508877D01*
X34479745Y-15438018D01*
X34479744Y-15438018D01*
X34479743Y-15438017D01*
X34325785Y-15335145D01*
X34194855Y-15204215D01*
X34091983Y-15050257D01*
X34049829Y-14948488D01*
X34021123Y-14879187D01*
X33985000Y-14697583D01*
X33985000Y-14512417D01*
X34021123Y-14330813D01*
X34091982Y-14159745D01*
X34194854Y-14005786D01*
X34325786Y-13874854D01*
X34402242Y-13823768D01*
X34479743Y-13771983D01*
X34479745Y-13771982D01*
X34650813Y-13701123D01*
X34832417Y-13665000D01*
X35017583Y-13665000D01*
X35199187Y-13701123D01*
X35199187Y-13701123D01*
G37*
G36*
X37739187Y-13701123D02*
G01*
X37910255Y-13771982D01*
X37910257Y-13771983D01*
X37987758Y-13823768D01*
X38064214Y-13874854D01*
X38195146Y-14005786D01*
X38298018Y-14159745D01*
X38368877Y-14330813D01*
X38405000Y-14512417D01*
X38405000Y-14697583D01*
X38368877Y-14879187D01*
X38340171Y-14948488D01*
X38298017Y-15050257D01*
X38195145Y-15204215D01*
X38064215Y-15335145D01*
X37910257Y-15438017D01*
X37910256Y-15438018D01*
X37910255Y-15438018D01*
X37739187Y-15508877D01*
X37557583Y-15545000D01*
X37372417Y-15545000D01*
X37190813Y-15508877D01*
X37019745Y-15438018D01*
X37019744Y-15438018D01*
X37019743Y-15438017D01*
X36865785Y-15335145D01*
X36734855Y-15204215D01*
X36631983Y-15050257D01*
X36589829Y-14948488D01*
X36561123Y-14879187D01*
X36525000Y-14697583D01*
X36525000Y-14512417D01*
X36561123Y-14330813D01*
X36631982Y-14159745D01*
X36734854Y-14005786D01*
X36865786Y-13874854D01*
X36942242Y-13823768D01*
X37019743Y-13771983D01*
X37019745Y-13771982D01*
X37190813Y-13701123D01*
X37372417Y-13665000D01*
X37557583Y-13665000D01*
X37739187Y-13701123D01*
X37739187Y-13701123D01*
G37*
G36*
X32659187Y-13701123D02*
G01*
X32830255Y-13771982D01*
X32830257Y-13771983D01*
X32907758Y-13823768D01*
X32984214Y-13874854D01*
X33115146Y-14005786D01*
X33218018Y-14159745D01*
X33288877Y-14330813D01*
X33325000Y-14512417D01*
X33325000Y-14697583D01*
X33288877Y-14879187D01*
X33260171Y-14948488D01*
X33218017Y-15050257D01*
X33115145Y-15204215D01*
X32984215Y-15335145D01*
X32830257Y-15438017D01*
X32830256Y-15438018D01*
X32830255Y-15438018D01*
X32659187Y-15508877D01*
X32477583Y-15545000D01*
X32292417Y-15545000D01*
X32110813Y-15508877D01*
X31939745Y-15438018D01*
X31939744Y-15438018D01*
X31939743Y-15438017D01*
X31785785Y-15335145D01*
X31654855Y-15204215D01*
X31551983Y-15050257D01*
X31509829Y-14948488D01*
X31481123Y-14879187D01*
X31445000Y-14697583D01*
X31445000Y-14512417D01*
X31481123Y-14330813D01*
X31551982Y-14159745D01*
X31654854Y-14005786D01*
X31785786Y-13874854D01*
X31862242Y-13823768D01*
X31939743Y-13771983D01*
X31939745Y-13771982D01*
X32110813Y-13701123D01*
X32292417Y-13665000D01*
X32477583Y-13665000D01*
X32659187Y-13701123D01*
X32659187Y-13701123D01*
G37*
M02*
