G04 #@! TF.GenerationSoftware,KiCad,Pcbnew,(5.1.2-1)-1*
G04 #@! TF.CreationDate,2019-05-16T11:09:26+08:00*
G04 #@! TF.ProjectId,huzzah-cc112x-shield,68757a7a-6168-42d6-9363-313132782d73,1*
G04 #@! TF.SameCoordinates,Original*
G04 #@! TF.FileFunction,Copper,L2,Bot*
G04 #@! TF.FilePolarity,Positive*
%FSLAX46Y46*%
G04 Gerber Fmt 4.6, Leading zero omitted, Abs format (unit mm)*
G04 Created by KiCad (PCBNEW (5.1.2-1)-1) date 2019-05-16 11:09:26*
%MOMM*%
%LPD*%
G04 APERTURE LIST*
%ADD10R,5.080000X1.500000*%
%ADD11C,3.810000*%
%ADD12C,1.778000*%
%ADD13C,0.800000*%
%ADD14C,0.250000*%
%ADD15C,0.254000*%
G04 APERTURE END LIST*
D10*
X15875000Y-20515000D03*
X15875000Y-29015000D03*
D11*
X15875000Y-15875000D03*
X15875000Y-33655000D03*
D12*
X29845000Y-14605000D03*
X32385000Y-14605000D03*
X34925000Y-14605000D03*
X37465000Y-14605000D03*
X40005000Y-14605000D03*
X42545000Y-14605000D03*
X45085000Y-14605000D03*
X47625000Y-14605000D03*
X50165000Y-14605000D03*
X52705000Y-14605000D03*
X55245000Y-14605000D03*
X57785000Y-14605000D03*
X29845000Y-34925000D03*
X32385000Y-34925000D03*
X34925000Y-34925000D03*
X37465000Y-34925000D03*
X40005000Y-34925000D03*
X42545000Y-34925000D03*
X45085000Y-34925000D03*
X47625000Y-34925000D03*
X50165000Y-34925000D03*
X52705000Y-34925000D03*
X55245000Y-34925000D03*
X57785000Y-34925000D03*
X27305000Y-34925000D03*
X24765000Y-34925000D03*
X22225000Y-34925000D03*
X19685000Y-34925000D03*
D13*
X49530000Y-19050000D03*
X29210000Y-17145000D03*
X20320000Y-30480000D03*
X20320000Y-17145000D03*
X24765000Y-17145000D03*
X60960000Y-20320000D03*
X60960000Y-29845000D03*
X60960000Y-24765000D03*
X40005000Y-22225000D03*
X50800000Y-25400000D03*
X53975000Y-25400000D03*
X57150000Y-25400000D03*
X33655000Y-25400000D03*
X41910000Y-32385000D03*
X40005000Y-32385000D03*
X43815000Y-32385000D03*
X34925000Y-25400000D03*
X34925000Y-26670000D03*
X34925000Y-27940000D03*
X34925000Y-29210000D03*
X36195000Y-25400000D03*
X38735000Y-25400000D03*
X38735000Y-26670000D03*
X38735000Y-27940000D03*
X38735000Y-29210000D03*
X40005000Y-26670000D03*
X40640000Y-27940000D03*
X42545000Y-25400000D03*
X42545000Y-26670000D03*
X42545000Y-27940000D03*
X42545000Y-29210000D03*
X41275000Y-26670000D03*
X60960000Y-22225000D03*
X60960000Y-27305000D03*
X26035000Y-22860000D03*
X46140000Y-22645000D03*
X48260000Y-23495000D03*
X44640000Y-20765000D03*
X45085000Y-28575000D03*
X50165000Y-29210000D03*
X50640000Y-20795000D03*
D14*
X50800000Y-19050000D02*
X55245000Y-14605000D01*
X49530000Y-19050000D02*
X50800000Y-19050000D01*
X46140000Y-33870000D02*
X45085000Y-34925000D01*
X46140000Y-22645000D02*
X46140000Y-33870000D01*
X48260000Y-23495000D02*
X48260000Y-28575000D01*
X47625000Y-29210000D02*
X47625000Y-34925000D01*
X48260000Y-28575000D02*
X47625000Y-29210000D01*
X44640000Y-20765000D02*
X44640000Y-28130000D01*
X44640000Y-28130000D02*
X45085000Y-28575000D01*
X50165000Y-29210000D02*
X50800000Y-29845000D01*
X50800000Y-29845000D02*
X50800000Y-31750000D01*
X50165000Y-32385000D02*
X50165000Y-34925000D01*
X50800000Y-31750000D02*
X50165000Y-32385000D01*
X50640000Y-20795000D02*
X50640000Y-21750000D01*
X40893999Y-15493999D02*
X40005000Y-14605000D01*
X47319999Y-21919999D02*
X40893999Y-15493999D01*
X50470001Y-21919999D02*
X47319999Y-21919999D01*
X50640000Y-21750000D02*
X50470001Y-21919999D01*
D15*
G36*
X64008000Y-36068000D02*
G01*
X58797261Y-36068000D01*
X58968768Y-35896493D01*
X59135551Y-35646885D01*
X59250434Y-35369534D01*
X59309000Y-35075101D01*
X59309000Y-34774899D01*
X59250434Y-34480466D01*
X59135551Y-34203115D01*
X58968768Y-33953507D01*
X58756493Y-33741232D01*
X58506885Y-33574449D01*
X58248385Y-33467374D01*
X59690000Y-33467374D01*
X59690000Y-33842626D01*
X59763209Y-34210668D01*
X59906811Y-34557356D01*
X60115290Y-34869366D01*
X60380634Y-35134710D01*
X60692644Y-35343189D01*
X61039332Y-35486791D01*
X61407374Y-35560000D01*
X61782626Y-35560000D01*
X62150668Y-35486791D01*
X62497356Y-35343189D01*
X62809366Y-35134710D01*
X63074710Y-34869366D01*
X63283189Y-34557356D01*
X63426791Y-34210668D01*
X63500000Y-33842626D01*
X63500000Y-33467374D01*
X63426791Y-33099332D01*
X63283189Y-32752644D01*
X63074710Y-32440634D01*
X62809366Y-32175290D01*
X62497356Y-31966811D01*
X62150668Y-31823209D01*
X61782626Y-31750000D01*
X61407374Y-31750000D01*
X61039332Y-31823209D01*
X60692644Y-31966811D01*
X60380634Y-32175290D01*
X60115290Y-32440634D01*
X59906811Y-32752644D01*
X59763209Y-33099332D01*
X59690000Y-33467374D01*
X58248385Y-33467374D01*
X58229534Y-33459566D01*
X57935101Y-33401000D01*
X57634899Y-33401000D01*
X57340466Y-33459566D01*
X57063115Y-33574449D01*
X56813507Y-33741232D01*
X56601232Y-33953507D01*
X56515000Y-34082562D01*
X56428768Y-33953507D01*
X56216493Y-33741232D01*
X55966885Y-33574449D01*
X55689534Y-33459566D01*
X55395101Y-33401000D01*
X55094899Y-33401000D01*
X54800466Y-33459566D01*
X54523115Y-33574449D01*
X54273507Y-33741232D01*
X54061232Y-33953507D01*
X53975000Y-34082562D01*
X53888768Y-33953507D01*
X53676493Y-33741232D01*
X53426885Y-33574449D01*
X53149534Y-33459566D01*
X52855101Y-33401000D01*
X52554899Y-33401000D01*
X52260466Y-33459566D01*
X51983115Y-33574449D01*
X51733507Y-33741232D01*
X51521232Y-33953507D01*
X51435000Y-34082562D01*
X51348768Y-33953507D01*
X51136493Y-33741232D01*
X50925000Y-33599917D01*
X50925000Y-32699801D01*
X51311002Y-32313800D01*
X51340001Y-32290001D01*
X51434974Y-32174276D01*
X51505546Y-32042247D01*
X51549003Y-31898986D01*
X51560000Y-31787333D01*
X51563677Y-31750000D01*
X51560000Y-31712667D01*
X51560000Y-29882333D01*
X51563677Y-29845000D01*
X51549003Y-29696014D01*
X51505546Y-29552753D01*
X51434974Y-29420724D01*
X51363799Y-29333997D01*
X51340001Y-29304999D01*
X51311004Y-29281202D01*
X51200000Y-29170198D01*
X51200000Y-29108061D01*
X51160226Y-28908102D01*
X51082205Y-28719744D01*
X50968937Y-28550226D01*
X50824774Y-28406063D01*
X50655256Y-28292795D01*
X50466898Y-28214774D01*
X50266939Y-28175000D01*
X50063061Y-28175000D01*
X49863102Y-28214774D01*
X49674744Y-28292795D01*
X49505226Y-28406063D01*
X49361063Y-28550226D01*
X49247795Y-28719744D01*
X49169774Y-28908102D01*
X49130000Y-29108061D01*
X49130000Y-29311939D01*
X49169774Y-29511898D01*
X49247795Y-29700256D01*
X49361063Y-29869774D01*
X49505226Y-30013937D01*
X49674744Y-30127205D01*
X49863102Y-30205226D01*
X50040000Y-30240413D01*
X50040001Y-31435198D01*
X49654002Y-31821197D01*
X49624999Y-31844999D01*
X49569871Y-31912174D01*
X49530026Y-31960724D01*
X49489873Y-32035844D01*
X49459454Y-32092754D01*
X49415997Y-32236015D01*
X49405000Y-32347668D01*
X49405000Y-32347678D01*
X49401324Y-32385000D01*
X49405000Y-32422323D01*
X49405000Y-33599916D01*
X49193507Y-33741232D01*
X48981232Y-33953507D01*
X48895000Y-34082562D01*
X48808768Y-33953507D01*
X48596493Y-33741232D01*
X48385000Y-33599917D01*
X48385000Y-29524801D01*
X48771003Y-29138799D01*
X48800001Y-29115001D01*
X48894974Y-28999276D01*
X48965546Y-28867247D01*
X49009003Y-28723986D01*
X49020000Y-28612333D01*
X49023677Y-28575000D01*
X49020000Y-28537667D01*
X49020000Y-24198711D01*
X49063937Y-24154774D01*
X49177205Y-23985256D01*
X49255226Y-23796898D01*
X49295000Y-23596939D01*
X49295000Y-23393061D01*
X49255226Y-23193102D01*
X49177205Y-23004744D01*
X49063937Y-22835226D01*
X48919774Y-22691063D01*
X48903216Y-22679999D01*
X50432679Y-22679999D01*
X50470001Y-22683675D01*
X50507323Y-22679999D01*
X50507334Y-22679999D01*
X50618987Y-22669002D01*
X50762248Y-22625545D01*
X50894277Y-22554973D01*
X51010002Y-22460000D01*
X51033805Y-22430996D01*
X51150997Y-22313804D01*
X51180001Y-22290001D01*
X51274974Y-22174276D01*
X51345546Y-22042247D01*
X51389003Y-21898986D01*
X51400000Y-21787333D01*
X51400000Y-21787323D01*
X51403676Y-21750000D01*
X51400000Y-21712677D01*
X51400000Y-21498711D01*
X51443937Y-21454774D01*
X51557205Y-21285256D01*
X51635226Y-21096898D01*
X51675000Y-20896939D01*
X51675000Y-20693061D01*
X51635226Y-20493102D01*
X51557205Y-20304744D01*
X51443937Y-20135226D01*
X51299774Y-19991063D01*
X51130256Y-19877795D01*
X50941898Y-19799774D01*
X50941653Y-19799725D01*
X50948986Y-19799003D01*
X51092247Y-19755546D01*
X51224276Y-19684974D01*
X51340001Y-19590001D01*
X51363804Y-19560997D01*
X54845425Y-16079377D01*
X55094899Y-16129000D01*
X55395101Y-16129000D01*
X55689534Y-16070434D01*
X55966885Y-15955551D01*
X56216493Y-15788768D01*
X56428768Y-15576493D01*
X56515000Y-15447438D01*
X56601232Y-15576493D01*
X56813507Y-15788768D01*
X57063115Y-15955551D01*
X57340466Y-16070434D01*
X57634899Y-16129000D01*
X57935101Y-16129000D01*
X58229534Y-16070434D01*
X58506885Y-15955551D01*
X58756493Y-15788768D01*
X58857887Y-15687374D01*
X59690000Y-15687374D01*
X59690000Y-16062626D01*
X59763209Y-16430668D01*
X59906811Y-16777356D01*
X60115290Y-17089366D01*
X60380634Y-17354710D01*
X60692644Y-17563189D01*
X61039332Y-17706791D01*
X61407374Y-17780000D01*
X61782626Y-17780000D01*
X62150668Y-17706791D01*
X62497356Y-17563189D01*
X62809366Y-17354710D01*
X63074710Y-17089366D01*
X63283189Y-16777356D01*
X63426791Y-16430668D01*
X63500000Y-16062626D01*
X63500000Y-15687374D01*
X63426791Y-15319332D01*
X63283189Y-14972644D01*
X63074710Y-14660634D01*
X62809366Y-14395290D01*
X62497356Y-14186811D01*
X62150668Y-14043209D01*
X61782626Y-13970000D01*
X61407374Y-13970000D01*
X61039332Y-14043209D01*
X60692644Y-14186811D01*
X60380634Y-14395290D01*
X60115290Y-14660634D01*
X59906811Y-14972644D01*
X59763209Y-15319332D01*
X59690000Y-15687374D01*
X58857887Y-15687374D01*
X58968768Y-15576493D01*
X59135551Y-15326885D01*
X59250434Y-15049534D01*
X59309000Y-14755101D01*
X59309000Y-14454899D01*
X59250434Y-14160466D01*
X59135551Y-13883115D01*
X58968768Y-13633507D01*
X58797261Y-13462000D01*
X64008000Y-13462000D01*
X64008000Y-36068000D01*
X64008000Y-36068000D01*
G37*
X64008000Y-36068000D02*
X58797261Y-36068000D01*
X58968768Y-35896493D01*
X59135551Y-35646885D01*
X59250434Y-35369534D01*
X59309000Y-35075101D01*
X59309000Y-34774899D01*
X59250434Y-34480466D01*
X59135551Y-34203115D01*
X58968768Y-33953507D01*
X58756493Y-33741232D01*
X58506885Y-33574449D01*
X58248385Y-33467374D01*
X59690000Y-33467374D01*
X59690000Y-33842626D01*
X59763209Y-34210668D01*
X59906811Y-34557356D01*
X60115290Y-34869366D01*
X60380634Y-35134710D01*
X60692644Y-35343189D01*
X61039332Y-35486791D01*
X61407374Y-35560000D01*
X61782626Y-35560000D01*
X62150668Y-35486791D01*
X62497356Y-35343189D01*
X62809366Y-35134710D01*
X63074710Y-34869366D01*
X63283189Y-34557356D01*
X63426791Y-34210668D01*
X63500000Y-33842626D01*
X63500000Y-33467374D01*
X63426791Y-33099332D01*
X63283189Y-32752644D01*
X63074710Y-32440634D01*
X62809366Y-32175290D01*
X62497356Y-31966811D01*
X62150668Y-31823209D01*
X61782626Y-31750000D01*
X61407374Y-31750000D01*
X61039332Y-31823209D01*
X60692644Y-31966811D01*
X60380634Y-32175290D01*
X60115290Y-32440634D01*
X59906811Y-32752644D01*
X59763209Y-33099332D01*
X59690000Y-33467374D01*
X58248385Y-33467374D01*
X58229534Y-33459566D01*
X57935101Y-33401000D01*
X57634899Y-33401000D01*
X57340466Y-33459566D01*
X57063115Y-33574449D01*
X56813507Y-33741232D01*
X56601232Y-33953507D01*
X56515000Y-34082562D01*
X56428768Y-33953507D01*
X56216493Y-33741232D01*
X55966885Y-33574449D01*
X55689534Y-33459566D01*
X55395101Y-33401000D01*
X55094899Y-33401000D01*
X54800466Y-33459566D01*
X54523115Y-33574449D01*
X54273507Y-33741232D01*
X54061232Y-33953507D01*
X53975000Y-34082562D01*
X53888768Y-33953507D01*
X53676493Y-33741232D01*
X53426885Y-33574449D01*
X53149534Y-33459566D01*
X52855101Y-33401000D01*
X52554899Y-33401000D01*
X52260466Y-33459566D01*
X51983115Y-33574449D01*
X51733507Y-33741232D01*
X51521232Y-33953507D01*
X51435000Y-34082562D01*
X51348768Y-33953507D01*
X51136493Y-33741232D01*
X50925000Y-33599917D01*
X50925000Y-32699801D01*
X51311002Y-32313800D01*
X51340001Y-32290001D01*
X51434974Y-32174276D01*
X51505546Y-32042247D01*
X51549003Y-31898986D01*
X51560000Y-31787333D01*
X51563677Y-31750000D01*
X51560000Y-31712667D01*
X51560000Y-29882333D01*
X51563677Y-29845000D01*
X51549003Y-29696014D01*
X51505546Y-29552753D01*
X51434974Y-29420724D01*
X51363799Y-29333997D01*
X51340001Y-29304999D01*
X51311004Y-29281202D01*
X51200000Y-29170198D01*
X51200000Y-29108061D01*
X51160226Y-28908102D01*
X51082205Y-28719744D01*
X50968937Y-28550226D01*
X50824774Y-28406063D01*
X50655256Y-28292795D01*
X50466898Y-28214774D01*
X50266939Y-28175000D01*
X50063061Y-28175000D01*
X49863102Y-28214774D01*
X49674744Y-28292795D01*
X49505226Y-28406063D01*
X49361063Y-28550226D01*
X49247795Y-28719744D01*
X49169774Y-28908102D01*
X49130000Y-29108061D01*
X49130000Y-29311939D01*
X49169774Y-29511898D01*
X49247795Y-29700256D01*
X49361063Y-29869774D01*
X49505226Y-30013937D01*
X49674744Y-30127205D01*
X49863102Y-30205226D01*
X50040000Y-30240413D01*
X50040001Y-31435198D01*
X49654002Y-31821197D01*
X49624999Y-31844999D01*
X49569871Y-31912174D01*
X49530026Y-31960724D01*
X49489873Y-32035844D01*
X49459454Y-32092754D01*
X49415997Y-32236015D01*
X49405000Y-32347668D01*
X49405000Y-32347678D01*
X49401324Y-32385000D01*
X49405000Y-32422323D01*
X49405000Y-33599916D01*
X49193507Y-33741232D01*
X48981232Y-33953507D01*
X48895000Y-34082562D01*
X48808768Y-33953507D01*
X48596493Y-33741232D01*
X48385000Y-33599917D01*
X48385000Y-29524801D01*
X48771003Y-29138799D01*
X48800001Y-29115001D01*
X48894974Y-28999276D01*
X48965546Y-28867247D01*
X49009003Y-28723986D01*
X49020000Y-28612333D01*
X49023677Y-28575000D01*
X49020000Y-28537667D01*
X49020000Y-24198711D01*
X49063937Y-24154774D01*
X49177205Y-23985256D01*
X49255226Y-23796898D01*
X49295000Y-23596939D01*
X49295000Y-23393061D01*
X49255226Y-23193102D01*
X49177205Y-23004744D01*
X49063937Y-22835226D01*
X48919774Y-22691063D01*
X48903216Y-22679999D01*
X50432679Y-22679999D01*
X50470001Y-22683675D01*
X50507323Y-22679999D01*
X50507334Y-22679999D01*
X50618987Y-22669002D01*
X50762248Y-22625545D01*
X50894277Y-22554973D01*
X51010002Y-22460000D01*
X51033805Y-22430996D01*
X51150997Y-22313804D01*
X51180001Y-22290001D01*
X51274974Y-22174276D01*
X51345546Y-22042247D01*
X51389003Y-21898986D01*
X51400000Y-21787333D01*
X51400000Y-21787323D01*
X51403676Y-21750000D01*
X51400000Y-21712677D01*
X51400000Y-21498711D01*
X51443937Y-21454774D01*
X51557205Y-21285256D01*
X51635226Y-21096898D01*
X51675000Y-20896939D01*
X51675000Y-20693061D01*
X51635226Y-20493102D01*
X51557205Y-20304744D01*
X51443937Y-20135226D01*
X51299774Y-19991063D01*
X51130256Y-19877795D01*
X50941898Y-19799774D01*
X50941653Y-19799725D01*
X50948986Y-19799003D01*
X51092247Y-19755546D01*
X51224276Y-19684974D01*
X51340001Y-19590001D01*
X51363804Y-19560997D01*
X54845425Y-16079377D01*
X55094899Y-16129000D01*
X55395101Y-16129000D01*
X55689534Y-16070434D01*
X55966885Y-15955551D01*
X56216493Y-15788768D01*
X56428768Y-15576493D01*
X56515000Y-15447438D01*
X56601232Y-15576493D01*
X56813507Y-15788768D01*
X57063115Y-15955551D01*
X57340466Y-16070434D01*
X57634899Y-16129000D01*
X57935101Y-16129000D01*
X58229534Y-16070434D01*
X58506885Y-15955551D01*
X58756493Y-15788768D01*
X58857887Y-15687374D01*
X59690000Y-15687374D01*
X59690000Y-16062626D01*
X59763209Y-16430668D01*
X59906811Y-16777356D01*
X60115290Y-17089366D01*
X60380634Y-17354710D01*
X60692644Y-17563189D01*
X61039332Y-17706791D01*
X61407374Y-17780000D01*
X61782626Y-17780000D01*
X62150668Y-17706791D01*
X62497356Y-17563189D01*
X62809366Y-17354710D01*
X63074710Y-17089366D01*
X63283189Y-16777356D01*
X63426791Y-16430668D01*
X63500000Y-16062626D01*
X63500000Y-15687374D01*
X63426791Y-15319332D01*
X63283189Y-14972644D01*
X63074710Y-14660634D01*
X62809366Y-14395290D01*
X62497356Y-14186811D01*
X62150668Y-14043209D01*
X61782626Y-13970000D01*
X61407374Y-13970000D01*
X61039332Y-14043209D01*
X60692644Y-14186811D01*
X60380634Y-14395290D01*
X60115290Y-14660634D01*
X59906811Y-14972644D01*
X59763209Y-15319332D01*
X59690000Y-15687374D01*
X58857887Y-15687374D01*
X58968768Y-15576493D01*
X59135551Y-15326885D01*
X59250434Y-15049534D01*
X59309000Y-14755101D01*
X59309000Y-14454899D01*
X59250434Y-14160466D01*
X59135551Y-13883115D01*
X58968768Y-13633507D01*
X58797261Y-13462000D01*
X64008000Y-13462000D01*
X64008000Y-36068000D01*
G36*
X28661232Y-13633507D02*
G01*
X28494449Y-13883115D01*
X28379566Y-14160466D01*
X28321000Y-14454899D01*
X28321000Y-14755101D01*
X28379566Y-15049534D01*
X28494449Y-15326885D01*
X28661232Y-15576493D01*
X28873507Y-15788768D01*
X29123115Y-15955551D01*
X29400466Y-16070434D01*
X29694899Y-16129000D01*
X29995101Y-16129000D01*
X30289534Y-16070434D01*
X30566885Y-15955551D01*
X30816493Y-15788768D01*
X31028768Y-15576493D01*
X31115000Y-15447438D01*
X31201232Y-15576493D01*
X31413507Y-15788768D01*
X31663115Y-15955551D01*
X31940466Y-16070434D01*
X32234899Y-16129000D01*
X32535101Y-16129000D01*
X32829534Y-16070434D01*
X33106885Y-15955551D01*
X33356493Y-15788768D01*
X33568768Y-15576493D01*
X33655000Y-15447438D01*
X33741232Y-15576493D01*
X33953507Y-15788768D01*
X34203115Y-15955551D01*
X34480466Y-16070434D01*
X34774899Y-16129000D01*
X35075101Y-16129000D01*
X35369534Y-16070434D01*
X35646885Y-15955551D01*
X35896493Y-15788768D01*
X36108768Y-15576493D01*
X36195000Y-15447438D01*
X36281232Y-15576493D01*
X36493507Y-15788768D01*
X36743115Y-15955551D01*
X37020466Y-16070434D01*
X37314899Y-16129000D01*
X37615101Y-16129000D01*
X37909534Y-16070434D01*
X38186885Y-15955551D01*
X38436493Y-15788768D01*
X38648768Y-15576493D01*
X38735000Y-15447438D01*
X38821232Y-15576493D01*
X39033507Y-15788768D01*
X39283115Y-15955551D01*
X39560466Y-16070434D01*
X39854899Y-16129000D01*
X40155101Y-16129000D01*
X40404576Y-16079377D01*
X44166184Y-19840985D01*
X44149744Y-19847795D01*
X43980226Y-19961063D01*
X43836063Y-20105226D01*
X43722795Y-20274744D01*
X43644774Y-20463102D01*
X43605000Y-20663061D01*
X43605000Y-20866939D01*
X43644774Y-21066898D01*
X43722795Y-21255256D01*
X43836063Y-21424774D01*
X43880000Y-21468711D01*
X43880001Y-28092668D01*
X43876324Y-28130000D01*
X43880001Y-28167333D01*
X43890419Y-28273102D01*
X43890998Y-28278985D01*
X43934454Y-28422246D01*
X44005026Y-28554276D01*
X44050000Y-28609076D01*
X44050000Y-28676939D01*
X44089774Y-28876898D01*
X44167795Y-29065256D01*
X44281063Y-29234774D01*
X44425226Y-29378937D01*
X44594744Y-29492205D01*
X44783102Y-29570226D01*
X44983061Y-29610000D01*
X45186939Y-29610000D01*
X45380001Y-29571598D01*
X45380001Y-33429822D01*
X45235101Y-33401000D01*
X44934899Y-33401000D01*
X44640466Y-33459566D01*
X44363115Y-33574449D01*
X44113507Y-33741232D01*
X43901232Y-33953507D01*
X43815000Y-34082562D01*
X43728768Y-33953507D01*
X43516493Y-33741232D01*
X43266885Y-33574449D01*
X42989534Y-33459566D01*
X42695101Y-33401000D01*
X42394899Y-33401000D01*
X42100466Y-33459566D01*
X41823115Y-33574449D01*
X41573507Y-33741232D01*
X41361232Y-33953507D01*
X41275000Y-34082562D01*
X41188768Y-33953507D01*
X40976493Y-33741232D01*
X40726885Y-33574449D01*
X40449534Y-33459566D01*
X40155101Y-33401000D01*
X39854899Y-33401000D01*
X39560466Y-33459566D01*
X39283115Y-33574449D01*
X39033507Y-33741232D01*
X38821232Y-33953507D01*
X38735000Y-34082562D01*
X38648768Y-33953507D01*
X38436493Y-33741232D01*
X38186885Y-33574449D01*
X37909534Y-33459566D01*
X37615101Y-33401000D01*
X37314899Y-33401000D01*
X37020466Y-33459566D01*
X36743115Y-33574449D01*
X36493507Y-33741232D01*
X36281232Y-33953507D01*
X36195000Y-34082562D01*
X36108768Y-33953507D01*
X35896493Y-33741232D01*
X35646885Y-33574449D01*
X35369534Y-33459566D01*
X35075101Y-33401000D01*
X34774899Y-33401000D01*
X34480466Y-33459566D01*
X34203115Y-33574449D01*
X33953507Y-33741232D01*
X33741232Y-33953507D01*
X33655000Y-34082562D01*
X33568768Y-33953507D01*
X33356493Y-33741232D01*
X33106885Y-33574449D01*
X32829534Y-33459566D01*
X32535101Y-33401000D01*
X32234899Y-33401000D01*
X31940466Y-33459566D01*
X31663115Y-33574449D01*
X31413507Y-33741232D01*
X31201232Y-33953507D01*
X31115000Y-34082562D01*
X31028768Y-33953507D01*
X30816493Y-33741232D01*
X30566885Y-33574449D01*
X30289534Y-33459566D01*
X29995101Y-33401000D01*
X29694899Y-33401000D01*
X29400466Y-33459566D01*
X29123115Y-33574449D01*
X28873507Y-33741232D01*
X28661232Y-33953507D01*
X28555583Y-34111622D01*
X28361231Y-34048374D01*
X27484605Y-34925000D01*
X28361231Y-35801626D01*
X28555583Y-35738378D01*
X28661232Y-35896493D01*
X28832739Y-36068000D01*
X28153389Y-36068000D01*
X28181626Y-35981231D01*
X27305000Y-35104605D01*
X26428374Y-35981231D01*
X26456611Y-36068000D01*
X25777261Y-36068000D01*
X25948768Y-35896493D01*
X26054417Y-35738378D01*
X26248769Y-35801626D01*
X27125395Y-34925000D01*
X26248769Y-34048374D01*
X26054417Y-34111622D01*
X25948768Y-33953507D01*
X25864030Y-33868769D01*
X26428374Y-33868769D01*
X27305000Y-34745395D01*
X28181626Y-33868769D01*
X28099273Y-33615711D01*
X27828582Y-33485914D01*
X27537770Y-33411420D01*
X27238012Y-33395092D01*
X26940829Y-33437557D01*
X26657641Y-33537184D01*
X26510727Y-33615711D01*
X26428374Y-33868769D01*
X25864030Y-33868769D01*
X25736493Y-33741232D01*
X25486885Y-33574449D01*
X25209534Y-33459566D01*
X24915101Y-33401000D01*
X24614899Y-33401000D01*
X24320466Y-33459566D01*
X24043115Y-33574449D01*
X23793507Y-33741232D01*
X23581232Y-33953507D01*
X23495000Y-34082562D01*
X23408768Y-33953507D01*
X23196493Y-33741232D01*
X22946885Y-33574449D01*
X22669534Y-33459566D01*
X22375101Y-33401000D01*
X22074899Y-33401000D01*
X21780466Y-33459566D01*
X21503115Y-33574449D01*
X21253507Y-33741232D01*
X21041232Y-33953507D01*
X20955000Y-34082562D01*
X20868768Y-33953507D01*
X20656493Y-33741232D01*
X20406885Y-33574449D01*
X20129534Y-33459566D01*
X19835101Y-33401000D01*
X19534899Y-33401000D01*
X19240466Y-33459566D01*
X18963115Y-33574449D01*
X18713507Y-33741232D01*
X18501232Y-33953507D01*
X18364757Y-34157756D01*
X18415000Y-33905168D01*
X18415000Y-33404832D01*
X18317389Y-32914109D01*
X18125919Y-32451859D01*
X17847947Y-32035844D01*
X17494156Y-31682053D01*
X17078141Y-31404081D01*
X16615891Y-31212611D01*
X16125168Y-31115000D01*
X15624832Y-31115000D01*
X15134109Y-31212611D01*
X14671859Y-31404081D01*
X14255844Y-31682053D01*
X13902053Y-32035844D01*
X13624081Y-32451859D01*
X13462000Y-32843158D01*
X13462000Y-30402899D01*
X15589250Y-30400000D01*
X15748000Y-30241250D01*
X15748000Y-29142000D01*
X16002000Y-29142000D01*
X16002000Y-30241250D01*
X16160750Y-30400000D01*
X18415000Y-30403072D01*
X18539482Y-30390812D01*
X18659180Y-30354502D01*
X18769494Y-30295537D01*
X18866185Y-30216185D01*
X18945537Y-30119494D01*
X19004502Y-30009180D01*
X19040812Y-29889482D01*
X19053072Y-29765000D01*
X19050000Y-29300750D01*
X18891250Y-29142000D01*
X16002000Y-29142000D01*
X15748000Y-29142000D01*
X15728000Y-29142000D01*
X15728000Y-28888000D01*
X15748000Y-28888000D01*
X15748000Y-27788750D01*
X16002000Y-27788750D01*
X16002000Y-28888000D01*
X18891250Y-28888000D01*
X19050000Y-28729250D01*
X19053072Y-28265000D01*
X19040812Y-28140518D01*
X19004502Y-28020820D01*
X18945537Y-27910506D01*
X18866185Y-27813815D01*
X18769494Y-27734463D01*
X18659180Y-27675498D01*
X18539482Y-27639188D01*
X18415000Y-27626928D01*
X16160750Y-27630000D01*
X16002000Y-27788750D01*
X15748000Y-27788750D01*
X15589250Y-27630000D01*
X13462000Y-27627101D01*
X13462000Y-21902899D01*
X15589250Y-21900000D01*
X15748000Y-21741250D01*
X15748000Y-20642000D01*
X16002000Y-20642000D01*
X16002000Y-21741250D01*
X16160750Y-21900000D01*
X18415000Y-21903072D01*
X18539482Y-21890812D01*
X18659180Y-21854502D01*
X18769494Y-21795537D01*
X18866185Y-21716185D01*
X18945537Y-21619494D01*
X19004502Y-21509180D01*
X19040812Y-21389482D01*
X19053072Y-21265000D01*
X19050000Y-20800750D01*
X18891250Y-20642000D01*
X16002000Y-20642000D01*
X15748000Y-20642000D01*
X15728000Y-20642000D01*
X15728000Y-20388000D01*
X15748000Y-20388000D01*
X15748000Y-19288750D01*
X16002000Y-19288750D01*
X16002000Y-20388000D01*
X18891250Y-20388000D01*
X19050000Y-20229250D01*
X19053072Y-19765000D01*
X19040812Y-19640518D01*
X19004502Y-19520820D01*
X18945537Y-19410506D01*
X18866185Y-19313815D01*
X18769494Y-19234463D01*
X18659180Y-19175498D01*
X18539482Y-19139188D01*
X18415000Y-19126928D01*
X16160750Y-19130000D01*
X16002000Y-19288750D01*
X15748000Y-19288750D01*
X15589250Y-19130000D01*
X13462000Y-19127101D01*
X13462000Y-16686842D01*
X13624081Y-17078141D01*
X13902053Y-17494156D01*
X14255844Y-17847947D01*
X14671859Y-18125919D01*
X15134109Y-18317389D01*
X15624832Y-18415000D01*
X16125168Y-18415000D01*
X16615891Y-18317389D01*
X17078141Y-18125919D01*
X17494156Y-17847947D01*
X17847947Y-17494156D01*
X18125919Y-17078141D01*
X18317389Y-16615891D01*
X18415000Y-16125168D01*
X18415000Y-15624832D01*
X18317389Y-15134109D01*
X18125919Y-14671859D01*
X17847947Y-14255844D01*
X17494156Y-13902053D01*
X17078141Y-13624081D01*
X16686842Y-13462000D01*
X28832739Y-13462000D01*
X28661232Y-13633507D01*
X28661232Y-13633507D01*
G37*
X28661232Y-13633507D02*
X28494449Y-13883115D01*
X28379566Y-14160466D01*
X28321000Y-14454899D01*
X28321000Y-14755101D01*
X28379566Y-15049534D01*
X28494449Y-15326885D01*
X28661232Y-15576493D01*
X28873507Y-15788768D01*
X29123115Y-15955551D01*
X29400466Y-16070434D01*
X29694899Y-16129000D01*
X29995101Y-16129000D01*
X30289534Y-16070434D01*
X30566885Y-15955551D01*
X30816493Y-15788768D01*
X31028768Y-15576493D01*
X31115000Y-15447438D01*
X31201232Y-15576493D01*
X31413507Y-15788768D01*
X31663115Y-15955551D01*
X31940466Y-16070434D01*
X32234899Y-16129000D01*
X32535101Y-16129000D01*
X32829534Y-16070434D01*
X33106885Y-15955551D01*
X33356493Y-15788768D01*
X33568768Y-15576493D01*
X33655000Y-15447438D01*
X33741232Y-15576493D01*
X33953507Y-15788768D01*
X34203115Y-15955551D01*
X34480466Y-16070434D01*
X34774899Y-16129000D01*
X35075101Y-16129000D01*
X35369534Y-16070434D01*
X35646885Y-15955551D01*
X35896493Y-15788768D01*
X36108768Y-15576493D01*
X36195000Y-15447438D01*
X36281232Y-15576493D01*
X36493507Y-15788768D01*
X36743115Y-15955551D01*
X37020466Y-16070434D01*
X37314899Y-16129000D01*
X37615101Y-16129000D01*
X37909534Y-16070434D01*
X38186885Y-15955551D01*
X38436493Y-15788768D01*
X38648768Y-15576493D01*
X38735000Y-15447438D01*
X38821232Y-15576493D01*
X39033507Y-15788768D01*
X39283115Y-15955551D01*
X39560466Y-16070434D01*
X39854899Y-16129000D01*
X40155101Y-16129000D01*
X40404576Y-16079377D01*
X44166184Y-19840985D01*
X44149744Y-19847795D01*
X43980226Y-19961063D01*
X43836063Y-20105226D01*
X43722795Y-20274744D01*
X43644774Y-20463102D01*
X43605000Y-20663061D01*
X43605000Y-20866939D01*
X43644774Y-21066898D01*
X43722795Y-21255256D01*
X43836063Y-21424774D01*
X43880000Y-21468711D01*
X43880001Y-28092668D01*
X43876324Y-28130000D01*
X43880001Y-28167333D01*
X43890419Y-28273102D01*
X43890998Y-28278985D01*
X43934454Y-28422246D01*
X44005026Y-28554276D01*
X44050000Y-28609076D01*
X44050000Y-28676939D01*
X44089774Y-28876898D01*
X44167795Y-29065256D01*
X44281063Y-29234774D01*
X44425226Y-29378937D01*
X44594744Y-29492205D01*
X44783102Y-29570226D01*
X44983061Y-29610000D01*
X45186939Y-29610000D01*
X45380001Y-29571598D01*
X45380001Y-33429822D01*
X45235101Y-33401000D01*
X44934899Y-33401000D01*
X44640466Y-33459566D01*
X44363115Y-33574449D01*
X44113507Y-33741232D01*
X43901232Y-33953507D01*
X43815000Y-34082562D01*
X43728768Y-33953507D01*
X43516493Y-33741232D01*
X43266885Y-33574449D01*
X42989534Y-33459566D01*
X42695101Y-33401000D01*
X42394899Y-33401000D01*
X42100466Y-33459566D01*
X41823115Y-33574449D01*
X41573507Y-33741232D01*
X41361232Y-33953507D01*
X41275000Y-34082562D01*
X41188768Y-33953507D01*
X40976493Y-33741232D01*
X40726885Y-33574449D01*
X40449534Y-33459566D01*
X40155101Y-33401000D01*
X39854899Y-33401000D01*
X39560466Y-33459566D01*
X39283115Y-33574449D01*
X39033507Y-33741232D01*
X38821232Y-33953507D01*
X38735000Y-34082562D01*
X38648768Y-33953507D01*
X38436493Y-33741232D01*
X38186885Y-33574449D01*
X37909534Y-33459566D01*
X37615101Y-33401000D01*
X37314899Y-33401000D01*
X37020466Y-33459566D01*
X36743115Y-33574449D01*
X36493507Y-33741232D01*
X36281232Y-33953507D01*
X36195000Y-34082562D01*
X36108768Y-33953507D01*
X35896493Y-33741232D01*
X35646885Y-33574449D01*
X35369534Y-33459566D01*
X35075101Y-33401000D01*
X34774899Y-33401000D01*
X34480466Y-33459566D01*
X34203115Y-33574449D01*
X33953507Y-33741232D01*
X33741232Y-33953507D01*
X33655000Y-34082562D01*
X33568768Y-33953507D01*
X33356493Y-33741232D01*
X33106885Y-33574449D01*
X32829534Y-33459566D01*
X32535101Y-33401000D01*
X32234899Y-33401000D01*
X31940466Y-33459566D01*
X31663115Y-33574449D01*
X31413507Y-33741232D01*
X31201232Y-33953507D01*
X31115000Y-34082562D01*
X31028768Y-33953507D01*
X30816493Y-33741232D01*
X30566885Y-33574449D01*
X30289534Y-33459566D01*
X29995101Y-33401000D01*
X29694899Y-33401000D01*
X29400466Y-33459566D01*
X29123115Y-33574449D01*
X28873507Y-33741232D01*
X28661232Y-33953507D01*
X28555583Y-34111622D01*
X28361231Y-34048374D01*
X27484605Y-34925000D01*
X28361231Y-35801626D01*
X28555583Y-35738378D01*
X28661232Y-35896493D01*
X28832739Y-36068000D01*
X28153389Y-36068000D01*
X28181626Y-35981231D01*
X27305000Y-35104605D01*
X26428374Y-35981231D01*
X26456611Y-36068000D01*
X25777261Y-36068000D01*
X25948768Y-35896493D01*
X26054417Y-35738378D01*
X26248769Y-35801626D01*
X27125395Y-34925000D01*
X26248769Y-34048374D01*
X26054417Y-34111622D01*
X25948768Y-33953507D01*
X25864030Y-33868769D01*
X26428374Y-33868769D01*
X27305000Y-34745395D01*
X28181626Y-33868769D01*
X28099273Y-33615711D01*
X27828582Y-33485914D01*
X27537770Y-33411420D01*
X27238012Y-33395092D01*
X26940829Y-33437557D01*
X26657641Y-33537184D01*
X26510727Y-33615711D01*
X26428374Y-33868769D01*
X25864030Y-33868769D01*
X25736493Y-33741232D01*
X25486885Y-33574449D01*
X25209534Y-33459566D01*
X24915101Y-33401000D01*
X24614899Y-33401000D01*
X24320466Y-33459566D01*
X24043115Y-33574449D01*
X23793507Y-33741232D01*
X23581232Y-33953507D01*
X23495000Y-34082562D01*
X23408768Y-33953507D01*
X23196493Y-33741232D01*
X22946885Y-33574449D01*
X22669534Y-33459566D01*
X22375101Y-33401000D01*
X22074899Y-33401000D01*
X21780466Y-33459566D01*
X21503115Y-33574449D01*
X21253507Y-33741232D01*
X21041232Y-33953507D01*
X20955000Y-34082562D01*
X20868768Y-33953507D01*
X20656493Y-33741232D01*
X20406885Y-33574449D01*
X20129534Y-33459566D01*
X19835101Y-33401000D01*
X19534899Y-33401000D01*
X19240466Y-33459566D01*
X18963115Y-33574449D01*
X18713507Y-33741232D01*
X18501232Y-33953507D01*
X18364757Y-34157756D01*
X18415000Y-33905168D01*
X18415000Y-33404832D01*
X18317389Y-32914109D01*
X18125919Y-32451859D01*
X17847947Y-32035844D01*
X17494156Y-31682053D01*
X17078141Y-31404081D01*
X16615891Y-31212611D01*
X16125168Y-31115000D01*
X15624832Y-31115000D01*
X15134109Y-31212611D01*
X14671859Y-31404081D01*
X14255844Y-31682053D01*
X13902053Y-32035844D01*
X13624081Y-32451859D01*
X13462000Y-32843158D01*
X13462000Y-30402899D01*
X15589250Y-30400000D01*
X15748000Y-30241250D01*
X15748000Y-29142000D01*
X16002000Y-29142000D01*
X16002000Y-30241250D01*
X16160750Y-30400000D01*
X18415000Y-30403072D01*
X18539482Y-30390812D01*
X18659180Y-30354502D01*
X18769494Y-30295537D01*
X18866185Y-30216185D01*
X18945537Y-30119494D01*
X19004502Y-30009180D01*
X19040812Y-29889482D01*
X19053072Y-29765000D01*
X19050000Y-29300750D01*
X18891250Y-29142000D01*
X16002000Y-29142000D01*
X15748000Y-29142000D01*
X15728000Y-29142000D01*
X15728000Y-28888000D01*
X15748000Y-28888000D01*
X15748000Y-27788750D01*
X16002000Y-27788750D01*
X16002000Y-28888000D01*
X18891250Y-28888000D01*
X19050000Y-28729250D01*
X19053072Y-28265000D01*
X19040812Y-28140518D01*
X19004502Y-28020820D01*
X18945537Y-27910506D01*
X18866185Y-27813815D01*
X18769494Y-27734463D01*
X18659180Y-27675498D01*
X18539482Y-27639188D01*
X18415000Y-27626928D01*
X16160750Y-27630000D01*
X16002000Y-27788750D01*
X15748000Y-27788750D01*
X15589250Y-27630000D01*
X13462000Y-27627101D01*
X13462000Y-21902899D01*
X15589250Y-21900000D01*
X15748000Y-21741250D01*
X15748000Y-20642000D01*
X16002000Y-20642000D01*
X16002000Y-21741250D01*
X16160750Y-21900000D01*
X18415000Y-21903072D01*
X18539482Y-21890812D01*
X18659180Y-21854502D01*
X18769494Y-21795537D01*
X18866185Y-21716185D01*
X18945537Y-21619494D01*
X19004502Y-21509180D01*
X19040812Y-21389482D01*
X19053072Y-21265000D01*
X19050000Y-20800750D01*
X18891250Y-20642000D01*
X16002000Y-20642000D01*
X15748000Y-20642000D01*
X15728000Y-20642000D01*
X15728000Y-20388000D01*
X15748000Y-20388000D01*
X15748000Y-19288750D01*
X16002000Y-19288750D01*
X16002000Y-20388000D01*
X18891250Y-20388000D01*
X19050000Y-20229250D01*
X19053072Y-19765000D01*
X19040812Y-19640518D01*
X19004502Y-19520820D01*
X18945537Y-19410506D01*
X18866185Y-19313815D01*
X18769494Y-19234463D01*
X18659180Y-19175498D01*
X18539482Y-19139188D01*
X18415000Y-19126928D01*
X16160750Y-19130000D01*
X16002000Y-19288750D01*
X15748000Y-19288750D01*
X15589250Y-19130000D01*
X13462000Y-19127101D01*
X13462000Y-16686842D01*
X13624081Y-17078141D01*
X13902053Y-17494156D01*
X14255844Y-17847947D01*
X14671859Y-18125919D01*
X15134109Y-18317389D01*
X15624832Y-18415000D01*
X16125168Y-18415000D01*
X16615891Y-18317389D01*
X17078141Y-18125919D01*
X17494156Y-17847947D01*
X17847947Y-17494156D01*
X18125919Y-17078141D01*
X18317389Y-16615891D01*
X18415000Y-16125168D01*
X18415000Y-15624832D01*
X18317389Y-15134109D01*
X18125919Y-14671859D01*
X17847947Y-14255844D01*
X17494156Y-13902053D01*
X17078141Y-13624081D01*
X16686842Y-13462000D01*
X28832739Y-13462000D01*
X28661232Y-13633507D01*
M02*
