G04 #@! TF.GenerationSoftware,KiCad,Pcbnew,(5.1.2-1)-1*
G04 #@! TF.CreationDate,2019-05-16T11:09:26+08:00*
G04 #@! TF.ProjectId,huzzah-cc112x-shield,68757a7a-6168-42d6-9363-313132782d73,1*
G04 #@! TF.SameCoordinates,Original*
G04 #@! TF.FileFunction,Legend,Top*
G04 #@! TF.FilePolarity,Positive*
%FSLAX46Y46*%
G04 Gerber Fmt 4.6, Leading zero omitted, Abs format (unit mm)*
G04 Created by KiCad (PCBNEW (5.1.2-1)-1) date 2019-05-16 11:09:26*
%MOMM*%
%LPD*%
G04 APERTURE LIST*
%ADD10C,0.120000*%
%ADD11C,0.100000*%
%ADD12C,0.150000*%
G04 APERTURE END LIST*
D10*
X12665000Y-24765000D02*
X12165000Y-24515000D01*
X12165000Y-24515000D02*
X12165000Y-25015000D01*
X12165000Y-25015000D02*
X12665000Y-24765000D01*
D11*
X15875000Y-36195000D02*
X61595000Y-36195000D01*
X64135000Y-33655000D02*
G75*
G02X61595000Y-36195000I-2540000J0D01*
G01*
X64135000Y-33655000D02*
X64135000Y-15875000D01*
X61595000Y-13335000D02*
G75*
G02X64135000Y-15875000I0J-2540000D01*
G01*
X61595000Y-13335000D02*
X15875000Y-13335000D01*
X13335000Y-15875000D02*
G75*
G02X15875000Y-13335000I2540000J0D01*
G01*
X13335000Y-15875000D02*
X13335000Y-22479000D01*
X13335000Y-22479000D02*
X13843000Y-22987000D01*
X13843000Y-22987000D02*
X13843000Y-26543000D01*
X13843000Y-26543000D02*
X13335000Y-27051000D01*
X13335000Y-27051000D02*
X13335000Y-33655000D01*
X15875000Y-36195000D02*
G75*
G02X13335000Y-33655000I0J2540000D01*
G01*
D10*
X53340000Y-32385000D02*
X53340000Y-17325000D01*
X53340000Y-32385000D02*
X30290000Y-32385000D01*
X30290000Y-32385000D02*
X30290000Y-17325000D01*
X53340000Y-17325000D02*
X30290000Y-17325000D01*
D12*
X12081666Y-22931666D02*
X12081666Y-22455476D01*
X12367380Y-23026904D02*
X11367380Y-22693571D01*
X12367380Y-22360238D01*
X11843571Y-22026904D02*
X11843571Y-21693571D01*
X12367380Y-21550714D02*
X12367380Y-22026904D01*
X11367380Y-22026904D01*
X11367380Y-21550714D01*
X12367380Y-20598333D02*
X12367380Y-21169761D01*
X12367380Y-20884047D02*
X11367380Y-20884047D01*
X11510238Y-20979285D01*
X11605476Y-21074523D01*
X11653095Y-21169761D01*
M02*
