G04 #@! TF.GenerationSoftware,KiCad,Pcbnew,(5.1.2-1)-1*
G04 #@! TF.CreationDate,2019-05-16T11:09:26+08:00*
G04 #@! TF.ProjectId,huzzah-cc112x-shield,68757a7a-6168-42d6-9363-313132782d73,1*
G04 #@! TF.SameCoordinates,Original*
G04 #@! TF.FileFunction,Legend,Bot*
G04 #@! TF.FilePolarity,Positive*
%FSLAX46Y46*%
G04 Gerber Fmt 4.6, Leading zero omitted, Abs format (unit mm)*
G04 Created by KiCad (PCBNEW (5.1.2-1)-1) date 2019-05-16 11:09:26*
%MOMM*%
%LPD*%
G04 APERTURE LIST*
%ADD10C,0.010000*%
%ADD11C,0.150000*%
G04 APERTURE END LIST*
D10*
G36*
X23253700Y-14287500D02*
G01*
X23406100Y-14366240D01*
X23782020Y-14058900D01*
X24041100Y-14317980D01*
X23733760Y-14693900D01*
X23812500Y-14846300D01*
X23863300Y-15008860D01*
X24348440Y-15059660D01*
X24348440Y-15420340D01*
X23863300Y-15471140D01*
X23812500Y-15633700D01*
X23733760Y-15786100D01*
X24041100Y-16162020D01*
X23782020Y-16421100D01*
X23406100Y-16113760D01*
X23253700Y-16192500D01*
X23091140Y-16243300D01*
X23040340Y-16728440D01*
X22679660Y-16728440D01*
X22628860Y-16243300D01*
X22466300Y-16192500D01*
X22313900Y-16113760D01*
X21937980Y-16421100D01*
X21678900Y-16162020D01*
X21986240Y-15786100D01*
X21907500Y-15633700D01*
X21856700Y-15471140D01*
X21371560Y-15420340D01*
X21371560Y-15059660D01*
X21856700Y-15008860D01*
X21907500Y-14846300D01*
X21986240Y-14693900D01*
X21678900Y-14317980D01*
X21937980Y-14058900D01*
X22313900Y-14366240D01*
X22466300Y-14287500D01*
X22682200Y-14808200D01*
X22585680Y-14861540D01*
X22504400Y-14937740D01*
X22443440Y-15029180D01*
X22405340Y-15130780D01*
X22392640Y-15240000D01*
X22405340Y-15349220D01*
X22445980Y-15455900D01*
X22509480Y-15547340D01*
X22593300Y-15623540D01*
X22692360Y-15674340D01*
X22799040Y-15702280D01*
X22910800Y-15704820D01*
X23020020Y-15679420D01*
X23119080Y-15628620D01*
X23205440Y-15554960D01*
X23268940Y-15463520D01*
X23312120Y-15359380D01*
X23327360Y-15250160D01*
X23317200Y-15140940D01*
X23279100Y-15034260D01*
X23218140Y-14940280D01*
X23136860Y-14864080D01*
X23037800Y-14808200D01*
X23253700Y-14287500D01*
G37*
X23253700Y-14287500D02*
X23406100Y-14366240D01*
X23782020Y-14058900D01*
X24041100Y-14317980D01*
X23733760Y-14693900D01*
X23812500Y-14846300D01*
X23863300Y-15008860D01*
X24348440Y-15059660D01*
X24348440Y-15420340D01*
X23863300Y-15471140D01*
X23812500Y-15633700D01*
X23733760Y-15786100D01*
X24041100Y-16162020D01*
X23782020Y-16421100D01*
X23406100Y-16113760D01*
X23253700Y-16192500D01*
X23091140Y-16243300D01*
X23040340Y-16728440D01*
X22679660Y-16728440D01*
X22628860Y-16243300D01*
X22466300Y-16192500D01*
X22313900Y-16113760D01*
X21937980Y-16421100D01*
X21678900Y-16162020D01*
X21986240Y-15786100D01*
X21907500Y-15633700D01*
X21856700Y-15471140D01*
X21371560Y-15420340D01*
X21371560Y-15059660D01*
X21856700Y-15008860D01*
X21907500Y-14846300D01*
X21986240Y-14693900D01*
X21678900Y-14317980D01*
X21937980Y-14058900D01*
X22313900Y-14366240D01*
X22466300Y-14287500D01*
X22682200Y-14808200D01*
X22585680Y-14861540D01*
X22504400Y-14937740D01*
X22443440Y-15029180D01*
X22405340Y-15130780D01*
X22392640Y-15240000D01*
X22405340Y-15349220D01*
X22445980Y-15455900D01*
X22509480Y-15547340D01*
X22593300Y-15623540D01*
X22692360Y-15674340D01*
X22799040Y-15702280D01*
X22910800Y-15704820D01*
X23020020Y-15679420D01*
X23119080Y-15628620D01*
X23205440Y-15554960D01*
X23268940Y-15463520D01*
X23312120Y-15359380D01*
X23327360Y-15250160D01*
X23317200Y-15140940D01*
X23279100Y-15034260D01*
X23218140Y-14940280D01*
X23136860Y-14864080D01*
X23037800Y-14808200D01*
X23253700Y-14287500D01*
G36*
X37148709Y-23049576D02*
G01*
X37154189Y-23044735D01*
X37145023Y-23032448D01*
X37143848Y-23031146D01*
X37127317Y-22999330D01*
X37128851Y-22965277D01*
X37146843Y-22934562D01*
X37177758Y-22913535D01*
X37204087Y-22906294D01*
X37228337Y-22911324D01*
X37241663Y-22917646D01*
X37274500Y-22934627D01*
X37274460Y-22905251D01*
X37264805Y-22858784D01*
X37239007Y-22819351D01*
X37201616Y-22789728D01*
X37157180Y-22772689D01*
X37110251Y-22771009D01*
X37080294Y-22780625D01*
X37136916Y-22780625D01*
X37142208Y-22775333D01*
X37147500Y-22780625D01*
X37142208Y-22785917D01*
X37136916Y-22780625D01*
X37080294Y-22780625D01*
X37073627Y-22782765D01*
X37048219Y-22801792D01*
X37200416Y-22801792D01*
X37205708Y-22796500D01*
X37211000Y-22801792D01*
X37205708Y-22807083D01*
X37200416Y-22801792D01*
X37048219Y-22801792D01*
X37030142Y-22815328D01*
X37001915Y-22857719D01*
X37001065Y-22861205D01*
X37055469Y-22861205D01*
X37068996Y-22842179D01*
X37086811Y-22831062D01*
X37094583Y-22828250D01*
X37107408Y-22833812D01*
X37120169Y-22842179D01*
X37134288Y-22863185D01*
X37130865Y-22887502D01*
X37113104Y-22906437D01*
X37089545Y-22911944D01*
X37069381Y-22902300D01*
X37056670Y-22883416D01*
X37055469Y-22861205D01*
X37001065Y-22861205D01*
X36990250Y-22905532D01*
X36996453Y-22954364D01*
X37012880Y-22987927D01*
X37048952Y-23026940D01*
X37092848Y-23046897D01*
X37125327Y-23050344D01*
X37148709Y-23049576D01*
X37148709Y-23049576D01*
G37*
X37148709Y-23049576D02*
X37154189Y-23044735D01*
X37145023Y-23032448D01*
X37143848Y-23031146D01*
X37127317Y-22999330D01*
X37128851Y-22965277D01*
X37146843Y-22934562D01*
X37177758Y-22913535D01*
X37204087Y-22906294D01*
X37228337Y-22911324D01*
X37241663Y-22917646D01*
X37274500Y-22934627D01*
X37274460Y-22905251D01*
X37264805Y-22858784D01*
X37239007Y-22819351D01*
X37201616Y-22789728D01*
X37157180Y-22772689D01*
X37110251Y-22771009D01*
X37080294Y-22780625D01*
X37136916Y-22780625D01*
X37142208Y-22775333D01*
X37147500Y-22780625D01*
X37142208Y-22785917D01*
X37136916Y-22780625D01*
X37080294Y-22780625D01*
X37073627Y-22782765D01*
X37048219Y-22801792D01*
X37200416Y-22801792D01*
X37205708Y-22796500D01*
X37211000Y-22801792D01*
X37205708Y-22807083D01*
X37200416Y-22801792D01*
X37048219Y-22801792D01*
X37030142Y-22815328D01*
X37001915Y-22857719D01*
X37001065Y-22861205D01*
X37055469Y-22861205D01*
X37068996Y-22842179D01*
X37086811Y-22831062D01*
X37094583Y-22828250D01*
X37107408Y-22833812D01*
X37120169Y-22842179D01*
X37134288Y-22863185D01*
X37130865Y-22887502D01*
X37113104Y-22906437D01*
X37089545Y-22911944D01*
X37069381Y-22902300D01*
X37056670Y-22883416D01*
X37055469Y-22861205D01*
X37001065Y-22861205D01*
X36990250Y-22905532D01*
X36996453Y-22954364D01*
X37012880Y-22987927D01*
X37048952Y-23026940D01*
X37092848Y-23046897D01*
X37125327Y-23050344D01*
X37148709Y-23049576D01*
G36*
X37808052Y-22918724D02*
G01*
X37829986Y-22910371D01*
X37854046Y-22898221D01*
X37872411Y-22886123D01*
X37877750Y-22879207D01*
X37877309Y-22873182D01*
X37872726Y-22872511D01*
X37859109Y-22878659D01*
X37831772Y-22892983D01*
X37808261Y-22906934D01*
X37796327Y-22917134D01*
X37796066Y-22919427D01*
X37808052Y-22918724D01*
X37808052Y-22918724D01*
G37*
X37808052Y-22918724D02*
X37829986Y-22910371D01*
X37854046Y-22898221D01*
X37872411Y-22886123D01*
X37877750Y-22879207D01*
X37877309Y-22873182D01*
X37872726Y-22872511D01*
X37859109Y-22878659D01*
X37831772Y-22892983D01*
X37808261Y-22906934D01*
X37796327Y-22917134D01*
X37796066Y-22919427D01*
X37808052Y-22918724D01*
G36*
X37236458Y-23192531D02*
G01*
X37302834Y-23158278D01*
X37341542Y-23126650D01*
X37389665Y-23068562D01*
X37418966Y-23003625D01*
X37430797Y-22937245D01*
X37429654Y-22862045D01*
X37412002Y-22796113D01*
X37376198Y-22733647D01*
X37371166Y-22726851D01*
X37319163Y-22674503D01*
X37255501Y-22636560D01*
X37184729Y-22614412D01*
X37111395Y-22609449D01*
X37040049Y-22623063D01*
X37036153Y-22624421D01*
X36961714Y-22661243D01*
X36902254Y-22712727D01*
X36858546Y-22778092D01*
X36840798Y-22821810D01*
X36832324Y-22869510D01*
X36832285Y-22927070D01*
X36833354Y-22935222D01*
X36843504Y-22935222D01*
X36846222Y-22860371D01*
X36866680Y-22792539D01*
X36902182Y-22733509D01*
X36950031Y-22685061D01*
X37007532Y-22648978D01*
X37071986Y-22627043D01*
X37140698Y-22621036D01*
X37210971Y-22632741D01*
X37266201Y-22655890D01*
X37329480Y-22701043D01*
X37376365Y-22756716D01*
X37406700Y-22819853D01*
X37420329Y-22887399D01*
X37417097Y-22956298D01*
X37396850Y-23023493D01*
X37359432Y-23085930D01*
X37304688Y-23140553D01*
X37291321Y-23150501D01*
X37262341Y-23170497D01*
X37239815Y-23183048D01*
X37217287Y-23189887D01*
X37188298Y-23192749D01*
X37146389Y-23193368D01*
X37131625Y-23193375D01*
X37084994Y-23193072D01*
X37053072Y-23191005D01*
X37029400Y-23185441D01*
X37007521Y-23174646D01*
X36980975Y-23156886D01*
X36971928Y-23150501D01*
X36911365Y-23096157D01*
X36869480Y-23032216D01*
X36846637Y-22959288D01*
X36843504Y-22935222D01*
X36833354Y-22935222D01*
X36839921Y-22985288D01*
X36854473Y-23034957D01*
X36859230Y-23045208D01*
X36902985Y-23108962D01*
X36958818Y-23157784D01*
X37023404Y-23191113D01*
X37093421Y-23208388D01*
X37165547Y-23209048D01*
X37236458Y-23192531D01*
X37236458Y-23192531D01*
G37*
X37236458Y-23192531D02*
X37302834Y-23158278D01*
X37341542Y-23126650D01*
X37389665Y-23068562D01*
X37418966Y-23003625D01*
X37430797Y-22937245D01*
X37429654Y-22862045D01*
X37412002Y-22796113D01*
X37376198Y-22733647D01*
X37371166Y-22726851D01*
X37319163Y-22674503D01*
X37255501Y-22636560D01*
X37184729Y-22614412D01*
X37111395Y-22609449D01*
X37040049Y-22623063D01*
X37036153Y-22624421D01*
X36961714Y-22661243D01*
X36902254Y-22712727D01*
X36858546Y-22778092D01*
X36840798Y-22821810D01*
X36832324Y-22869510D01*
X36832285Y-22927070D01*
X36833354Y-22935222D01*
X36843504Y-22935222D01*
X36846222Y-22860371D01*
X36866680Y-22792539D01*
X36902182Y-22733509D01*
X36950031Y-22685061D01*
X37007532Y-22648978D01*
X37071986Y-22627043D01*
X37140698Y-22621036D01*
X37210971Y-22632741D01*
X37266201Y-22655890D01*
X37329480Y-22701043D01*
X37376365Y-22756716D01*
X37406700Y-22819853D01*
X37420329Y-22887399D01*
X37417097Y-22956298D01*
X37396850Y-23023493D01*
X37359432Y-23085930D01*
X37304688Y-23140553D01*
X37291321Y-23150501D01*
X37262341Y-23170497D01*
X37239815Y-23183048D01*
X37217287Y-23189887D01*
X37188298Y-23192749D01*
X37146389Y-23193368D01*
X37131625Y-23193375D01*
X37084994Y-23193072D01*
X37053072Y-23191005D01*
X37029400Y-23185441D01*
X37007521Y-23174646D01*
X36980975Y-23156886D01*
X36971928Y-23150501D01*
X36911365Y-23096157D01*
X36869480Y-23032216D01*
X36846637Y-22959288D01*
X36843504Y-22935222D01*
X36833354Y-22935222D01*
X36839921Y-22985288D01*
X36854473Y-23034957D01*
X36859230Y-23045208D01*
X36902985Y-23108962D01*
X36958818Y-23157784D01*
X37023404Y-23191113D01*
X37093421Y-23208388D01*
X37165547Y-23209048D01*
X37236458Y-23192531D01*
G36*
X37726055Y-24062972D02*
G01*
X37724602Y-24056681D01*
X37719000Y-24055917D01*
X37710288Y-24059789D01*
X37711944Y-24062972D01*
X37724504Y-24064239D01*
X37726055Y-24062972D01*
X37726055Y-24062972D01*
G37*
X37726055Y-24062972D02*
X37724602Y-24056681D01*
X37719000Y-24055917D01*
X37710288Y-24059789D01*
X37711944Y-24062972D01*
X37724504Y-24064239D01*
X37726055Y-24062972D01*
G36*
X36247916Y-24061208D02*
G01*
X36242625Y-24055917D01*
X36237333Y-24061208D01*
X36242625Y-24066500D01*
X36247916Y-24061208D01*
X36247916Y-24061208D01*
G37*
X36247916Y-24061208D02*
X36242625Y-24055917D01*
X36237333Y-24061208D01*
X36242625Y-24066500D01*
X36247916Y-24061208D01*
G36*
X37098555Y-24186958D02*
G01*
X37177080Y-24184279D01*
X37244622Y-24180215D01*
X37296594Y-24174767D01*
X37304636Y-24173525D01*
X37392980Y-24158841D01*
X37386443Y-24126154D01*
X37362184Y-24055672D01*
X37320209Y-23988869D01*
X37263964Y-23928920D01*
X37196892Y-23879002D01*
X37122439Y-23842292D01*
X37059225Y-23824445D01*
X37009916Y-23815233D01*
X37009916Y-23881362D01*
X37012325Y-23926407D01*
X37019880Y-23953256D01*
X37025791Y-23960667D01*
X37039954Y-23985072D01*
X37038066Y-24017579D01*
X37030710Y-24035446D01*
X37012487Y-24050050D01*
X36984081Y-24056107D01*
X36955008Y-24052819D01*
X36937950Y-24043217D01*
X36926738Y-24018966D01*
X36927863Y-23988128D01*
X36940865Y-23960977D01*
X36941661Y-23960074D01*
X36951841Y-23940023D01*
X36955504Y-23907002D01*
X36954890Y-23878987D01*
X36951708Y-23816035D01*
X36893500Y-23828097D01*
X36808327Y-23856126D01*
X36731383Y-23901808D01*
X36665651Y-23962420D01*
X36614116Y-24035243D01*
X36581079Y-24113070D01*
X36567127Y-24159429D01*
X36612866Y-24167042D01*
X37253333Y-24167042D01*
X37258625Y-24161750D01*
X37263916Y-24167042D01*
X37258625Y-24172333D01*
X37253333Y-24167042D01*
X36612866Y-24167042D01*
X36653584Y-24173819D01*
X36701698Y-24179497D01*
X36766346Y-24183777D01*
X36842942Y-24186661D01*
X36926899Y-24188151D01*
X37013632Y-24188249D01*
X37098555Y-24186958D01*
X37098555Y-24186958D01*
G37*
X37098555Y-24186958D02*
X37177080Y-24184279D01*
X37244622Y-24180215D01*
X37296594Y-24174767D01*
X37304636Y-24173525D01*
X37392980Y-24158841D01*
X37386443Y-24126154D01*
X37362184Y-24055672D01*
X37320209Y-23988869D01*
X37263964Y-23928920D01*
X37196892Y-23879002D01*
X37122439Y-23842292D01*
X37059225Y-23824445D01*
X37009916Y-23815233D01*
X37009916Y-23881362D01*
X37012325Y-23926407D01*
X37019880Y-23953256D01*
X37025791Y-23960667D01*
X37039954Y-23985072D01*
X37038066Y-24017579D01*
X37030710Y-24035446D01*
X37012487Y-24050050D01*
X36984081Y-24056107D01*
X36955008Y-24052819D01*
X36937950Y-24043217D01*
X36926738Y-24018966D01*
X36927863Y-23988128D01*
X36940865Y-23960977D01*
X36941661Y-23960074D01*
X36951841Y-23940023D01*
X36955504Y-23907002D01*
X36954890Y-23878987D01*
X36951708Y-23816035D01*
X36893500Y-23828097D01*
X36808327Y-23856126D01*
X36731383Y-23901808D01*
X36665651Y-23962420D01*
X36614116Y-24035243D01*
X36581079Y-24113070D01*
X36567127Y-24159429D01*
X36612866Y-24167042D01*
X37253333Y-24167042D01*
X37258625Y-24161750D01*
X37263916Y-24167042D01*
X37258625Y-24172333D01*
X37253333Y-24167042D01*
X36612866Y-24167042D01*
X36653584Y-24173819D01*
X36701698Y-24179497D01*
X36766346Y-24183777D01*
X36842942Y-24186661D01*
X36926899Y-24188151D01*
X37013632Y-24188249D01*
X37098555Y-24186958D01*
G36*
X35440262Y-23466997D02*
G01*
X35438291Y-23463250D01*
X35428319Y-23453143D01*
X35426459Y-23452667D01*
X35425737Y-23459503D01*
X35427708Y-23463250D01*
X35437680Y-23473357D01*
X35439540Y-23473833D01*
X35440262Y-23466997D01*
X35440262Y-23466997D01*
G37*
X35440262Y-23466997D02*
X35438291Y-23463250D01*
X35428319Y-23453143D01*
X35426459Y-23452667D01*
X35425737Y-23459503D01*
X35427708Y-23463250D01*
X35437680Y-23473357D01*
X35439540Y-23473833D01*
X35440262Y-23466997D01*
G36*
X38553448Y-23437802D02*
G01*
X38564720Y-23427964D01*
X38565666Y-23425584D01*
X38560644Y-23421234D01*
X38550187Y-23430981D01*
X38548781Y-23433135D01*
X38547533Y-23440378D01*
X38553448Y-23437802D01*
X38553448Y-23437802D01*
G37*
X38553448Y-23437802D02*
X38564720Y-23427964D01*
X38565666Y-23425584D01*
X38560644Y-23421234D01*
X38550187Y-23430981D01*
X38548781Y-23433135D01*
X38547533Y-23440378D01*
X38553448Y-23437802D01*
G36*
X35411833Y-23426208D02*
G01*
X35406541Y-23420917D01*
X35401250Y-23426208D01*
X35406541Y-23431500D01*
X35411833Y-23426208D01*
X35411833Y-23426208D01*
G37*
X35411833Y-23426208D02*
X35406541Y-23420917D01*
X35401250Y-23426208D01*
X35406541Y-23431500D01*
X35411833Y-23426208D01*
G36*
X45455416Y-20716875D02*
G01*
X45450125Y-20711583D01*
X45444833Y-20716875D01*
X45450125Y-20722167D01*
X45455416Y-20716875D01*
X45455416Y-20716875D01*
G37*
X45455416Y-20716875D02*
X45450125Y-20711583D01*
X45444833Y-20716875D01*
X45450125Y-20722167D01*
X45455416Y-20716875D01*
G36*
X38205833Y-20600458D02*
G01*
X38200541Y-20595167D01*
X38195250Y-20600458D01*
X38200541Y-20605750D01*
X38205833Y-20600458D01*
X38205833Y-20600458D01*
G37*
X38205833Y-20600458D02*
X38200541Y-20595167D01*
X38195250Y-20600458D01*
X38200541Y-20605750D01*
X38205833Y-20600458D01*
G36*
X48699208Y-22103292D02*
G01*
X48861825Y-22100364D01*
X48934389Y-22099769D01*
X48987177Y-22101017D01*
X49021506Y-22104178D01*
X49038692Y-22109323D01*
X49039439Y-22109882D01*
X49048106Y-22120785D01*
X49067503Y-22147546D01*
X49096478Y-22188504D01*
X49133876Y-22242002D01*
X49178546Y-22306381D01*
X49229333Y-22379980D01*
X49285085Y-22461141D01*
X49344648Y-22548206D01*
X49374238Y-22591584D01*
X49694041Y-23060840D01*
X50061812Y-23060962D01*
X50147656Y-23060833D01*
X50226392Y-23060412D01*
X50295618Y-23059734D01*
X50352929Y-23058837D01*
X50395923Y-23057757D01*
X50422195Y-23056530D01*
X50429583Y-23055399D01*
X50423771Y-23043186D01*
X50408644Y-23019800D01*
X50387664Y-22989923D01*
X50364295Y-22958235D01*
X50341998Y-22929420D01*
X50324236Y-22908159D01*
X50314472Y-22899134D01*
X50313984Y-22899100D01*
X50306777Y-22892771D01*
X50306111Y-22887436D01*
X50301939Y-22877105D01*
X50289023Y-22855321D01*
X50266757Y-22821200D01*
X50234538Y-22773860D01*
X50191762Y-22712416D01*
X50137824Y-22635985D01*
X50072121Y-22543684D01*
X50048583Y-22510750D01*
X50024884Y-22477483D01*
X49992553Y-22431912D01*
X49955136Y-22379043D01*
X49916179Y-22323886D01*
X49898691Y-22299083D01*
X49855239Y-22237469D01*
X49804887Y-22166140D01*
X49752972Y-22092654D01*
X49704832Y-22024567D01*
X49690010Y-22003619D01*
X49655315Y-21953577D01*
X49625785Y-21909021D01*
X49603306Y-21872962D01*
X49589766Y-21848411D01*
X49586713Y-21838788D01*
X49592987Y-21828369D01*
X49609727Y-21801800D01*
X49635893Y-21760695D01*
X49670442Y-21706669D01*
X49712333Y-21641335D01*
X49760522Y-21566308D01*
X49813970Y-21483202D01*
X49871633Y-21393631D01*
X49932469Y-21299210D01*
X49995438Y-21201553D01*
X50059496Y-21102274D01*
X50123602Y-21002988D01*
X50186715Y-20905308D01*
X50247792Y-20810848D01*
X50305791Y-20721224D01*
X50359670Y-20638050D01*
X50408388Y-20562938D01*
X50450902Y-20497505D01*
X50486172Y-20443364D01*
X50513154Y-20402129D01*
X50530806Y-20375415D01*
X50537968Y-20364979D01*
X50536938Y-20361426D01*
X50526477Y-20358532D01*
X50504934Y-20356238D01*
X50470656Y-20354488D01*
X50421988Y-20353222D01*
X50357279Y-20352383D01*
X50274875Y-20351912D01*
X50173124Y-20351751D01*
X50161857Y-20351750D01*
X49775122Y-20351750D01*
X49656164Y-20550188D01*
X49620023Y-20610269D01*
X49586396Y-20665787D01*
X49557202Y-20713603D01*
X49534360Y-20750580D01*
X49519787Y-20773580D01*
X49517059Y-20777657D01*
X49505359Y-20800817D01*
X49504030Y-20818061D01*
X49504507Y-20818980D01*
X49506012Y-20826560D01*
X49502174Y-20825134D01*
X49492515Y-20830599D01*
X49475791Y-20850589D01*
X49455215Y-20881127D01*
X49450025Y-20889644D01*
X49433912Y-20916497D01*
X49408593Y-20958550D01*
X49375825Y-21012893D01*
X49337363Y-21076618D01*
X49294962Y-21146816D01*
X49250376Y-21220579D01*
X49233424Y-21248612D01*
X49059041Y-21536932D01*
X48876479Y-21537008D01*
X48693916Y-21537083D01*
X48693916Y-20351750D01*
X48027166Y-20351750D01*
X48027166Y-24130000D01*
X48693810Y-24130000D01*
X48699208Y-22103292D01*
X48699208Y-22103292D01*
G37*
X48699208Y-22103292D02*
X48861825Y-22100364D01*
X48934389Y-22099769D01*
X48987177Y-22101017D01*
X49021506Y-22104178D01*
X49038692Y-22109323D01*
X49039439Y-22109882D01*
X49048106Y-22120785D01*
X49067503Y-22147546D01*
X49096478Y-22188504D01*
X49133876Y-22242002D01*
X49178546Y-22306381D01*
X49229333Y-22379980D01*
X49285085Y-22461141D01*
X49344648Y-22548206D01*
X49374238Y-22591584D01*
X49694041Y-23060840D01*
X50061812Y-23060962D01*
X50147656Y-23060833D01*
X50226392Y-23060412D01*
X50295618Y-23059734D01*
X50352929Y-23058837D01*
X50395923Y-23057757D01*
X50422195Y-23056530D01*
X50429583Y-23055399D01*
X50423771Y-23043186D01*
X50408644Y-23019800D01*
X50387664Y-22989923D01*
X50364295Y-22958235D01*
X50341998Y-22929420D01*
X50324236Y-22908159D01*
X50314472Y-22899134D01*
X50313984Y-22899100D01*
X50306777Y-22892771D01*
X50306111Y-22887436D01*
X50301939Y-22877105D01*
X50289023Y-22855321D01*
X50266757Y-22821200D01*
X50234538Y-22773860D01*
X50191762Y-22712416D01*
X50137824Y-22635985D01*
X50072121Y-22543684D01*
X50048583Y-22510750D01*
X50024884Y-22477483D01*
X49992553Y-22431912D01*
X49955136Y-22379043D01*
X49916179Y-22323886D01*
X49898691Y-22299083D01*
X49855239Y-22237469D01*
X49804887Y-22166140D01*
X49752972Y-22092654D01*
X49704832Y-22024567D01*
X49690010Y-22003619D01*
X49655315Y-21953577D01*
X49625785Y-21909021D01*
X49603306Y-21872962D01*
X49589766Y-21848411D01*
X49586713Y-21838788D01*
X49592987Y-21828369D01*
X49609727Y-21801800D01*
X49635893Y-21760695D01*
X49670442Y-21706669D01*
X49712333Y-21641335D01*
X49760522Y-21566308D01*
X49813970Y-21483202D01*
X49871633Y-21393631D01*
X49932469Y-21299210D01*
X49995438Y-21201553D01*
X50059496Y-21102274D01*
X50123602Y-21002988D01*
X50186715Y-20905308D01*
X50247792Y-20810848D01*
X50305791Y-20721224D01*
X50359670Y-20638050D01*
X50408388Y-20562938D01*
X50450902Y-20497505D01*
X50486172Y-20443364D01*
X50513154Y-20402129D01*
X50530806Y-20375415D01*
X50537968Y-20364979D01*
X50536938Y-20361426D01*
X50526477Y-20358532D01*
X50504934Y-20356238D01*
X50470656Y-20354488D01*
X50421988Y-20353222D01*
X50357279Y-20352383D01*
X50274875Y-20351912D01*
X50173124Y-20351751D01*
X50161857Y-20351750D01*
X49775122Y-20351750D01*
X49656164Y-20550188D01*
X49620023Y-20610269D01*
X49586396Y-20665787D01*
X49557202Y-20713603D01*
X49534360Y-20750580D01*
X49519787Y-20773580D01*
X49517059Y-20777657D01*
X49505359Y-20800817D01*
X49504030Y-20818061D01*
X49504507Y-20818980D01*
X49506012Y-20826560D01*
X49502174Y-20825134D01*
X49492515Y-20830599D01*
X49475791Y-20850589D01*
X49455215Y-20881127D01*
X49450025Y-20889644D01*
X49433912Y-20916497D01*
X49408593Y-20958550D01*
X49375825Y-21012893D01*
X49337363Y-21076618D01*
X49294962Y-21146816D01*
X49250376Y-21220579D01*
X49233424Y-21248612D01*
X49059041Y-21536932D01*
X48876479Y-21537008D01*
X48693916Y-21537083D01*
X48693916Y-20351750D01*
X48027166Y-20351750D01*
X48027166Y-24130000D01*
X48693810Y-24130000D01*
X48699208Y-22103292D01*
G36*
X34850916Y-23547917D02*
G01*
X33358666Y-23547917D01*
X33358666Y-22468417D01*
X34618083Y-22468417D01*
X34618083Y-21886333D01*
X33358666Y-21886333D01*
X33358666Y-20351750D01*
X32681333Y-20351750D01*
X32681333Y-24130000D01*
X34850916Y-24130000D01*
X34850916Y-23547917D01*
X34850916Y-23547917D01*
G37*
X34850916Y-23547917D02*
X33358666Y-23547917D01*
X33358666Y-22468417D01*
X34618083Y-22468417D01*
X34618083Y-21886333D01*
X33358666Y-21886333D01*
X33358666Y-20351750D01*
X32681333Y-20351750D01*
X32681333Y-24130000D01*
X34850916Y-24130000D01*
X34850916Y-23547917D01*
G36*
X30202187Y-24129817D02*
G01*
X30328375Y-24129638D01*
X30450667Y-24129183D01*
X30567044Y-24128476D01*
X30675487Y-24127542D01*
X30773979Y-24126407D01*
X30860500Y-24125096D01*
X30933033Y-24123633D01*
X30989558Y-24122044D01*
X31028056Y-24120354D01*
X31040916Y-24119380D01*
X31112493Y-24111294D01*
X31174339Y-24102764D01*
X31223971Y-24094247D01*
X31258906Y-24086204D01*
X31276661Y-24079091D01*
X31278111Y-24075578D01*
X31280925Y-24070975D01*
X31288638Y-24072878D01*
X31312088Y-24073135D01*
X31349547Y-24063339D01*
X31397421Y-24045191D01*
X31452118Y-24020395D01*
X31510044Y-23990650D01*
X31567606Y-23957661D01*
X31621210Y-23923127D01*
X31652191Y-23900688D01*
X31738730Y-23826850D01*
X31813007Y-23745835D01*
X31877514Y-23656824D01*
X31906880Y-23608186D01*
X31935443Y-23554053D01*
X31960992Y-23499390D01*
X31981310Y-23449160D01*
X31994185Y-23408327D01*
X31997602Y-23387561D01*
X32000412Y-23368353D01*
X32005043Y-23363383D01*
X32012183Y-23357439D01*
X32020101Y-23333840D01*
X32028305Y-23296059D01*
X32036305Y-23247572D01*
X32043612Y-23191851D01*
X32049734Y-23132371D01*
X32054183Y-23072605D01*
X32056467Y-23016028D01*
X32056664Y-22997583D01*
X32047683Y-22841771D01*
X32020847Y-22692406D01*
X31977029Y-22551031D01*
X31917105Y-22419192D01*
X31841948Y-22298432D01*
X31752433Y-22190295D01*
X31649435Y-22096327D01*
X31533827Y-22018070D01*
X31488062Y-21993421D01*
X31455365Y-21976371D01*
X31431720Y-21962925D01*
X31421955Y-21955840D01*
X31421916Y-21955666D01*
X31427389Y-21945558D01*
X31442189Y-21921701D01*
X31463884Y-21887946D01*
X31483570Y-21857923D01*
X31512073Y-21812949D01*
X31546414Y-21755944D01*
X31582628Y-21693637D01*
X31616748Y-21632757D01*
X31622751Y-21621750D01*
X31653895Y-21564567D01*
X31691873Y-21495160D01*
X31733242Y-21419808D01*
X31774553Y-21344790D01*
X31805722Y-21288375D01*
X31842999Y-21220975D01*
X31881803Y-21150722D01*
X31919110Y-21083095D01*
X31951899Y-21023572D01*
X31975048Y-20981458D01*
X32005857Y-20925373D01*
X32038966Y-20865202D01*
X32069831Y-20809194D01*
X32088666Y-20775083D01*
X32114366Y-20728494D01*
X32145912Y-20671147D01*
X32179008Y-20610863D01*
X32205002Y-20563417D01*
X32232665Y-20512975D01*
X32259137Y-20464902D01*
X32281463Y-20424551D01*
X32296690Y-20397272D01*
X32296997Y-20396729D01*
X32322392Y-20351750D01*
X31562247Y-20351750D01*
X31389494Y-20677188D01*
X31345082Y-20760849D01*
X31300379Y-20845050D01*
X31257233Y-20926312D01*
X31217491Y-21001157D01*
X31183000Y-21066106D01*
X31155606Y-21117680D01*
X31144598Y-21138401D01*
X31119458Y-21187326D01*
X31099121Y-21230028D01*
X31085185Y-21262898D01*
X31079246Y-21282327D01*
X31079487Y-21285558D01*
X31080484Y-21292488D01*
X31076947Y-21291075D01*
X31069542Y-21298362D01*
X31053801Y-21321952D01*
X31031178Y-21359382D01*
X31003132Y-21408190D01*
X30971118Y-21465912D01*
X30945666Y-21513037D01*
X30911187Y-21577115D01*
X30879341Y-21635425D01*
X30851674Y-21685207D01*
X30829732Y-21723701D01*
X30815059Y-21748147D01*
X30809973Y-21755389D01*
X30802153Y-21759622D01*
X30786372Y-21762990D01*
X30760592Y-21765578D01*
X30722775Y-21767475D01*
X30670880Y-21768766D01*
X30602871Y-21769539D01*
X30516707Y-21769881D01*
X30468660Y-21769917D01*
X30141333Y-21769917D01*
X30141333Y-20351750D01*
X29464000Y-20351750D01*
X29464000Y-22346708D01*
X30850416Y-22346708D01*
X30855708Y-22341417D01*
X30861000Y-22346708D01*
X30855708Y-22352000D01*
X30850416Y-22346708D01*
X29464000Y-22346708D01*
X29464000Y-23547917D01*
X30141333Y-23547917D01*
X30141333Y-22350187D01*
X30524979Y-22354431D01*
X30626134Y-22355614D01*
X30708555Y-22356799D01*
X30774670Y-22358131D01*
X30826911Y-22359759D01*
X30867709Y-22361829D01*
X30899493Y-22364486D01*
X30924696Y-22367879D01*
X30945747Y-22372154D01*
X30965076Y-22377457D01*
X30978783Y-22381826D01*
X31078636Y-22422431D01*
X31161248Y-22473553D01*
X31228783Y-22537251D01*
X31283403Y-22615583D01*
X31327271Y-22710610D01*
X31328983Y-22715194D01*
X31343827Y-22758347D01*
X31353831Y-22797073D01*
X31360223Y-22838455D01*
X31363987Y-22886458D01*
X32035750Y-22886458D01*
X32041041Y-22881167D01*
X32046333Y-22886458D01*
X32041041Y-22891750D01*
X32035750Y-22886458D01*
X31363987Y-22886458D01*
X31364232Y-22889574D01*
X31366041Y-22928792D01*
X31363756Y-23053183D01*
X31353305Y-23119292D01*
X32035750Y-23119292D01*
X32041041Y-23114000D01*
X32046333Y-23119292D01*
X32041041Y-23124583D01*
X32035750Y-23119292D01*
X31353305Y-23119292D01*
X31346423Y-23162815D01*
X31313877Y-23257985D01*
X31265951Y-23338986D01*
X31202479Y-23406114D01*
X31123293Y-23459664D01*
X31047259Y-23493383D01*
X31005487Y-23507624D01*
X30964981Y-23519201D01*
X30922962Y-23528379D01*
X30876648Y-23535423D01*
X30823261Y-23540599D01*
X30760019Y-23544171D01*
X30684143Y-23546404D01*
X30592854Y-23547564D01*
X30483370Y-23547916D01*
X30475326Y-23547917D01*
X30141333Y-23547917D01*
X29464000Y-23547917D01*
X29464000Y-23565556D01*
X30695194Y-23565556D01*
X30696647Y-23559264D01*
X30702250Y-23558500D01*
X30710961Y-23562372D01*
X30709305Y-23565556D01*
X30696745Y-23566822D01*
X30695194Y-23565556D01*
X29464000Y-23565556D01*
X29464000Y-24130000D01*
X30202187Y-24129817D01*
X30202187Y-24129817D01*
G37*
X30202187Y-24129817D02*
X30328375Y-24129638D01*
X30450667Y-24129183D01*
X30567044Y-24128476D01*
X30675487Y-24127542D01*
X30773979Y-24126407D01*
X30860500Y-24125096D01*
X30933033Y-24123633D01*
X30989558Y-24122044D01*
X31028056Y-24120354D01*
X31040916Y-24119380D01*
X31112493Y-24111294D01*
X31174339Y-24102764D01*
X31223971Y-24094247D01*
X31258906Y-24086204D01*
X31276661Y-24079091D01*
X31278111Y-24075578D01*
X31280925Y-24070975D01*
X31288638Y-24072878D01*
X31312088Y-24073135D01*
X31349547Y-24063339D01*
X31397421Y-24045191D01*
X31452118Y-24020395D01*
X31510044Y-23990650D01*
X31567606Y-23957661D01*
X31621210Y-23923127D01*
X31652191Y-23900688D01*
X31738730Y-23826850D01*
X31813007Y-23745835D01*
X31877514Y-23656824D01*
X31906880Y-23608186D01*
X31935443Y-23554053D01*
X31960992Y-23499390D01*
X31981310Y-23449160D01*
X31994185Y-23408327D01*
X31997602Y-23387561D01*
X32000412Y-23368353D01*
X32005043Y-23363383D01*
X32012183Y-23357439D01*
X32020101Y-23333840D01*
X32028305Y-23296059D01*
X32036305Y-23247572D01*
X32043612Y-23191851D01*
X32049734Y-23132371D01*
X32054183Y-23072605D01*
X32056467Y-23016028D01*
X32056664Y-22997583D01*
X32047683Y-22841771D01*
X32020847Y-22692406D01*
X31977029Y-22551031D01*
X31917105Y-22419192D01*
X31841948Y-22298432D01*
X31752433Y-22190295D01*
X31649435Y-22096327D01*
X31533827Y-22018070D01*
X31488062Y-21993421D01*
X31455365Y-21976371D01*
X31431720Y-21962925D01*
X31421955Y-21955840D01*
X31421916Y-21955666D01*
X31427389Y-21945558D01*
X31442189Y-21921701D01*
X31463884Y-21887946D01*
X31483570Y-21857923D01*
X31512073Y-21812949D01*
X31546414Y-21755944D01*
X31582628Y-21693637D01*
X31616748Y-21632757D01*
X31622751Y-21621750D01*
X31653895Y-21564567D01*
X31691873Y-21495160D01*
X31733242Y-21419808D01*
X31774553Y-21344790D01*
X31805722Y-21288375D01*
X31842999Y-21220975D01*
X31881803Y-21150722D01*
X31919110Y-21083095D01*
X31951899Y-21023572D01*
X31975048Y-20981458D01*
X32005857Y-20925373D01*
X32038966Y-20865202D01*
X32069831Y-20809194D01*
X32088666Y-20775083D01*
X32114366Y-20728494D01*
X32145912Y-20671147D01*
X32179008Y-20610863D01*
X32205002Y-20563417D01*
X32232665Y-20512975D01*
X32259137Y-20464902D01*
X32281463Y-20424551D01*
X32296690Y-20397272D01*
X32296997Y-20396729D01*
X32322392Y-20351750D01*
X31562247Y-20351750D01*
X31389494Y-20677188D01*
X31345082Y-20760849D01*
X31300379Y-20845050D01*
X31257233Y-20926312D01*
X31217491Y-21001157D01*
X31183000Y-21066106D01*
X31155606Y-21117680D01*
X31144598Y-21138401D01*
X31119458Y-21187326D01*
X31099121Y-21230028D01*
X31085185Y-21262898D01*
X31079246Y-21282327D01*
X31079487Y-21285558D01*
X31080484Y-21292488D01*
X31076947Y-21291075D01*
X31069542Y-21298362D01*
X31053801Y-21321952D01*
X31031178Y-21359382D01*
X31003132Y-21408190D01*
X30971118Y-21465912D01*
X30945666Y-21513037D01*
X30911187Y-21577115D01*
X30879341Y-21635425D01*
X30851674Y-21685207D01*
X30829732Y-21723701D01*
X30815059Y-21748147D01*
X30809973Y-21755389D01*
X30802153Y-21759622D01*
X30786372Y-21762990D01*
X30760592Y-21765578D01*
X30722775Y-21767475D01*
X30670880Y-21768766D01*
X30602871Y-21769539D01*
X30516707Y-21769881D01*
X30468660Y-21769917D01*
X30141333Y-21769917D01*
X30141333Y-20351750D01*
X29464000Y-20351750D01*
X29464000Y-22346708D01*
X30850416Y-22346708D01*
X30855708Y-22341417D01*
X30861000Y-22346708D01*
X30855708Y-22352000D01*
X30850416Y-22346708D01*
X29464000Y-22346708D01*
X29464000Y-23547917D01*
X30141333Y-23547917D01*
X30141333Y-22350187D01*
X30524979Y-22354431D01*
X30626134Y-22355614D01*
X30708555Y-22356799D01*
X30774670Y-22358131D01*
X30826911Y-22359759D01*
X30867709Y-22361829D01*
X30899493Y-22364486D01*
X30924696Y-22367879D01*
X30945747Y-22372154D01*
X30965076Y-22377457D01*
X30978783Y-22381826D01*
X31078636Y-22422431D01*
X31161248Y-22473553D01*
X31228783Y-22537251D01*
X31283403Y-22615583D01*
X31327271Y-22710610D01*
X31328983Y-22715194D01*
X31343827Y-22758347D01*
X31353831Y-22797073D01*
X31360223Y-22838455D01*
X31363987Y-22886458D01*
X32035750Y-22886458D01*
X32041041Y-22881167D01*
X32046333Y-22886458D01*
X32041041Y-22891750D01*
X32035750Y-22886458D01*
X31363987Y-22886458D01*
X31364232Y-22889574D01*
X31366041Y-22928792D01*
X31363756Y-23053183D01*
X31353305Y-23119292D01*
X32035750Y-23119292D01*
X32041041Y-23114000D01*
X32046333Y-23119292D01*
X32041041Y-23124583D01*
X32035750Y-23119292D01*
X31353305Y-23119292D01*
X31346423Y-23162815D01*
X31313877Y-23257985D01*
X31265951Y-23338986D01*
X31202479Y-23406114D01*
X31123293Y-23459664D01*
X31047259Y-23493383D01*
X31005487Y-23507624D01*
X30964981Y-23519201D01*
X30922962Y-23528379D01*
X30876648Y-23535423D01*
X30823261Y-23540599D01*
X30760019Y-23544171D01*
X30684143Y-23546404D01*
X30592854Y-23547564D01*
X30483370Y-23547916D01*
X30475326Y-23547917D01*
X30141333Y-23547917D01*
X29464000Y-23547917D01*
X29464000Y-23565556D01*
X30695194Y-23565556D01*
X30696647Y-23559264D01*
X30702250Y-23558500D01*
X30710961Y-23562372D01*
X30709305Y-23565556D01*
X30696745Y-23566822D01*
X30695194Y-23565556D01*
X29464000Y-23565556D01*
X29464000Y-24130000D01*
X30202187Y-24129817D01*
G36*
X46744847Y-23114693D02*
G01*
X46855879Y-23099119D01*
X46964832Y-23074343D01*
X47062721Y-23044630D01*
X47160785Y-23007105D01*
X47259491Y-22960700D01*
X47354248Y-22908103D01*
X47440466Y-22852004D01*
X47513553Y-22795089D01*
X47553373Y-22757331D01*
X47582288Y-22726945D01*
X47507411Y-22610910D01*
X47473402Y-22558227D01*
X47438029Y-22503465D01*
X47405750Y-22453522D01*
X47383441Y-22419036D01*
X47360427Y-22385360D01*
X47341159Y-22360600D01*
X47328703Y-22348562D01*
X47326336Y-22348148D01*
X47321913Y-22345198D01*
X47323308Y-22339321D01*
X47320980Y-22321756D01*
X47309001Y-22300521D01*
X47289711Y-22275500D01*
X47200709Y-22341843D01*
X47112218Y-22400753D01*
X47013966Y-22454105D01*
X46913239Y-22498378D01*
X46817322Y-22530050D01*
X46804718Y-22533271D01*
X46718039Y-22548825D01*
X46621616Y-22556560D01*
X46522847Y-22556477D01*
X46429134Y-22548574D01*
X46349708Y-22533341D01*
X46227231Y-22490196D01*
X46115546Y-22429420D01*
X46015880Y-22352265D01*
X45929461Y-22259981D01*
X45857517Y-22153822D01*
X45801276Y-22035039D01*
X45771616Y-21943971D01*
X45760990Y-21898585D01*
X45754026Y-21852269D01*
X45750077Y-21798689D01*
X45748496Y-21731514D01*
X45748411Y-21717000D01*
X45750108Y-21628230D01*
X45756894Y-21553593D01*
X45770193Y-21486373D01*
X45791431Y-21419858D01*
X45822032Y-21347332D01*
X45830848Y-21328455D01*
X45896856Y-21212221D01*
X45976856Y-21111149D01*
X46069483Y-21025835D01*
X46173374Y-20956871D01*
X46287164Y-20904853D01*
X46409491Y-20870373D01*
X46538989Y-20854027D01*
X46674295Y-20856408D01*
X46814046Y-20878110D01*
X46846780Y-20885925D01*
X46963123Y-20923517D01*
X47082386Y-20976666D01*
X47198097Y-21041962D01*
X47303783Y-21115992D01*
X47340520Y-21146179D01*
X47399999Y-21197478D01*
X47458046Y-21089468D01*
X47486718Y-21036227D01*
X47521058Y-20972630D01*
X47556616Y-20906913D01*
X47586952Y-20850968D01*
X47657811Y-20720478D01*
X47607828Y-20676343D01*
X47557090Y-20633529D01*
X47504516Y-20592622D01*
X47453055Y-20555562D01*
X47405660Y-20524288D01*
X47365282Y-20500738D01*
X47334871Y-20486851D01*
X47317378Y-20484567D01*
X47316563Y-20484981D01*
X47309111Y-20486350D01*
X47311087Y-20481507D01*
X47305035Y-20472865D01*
X47282734Y-20458708D01*
X47247844Y-20440713D01*
X47204024Y-20420553D01*
X47154933Y-20399907D01*
X47104231Y-20380448D01*
X47055578Y-20363853D01*
X47051139Y-20362469D01*
X46970680Y-20339127D01*
X46897267Y-20321610D01*
X46825063Y-20309063D01*
X46748231Y-20300633D01*
X46660936Y-20295463D01*
X46577250Y-20293053D01*
X46470973Y-20292178D01*
X46384449Y-20294116D01*
X46316443Y-20298908D01*
X46284074Y-20303163D01*
X46219695Y-20314476D01*
X46160912Y-20326372D01*
X46110835Y-20338065D01*
X46072576Y-20348774D01*
X46049244Y-20357714D01*
X46043648Y-20363721D01*
X46041005Y-20368523D01*
X46033773Y-20366761D01*
X46015557Y-20367739D01*
X45982261Y-20376973D01*
X45937641Y-20393069D01*
X45885456Y-20414634D01*
X45829463Y-20440274D01*
X45809958Y-20449804D01*
X45770028Y-20471145D01*
X45726426Y-20496864D01*
X45682712Y-20524541D01*
X45642445Y-20551755D01*
X45609186Y-20576084D01*
X45586495Y-20595108D01*
X45577930Y-20606405D01*
X45578166Y-20607435D01*
X45577133Y-20614372D01*
X45574078Y-20613950D01*
X45560551Y-20618716D01*
X45537770Y-20634215D01*
X45510939Y-20655946D01*
X45485260Y-20679402D01*
X45465935Y-20700082D01*
X45458168Y-20713481D01*
X45458226Y-20714240D01*
X45452714Y-20725983D01*
X45448496Y-20726977D01*
X45432605Y-20736004D01*
X45407787Y-20760535D01*
X45376158Y-20798017D01*
X45339834Y-20845897D01*
X45300929Y-20901620D01*
X45289157Y-20919353D01*
X45212104Y-21055446D01*
X45150979Y-21203026D01*
X45106121Y-21359267D01*
X45077864Y-21521340D01*
X45071343Y-21616458D01*
X45074416Y-21616458D01*
X45079708Y-21611167D01*
X45085000Y-21616458D01*
X45079708Y-21621750D01*
X45074416Y-21616458D01*
X45071343Y-21616458D01*
X45066546Y-21686419D01*
X45072503Y-21851676D01*
X45096072Y-22014285D01*
X45137588Y-22171419D01*
X45139469Y-22177080D01*
X45158906Y-22229351D01*
X45183420Y-22286523D01*
X45211378Y-22345674D01*
X45241151Y-22403879D01*
X45271105Y-22458215D01*
X45299612Y-22505758D01*
X45325038Y-22543586D01*
X45345754Y-22568774D01*
X45346028Y-22568958D01*
X46482000Y-22568958D01*
X46487291Y-22563667D01*
X46492583Y-22568958D01*
X46661916Y-22568958D01*
X46667208Y-22563667D01*
X46672500Y-22568958D01*
X46667208Y-22574250D01*
X46661916Y-22568958D01*
X46492583Y-22568958D01*
X46487291Y-22574250D01*
X46482000Y-22568958D01*
X45346028Y-22568958D01*
X45360127Y-22578399D01*
X45363042Y-22577764D01*
X45368954Y-22577799D01*
X45366620Y-22582954D01*
X45370258Y-22595764D01*
X45387249Y-22619619D01*
X45414894Y-22651762D01*
X45450496Y-22689440D01*
X45491355Y-22729897D01*
X45534774Y-22770378D01*
X45578056Y-22808129D01*
X45618500Y-22840395D01*
X45619458Y-22841112D01*
X45691630Y-22889897D01*
X45776934Y-22939314D01*
X45867829Y-22985445D01*
X45956774Y-23024374D01*
X46009817Y-23043908D01*
X46097260Y-23070840D01*
X46180374Y-23091014D01*
X46265118Y-23105385D01*
X46357449Y-23114911D01*
X46463329Y-23120549D01*
X46492583Y-23121463D01*
X46625745Y-23121872D01*
X46744847Y-23114693D01*
X46744847Y-23114693D01*
G37*
X46744847Y-23114693D02*
X46855879Y-23099119D01*
X46964832Y-23074343D01*
X47062721Y-23044630D01*
X47160785Y-23007105D01*
X47259491Y-22960700D01*
X47354248Y-22908103D01*
X47440466Y-22852004D01*
X47513553Y-22795089D01*
X47553373Y-22757331D01*
X47582288Y-22726945D01*
X47507411Y-22610910D01*
X47473402Y-22558227D01*
X47438029Y-22503465D01*
X47405750Y-22453522D01*
X47383441Y-22419036D01*
X47360427Y-22385360D01*
X47341159Y-22360600D01*
X47328703Y-22348562D01*
X47326336Y-22348148D01*
X47321913Y-22345198D01*
X47323308Y-22339321D01*
X47320980Y-22321756D01*
X47309001Y-22300521D01*
X47289711Y-22275500D01*
X47200709Y-22341843D01*
X47112218Y-22400753D01*
X47013966Y-22454105D01*
X46913239Y-22498378D01*
X46817322Y-22530050D01*
X46804718Y-22533271D01*
X46718039Y-22548825D01*
X46621616Y-22556560D01*
X46522847Y-22556477D01*
X46429134Y-22548574D01*
X46349708Y-22533341D01*
X46227231Y-22490196D01*
X46115546Y-22429420D01*
X46015880Y-22352265D01*
X45929461Y-22259981D01*
X45857517Y-22153822D01*
X45801276Y-22035039D01*
X45771616Y-21943971D01*
X45760990Y-21898585D01*
X45754026Y-21852269D01*
X45750077Y-21798689D01*
X45748496Y-21731514D01*
X45748411Y-21717000D01*
X45750108Y-21628230D01*
X45756894Y-21553593D01*
X45770193Y-21486373D01*
X45791431Y-21419858D01*
X45822032Y-21347332D01*
X45830848Y-21328455D01*
X45896856Y-21212221D01*
X45976856Y-21111149D01*
X46069483Y-21025835D01*
X46173374Y-20956871D01*
X46287164Y-20904853D01*
X46409491Y-20870373D01*
X46538989Y-20854027D01*
X46674295Y-20856408D01*
X46814046Y-20878110D01*
X46846780Y-20885925D01*
X46963123Y-20923517D01*
X47082386Y-20976666D01*
X47198097Y-21041962D01*
X47303783Y-21115992D01*
X47340520Y-21146179D01*
X47399999Y-21197478D01*
X47458046Y-21089468D01*
X47486718Y-21036227D01*
X47521058Y-20972630D01*
X47556616Y-20906913D01*
X47586952Y-20850968D01*
X47657811Y-20720478D01*
X47607828Y-20676343D01*
X47557090Y-20633529D01*
X47504516Y-20592622D01*
X47453055Y-20555562D01*
X47405660Y-20524288D01*
X47365282Y-20500738D01*
X47334871Y-20486851D01*
X47317378Y-20484567D01*
X47316563Y-20484981D01*
X47309111Y-20486350D01*
X47311087Y-20481507D01*
X47305035Y-20472865D01*
X47282734Y-20458708D01*
X47247844Y-20440713D01*
X47204024Y-20420553D01*
X47154933Y-20399907D01*
X47104231Y-20380448D01*
X47055578Y-20363853D01*
X47051139Y-20362469D01*
X46970680Y-20339127D01*
X46897267Y-20321610D01*
X46825063Y-20309063D01*
X46748231Y-20300633D01*
X46660936Y-20295463D01*
X46577250Y-20293053D01*
X46470973Y-20292178D01*
X46384449Y-20294116D01*
X46316443Y-20298908D01*
X46284074Y-20303163D01*
X46219695Y-20314476D01*
X46160912Y-20326372D01*
X46110835Y-20338065D01*
X46072576Y-20348774D01*
X46049244Y-20357714D01*
X46043648Y-20363721D01*
X46041005Y-20368523D01*
X46033773Y-20366761D01*
X46015557Y-20367739D01*
X45982261Y-20376973D01*
X45937641Y-20393069D01*
X45885456Y-20414634D01*
X45829463Y-20440274D01*
X45809958Y-20449804D01*
X45770028Y-20471145D01*
X45726426Y-20496864D01*
X45682712Y-20524541D01*
X45642445Y-20551755D01*
X45609186Y-20576084D01*
X45586495Y-20595108D01*
X45577930Y-20606405D01*
X45578166Y-20607435D01*
X45577133Y-20614372D01*
X45574078Y-20613950D01*
X45560551Y-20618716D01*
X45537770Y-20634215D01*
X45510939Y-20655946D01*
X45485260Y-20679402D01*
X45465935Y-20700082D01*
X45458168Y-20713481D01*
X45458226Y-20714240D01*
X45452714Y-20725983D01*
X45448496Y-20726977D01*
X45432605Y-20736004D01*
X45407787Y-20760535D01*
X45376158Y-20798017D01*
X45339834Y-20845897D01*
X45300929Y-20901620D01*
X45289157Y-20919353D01*
X45212104Y-21055446D01*
X45150979Y-21203026D01*
X45106121Y-21359267D01*
X45077864Y-21521340D01*
X45071343Y-21616458D01*
X45074416Y-21616458D01*
X45079708Y-21611167D01*
X45085000Y-21616458D01*
X45079708Y-21621750D01*
X45074416Y-21616458D01*
X45071343Y-21616458D01*
X45066546Y-21686419D01*
X45072503Y-21851676D01*
X45096072Y-22014285D01*
X45137588Y-22171419D01*
X45139469Y-22177080D01*
X45158906Y-22229351D01*
X45183420Y-22286523D01*
X45211378Y-22345674D01*
X45241151Y-22403879D01*
X45271105Y-22458215D01*
X45299612Y-22505758D01*
X45325038Y-22543586D01*
X45345754Y-22568774D01*
X45346028Y-22568958D01*
X46482000Y-22568958D01*
X46487291Y-22563667D01*
X46492583Y-22568958D01*
X46661916Y-22568958D01*
X46667208Y-22563667D01*
X46672500Y-22568958D01*
X46667208Y-22574250D01*
X46661916Y-22568958D01*
X46492583Y-22568958D01*
X46487291Y-22574250D01*
X46482000Y-22568958D01*
X45346028Y-22568958D01*
X45360127Y-22578399D01*
X45363042Y-22577764D01*
X45368954Y-22577799D01*
X45366620Y-22582954D01*
X45370258Y-22595764D01*
X45387249Y-22619619D01*
X45414894Y-22651762D01*
X45450496Y-22689440D01*
X45491355Y-22729897D01*
X45534774Y-22770378D01*
X45578056Y-22808129D01*
X45618500Y-22840395D01*
X45619458Y-22841112D01*
X45691630Y-22889897D01*
X45776934Y-22939314D01*
X45867829Y-22985445D01*
X45956774Y-23024374D01*
X46009817Y-23043908D01*
X46097260Y-23070840D01*
X46180374Y-23091014D01*
X46265118Y-23105385D01*
X46357449Y-23114911D01*
X46463329Y-23120549D01*
X46492583Y-23121463D01*
X46625745Y-23121872D01*
X46744847Y-23114693D01*
G36*
X43566667Y-23121604D02*
G01*
X43648425Y-23119285D01*
X43724182Y-23115036D01*
X43789045Y-23108939D01*
X43838124Y-23101077D01*
X43841458Y-23100319D01*
X43910749Y-23083211D01*
X43966050Y-23067807D01*
X44005568Y-23054690D01*
X44027510Y-23044442D01*
X44031206Y-23038700D01*
X44033805Y-23033807D01*
X44041287Y-23035608D01*
X44059427Y-23033802D01*
X44090980Y-23022058D01*
X44131987Y-23002532D01*
X44178491Y-22977378D01*
X44226533Y-22948750D01*
X44272152Y-22918805D01*
X44311391Y-22889697D01*
X44315496Y-22886352D01*
X44409878Y-22795199D01*
X44489244Y-22689701D01*
X44553807Y-22569491D01*
X44603781Y-22434201D01*
X44624369Y-22356502D01*
X44630844Y-22326544D01*
X44636539Y-22294801D01*
X44641505Y-22259797D01*
X44645787Y-22220057D01*
X44649435Y-22174104D01*
X44652497Y-22120464D01*
X44655021Y-22057662D01*
X44657055Y-21984221D01*
X44658647Y-21898667D01*
X44659846Y-21799524D01*
X44660699Y-21685317D01*
X44661254Y-21554569D01*
X44661560Y-21405806D01*
X44661665Y-21237552D01*
X44661666Y-21213170D01*
X44661666Y-20351750D01*
X44047833Y-20351750D01*
X44047833Y-20558125D01*
X44047301Y-20634711D01*
X44045750Y-20694774D01*
X44043245Y-20737043D01*
X44041551Y-20748625D01*
X44058416Y-20748625D01*
X44063708Y-20743333D01*
X44069000Y-20748625D01*
X44063708Y-20753917D01*
X44058416Y-20748625D01*
X44041551Y-20748625D01*
X44039851Y-20760245D01*
X44037250Y-20764500D01*
X44027172Y-20756292D01*
X44026666Y-20752694D01*
X44020079Y-20734053D01*
X44002356Y-20703873D01*
X43976561Y-20666318D01*
X43945753Y-20625550D01*
X43912994Y-20585732D01*
X43881346Y-20551025D01*
X43870368Y-20540159D01*
X43808612Y-20487108D01*
X43738518Y-20436445D01*
X43667231Y-20392931D01*
X43602105Y-20361409D01*
X43534955Y-20336289D01*
X43473626Y-20318148D01*
X43411885Y-20305837D01*
X43343503Y-20298207D01*
X43262249Y-20294111D01*
X43232916Y-20293368D01*
X43174072Y-20292489D01*
X43120977Y-20292354D01*
X43078043Y-20292925D01*
X43049682Y-20294165D01*
X43042416Y-20295009D01*
X42988179Y-20307039D01*
X42927746Y-20323013D01*
X42867446Y-20341015D01*
X42813612Y-20359126D01*
X42772572Y-20375429D01*
X42764906Y-20379071D01*
X42707622Y-20409097D01*
X42659374Y-20436990D01*
X42622670Y-20461097D01*
X42600014Y-20479762D01*
X42593912Y-20491332D01*
X42594150Y-20491802D01*
X42594489Y-20498254D01*
X42590190Y-20496391D01*
X42578082Y-20500413D01*
X42556146Y-20517888D01*
X42527459Y-20545490D01*
X42495096Y-20579893D01*
X42462135Y-20617771D01*
X42431651Y-20655798D01*
X42406720Y-20690648D01*
X42398730Y-20703394D01*
X42349392Y-20805629D01*
X42315205Y-20917706D01*
X42296227Y-21035745D01*
X42292519Y-21155865D01*
X42293579Y-21166667D01*
X42964870Y-21166667D01*
X42973620Y-21079895D01*
X43000321Y-21003198D01*
X43043779Y-20937626D01*
X43102801Y-20884228D01*
X43176190Y-20844056D01*
X43262753Y-20818159D01*
X43361295Y-20807589D01*
X43373479Y-20807403D01*
X43441565Y-20809886D01*
X43498273Y-20819096D01*
X43532229Y-20828901D01*
X43601824Y-20856426D01*
X43663535Y-20891208D01*
X43710331Y-20924872D01*
X43734743Y-20940951D01*
X43752660Y-20947705D01*
X43757007Y-20946779D01*
X43760933Y-20946318D01*
X43758864Y-20950735D01*
X43761686Y-20964514D01*
X43776678Y-20985160D01*
X43784367Y-20993068D01*
X43811444Y-21022624D01*
X43835411Y-21054490D01*
X43837811Y-21058254D01*
X43854014Y-21078599D01*
X43867832Y-21086424D01*
X43870455Y-21085723D01*
X43876752Y-21085424D01*
X43874462Y-21090555D01*
X43875205Y-21105937D01*
X43885628Y-21130878D01*
X43892321Y-21142461D01*
X43937298Y-21230753D01*
X43970506Y-21331157D01*
X43990155Y-21437116D01*
X43994916Y-21517861D01*
X43994916Y-21590000D01*
X43830457Y-21590000D01*
X43665776Y-21585198D01*
X43517469Y-21570914D01*
X43385914Y-21547334D01*
X43271489Y-21514641D01*
X43174572Y-21473021D01*
X43095539Y-21422657D01*
X43034769Y-21363736D01*
X42992638Y-21296440D01*
X42969525Y-21220956D01*
X42964870Y-21166667D01*
X42293579Y-21166667D01*
X42304138Y-21274186D01*
X42331144Y-21386828D01*
X42373596Y-21489910D01*
X42386404Y-21513343D01*
X42422645Y-21566291D01*
X42471654Y-21624225D01*
X42527923Y-21681453D01*
X42585946Y-21732280D01*
X42628402Y-21763507D01*
X42753169Y-21836200D01*
X42890746Y-21897560D01*
X43042154Y-21947839D01*
X43206671Y-21986875D01*
X43264666Y-21986875D01*
X43269958Y-21981583D01*
X43275250Y-21986875D01*
X43269958Y-21992167D01*
X43264666Y-21986875D01*
X43206671Y-21986875D01*
X43208412Y-21987288D01*
X43390544Y-22016160D01*
X43589570Y-22034706D01*
X43759437Y-22042222D01*
X43994916Y-22048139D01*
X43994836Y-22091590D01*
X43986419Y-22194433D01*
X43962178Y-22288284D01*
X43923044Y-22370666D01*
X43869946Y-22439098D01*
X43861318Y-22447549D01*
X43806121Y-22492642D01*
X43745970Y-22526804D01*
X43677713Y-22550919D01*
X43598198Y-22565874D01*
X43504274Y-22572554D01*
X43416510Y-22572532D01*
X43363453Y-22570735D01*
X43319356Y-22568222D01*
X43287821Y-22565279D01*
X43272452Y-22562193D01*
X43271613Y-22561021D01*
X43266813Y-22554855D01*
X43253402Y-22553084D01*
X43220637Y-22548294D01*
X43173201Y-22535022D01*
X43115012Y-22514910D01*
X43049986Y-22489600D01*
X42982040Y-22460735D01*
X42915092Y-22429957D01*
X42853058Y-22398910D01*
X42799855Y-22369236D01*
X42770634Y-22350622D01*
X42744418Y-22333262D01*
X42726030Y-22322269D01*
X42721249Y-22320250D01*
X42713212Y-22329201D01*
X42698709Y-22353169D01*
X42679872Y-22387831D01*
X42658832Y-22428862D01*
X42637721Y-22471938D01*
X42618669Y-22512736D01*
X42603809Y-22546929D01*
X42595271Y-22570196D01*
X42594283Y-22577845D01*
X42595877Y-22584475D01*
X42592551Y-22582181D01*
X42585195Y-22588221D01*
X42570605Y-22608723D01*
X42551278Y-22639354D01*
X42529710Y-22675777D01*
X42508397Y-22713658D01*
X42489835Y-22748663D01*
X42476522Y-22776455D01*
X42470952Y-22792701D01*
X42470916Y-22793400D01*
X42479754Y-22804067D01*
X42503896Y-22822174D01*
X42539789Y-22845551D01*
X42583877Y-22872030D01*
X42632607Y-22899440D01*
X42682422Y-22925613D01*
X42709041Y-22938717D01*
X42770817Y-22967041D01*
X42830365Y-22992088D01*
X42884232Y-23012609D01*
X42928964Y-23027357D01*
X42961107Y-23035083D01*
X42976001Y-23035178D01*
X42985661Y-23035082D01*
X42984688Y-23039140D01*
X42991435Y-23045815D01*
X43015961Y-23055025D01*
X43055135Y-23066013D01*
X43105828Y-23078024D01*
X43164909Y-23090299D01*
X43229249Y-23102084D01*
X43277486Y-23109904D01*
X43334319Y-23116141D01*
X43404722Y-23120115D01*
X43483802Y-23121908D01*
X43566667Y-23121604D01*
X43566667Y-23121604D01*
G37*
X43566667Y-23121604D02*
X43648425Y-23119285D01*
X43724182Y-23115036D01*
X43789045Y-23108939D01*
X43838124Y-23101077D01*
X43841458Y-23100319D01*
X43910749Y-23083211D01*
X43966050Y-23067807D01*
X44005568Y-23054690D01*
X44027510Y-23044442D01*
X44031206Y-23038700D01*
X44033805Y-23033807D01*
X44041287Y-23035608D01*
X44059427Y-23033802D01*
X44090980Y-23022058D01*
X44131987Y-23002532D01*
X44178491Y-22977378D01*
X44226533Y-22948750D01*
X44272152Y-22918805D01*
X44311391Y-22889697D01*
X44315496Y-22886352D01*
X44409878Y-22795199D01*
X44489244Y-22689701D01*
X44553807Y-22569491D01*
X44603781Y-22434201D01*
X44624369Y-22356502D01*
X44630844Y-22326544D01*
X44636539Y-22294801D01*
X44641505Y-22259797D01*
X44645787Y-22220057D01*
X44649435Y-22174104D01*
X44652497Y-22120464D01*
X44655021Y-22057662D01*
X44657055Y-21984221D01*
X44658647Y-21898667D01*
X44659846Y-21799524D01*
X44660699Y-21685317D01*
X44661254Y-21554569D01*
X44661560Y-21405806D01*
X44661665Y-21237552D01*
X44661666Y-21213170D01*
X44661666Y-20351750D01*
X44047833Y-20351750D01*
X44047833Y-20558125D01*
X44047301Y-20634711D01*
X44045750Y-20694774D01*
X44043245Y-20737043D01*
X44041551Y-20748625D01*
X44058416Y-20748625D01*
X44063708Y-20743333D01*
X44069000Y-20748625D01*
X44063708Y-20753917D01*
X44058416Y-20748625D01*
X44041551Y-20748625D01*
X44039851Y-20760245D01*
X44037250Y-20764500D01*
X44027172Y-20756292D01*
X44026666Y-20752694D01*
X44020079Y-20734053D01*
X44002356Y-20703873D01*
X43976561Y-20666318D01*
X43945753Y-20625550D01*
X43912994Y-20585732D01*
X43881346Y-20551025D01*
X43870368Y-20540159D01*
X43808612Y-20487108D01*
X43738518Y-20436445D01*
X43667231Y-20392931D01*
X43602105Y-20361409D01*
X43534955Y-20336289D01*
X43473626Y-20318148D01*
X43411885Y-20305837D01*
X43343503Y-20298207D01*
X43262249Y-20294111D01*
X43232916Y-20293368D01*
X43174072Y-20292489D01*
X43120977Y-20292354D01*
X43078043Y-20292925D01*
X43049682Y-20294165D01*
X43042416Y-20295009D01*
X42988179Y-20307039D01*
X42927746Y-20323013D01*
X42867446Y-20341015D01*
X42813612Y-20359126D01*
X42772572Y-20375429D01*
X42764906Y-20379071D01*
X42707622Y-20409097D01*
X42659374Y-20436990D01*
X42622670Y-20461097D01*
X42600014Y-20479762D01*
X42593912Y-20491332D01*
X42594150Y-20491802D01*
X42594489Y-20498254D01*
X42590190Y-20496391D01*
X42578082Y-20500413D01*
X42556146Y-20517888D01*
X42527459Y-20545490D01*
X42495096Y-20579893D01*
X42462135Y-20617771D01*
X42431651Y-20655798D01*
X42406720Y-20690648D01*
X42398730Y-20703394D01*
X42349392Y-20805629D01*
X42315205Y-20917706D01*
X42296227Y-21035745D01*
X42292519Y-21155865D01*
X42293579Y-21166667D01*
X42964870Y-21166667D01*
X42973620Y-21079895D01*
X43000321Y-21003198D01*
X43043779Y-20937626D01*
X43102801Y-20884228D01*
X43176190Y-20844056D01*
X43262753Y-20818159D01*
X43361295Y-20807589D01*
X43373479Y-20807403D01*
X43441565Y-20809886D01*
X43498273Y-20819096D01*
X43532229Y-20828901D01*
X43601824Y-20856426D01*
X43663535Y-20891208D01*
X43710331Y-20924872D01*
X43734743Y-20940951D01*
X43752660Y-20947705D01*
X43757007Y-20946779D01*
X43760933Y-20946318D01*
X43758864Y-20950735D01*
X43761686Y-20964514D01*
X43776678Y-20985160D01*
X43784367Y-20993068D01*
X43811444Y-21022624D01*
X43835411Y-21054490D01*
X43837811Y-21058254D01*
X43854014Y-21078599D01*
X43867832Y-21086424D01*
X43870455Y-21085723D01*
X43876752Y-21085424D01*
X43874462Y-21090555D01*
X43875205Y-21105937D01*
X43885628Y-21130878D01*
X43892321Y-21142461D01*
X43937298Y-21230753D01*
X43970506Y-21331157D01*
X43990155Y-21437116D01*
X43994916Y-21517861D01*
X43994916Y-21590000D01*
X43830457Y-21590000D01*
X43665776Y-21585198D01*
X43517469Y-21570914D01*
X43385914Y-21547334D01*
X43271489Y-21514641D01*
X43174572Y-21473021D01*
X43095539Y-21422657D01*
X43034769Y-21363736D01*
X42992638Y-21296440D01*
X42969525Y-21220956D01*
X42964870Y-21166667D01*
X42293579Y-21166667D01*
X42304138Y-21274186D01*
X42331144Y-21386828D01*
X42373596Y-21489910D01*
X42386404Y-21513343D01*
X42422645Y-21566291D01*
X42471654Y-21624225D01*
X42527923Y-21681453D01*
X42585946Y-21732280D01*
X42628402Y-21763507D01*
X42753169Y-21836200D01*
X42890746Y-21897560D01*
X43042154Y-21947839D01*
X43206671Y-21986875D01*
X43264666Y-21986875D01*
X43269958Y-21981583D01*
X43275250Y-21986875D01*
X43269958Y-21992167D01*
X43264666Y-21986875D01*
X43206671Y-21986875D01*
X43208412Y-21987288D01*
X43390544Y-22016160D01*
X43589570Y-22034706D01*
X43759437Y-22042222D01*
X43994916Y-22048139D01*
X43994836Y-22091590D01*
X43986419Y-22194433D01*
X43962178Y-22288284D01*
X43923044Y-22370666D01*
X43869946Y-22439098D01*
X43861318Y-22447549D01*
X43806121Y-22492642D01*
X43745970Y-22526804D01*
X43677713Y-22550919D01*
X43598198Y-22565874D01*
X43504274Y-22572554D01*
X43416510Y-22572532D01*
X43363453Y-22570735D01*
X43319356Y-22568222D01*
X43287821Y-22565279D01*
X43272452Y-22562193D01*
X43271613Y-22561021D01*
X43266813Y-22554855D01*
X43253402Y-22553084D01*
X43220637Y-22548294D01*
X43173201Y-22535022D01*
X43115012Y-22514910D01*
X43049986Y-22489600D01*
X42982040Y-22460735D01*
X42915092Y-22429957D01*
X42853058Y-22398910D01*
X42799855Y-22369236D01*
X42770634Y-22350622D01*
X42744418Y-22333262D01*
X42726030Y-22322269D01*
X42721249Y-22320250D01*
X42713212Y-22329201D01*
X42698709Y-22353169D01*
X42679872Y-22387831D01*
X42658832Y-22428862D01*
X42637721Y-22471938D01*
X42618669Y-22512736D01*
X42603809Y-22546929D01*
X42595271Y-22570196D01*
X42594283Y-22577845D01*
X42595877Y-22584475D01*
X42592551Y-22582181D01*
X42585195Y-22588221D01*
X42570605Y-22608723D01*
X42551278Y-22639354D01*
X42529710Y-22675777D01*
X42508397Y-22713658D01*
X42489835Y-22748663D01*
X42476522Y-22776455D01*
X42470952Y-22792701D01*
X42470916Y-22793400D01*
X42479754Y-22804067D01*
X42503896Y-22822174D01*
X42539789Y-22845551D01*
X42583877Y-22872030D01*
X42632607Y-22899440D01*
X42682422Y-22925613D01*
X42709041Y-22938717D01*
X42770817Y-22967041D01*
X42830365Y-22992088D01*
X42884232Y-23012609D01*
X42928964Y-23027357D01*
X42961107Y-23035083D01*
X42976001Y-23035178D01*
X42985661Y-23035082D01*
X42984688Y-23039140D01*
X42991435Y-23045815D01*
X43015961Y-23055025D01*
X43055135Y-23066013D01*
X43105828Y-23078024D01*
X43164909Y-23090299D01*
X43229249Y-23102084D01*
X43277486Y-23109904D01*
X43334319Y-23116141D01*
X43404722Y-23120115D01*
X43483802Y-23121908D01*
X43566667Y-23121604D01*
G36*
X40051461Y-22142979D02*
G01*
X40052343Y-21976716D01*
X40053160Y-21830370D01*
X40053935Y-21702693D01*
X40054690Y-21592436D01*
X40055450Y-21498350D01*
X40056237Y-21419186D01*
X40057074Y-21353695D01*
X40057986Y-21300629D01*
X40058995Y-21258738D01*
X40060124Y-21226774D01*
X40061398Y-21203487D01*
X40062839Y-21187629D01*
X40064470Y-21177952D01*
X40066316Y-21173205D01*
X40068398Y-21172141D01*
X40069574Y-21172623D01*
X40076260Y-21166211D01*
X40085107Y-21145402D01*
X40087729Y-21137216D01*
X40120457Y-21063910D01*
X40170972Y-21001074D01*
X40237983Y-20950008D01*
X40306625Y-20916947D01*
X40360308Y-20903406D01*
X40427784Y-20896752D01*
X40502885Y-20896828D01*
X40579443Y-20903474D01*
X40651292Y-20916533D01*
X40687625Y-20926735D01*
X40781959Y-20964170D01*
X40864975Y-21012259D01*
X40942678Y-21074872D01*
X40989373Y-21121152D01*
X41070090Y-21221290D01*
X41135607Y-21335411D01*
X41186235Y-21464111D01*
X41208101Y-21542375D01*
X41236421Y-21658792D01*
X41240514Y-22359938D01*
X41244606Y-23061084D01*
X41577303Y-23061083D01*
X41910000Y-23061083D01*
X41910000Y-20351750D01*
X41261418Y-20351750D01*
X41266730Y-20600458D01*
X41267953Y-20670464D01*
X41268523Y-20732847D01*
X41268454Y-20784686D01*
X41267765Y-20823058D01*
X41266470Y-20845044D01*
X41265344Y-20849167D01*
X41256734Y-20840710D01*
X41243138Y-20819494D01*
X41237719Y-20809664D01*
X41221730Y-20783149D01*
X41197081Y-20746404D01*
X41168153Y-20705872D01*
X41156787Y-20690602D01*
X41064114Y-20585148D01*
X40956008Y-20493454D01*
X40833851Y-20416423D01*
X40699024Y-20354956D01*
X40587924Y-20318933D01*
X40532167Y-20307709D01*
X40461121Y-20299265D01*
X40380502Y-20293758D01*
X40296023Y-20291347D01*
X40213401Y-20292189D01*
X40138350Y-20296442D01*
X40076585Y-20304264D01*
X40074027Y-20304736D01*
X39937983Y-20339167D01*
X39817023Y-20388437D01*
X39711101Y-20452588D01*
X39620167Y-20531660D01*
X39544175Y-20625692D01*
X39483075Y-20734726D01*
X39443843Y-20836010D01*
X39432932Y-20869893D01*
X39423283Y-20900498D01*
X39414813Y-20929288D01*
X39407439Y-20957727D01*
X39401077Y-20987275D01*
X39395645Y-21019397D01*
X39391060Y-21055555D01*
X39387238Y-21097211D01*
X39384098Y-21145829D01*
X39381555Y-21202870D01*
X39379767Y-21261917D01*
X39380583Y-21261917D01*
X39384455Y-21253206D01*
X39387638Y-21254861D01*
X39388905Y-21267421D01*
X39387638Y-21268972D01*
X39381347Y-21267520D01*
X39380583Y-21261917D01*
X39379767Y-21261917D01*
X39379528Y-21269798D01*
X39377932Y-21348076D01*
X39376686Y-21439165D01*
X39375706Y-21544529D01*
X39374908Y-21665630D01*
X39374211Y-21803931D01*
X39373531Y-21960895D01*
X39373012Y-22084771D01*
X39368955Y-23045208D01*
X39380583Y-23045208D01*
X39385875Y-23039917D01*
X39391166Y-23045208D01*
X39385875Y-23050500D01*
X39380583Y-23045208D01*
X39368955Y-23045208D01*
X39368887Y-23061084D01*
X40046660Y-23061084D01*
X40051461Y-22142979D01*
X40051461Y-22142979D01*
G37*
X40051461Y-22142979D02*
X40052343Y-21976716D01*
X40053160Y-21830370D01*
X40053935Y-21702693D01*
X40054690Y-21592436D01*
X40055450Y-21498350D01*
X40056237Y-21419186D01*
X40057074Y-21353695D01*
X40057986Y-21300629D01*
X40058995Y-21258738D01*
X40060124Y-21226774D01*
X40061398Y-21203487D01*
X40062839Y-21187629D01*
X40064470Y-21177952D01*
X40066316Y-21173205D01*
X40068398Y-21172141D01*
X40069574Y-21172623D01*
X40076260Y-21166211D01*
X40085107Y-21145402D01*
X40087729Y-21137216D01*
X40120457Y-21063910D01*
X40170972Y-21001074D01*
X40237983Y-20950008D01*
X40306625Y-20916947D01*
X40360308Y-20903406D01*
X40427784Y-20896752D01*
X40502885Y-20896828D01*
X40579443Y-20903474D01*
X40651292Y-20916533D01*
X40687625Y-20926735D01*
X40781959Y-20964170D01*
X40864975Y-21012259D01*
X40942678Y-21074872D01*
X40989373Y-21121152D01*
X41070090Y-21221290D01*
X41135607Y-21335411D01*
X41186235Y-21464111D01*
X41208101Y-21542375D01*
X41236421Y-21658792D01*
X41240514Y-22359938D01*
X41244606Y-23061084D01*
X41577303Y-23061083D01*
X41910000Y-23061083D01*
X41910000Y-20351750D01*
X41261418Y-20351750D01*
X41266730Y-20600458D01*
X41267953Y-20670464D01*
X41268523Y-20732847D01*
X41268454Y-20784686D01*
X41267765Y-20823058D01*
X41266470Y-20845044D01*
X41265344Y-20849167D01*
X41256734Y-20840710D01*
X41243138Y-20819494D01*
X41237719Y-20809664D01*
X41221730Y-20783149D01*
X41197081Y-20746404D01*
X41168153Y-20705872D01*
X41156787Y-20690602D01*
X41064114Y-20585148D01*
X40956008Y-20493454D01*
X40833851Y-20416423D01*
X40699024Y-20354956D01*
X40587924Y-20318933D01*
X40532167Y-20307709D01*
X40461121Y-20299265D01*
X40380502Y-20293758D01*
X40296023Y-20291347D01*
X40213401Y-20292189D01*
X40138350Y-20296442D01*
X40076585Y-20304264D01*
X40074027Y-20304736D01*
X39937983Y-20339167D01*
X39817023Y-20388437D01*
X39711101Y-20452588D01*
X39620167Y-20531660D01*
X39544175Y-20625692D01*
X39483075Y-20734726D01*
X39443843Y-20836010D01*
X39432932Y-20869893D01*
X39423283Y-20900498D01*
X39414813Y-20929288D01*
X39407439Y-20957727D01*
X39401077Y-20987275D01*
X39395645Y-21019397D01*
X39391060Y-21055555D01*
X39387238Y-21097211D01*
X39384098Y-21145829D01*
X39381555Y-21202870D01*
X39379767Y-21261917D01*
X39380583Y-21261917D01*
X39384455Y-21253206D01*
X39387638Y-21254861D01*
X39388905Y-21267421D01*
X39387638Y-21268972D01*
X39381347Y-21267520D01*
X39380583Y-21261917D01*
X39379767Y-21261917D01*
X39379528Y-21269798D01*
X39377932Y-21348076D01*
X39376686Y-21439165D01*
X39375706Y-21544529D01*
X39374908Y-21665630D01*
X39374211Y-21803931D01*
X39373531Y-21960895D01*
X39373012Y-22084771D01*
X39368955Y-23045208D01*
X39380583Y-23045208D01*
X39385875Y-23039917D01*
X39391166Y-23045208D01*
X39385875Y-23050500D01*
X39380583Y-23045208D01*
X39368955Y-23045208D01*
X39368887Y-23061084D01*
X40046660Y-23061084D01*
X40051461Y-22142979D01*
G36*
X36539850Y-24147289D02*
G01*
X36543625Y-24142424D01*
X36544250Y-24134264D01*
X36544250Y-24132569D01*
X36548825Y-24113443D01*
X36560929Y-24081863D01*
X36578128Y-24044052D01*
X36581661Y-24036896D01*
X36628061Y-23963851D01*
X36687881Y-23900080D01*
X36757154Y-23848561D01*
X36831910Y-23812272D01*
X36904615Y-23794589D01*
X36957000Y-23788385D01*
X36957000Y-23689318D01*
X36957190Y-23643151D01*
X36958474Y-23614157D01*
X36961917Y-23598341D01*
X36968586Y-23591709D01*
X36979548Y-23590268D01*
X36983458Y-23590250D01*
X36995783Y-23590963D01*
X37003526Y-23595765D01*
X37007751Y-23608646D01*
X37009525Y-23633599D01*
X37009911Y-23674617D01*
X37009916Y-23689415D01*
X37009916Y-23788581D01*
X37056690Y-23793853D01*
X37110184Y-23806496D01*
X37170571Y-23831273D01*
X37230610Y-23864564D01*
X37283058Y-23902748D01*
X37293983Y-23912491D01*
X37334464Y-23957660D01*
X37371542Y-24012072D01*
X37400715Y-24068250D01*
X37417169Y-24117188D01*
X37425541Y-24141407D01*
X37438035Y-24147833D01*
X37442120Y-24147052D01*
X37459443Y-24142213D01*
X37491830Y-24133195D01*
X37533950Y-24121483D01*
X37562667Y-24113505D01*
X37605121Y-24100831D01*
X37638019Y-24089314D01*
X37657312Y-24080477D01*
X37660548Y-24076691D01*
X37664861Y-24072540D01*
X37678308Y-24074446D01*
X37693823Y-24076265D01*
X37697610Y-24066551D01*
X37694937Y-24049373D01*
X37666490Y-23956706D01*
X37619721Y-23864860D01*
X37557320Y-23777222D01*
X37481974Y-23697181D01*
X37396372Y-23628125D01*
X37326689Y-23585382D01*
X37291914Y-23565919D01*
X37275334Y-23553080D01*
X37276037Y-23544380D01*
X37293110Y-23537332D01*
X37307691Y-23533606D01*
X37336742Y-23536124D01*
X37375644Y-23553096D01*
X37421498Y-23582079D01*
X37471410Y-23620630D01*
X37522483Y-23666304D01*
X37571819Y-23716657D01*
X37616523Y-23769246D01*
X37653698Y-23821628D01*
X37658713Y-23829757D01*
X37680818Y-23869699D01*
X37702322Y-23914165D01*
X37721382Y-23958558D01*
X37736152Y-23998277D01*
X37744791Y-24028722D01*
X37745455Y-24045294D01*
X37745246Y-24045677D01*
X37749303Y-24048375D01*
X37768701Y-24042377D01*
X37800261Y-24029233D01*
X37840803Y-24010490D01*
X37887146Y-23987699D01*
X37936109Y-23962409D01*
X37984514Y-23936168D01*
X38029178Y-23910526D01*
X38054564Y-23894999D01*
X38094540Y-23868987D01*
X38116354Y-23852933D01*
X38119887Y-23846940D01*
X38105291Y-23851006D01*
X38091726Y-23850039D01*
X38089416Y-23844296D01*
X38084392Y-23825005D01*
X38070794Y-23791887D01*
X38050831Y-23749330D01*
X38026714Y-23701720D01*
X38000651Y-23653445D01*
X37974853Y-23608891D01*
X37955200Y-23577843D01*
X37924564Y-23535626D01*
X37885372Y-23486486D01*
X37844103Y-23438402D01*
X37825581Y-23418170D01*
X37790262Y-23379618D01*
X37768632Y-23353196D01*
X37759028Y-23336461D01*
X37759786Y-23326972D01*
X37762081Y-23324980D01*
X37782389Y-23316337D01*
X37789499Y-23315246D01*
X37803035Y-23322984D01*
X37826596Y-23344255D01*
X37857264Y-23375842D01*
X37892119Y-23414531D01*
X37928244Y-23457105D01*
X37962719Y-23500349D01*
X37986277Y-23532042D01*
X38013109Y-23572513D01*
X38041228Y-23619858D01*
X38068784Y-23670314D01*
X38093928Y-23720118D01*
X38114811Y-23765508D01*
X38129583Y-23802722D01*
X38136395Y-23827996D01*
X38135742Y-23836138D01*
X38136523Y-23840372D01*
X38150389Y-23832455D01*
X38174775Y-23814489D01*
X38207117Y-23788573D01*
X38244850Y-23756809D01*
X38285409Y-23721298D01*
X38326229Y-23684139D01*
X38357426Y-23654564D01*
X38392394Y-23619870D01*
X38427374Y-23583745D01*
X38459947Y-23548889D01*
X38487693Y-23518003D01*
X38508193Y-23493788D01*
X38519029Y-23478946D01*
X38517780Y-23476175D01*
X38516624Y-23476831D01*
X38504572Y-23473406D01*
X38491560Y-23452555D01*
X38490633Y-23450373D01*
X38475800Y-23421096D01*
X38451275Y-23379625D01*
X38420149Y-23330640D01*
X38385512Y-23278817D01*
X38350455Y-23228834D01*
X38318070Y-23185369D01*
X38303328Y-23166917D01*
X38273391Y-23132168D01*
X38235149Y-23089833D01*
X38195289Y-23047267D01*
X38181491Y-23032953D01*
X38107755Y-22957197D01*
X38131056Y-22924474D01*
X38147326Y-22903381D01*
X38158343Y-22892261D01*
X38159635Y-22891750D01*
X38175732Y-22899449D01*
X38202669Y-22920848D01*
X38237715Y-22953403D01*
X38278141Y-22994572D01*
X38321217Y-23041808D01*
X38323708Y-23044645D01*
X38402529Y-23139700D01*
X38471186Y-23232860D01*
X38526658Y-23319914D01*
X38544644Y-23352399D01*
X38575840Y-23411705D01*
X38633425Y-23322442D01*
X38705806Y-23201213D01*
X38766331Y-23078942D01*
X38817788Y-22949269D01*
X38862964Y-22805837D01*
X38868436Y-22786158D01*
X38905943Y-22617528D01*
X38928775Y-22441555D01*
X38936800Y-22263200D01*
X38929883Y-22087421D01*
X38907892Y-21919180D01*
X38893516Y-21849292D01*
X38838987Y-21658405D01*
X38764778Y-21470794D01*
X38672379Y-21289895D01*
X38602027Y-21175659D01*
X38570350Y-21127393D01*
X38549150Y-21093546D01*
X38537050Y-21071000D01*
X38532671Y-21056638D01*
X38534637Y-21047340D01*
X38541572Y-21039990D01*
X38541965Y-21039667D01*
X38555038Y-21028333D01*
X38581407Y-21004978D01*
X38618653Y-20971763D01*
X38664360Y-20930847D01*
X38716107Y-20884391D01*
X38754023Y-20850277D01*
X38814630Y-20795436D01*
X38860921Y-20752785D01*
X38894527Y-20720590D01*
X38917079Y-20697123D01*
X38930209Y-20680653D01*
X38935545Y-20669447D01*
X38934720Y-20661776D01*
X38933458Y-20659832D01*
X38922990Y-20647628D01*
X38900786Y-20622495D01*
X38869322Y-20587187D01*
X38831078Y-20544456D01*
X38788530Y-20497059D01*
X38744158Y-20447747D01*
X38700438Y-20399276D01*
X38659849Y-20354399D01*
X38624869Y-20315871D01*
X38597976Y-20286444D01*
X38582268Y-20269527D01*
X38559488Y-20245512D01*
X38382891Y-20415739D01*
X38332874Y-20464348D01*
X38288561Y-20508170D01*
X38252053Y-20545068D01*
X38225449Y-20572901D01*
X38210847Y-20589531D01*
X38208709Y-20593213D01*
X38203471Y-20601760D01*
X38202198Y-20602072D01*
X38189287Y-20609874D01*
X38169002Y-20627004D01*
X38164992Y-20630778D01*
X38136713Y-20657871D01*
X38068086Y-20609922D01*
X37951065Y-20536327D01*
X37820905Y-20468671D01*
X37685325Y-20410522D01*
X37552040Y-20365447D01*
X37520846Y-20356866D01*
X37443077Y-20337209D01*
X37375479Y-20322060D01*
X37313152Y-20310849D01*
X37251198Y-20303009D01*
X37184716Y-20297970D01*
X37108808Y-20295166D01*
X37018574Y-20294026D01*
X36978166Y-20293910D01*
X36872857Y-20294680D01*
X36783587Y-20297656D01*
X36705287Y-20303485D01*
X36632887Y-20312814D01*
X36561317Y-20326289D01*
X36485507Y-20344558D01*
X36404259Y-20367142D01*
X36347312Y-20385433D01*
X36284629Y-20408535D01*
X36218950Y-20435115D01*
X36153017Y-20463841D01*
X36089571Y-20493379D01*
X36031352Y-20522396D01*
X35981103Y-20549559D01*
X35941563Y-20573537D01*
X35915474Y-20592994D01*
X35905578Y-20606599D01*
X35906184Y-20609353D01*
X35905570Y-20614601D01*
X35901006Y-20612488D01*
X35886796Y-20615103D01*
X35860017Y-20630166D01*
X35823395Y-20655496D01*
X35779658Y-20688910D01*
X35731532Y-20728226D01*
X35681746Y-20771262D01*
X35633025Y-20815836D01*
X35588098Y-20859767D01*
X35574863Y-20873442D01*
X35486150Y-20971959D01*
X35408561Y-21070693D01*
X35336674Y-21176971D01*
X35279284Y-21272951D01*
X35250618Y-21326670D01*
X35220622Y-21388897D01*
X35190874Y-21455686D01*
X35162951Y-21523091D01*
X35138431Y-21587167D01*
X35118892Y-21643969D01*
X35105910Y-21689552D01*
X35101100Y-21718558D01*
X35098736Y-21742610D01*
X35094736Y-21753597D01*
X35093679Y-21753560D01*
X35088181Y-21761170D01*
X35080534Y-21788011D01*
X35071114Y-21832301D01*
X35060295Y-21892255D01*
X35048452Y-21966090D01*
X35046905Y-21976292D01*
X35038929Y-22047994D01*
X35033762Y-22134390D01*
X35031406Y-22229198D01*
X35031460Y-22240875D01*
X35651621Y-22240875D01*
X35661794Y-22071950D01*
X35692132Y-21909238D01*
X35742362Y-21753447D01*
X35812212Y-21605280D01*
X35901410Y-21465443D01*
X35995571Y-21349971D01*
X36115464Y-21232931D01*
X36246462Y-21132984D01*
X36386928Y-21050677D01*
X36535226Y-20986557D01*
X36689717Y-20941172D01*
X36848764Y-20915069D01*
X37010729Y-20908794D01*
X37173974Y-20922896D01*
X37239392Y-20934390D01*
X37399246Y-20976065D01*
X37547602Y-21034648D01*
X37686070Y-21111038D01*
X37816260Y-21206135D01*
X37939781Y-21320839D01*
X37950558Y-21332083D01*
X38058595Y-21460551D01*
X38148404Y-21598805D01*
X38219416Y-21745585D01*
X38271064Y-21899630D01*
X38277865Y-21933958D01*
X38893750Y-21933958D01*
X38899041Y-21928667D01*
X38904333Y-21933958D01*
X38899041Y-21939250D01*
X38893750Y-21933958D01*
X38277865Y-21933958D01*
X38302777Y-22059678D01*
X38307361Y-22103292D01*
X38914916Y-22103292D01*
X38920208Y-22098000D01*
X38925500Y-22103292D01*
X38920208Y-22108583D01*
X38914916Y-22103292D01*
X38307361Y-22103292D01*
X38310060Y-22128967D01*
X38313437Y-22175091D01*
X38315768Y-22212586D01*
X38316802Y-22236959D01*
X38316550Y-22243959D01*
X38309741Y-22237508D01*
X38293459Y-22217644D01*
X38270684Y-22188066D01*
X38260061Y-22173853D01*
X38160968Y-22057205D01*
X38049775Y-21956963D01*
X37928252Y-21873542D01*
X37798171Y-21807362D01*
X37661305Y-21758839D01*
X37519426Y-21728392D01*
X37374304Y-21716439D01*
X37227713Y-21723397D01*
X37081423Y-21749685D01*
X36937207Y-21795719D01*
X36840234Y-21839014D01*
X36770485Y-21879136D01*
X36695122Y-21931164D01*
X36621012Y-21989909D01*
X36555021Y-22050179D01*
X36538274Y-22067316D01*
X36457542Y-22164003D01*
X36387018Y-22271520D01*
X36328313Y-22386062D01*
X36283041Y-22503825D01*
X36252814Y-22621006D01*
X36239246Y-22733803D01*
X36238770Y-22773619D01*
X36240207Y-22844125D01*
X36248129Y-22769025D01*
X36271120Y-22646428D01*
X36312393Y-22532268D01*
X36370362Y-22428094D01*
X36443444Y-22335458D01*
X36530053Y-22255911D01*
X36628606Y-22191003D01*
X36737516Y-22142285D01*
X36855201Y-22111308D01*
X36929867Y-22101844D01*
X37049907Y-22102934D01*
X37167072Y-22123912D01*
X37279032Y-22163507D01*
X37383455Y-22220447D01*
X37478012Y-22293460D01*
X37560370Y-22381275D01*
X37593901Y-22431375D01*
X38914916Y-22431375D01*
X38920208Y-22426083D01*
X38925500Y-22431375D01*
X38920208Y-22436667D01*
X38914916Y-22431375D01*
X37593901Y-22431375D01*
X37628201Y-22482621D01*
X37628366Y-22482917D01*
X37675795Y-22588915D01*
X37706241Y-22702947D01*
X37719006Y-22820300D01*
X37713391Y-22936264D01*
X37703678Y-22991334D01*
X37672473Y-23090321D01*
X37687250Y-23090321D01*
X37690593Y-23078006D01*
X37699061Y-23053007D01*
X37704256Y-23038602D01*
X37715807Y-22992597D01*
X37723474Y-22932035D01*
X37727146Y-22863189D01*
X37726709Y-22792329D01*
X37722049Y-22725727D01*
X37713053Y-22669656D01*
X37711069Y-22661563D01*
X37701876Y-22624907D01*
X37695826Y-22597781D01*
X37694015Y-22585176D01*
X37694230Y-22584833D01*
X37702920Y-22591553D01*
X37722374Y-22609074D01*
X37745457Y-22630821D01*
X37805815Y-22678142D01*
X37877609Y-22717784D01*
X37954130Y-22746902D01*
X38028667Y-22762650D01*
X38061008Y-22764625D01*
X38110888Y-22771198D01*
X38144658Y-22790171D01*
X38161500Y-22820957D01*
X38163337Y-22838000D01*
X38154224Y-22871370D01*
X38129373Y-22894195D01*
X38094512Y-22902333D01*
X38017617Y-22910577D01*
X37935361Y-22933494D01*
X37854448Y-22968364D01*
X37781580Y-23012469D01*
X37740378Y-23046034D01*
X37714108Y-23069895D01*
X37695115Y-23085787D01*
X37687280Y-23090476D01*
X37687250Y-23090321D01*
X37672473Y-23090321D01*
X37669173Y-23100788D01*
X37616563Y-23205942D01*
X37548583Y-23302914D01*
X37467966Y-23387824D01*
X37377447Y-23456791D01*
X37374471Y-23458658D01*
X37274091Y-23511934D01*
X37170015Y-23548039D01*
X37058886Y-23567712D01*
X36937345Y-23571694D01*
X36876854Y-23568448D01*
X36713756Y-23545626D01*
X36557886Y-23503789D01*
X36410412Y-23444203D01*
X36272505Y-23368135D01*
X36145331Y-23276852D01*
X36030060Y-23171619D01*
X35927860Y-23053703D01*
X35839900Y-22924369D01*
X35767349Y-22784885D01*
X35711374Y-22636516D01*
X35673146Y-22480529D01*
X35653832Y-22318190D01*
X35651621Y-22240875D01*
X35031460Y-22240875D01*
X35031860Y-22326132D01*
X35035125Y-22418909D01*
X35041200Y-22501243D01*
X35046896Y-22547792D01*
X35083902Y-22739362D01*
X35135890Y-22918508D01*
X35204235Y-23089021D01*
X35290315Y-23254693D01*
X35324099Y-23310967D01*
X35347436Y-23347096D01*
X35367361Y-23375258D01*
X35380874Y-23391335D01*
X35384197Y-23393548D01*
X35393791Y-23385580D01*
X35410616Y-23363670D01*
X35431351Y-23332226D01*
X35435379Y-23325667D01*
X35526858Y-23188312D01*
X35628747Y-23058938D01*
X35680152Y-23001458D01*
X35723161Y-22955995D01*
X35754609Y-22924910D01*
X35777139Y-22906890D01*
X35793394Y-22900621D01*
X35806019Y-22904791D01*
X35817657Y-22918086D01*
X35825018Y-22929495D01*
X35848262Y-22967106D01*
X35763993Y-23053782D01*
X35720641Y-23100502D01*
X35674448Y-23153724D01*
X35632606Y-23205036D01*
X35615044Y-23228047D01*
X35587973Y-23266379D01*
X35558374Y-23311004D01*
X35528586Y-23358053D01*
X35500948Y-23403653D01*
X35477796Y-23443934D01*
X35461469Y-23475023D01*
X35454306Y-23493051D01*
X35454166Y-23494422D01*
X35461525Y-23506207D01*
X35481699Y-23529419D01*
X35511832Y-23561252D01*
X35549066Y-23598906D01*
X35590548Y-23639576D01*
X35633419Y-23680459D01*
X35674825Y-23718753D01*
X35711910Y-23751654D01*
X35739916Y-23774877D01*
X35785395Y-23810499D01*
X35816401Y-23834518D01*
X35835089Y-23848427D01*
X35843613Y-23853724D01*
X35844127Y-23851903D01*
X35838783Y-23844461D01*
X35837210Y-23842440D01*
X35832571Y-23820467D01*
X35840048Y-23785053D01*
X35858047Y-23738880D01*
X35884972Y-23684631D01*
X35919227Y-23624990D01*
X35959217Y-23562640D01*
X36003346Y-23500264D01*
X36050019Y-23440545D01*
X36097641Y-23386165D01*
X36125377Y-23357827D01*
X36152116Y-23332656D01*
X36168798Y-23320590D01*
X36180088Y-23319529D01*
X36190651Y-23327371D01*
X36191376Y-23328091D01*
X36198121Y-23336935D01*
X36198442Y-23347051D01*
X36190382Y-23361726D01*
X36171982Y-23384247D01*
X36141285Y-23417903D01*
X36131912Y-23427958D01*
X36049737Y-23524601D01*
X35979182Y-23625202D01*
X35923126Y-23725324D01*
X35892626Y-23796625D01*
X35880031Y-23827660D01*
X35868716Y-23849812D01*
X35863741Y-23856121D01*
X35867500Y-23864121D01*
X35886960Y-23879742D01*
X35918926Y-23901064D01*
X35960203Y-23926171D01*
X36007594Y-23953145D01*
X36057907Y-23980068D01*
X36107944Y-24005022D01*
X36125696Y-24013348D01*
X36171808Y-24034414D01*
X36201715Y-24047524D01*
X36218378Y-24053698D01*
X36224761Y-24053957D01*
X36223828Y-24049321D01*
X36222225Y-24046575D01*
X36222034Y-24030258D01*
X36229817Y-23999863D01*
X36243826Y-23960113D01*
X36262314Y-23915732D01*
X36283533Y-23871444D01*
X36294736Y-23850604D01*
X36337828Y-23784587D01*
X36392028Y-23717733D01*
X36452654Y-23654812D01*
X36515021Y-23600594D01*
X36574448Y-23559849D01*
X36586854Y-23553068D01*
X36610879Y-23545765D01*
X36639434Y-23543576D01*
X36665058Y-23546176D01*
X36680293Y-23553245D01*
X36681808Y-23557177D01*
X36673187Y-23565202D01*
X36650853Y-23579270D01*
X36626245Y-23592820D01*
X36554173Y-23638037D01*
X36482117Y-23696809D01*
X36417606Y-23762903D01*
X36410210Y-23771654D01*
X36378925Y-23814980D01*
X36345621Y-23870221D01*
X36314053Y-23930241D01*
X36287973Y-23987900D01*
X36271132Y-24036061D01*
X36271053Y-24036358D01*
X36260779Y-24075007D01*
X36373410Y-24107420D01*
X36435929Y-24125360D01*
X36480966Y-24137895D01*
X36511388Y-24145446D01*
X36530060Y-24148437D01*
X36539850Y-24147289D01*
X36539850Y-24147289D01*
G37*
X36539850Y-24147289D02*
X36543625Y-24142424D01*
X36544250Y-24134264D01*
X36544250Y-24132569D01*
X36548825Y-24113443D01*
X36560929Y-24081863D01*
X36578128Y-24044052D01*
X36581661Y-24036896D01*
X36628061Y-23963851D01*
X36687881Y-23900080D01*
X36757154Y-23848561D01*
X36831910Y-23812272D01*
X36904615Y-23794589D01*
X36957000Y-23788385D01*
X36957000Y-23689318D01*
X36957190Y-23643151D01*
X36958474Y-23614157D01*
X36961917Y-23598341D01*
X36968586Y-23591709D01*
X36979548Y-23590268D01*
X36983458Y-23590250D01*
X36995783Y-23590963D01*
X37003526Y-23595765D01*
X37007751Y-23608646D01*
X37009525Y-23633599D01*
X37009911Y-23674617D01*
X37009916Y-23689415D01*
X37009916Y-23788581D01*
X37056690Y-23793853D01*
X37110184Y-23806496D01*
X37170571Y-23831273D01*
X37230610Y-23864564D01*
X37283058Y-23902748D01*
X37293983Y-23912491D01*
X37334464Y-23957660D01*
X37371542Y-24012072D01*
X37400715Y-24068250D01*
X37417169Y-24117188D01*
X37425541Y-24141407D01*
X37438035Y-24147833D01*
X37442120Y-24147052D01*
X37459443Y-24142213D01*
X37491830Y-24133195D01*
X37533950Y-24121483D01*
X37562667Y-24113505D01*
X37605121Y-24100831D01*
X37638019Y-24089314D01*
X37657312Y-24080477D01*
X37660548Y-24076691D01*
X37664861Y-24072540D01*
X37678308Y-24074446D01*
X37693823Y-24076265D01*
X37697610Y-24066551D01*
X37694937Y-24049373D01*
X37666490Y-23956706D01*
X37619721Y-23864860D01*
X37557320Y-23777222D01*
X37481974Y-23697181D01*
X37396372Y-23628125D01*
X37326689Y-23585382D01*
X37291914Y-23565919D01*
X37275334Y-23553080D01*
X37276037Y-23544380D01*
X37293110Y-23537332D01*
X37307691Y-23533606D01*
X37336742Y-23536124D01*
X37375644Y-23553096D01*
X37421498Y-23582079D01*
X37471410Y-23620630D01*
X37522483Y-23666304D01*
X37571819Y-23716657D01*
X37616523Y-23769246D01*
X37653698Y-23821628D01*
X37658713Y-23829757D01*
X37680818Y-23869699D01*
X37702322Y-23914165D01*
X37721382Y-23958558D01*
X37736152Y-23998277D01*
X37744791Y-24028722D01*
X37745455Y-24045294D01*
X37745246Y-24045677D01*
X37749303Y-24048375D01*
X37768701Y-24042377D01*
X37800261Y-24029233D01*
X37840803Y-24010490D01*
X37887146Y-23987699D01*
X37936109Y-23962409D01*
X37984514Y-23936168D01*
X38029178Y-23910526D01*
X38054564Y-23894999D01*
X38094540Y-23868987D01*
X38116354Y-23852933D01*
X38119887Y-23846940D01*
X38105291Y-23851006D01*
X38091726Y-23850039D01*
X38089416Y-23844296D01*
X38084392Y-23825005D01*
X38070794Y-23791887D01*
X38050831Y-23749330D01*
X38026714Y-23701720D01*
X38000651Y-23653445D01*
X37974853Y-23608891D01*
X37955200Y-23577843D01*
X37924564Y-23535626D01*
X37885372Y-23486486D01*
X37844103Y-23438402D01*
X37825581Y-23418170D01*
X37790262Y-23379618D01*
X37768632Y-23353196D01*
X37759028Y-23336461D01*
X37759786Y-23326972D01*
X37762081Y-23324980D01*
X37782389Y-23316337D01*
X37789499Y-23315246D01*
X37803035Y-23322984D01*
X37826596Y-23344255D01*
X37857264Y-23375842D01*
X37892119Y-23414531D01*
X37928244Y-23457105D01*
X37962719Y-23500349D01*
X37986277Y-23532042D01*
X38013109Y-23572513D01*
X38041228Y-23619858D01*
X38068784Y-23670314D01*
X38093928Y-23720118D01*
X38114811Y-23765508D01*
X38129583Y-23802722D01*
X38136395Y-23827996D01*
X38135742Y-23836138D01*
X38136523Y-23840372D01*
X38150389Y-23832455D01*
X38174775Y-23814489D01*
X38207117Y-23788573D01*
X38244850Y-23756809D01*
X38285409Y-23721298D01*
X38326229Y-23684139D01*
X38357426Y-23654564D01*
X38392394Y-23619870D01*
X38427374Y-23583745D01*
X38459947Y-23548889D01*
X38487693Y-23518003D01*
X38508193Y-23493788D01*
X38519029Y-23478946D01*
X38517780Y-23476175D01*
X38516624Y-23476831D01*
X38504572Y-23473406D01*
X38491560Y-23452555D01*
X38490633Y-23450373D01*
X38475800Y-23421096D01*
X38451275Y-23379625D01*
X38420149Y-23330640D01*
X38385512Y-23278817D01*
X38350455Y-23228834D01*
X38318070Y-23185369D01*
X38303328Y-23166917D01*
X38273391Y-23132168D01*
X38235149Y-23089833D01*
X38195289Y-23047267D01*
X38181491Y-23032953D01*
X38107755Y-22957197D01*
X38131056Y-22924474D01*
X38147326Y-22903381D01*
X38158343Y-22892261D01*
X38159635Y-22891750D01*
X38175732Y-22899449D01*
X38202669Y-22920848D01*
X38237715Y-22953403D01*
X38278141Y-22994572D01*
X38321217Y-23041808D01*
X38323708Y-23044645D01*
X38402529Y-23139700D01*
X38471186Y-23232860D01*
X38526658Y-23319914D01*
X38544644Y-23352399D01*
X38575840Y-23411705D01*
X38633425Y-23322442D01*
X38705806Y-23201213D01*
X38766331Y-23078942D01*
X38817788Y-22949269D01*
X38862964Y-22805837D01*
X38868436Y-22786158D01*
X38905943Y-22617528D01*
X38928775Y-22441555D01*
X38936800Y-22263200D01*
X38929883Y-22087421D01*
X38907892Y-21919180D01*
X38893516Y-21849292D01*
X38838987Y-21658405D01*
X38764778Y-21470794D01*
X38672379Y-21289895D01*
X38602027Y-21175659D01*
X38570350Y-21127393D01*
X38549150Y-21093546D01*
X38537050Y-21071000D01*
X38532671Y-21056638D01*
X38534637Y-21047340D01*
X38541572Y-21039990D01*
X38541965Y-21039667D01*
X38555038Y-21028333D01*
X38581407Y-21004978D01*
X38618653Y-20971763D01*
X38664360Y-20930847D01*
X38716107Y-20884391D01*
X38754023Y-20850277D01*
X38814630Y-20795436D01*
X38860921Y-20752785D01*
X38894527Y-20720590D01*
X38917079Y-20697123D01*
X38930209Y-20680653D01*
X38935545Y-20669447D01*
X38934720Y-20661776D01*
X38933458Y-20659832D01*
X38922990Y-20647628D01*
X38900786Y-20622495D01*
X38869322Y-20587187D01*
X38831078Y-20544456D01*
X38788530Y-20497059D01*
X38744158Y-20447747D01*
X38700438Y-20399276D01*
X38659849Y-20354399D01*
X38624869Y-20315871D01*
X38597976Y-20286444D01*
X38582268Y-20269527D01*
X38559488Y-20245512D01*
X38382891Y-20415739D01*
X38332874Y-20464348D01*
X38288561Y-20508170D01*
X38252053Y-20545068D01*
X38225449Y-20572901D01*
X38210847Y-20589531D01*
X38208709Y-20593213D01*
X38203471Y-20601760D01*
X38202198Y-20602072D01*
X38189287Y-20609874D01*
X38169002Y-20627004D01*
X38164992Y-20630778D01*
X38136713Y-20657871D01*
X38068086Y-20609922D01*
X37951065Y-20536327D01*
X37820905Y-20468671D01*
X37685325Y-20410522D01*
X37552040Y-20365447D01*
X37520846Y-20356866D01*
X37443077Y-20337209D01*
X37375479Y-20322060D01*
X37313152Y-20310849D01*
X37251198Y-20303009D01*
X37184716Y-20297970D01*
X37108808Y-20295166D01*
X37018574Y-20294026D01*
X36978166Y-20293910D01*
X36872857Y-20294680D01*
X36783587Y-20297656D01*
X36705287Y-20303485D01*
X36632887Y-20312814D01*
X36561317Y-20326289D01*
X36485507Y-20344558D01*
X36404259Y-20367142D01*
X36347312Y-20385433D01*
X36284629Y-20408535D01*
X36218950Y-20435115D01*
X36153017Y-20463841D01*
X36089571Y-20493379D01*
X36031352Y-20522396D01*
X35981103Y-20549559D01*
X35941563Y-20573537D01*
X35915474Y-20592994D01*
X35905578Y-20606599D01*
X35906184Y-20609353D01*
X35905570Y-20614601D01*
X35901006Y-20612488D01*
X35886796Y-20615103D01*
X35860017Y-20630166D01*
X35823395Y-20655496D01*
X35779658Y-20688910D01*
X35731532Y-20728226D01*
X35681746Y-20771262D01*
X35633025Y-20815836D01*
X35588098Y-20859767D01*
X35574863Y-20873442D01*
X35486150Y-20971959D01*
X35408561Y-21070693D01*
X35336674Y-21176971D01*
X35279284Y-21272951D01*
X35250618Y-21326670D01*
X35220622Y-21388897D01*
X35190874Y-21455686D01*
X35162951Y-21523091D01*
X35138431Y-21587167D01*
X35118892Y-21643969D01*
X35105910Y-21689552D01*
X35101100Y-21718558D01*
X35098736Y-21742610D01*
X35094736Y-21753597D01*
X35093679Y-21753560D01*
X35088181Y-21761170D01*
X35080534Y-21788011D01*
X35071114Y-21832301D01*
X35060295Y-21892255D01*
X35048452Y-21966090D01*
X35046905Y-21976292D01*
X35038929Y-22047994D01*
X35033762Y-22134390D01*
X35031406Y-22229198D01*
X35031460Y-22240875D01*
X35651621Y-22240875D01*
X35661794Y-22071950D01*
X35692132Y-21909238D01*
X35742362Y-21753447D01*
X35812212Y-21605280D01*
X35901410Y-21465443D01*
X35995571Y-21349971D01*
X36115464Y-21232931D01*
X36246462Y-21132984D01*
X36386928Y-21050677D01*
X36535226Y-20986557D01*
X36689717Y-20941172D01*
X36848764Y-20915069D01*
X37010729Y-20908794D01*
X37173974Y-20922896D01*
X37239392Y-20934390D01*
X37399246Y-20976065D01*
X37547602Y-21034648D01*
X37686070Y-21111038D01*
X37816260Y-21206135D01*
X37939781Y-21320839D01*
X37950558Y-21332083D01*
X38058595Y-21460551D01*
X38148404Y-21598805D01*
X38219416Y-21745585D01*
X38271064Y-21899630D01*
X38277865Y-21933958D01*
X38893750Y-21933958D01*
X38899041Y-21928667D01*
X38904333Y-21933958D01*
X38899041Y-21939250D01*
X38893750Y-21933958D01*
X38277865Y-21933958D01*
X38302777Y-22059678D01*
X38307361Y-22103292D01*
X38914916Y-22103292D01*
X38920208Y-22098000D01*
X38925500Y-22103292D01*
X38920208Y-22108583D01*
X38914916Y-22103292D01*
X38307361Y-22103292D01*
X38310060Y-22128967D01*
X38313437Y-22175091D01*
X38315768Y-22212586D01*
X38316802Y-22236959D01*
X38316550Y-22243959D01*
X38309741Y-22237508D01*
X38293459Y-22217644D01*
X38270684Y-22188066D01*
X38260061Y-22173853D01*
X38160968Y-22057205D01*
X38049775Y-21956963D01*
X37928252Y-21873542D01*
X37798171Y-21807362D01*
X37661305Y-21758839D01*
X37519426Y-21728392D01*
X37374304Y-21716439D01*
X37227713Y-21723397D01*
X37081423Y-21749685D01*
X36937207Y-21795719D01*
X36840234Y-21839014D01*
X36770485Y-21879136D01*
X36695122Y-21931164D01*
X36621012Y-21989909D01*
X36555021Y-22050179D01*
X36538274Y-22067316D01*
X36457542Y-22164003D01*
X36387018Y-22271520D01*
X36328313Y-22386062D01*
X36283041Y-22503825D01*
X36252814Y-22621006D01*
X36239246Y-22733803D01*
X36238770Y-22773619D01*
X36240207Y-22844125D01*
X36248129Y-22769025D01*
X36271120Y-22646428D01*
X36312393Y-22532268D01*
X36370362Y-22428094D01*
X36443444Y-22335458D01*
X36530053Y-22255911D01*
X36628606Y-22191003D01*
X36737516Y-22142285D01*
X36855201Y-22111308D01*
X36929867Y-22101844D01*
X37049907Y-22102934D01*
X37167072Y-22123912D01*
X37279032Y-22163507D01*
X37383455Y-22220447D01*
X37478012Y-22293460D01*
X37560370Y-22381275D01*
X37593901Y-22431375D01*
X38914916Y-22431375D01*
X38920208Y-22426083D01*
X38925500Y-22431375D01*
X38920208Y-22436667D01*
X38914916Y-22431375D01*
X37593901Y-22431375D01*
X37628201Y-22482621D01*
X37628366Y-22482917D01*
X37675795Y-22588915D01*
X37706241Y-22702947D01*
X37719006Y-22820300D01*
X37713391Y-22936264D01*
X37703678Y-22991334D01*
X37672473Y-23090321D01*
X37687250Y-23090321D01*
X37690593Y-23078006D01*
X37699061Y-23053007D01*
X37704256Y-23038602D01*
X37715807Y-22992597D01*
X37723474Y-22932035D01*
X37727146Y-22863189D01*
X37726709Y-22792329D01*
X37722049Y-22725727D01*
X37713053Y-22669656D01*
X37711069Y-22661563D01*
X37701876Y-22624907D01*
X37695826Y-22597781D01*
X37694015Y-22585176D01*
X37694230Y-22584833D01*
X37702920Y-22591553D01*
X37722374Y-22609074D01*
X37745457Y-22630821D01*
X37805815Y-22678142D01*
X37877609Y-22717784D01*
X37954130Y-22746902D01*
X38028667Y-22762650D01*
X38061008Y-22764625D01*
X38110888Y-22771198D01*
X38144658Y-22790171D01*
X38161500Y-22820957D01*
X38163337Y-22838000D01*
X38154224Y-22871370D01*
X38129373Y-22894195D01*
X38094512Y-22902333D01*
X38017617Y-22910577D01*
X37935361Y-22933494D01*
X37854448Y-22968364D01*
X37781580Y-23012469D01*
X37740378Y-23046034D01*
X37714108Y-23069895D01*
X37695115Y-23085787D01*
X37687280Y-23090476D01*
X37687250Y-23090321D01*
X37672473Y-23090321D01*
X37669173Y-23100788D01*
X37616563Y-23205942D01*
X37548583Y-23302914D01*
X37467966Y-23387824D01*
X37377447Y-23456791D01*
X37374471Y-23458658D01*
X37274091Y-23511934D01*
X37170015Y-23548039D01*
X37058886Y-23567712D01*
X36937345Y-23571694D01*
X36876854Y-23568448D01*
X36713756Y-23545626D01*
X36557886Y-23503789D01*
X36410412Y-23444203D01*
X36272505Y-23368135D01*
X36145331Y-23276852D01*
X36030060Y-23171619D01*
X35927860Y-23053703D01*
X35839900Y-22924369D01*
X35767349Y-22784885D01*
X35711374Y-22636516D01*
X35673146Y-22480529D01*
X35653832Y-22318190D01*
X35651621Y-22240875D01*
X35031460Y-22240875D01*
X35031860Y-22326132D01*
X35035125Y-22418909D01*
X35041200Y-22501243D01*
X35046896Y-22547792D01*
X35083902Y-22739362D01*
X35135890Y-22918508D01*
X35204235Y-23089021D01*
X35290315Y-23254693D01*
X35324099Y-23310967D01*
X35347436Y-23347096D01*
X35367361Y-23375258D01*
X35380874Y-23391335D01*
X35384197Y-23393548D01*
X35393791Y-23385580D01*
X35410616Y-23363670D01*
X35431351Y-23332226D01*
X35435379Y-23325667D01*
X35526858Y-23188312D01*
X35628747Y-23058938D01*
X35680152Y-23001458D01*
X35723161Y-22955995D01*
X35754609Y-22924910D01*
X35777139Y-22906890D01*
X35793394Y-22900621D01*
X35806019Y-22904791D01*
X35817657Y-22918086D01*
X35825018Y-22929495D01*
X35848262Y-22967106D01*
X35763993Y-23053782D01*
X35720641Y-23100502D01*
X35674448Y-23153724D01*
X35632606Y-23205036D01*
X35615044Y-23228047D01*
X35587973Y-23266379D01*
X35558374Y-23311004D01*
X35528586Y-23358053D01*
X35500948Y-23403653D01*
X35477796Y-23443934D01*
X35461469Y-23475023D01*
X35454306Y-23493051D01*
X35454166Y-23494422D01*
X35461525Y-23506207D01*
X35481699Y-23529419D01*
X35511832Y-23561252D01*
X35549066Y-23598906D01*
X35590548Y-23639576D01*
X35633419Y-23680459D01*
X35674825Y-23718753D01*
X35711910Y-23751654D01*
X35739916Y-23774877D01*
X35785395Y-23810499D01*
X35816401Y-23834518D01*
X35835089Y-23848427D01*
X35843613Y-23853724D01*
X35844127Y-23851903D01*
X35838783Y-23844461D01*
X35837210Y-23842440D01*
X35832571Y-23820467D01*
X35840048Y-23785053D01*
X35858047Y-23738880D01*
X35884972Y-23684631D01*
X35919227Y-23624990D01*
X35959217Y-23562640D01*
X36003346Y-23500264D01*
X36050019Y-23440545D01*
X36097641Y-23386165D01*
X36125377Y-23357827D01*
X36152116Y-23332656D01*
X36168798Y-23320590D01*
X36180088Y-23319529D01*
X36190651Y-23327371D01*
X36191376Y-23328091D01*
X36198121Y-23336935D01*
X36198442Y-23347051D01*
X36190382Y-23361726D01*
X36171982Y-23384247D01*
X36141285Y-23417903D01*
X36131912Y-23427958D01*
X36049737Y-23524601D01*
X35979182Y-23625202D01*
X35923126Y-23725324D01*
X35892626Y-23796625D01*
X35880031Y-23827660D01*
X35868716Y-23849812D01*
X35863741Y-23856121D01*
X35867500Y-23864121D01*
X35886960Y-23879742D01*
X35918926Y-23901064D01*
X35960203Y-23926171D01*
X36007594Y-23953145D01*
X36057907Y-23980068D01*
X36107944Y-24005022D01*
X36125696Y-24013348D01*
X36171808Y-24034414D01*
X36201715Y-24047524D01*
X36218378Y-24053698D01*
X36224761Y-24053957D01*
X36223828Y-24049321D01*
X36222225Y-24046575D01*
X36222034Y-24030258D01*
X36229817Y-23999863D01*
X36243826Y-23960113D01*
X36262314Y-23915732D01*
X36283533Y-23871444D01*
X36294736Y-23850604D01*
X36337828Y-23784587D01*
X36392028Y-23717733D01*
X36452654Y-23654812D01*
X36515021Y-23600594D01*
X36574448Y-23559849D01*
X36586854Y-23553068D01*
X36610879Y-23545765D01*
X36639434Y-23543576D01*
X36665058Y-23546176D01*
X36680293Y-23553245D01*
X36681808Y-23557177D01*
X36673187Y-23565202D01*
X36650853Y-23579270D01*
X36626245Y-23592820D01*
X36554173Y-23638037D01*
X36482117Y-23696809D01*
X36417606Y-23762903D01*
X36410210Y-23771654D01*
X36378925Y-23814980D01*
X36345621Y-23870221D01*
X36314053Y-23930241D01*
X36287973Y-23987900D01*
X36271132Y-24036061D01*
X36271053Y-24036358D01*
X36260779Y-24075007D01*
X36373410Y-24107420D01*
X36435929Y-24125360D01*
X36480966Y-24137895D01*
X36511388Y-24145446D01*
X36530060Y-24148437D01*
X36539850Y-24147289D01*
G36*
X40102566Y-32622936D02*
G01*
X40110776Y-32571664D01*
X40110833Y-32564917D01*
X40103948Y-32510124D01*
X40081975Y-32490968D01*
X40079083Y-32490834D01*
X40055600Y-32506899D01*
X40047391Y-32558170D01*
X40047333Y-32564917D01*
X40054218Y-32619710D01*
X40076192Y-32638867D01*
X40079083Y-32639000D01*
X40102566Y-32622936D01*
X40102566Y-32622936D01*
G37*
X40102566Y-32622936D02*
X40110776Y-32571664D01*
X40110833Y-32564917D01*
X40103948Y-32510124D01*
X40081975Y-32490968D01*
X40079083Y-32490834D01*
X40055600Y-32506899D01*
X40047391Y-32558170D01*
X40047333Y-32564917D01*
X40054218Y-32619710D01*
X40076192Y-32638867D01*
X40079083Y-32639000D01*
X40102566Y-32622936D01*
G36*
X40102566Y-32432436D02*
G01*
X40110776Y-32381164D01*
X40110833Y-32374417D01*
X40103948Y-32319624D01*
X40081975Y-32300468D01*
X40079083Y-32300334D01*
X40055600Y-32316399D01*
X40047391Y-32367670D01*
X40047333Y-32374417D01*
X40054218Y-32429210D01*
X40076192Y-32448367D01*
X40079083Y-32448500D01*
X40102566Y-32432436D01*
X40102566Y-32432436D01*
G37*
X40102566Y-32432436D02*
X40110776Y-32381164D01*
X40110833Y-32374417D01*
X40103948Y-32319624D01*
X40081975Y-32300468D01*
X40079083Y-32300334D01*
X40055600Y-32316399D01*
X40047391Y-32367670D01*
X40047333Y-32374417D01*
X40054218Y-32429210D01*
X40076192Y-32448367D01*
X40079083Y-32448500D01*
X40102566Y-32432436D01*
G36*
X40102566Y-32241936D02*
G01*
X40110776Y-32190664D01*
X40110833Y-32183917D01*
X40103948Y-32129124D01*
X40081975Y-32109968D01*
X40079083Y-32109834D01*
X40055600Y-32125899D01*
X40047391Y-32177170D01*
X40047333Y-32183917D01*
X40054218Y-32238710D01*
X40076192Y-32257867D01*
X40079083Y-32258000D01*
X40102566Y-32241936D01*
X40102566Y-32241936D01*
G37*
X40102566Y-32241936D02*
X40110776Y-32190664D01*
X40110833Y-32183917D01*
X40103948Y-32129124D01*
X40081975Y-32109968D01*
X40079083Y-32109834D01*
X40055600Y-32125899D01*
X40047391Y-32177170D01*
X40047333Y-32183917D01*
X40054218Y-32238710D01*
X40076192Y-32257867D01*
X40079083Y-32258000D01*
X40102566Y-32241936D01*
G36*
X48956785Y-32444350D02*
G01*
X49019065Y-32394059D01*
X49056397Y-32314865D01*
X49064333Y-32246444D01*
X49046612Y-32160812D01*
X48999675Y-32096455D01*
X48932862Y-32057169D01*
X48855511Y-32046745D01*
X48776962Y-32068980D01*
X48724038Y-32108206D01*
X48673027Y-32184255D01*
X48658182Y-32266476D01*
X48677768Y-32344992D01*
X48730052Y-32409928D01*
X48782480Y-32440909D01*
X48875833Y-32461409D01*
X48956785Y-32444350D01*
X48956785Y-32444350D01*
G37*
X48956785Y-32444350D02*
X49019065Y-32394059D01*
X49056397Y-32314865D01*
X49064333Y-32246444D01*
X49046612Y-32160812D01*
X48999675Y-32096455D01*
X48932862Y-32057169D01*
X48855511Y-32046745D01*
X48776962Y-32068980D01*
X48724038Y-32108206D01*
X48673027Y-32184255D01*
X48658182Y-32266476D01*
X48677768Y-32344992D01*
X48730052Y-32409928D01*
X48782480Y-32440909D01*
X48875833Y-32461409D01*
X48956785Y-32444350D01*
G36*
X40102566Y-32051436D02*
G01*
X40110776Y-32000164D01*
X40110833Y-31993417D01*
X40103948Y-31938624D01*
X40081975Y-31919468D01*
X40079083Y-31919334D01*
X40055600Y-31935399D01*
X40047391Y-31986670D01*
X40047333Y-31993417D01*
X40054218Y-32048210D01*
X40076192Y-32067367D01*
X40079083Y-32067500D01*
X40102566Y-32051436D01*
X40102566Y-32051436D01*
G37*
X40102566Y-32051436D02*
X40110776Y-32000164D01*
X40110833Y-31993417D01*
X40103948Y-31938624D01*
X40081975Y-31919468D01*
X40079083Y-31919334D01*
X40055600Y-31935399D01*
X40047391Y-31986670D01*
X40047333Y-31993417D01*
X40054218Y-32048210D01*
X40076192Y-32067367D01*
X40079083Y-32067500D01*
X40102566Y-32051436D01*
G36*
X40102566Y-31860936D02*
G01*
X40110776Y-31809664D01*
X40110833Y-31802917D01*
X40103948Y-31748124D01*
X40081975Y-31728968D01*
X40079083Y-31728834D01*
X40055600Y-31744899D01*
X40047391Y-31796170D01*
X40047333Y-31802917D01*
X40054218Y-31857710D01*
X40076192Y-31876867D01*
X40079083Y-31877000D01*
X40102566Y-31860936D01*
X40102566Y-31860936D01*
G37*
X40102566Y-31860936D02*
X40110776Y-31809664D01*
X40110833Y-31802917D01*
X40103948Y-31748124D01*
X40081975Y-31728968D01*
X40079083Y-31728834D01*
X40055600Y-31744899D01*
X40047391Y-31796170D01*
X40047333Y-31802917D01*
X40054218Y-31857710D01*
X40076192Y-31876867D01*
X40079083Y-31877000D01*
X40102566Y-31860936D01*
G36*
X40102566Y-31670436D02*
G01*
X40110776Y-31619164D01*
X40110833Y-31612417D01*
X40103948Y-31557624D01*
X40081975Y-31538468D01*
X40079083Y-31538334D01*
X40055600Y-31554399D01*
X40047391Y-31605670D01*
X40047333Y-31612417D01*
X40054218Y-31667210D01*
X40076192Y-31686367D01*
X40079083Y-31686500D01*
X40102566Y-31670436D01*
X40102566Y-31670436D01*
G37*
X40102566Y-31670436D02*
X40110776Y-31619164D01*
X40110833Y-31612417D01*
X40103948Y-31557624D01*
X40081975Y-31538468D01*
X40079083Y-31538334D01*
X40055600Y-31554399D01*
X40047391Y-31605670D01*
X40047333Y-31612417D01*
X40054218Y-31667210D01*
X40076192Y-31686367D01*
X40079083Y-31686500D01*
X40102566Y-31670436D01*
G36*
X40102566Y-31479936D02*
G01*
X40110776Y-31428664D01*
X40110833Y-31421917D01*
X40103948Y-31367124D01*
X40081975Y-31347968D01*
X40079083Y-31347834D01*
X40055600Y-31363899D01*
X40047391Y-31415170D01*
X40047333Y-31421917D01*
X40054218Y-31476710D01*
X40076192Y-31495867D01*
X40079083Y-31496000D01*
X40102566Y-31479936D01*
X40102566Y-31479936D01*
G37*
X40102566Y-31479936D02*
X40110776Y-31428664D01*
X40110833Y-31421917D01*
X40103948Y-31367124D01*
X40081975Y-31347968D01*
X40079083Y-31347834D01*
X40055600Y-31363899D01*
X40047391Y-31415170D01*
X40047333Y-31421917D01*
X40054218Y-31476710D01*
X40076192Y-31495867D01*
X40079083Y-31496000D01*
X40102566Y-31479936D01*
G36*
X40102566Y-31289436D02*
G01*
X40110776Y-31238164D01*
X40110833Y-31231417D01*
X40103948Y-31176624D01*
X40081975Y-31157468D01*
X40079083Y-31157334D01*
X40055600Y-31173399D01*
X40047391Y-31224670D01*
X40047333Y-31231417D01*
X40054218Y-31286210D01*
X40076192Y-31305367D01*
X40079083Y-31305500D01*
X40102566Y-31289436D01*
X40102566Y-31289436D01*
G37*
X40102566Y-31289436D02*
X40110776Y-31238164D01*
X40110833Y-31231417D01*
X40103948Y-31176624D01*
X40081975Y-31157468D01*
X40079083Y-31157334D01*
X40055600Y-31173399D01*
X40047391Y-31224670D01*
X40047333Y-31231417D01*
X40054218Y-31286210D01*
X40076192Y-31305367D01*
X40079083Y-31305500D01*
X40102566Y-31289436D01*
G36*
X40104290Y-31096068D02*
G01*
X40110833Y-31051500D01*
X40101367Y-31001087D01*
X40079083Y-30988000D01*
X40053877Y-31006933D01*
X40047333Y-31051500D01*
X40056799Y-31101914D01*
X40079083Y-31115000D01*
X40104290Y-31096068D01*
X40104290Y-31096068D01*
G37*
X40104290Y-31096068D02*
X40110833Y-31051500D01*
X40101367Y-31001087D01*
X40079083Y-30988000D01*
X40053877Y-31006933D01*
X40047333Y-31051500D01*
X40056799Y-31101914D01*
X40079083Y-31115000D01*
X40104290Y-31096068D01*
G36*
X50114582Y-32532342D02*
G01*
X50187834Y-32488224D01*
X50233129Y-32419229D01*
X50246555Y-32335326D01*
X50225625Y-32249561D01*
X50191403Y-32210375D01*
X50132876Y-32171224D01*
X50066999Y-32141623D01*
X50014312Y-32131000D01*
X49957084Y-32115960D01*
X49891810Y-32078459D01*
X49835811Y-32029931D01*
X49812551Y-31997815D01*
X49794178Y-31935920D01*
X49784000Y-31845903D01*
X49782171Y-31741206D01*
X49788846Y-31635270D01*
X49804178Y-31541536D01*
X49807182Y-31529557D01*
X49852712Y-31427614D01*
X49927150Y-31356466D01*
X50030668Y-31315995D01*
X50136917Y-31305619D01*
X50210468Y-31287744D01*
X50269209Y-31250702D01*
X50314966Y-31202081D01*
X50332661Y-31147604D01*
X50334333Y-31111727D01*
X50323883Y-31020852D01*
X50288792Y-30958407D01*
X50223450Y-30915004D01*
X50214398Y-30911083D01*
X50128330Y-30894685D01*
X50047736Y-30913114D01*
X49982099Y-30960451D01*
X49940903Y-31030777D01*
X49931702Y-31087491D01*
X49922936Y-31129751D01*
X49901533Y-31189885D01*
X49892053Y-31211856D01*
X49860415Y-31268895D01*
X49820665Y-31310125D01*
X49766040Y-31337801D01*
X49689776Y-31354175D01*
X49585110Y-31361498D01*
X49445279Y-31362025D01*
X49441339Y-31361971D01*
X49330378Y-31360133D01*
X49253191Y-31357111D01*
X49201221Y-31351203D01*
X49165912Y-31340703D01*
X49138707Y-31323908D01*
X49111050Y-31299113D01*
X49107187Y-31295415D01*
X49062573Y-31242927D01*
X49033215Y-31190584D01*
X49029683Y-31179087D01*
X49016305Y-31121671D01*
X48999592Y-31053017D01*
X48997879Y-31046152D01*
X48958656Y-30966599D01*
X48893217Y-30914097D01*
X48811155Y-30893123D01*
X48722065Y-30908152D01*
X48711458Y-30912543D01*
X48643133Y-30958718D01*
X48607138Y-31026147D01*
X48598667Y-31101845D01*
X48614456Y-31187001D01*
X48663149Y-31249370D01*
X48746726Y-31290713D01*
X48831806Y-31308751D01*
X48948111Y-31332403D01*
X49031467Y-31370935D01*
X49088233Y-31431055D01*
X49124771Y-31519474D01*
X49147266Y-31641521D01*
X49161673Y-31725597D01*
X49181040Y-31799446D01*
X49201176Y-31847091D01*
X49201192Y-31847115D01*
X49274375Y-31921130D01*
X49379155Y-31971504D01*
X49486271Y-31993445D01*
X49613569Y-32015881D01*
X49706014Y-32055178D01*
X49769492Y-32116693D01*
X49809890Y-32205783D01*
X49830402Y-32306624D01*
X49859153Y-32420393D01*
X49908662Y-32498672D01*
X49977623Y-32540427D01*
X50064733Y-32544620D01*
X50114582Y-32532342D01*
X50114582Y-32532342D01*
G37*
X50114582Y-32532342D02*
X50187834Y-32488224D01*
X50233129Y-32419229D01*
X50246555Y-32335326D01*
X50225625Y-32249561D01*
X50191403Y-32210375D01*
X50132876Y-32171224D01*
X50066999Y-32141623D01*
X50014312Y-32131000D01*
X49957084Y-32115960D01*
X49891810Y-32078459D01*
X49835811Y-32029931D01*
X49812551Y-31997815D01*
X49794178Y-31935920D01*
X49784000Y-31845903D01*
X49782171Y-31741206D01*
X49788846Y-31635270D01*
X49804178Y-31541536D01*
X49807182Y-31529557D01*
X49852712Y-31427614D01*
X49927150Y-31356466D01*
X50030668Y-31315995D01*
X50136917Y-31305619D01*
X50210468Y-31287744D01*
X50269209Y-31250702D01*
X50314966Y-31202081D01*
X50332661Y-31147604D01*
X50334333Y-31111727D01*
X50323883Y-31020852D01*
X50288792Y-30958407D01*
X50223450Y-30915004D01*
X50214398Y-30911083D01*
X50128330Y-30894685D01*
X50047736Y-30913114D01*
X49982099Y-30960451D01*
X49940903Y-31030777D01*
X49931702Y-31087491D01*
X49922936Y-31129751D01*
X49901533Y-31189885D01*
X49892053Y-31211856D01*
X49860415Y-31268895D01*
X49820665Y-31310125D01*
X49766040Y-31337801D01*
X49689776Y-31354175D01*
X49585110Y-31361498D01*
X49445279Y-31362025D01*
X49441339Y-31361971D01*
X49330378Y-31360133D01*
X49253191Y-31357111D01*
X49201221Y-31351203D01*
X49165912Y-31340703D01*
X49138707Y-31323908D01*
X49111050Y-31299113D01*
X49107187Y-31295415D01*
X49062573Y-31242927D01*
X49033215Y-31190584D01*
X49029683Y-31179087D01*
X49016305Y-31121671D01*
X48999592Y-31053017D01*
X48997879Y-31046152D01*
X48958656Y-30966599D01*
X48893217Y-30914097D01*
X48811155Y-30893123D01*
X48722065Y-30908152D01*
X48711458Y-30912543D01*
X48643133Y-30958718D01*
X48607138Y-31026147D01*
X48598667Y-31101845D01*
X48614456Y-31187001D01*
X48663149Y-31249370D01*
X48746726Y-31290713D01*
X48831806Y-31308751D01*
X48948111Y-31332403D01*
X49031467Y-31370935D01*
X49088233Y-31431055D01*
X49124771Y-31519474D01*
X49147266Y-31641521D01*
X49161673Y-31725597D01*
X49181040Y-31799446D01*
X49201176Y-31847091D01*
X49201192Y-31847115D01*
X49274375Y-31921130D01*
X49379155Y-31971504D01*
X49486271Y-31993445D01*
X49613569Y-32015881D01*
X49706014Y-32055178D01*
X49769492Y-32116693D01*
X49809890Y-32205783D01*
X49830402Y-32306624D01*
X49859153Y-32420393D01*
X49908662Y-32498672D01*
X49977623Y-32540427D01*
X50064733Y-32544620D01*
X50114582Y-32532342D01*
G36*
X40102566Y-30929602D02*
G01*
X40110776Y-30878331D01*
X40110833Y-30871584D01*
X40103948Y-30816791D01*
X40081975Y-30797634D01*
X40079083Y-30797500D01*
X40055600Y-30813565D01*
X40047391Y-30864837D01*
X40047333Y-30871584D01*
X40054218Y-30926377D01*
X40076192Y-30945533D01*
X40079083Y-30945667D01*
X40102566Y-30929602D01*
X40102566Y-30929602D01*
G37*
X40102566Y-30929602D02*
X40110776Y-30878331D01*
X40110833Y-30871584D01*
X40103948Y-30816791D01*
X40081975Y-30797634D01*
X40079083Y-30797500D01*
X40055600Y-30813565D01*
X40047391Y-30864837D01*
X40047333Y-30871584D01*
X40054218Y-30926377D01*
X40076192Y-30945533D01*
X40079083Y-30945667D01*
X40102566Y-30929602D01*
G36*
X40102566Y-30739102D02*
G01*
X40110776Y-30687831D01*
X40110833Y-30681084D01*
X40103948Y-30626291D01*
X40081975Y-30607134D01*
X40079083Y-30607000D01*
X40055600Y-30623065D01*
X40047391Y-30674337D01*
X40047333Y-30681084D01*
X40054218Y-30735877D01*
X40076192Y-30755033D01*
X40079083Y-30755167D01*
X40102566Y-30739102D01*
X40102566Y-30739102D01*
G37*
X40102566Y-30739102D02*
X40110776Y-30687831D01*
X40110833Y-30681084D01*
X40103948Y-30626291D01*
X40081975Y-30607134D01*
X40079083Y-30607000D01*
X40055600Y-30623065D01*
X40047391Y-30674337D01*
X40047333Y-30681084D01*
X40054218Y-30735877D01*
X40076192Y-30755033D01*
X40079083Y-30755167D01*
X40102566Y-30739102D01*
G36*
X40102566Y-30548602D02*
G01*
X40110776Y-30497331D01*
X40110833Y-30490584D01*
X40103948Y-30435791D01*
X40081975Y-30416634D01*
X40079083Y-30416500D01*
X40055600Y-30432565D01*
X40047391Y-30483837D01*
X40047333Y-30490584D01*
X40054218Y-30545377D01*
X40076192Y-30564533D01*
X40079083Y-30564667D01*
X40102566Y-30548602D01*
X40102566Y-30548602D01*
G37*
X40102566Y-30548602D02*
X40110776Y-30497331D01*
X40110833Y-30490584D01*
X40103948Y-30435791D01*
X40081975Y-30416634D01*
X40079083Y-30416500D01*
X40055600Y-30432565D01*
X40047391Y-30483837D01*
X40047333Y-30490584D01*
X40054218Y-30545377D01*
X40076192Y-30564533D01*
X40079083Y-30564667D01*
X40102566Y-30548602D01*
G36*
X40102566Y-30358102D02*
G01*
X40110776Y-30306831D01*
X40110833Y-30300084D01*
X40103948Y-30245291D01*
X40081975Y-30226134D01*
X40079083Y-30226000D01*
X40055600Y-30242065D01*
X40047391Y-30293337D01*
X40047333Y-30300084D01*
X40054218Y-30354877D01*
X40076192Y-30374033D01*
X40079083Y-30374167D01*
X40102566Y-30358102D01*
X40102566Y-30358102D01*
G37*
X40102566Y-30358102D02*
X40110776Y-30306831D01*
X40110833Y-30300084D01*
X40103948Y-30245291D01*
X40081975Y-30226134D01*
X40079083Y-30226000D01*
X40055600Y-30242065D01*
X40047391Y-30293337D01*
X40047333Y-30300084D01*
X40054218Y-30354877D01*
X40076192Y-30374033D01*
X40079083Y-30374167D01*
X40102566Y-30358102D01*
G36*
X37579008Y-31598061D02*
G01*
X37735313Y-31585693D01*
X37862016Y-31563158D01*
X37965191Y-31528883D01*
X38050910Y-31481296D01*
X38125246Y-31418824D01*
X38135957Y-31407897D01*
X38215350Y-31296761D01*
X38271140Y-31159575D01*
X38302758Y-31005808D01*
X38309635Y-30844929D01*
X38291204Y-30686405D01*
X38246894Y-30539706D01*
X38194098Y-30439723D01*
X38128163Y-30356796D01*
X38049594Y-30292406D01*
X37953010Y-30244754D01*
X37833034Y-30212038D01*
X37684286Y-30192457D01*
X37501388Y-30184210D01*
X37429408Y-30183667D01*
X37105167Y-30183667D01*
X37105167Y-30437667D01*
X37422667Y-30437667D01*
X37554958Y-30438132D01*
X37679115Y-30449641D01*
X37775966Y-30478875D01*
X37855361Y-30529039D01*
X37910976Y-30599591D01*
X37945312Y-30696085D01*
X37960873Y-30824075D01*
X37962417Y-30892750D01*
X37960316Y-30994869D01*
X37952751Y-31066557D01*
X37937825Y-31119568D01*
X37920083Y-31155121D01*
X37866467Y-31230346D01*
X37804603Y-31279728D01*
X37724079Y-31308590D01*
X37614480Y-31322255D01*
X37590571Y-31323525D01*
X37422667Y-31331150D01*
X37422667Y-30437667D01*
X37105167Y-30437667D01*
X37105167Y-31601834D01*
X37387029Y-31601834D01*
X37579008Y-31598061D01*
X37579008Y-31598061D01*
G37*
X37579008Y-31598061D02*
X37735313Y-31585693D01*
X37862016Y-31563158D01*
X37965191Y-31528883D01*
X38050910Y-31481296D01*
X38125246Y-31418824D01*
X38135957Y-31407897D01*
X38215350Y-31296761D01*
X38271140Y-31159575D01*
X38302758Y-31005808D01*
X38309635Y-30844929D01*
X38291204Y-30686405D01*
X38246894Y-30539706D01*
X38194098Y-30439723D01*
X38128163Y-30356796D01*
X38049594Y-30292406D01*
X37953010Y-30244754D01*
X37833034Y-30212038D01*
X37684286Y-30192457D01*
X37501388Y-30184210D01*
X37429408Y-30183667D01*
X37105167Y-30183667D01*
X37105167Y-30437667D01*
X37422667Y-30437667D01*
X37554958Y-30438132D01*
X37679115Y-30449641D01*
X37775966Y-30478875D01*
X37855361Y-30529039D01*
X37910976Y-30599591D01*
X37945312Y-30696085D01*
X37960873Y-30824075D01*
X37962417Y-30892750D01*
X37960316Y-30994869D01*
X37952751Y-31066557D01*
X37937825Y-31119568D01*
X37920083Y-31155121D01*
X37866467Y-31230346D01*
X37804603Y-31279728D01*
X37724079Y-31308590D01*
X37614480Y-31322255D01*
X37590571Y-31323525D01*
X37422667Y-31331150D01*
X37422667Y-30437667D01*
X37105167Y-30437667D01*
X37105167Y-31601834D01*
X37387029Y-31601834D01*
X37579008Y-31598061D01*
G36*
X36703000Y-30183667D02*
G01*
X36507208Y-30183679D01*
X36311417Y-30183691D01*
X36063017Y-30633471D01*
X35814618Y-31083250D01*
X35814309Y-30633459D01*
X35814000Y-30183667D01*
X35517667Y-30183667D01*
X35517667Y-31601834D01*
X35713458Y-31601503D01*
X35909250Y-31601172D01*
X36152667Y-31162295D01*
X36396083Y-30723417D01*
X36401804Y-31162625D01*
X36407525Y-31601834D01*
X36703000Y-31601834D01*
X36703000Y-30183667D01*
X36703000Y-30183667D01*
G37*
X36703000Y-30183667D02*
X36507208Y-30183679D01*
X36311417Y-30183691D01*
X36063017Y-30633471D01*
X35814618Y-31083250D01*
X35814309Y-30633459D01*
X35814000Y-30183667D01*
X35517667Y-30183667D01*
X35517667Y-31601834D01*
X35713458Y-31601503D01*
X35909250Y-31601172D01*
X36152667Y-31162295D01*
X36396083Y-30723417D01*
X36401804Y-31162625D01*
X36407525Y-31601834D01*
X36703000Y-31601834D01*
X36703000Y-30183667D01*
G36*
X35115500Y-31347834D02*
G01*
X34417000Y-31347834D01*
X34417000Y-31030334D01*
X35052000Y-31030334D01*
X35052000Y-30776334D01*
X34417000Y-30776334D01*
X34417000Y-30437667D01*
X35136667Y-30437667D01*
X35136667Y-30183667D01*
X34099500Y-30183667D01*
X34099500Y-31601834D01*
X35115500Y-31601834D01*
X35115500Y-31347834D01*
X35115500Y-31347834D01*
G37*
X35115500Y-31347834D02*
X34417000Y-31347834D01*
X34417000Y-31030334D01*
X35052000Y-31030334D01*
X35052000Y-30776334D01*
X34417000Y-30776334D01*
X34417000Y-30437667D01*
X35136667Y-30437667D01*
X35136667Y-30183667D01*
X34099500Y-30183667D01*
X34099500Y-31601834D01*
X35115500Y-31601834D01*
X35115500Y-31347834D01*
G36*
X33061914Y-31599416D02*
G01*
X33222110Y-31591307D01*
X33350591Y-31576221D01*
X33452550Y-31552875D01*
X33533181Y-31519983D01*
X33597678Y-31476261D01*
X33651235Y-31420425D01*
X33663637Y-31404270D01*
X33688149Y-31362219D01*
X33701280Y-31311336D01*
X33705661Y-31238217D01*
X33705431Y-31191415D01*
X33691628Y-31050851D01*
X33656664Y-30933796D01*
X33602873Y-30846100D01*
X33550312Y-30802388D01*
X33507283Y-30773751D01*
X33486220Y-30751596D01*
X33485800Y-30749550D01*
X33494756Y-30725609D01*
X33519378Y-30671428D01*
X33556139Y-30594499D01*
X33601512Y-30502316D01*
X33612667Y-30480000D01*
X33659598Y-30384848D01*
X33698700Y-30302657D01*
X33726420Y-30241113D01*
X33739209Y-30207897D01*
X33739667Y-30205159D01*
X33719608Y-30194584D01*
X33663723Y-30187221D01*
X33578444Y-30183814D01*
X33553631Y-30183667D01*
X33367596Y-30183667D01*
X33255250Y-30458834D01*
X33142904Y-30734000D01*
X32850667Y-30734000D01*
X32850667Y-30183667D01*
X32512000Y-30183667D01*
X32512000Y-31347834D01*
X32850667Y-31347834D01*
X32850667Y-31009167D01*
X33068207Y-31009167D01*
X33183815Y-31011421D01*
X33263732Y-31018693D01*
X33314385Y-31031751D01*
X33330372Y-31040423D01*
X33377411Y-31095907D01*
X33393535Y-31165409D01*
X33380563Y-31236102D01*
X33340311Y-31295158D01*
X33290009Y-31325293D01*
X33239143Y-31335661D01*
X33160394Y-31343511D01*
X33068195Y-31347555D01*
X33038008Y-31347834D01*
X32850667Y-31347834D01*
X32512000Y-31347834D01*
X32512000Y-31601834D01*
X32864808Y-31601834D01*
X33061914Y-31599416D01*
X33061914Y-31599416D01*
G37*
X33061914Y-31599416D02*
X33222110Y-31591307D01*
X33350591Y-31576221D01*
X33452550Y-31552875D01*
X33533181Y-31519983D01*
X33597678Y-31476261D01*
X33651235Y-31420425D01*
X33663637Y-31404270D01*
X33688149Y-31362219D01*
X33701280Y-31311336D01*
X33705661Y-31238217D01*
X33705431Y-31191415D01*
X33691628Y-31050851D01*
X33656664Y-30933796D01*
X33602873Y-30846100D01*
X33550312Y-30802388D01*
X33507283Y-30773751D01*
X33486220Y-30751596D01*
X33485800Y-30749550D01*
X33494756Y-30725609D01*
X33519378Y-30671428D01*
X33556139Y-30594499D01*
X33601512Y-30502316D01*
X33612667Y-30480000D01*
X33659598Y-30384848D01*
X33698700Y-30302657D01*
X33726420Y-30241113D01*
X33739209Y-30207897D01*
X33739667Y-30205159D01*
X33719608Y-30194584D01*
X33663723Y-30187221D01*
X33578444Y-30183814D01*
X33553631Y-30183667D01*
X33367596Y-30183667D01*
X33255250Y-30458834D01*
X33142904Y-30734000D01*
X32850667Y-30734000D01*
X32850667Y-30183667D01*
X32512000Y-30183667D01*
X32512000Y-31347834D01*
X32850667Y-31347834D01*
X32850667Y-31009167D01*
X33068207Y-31009167D01*
X33183815Y-31011421D01*
X33263732Y-31018693D01*
X33314385Y-31031751D01*
X33330372Y-31040423D01*
X33377411Y-31095907D01*
X33393535Y-31165409D01*
X33380563Y-31236102D01*
X33340311Y-31295158D01*
X33290009Y-31325293D01*
X33239143Y-31335661D01*
X33160394Y-31343511D01*
X33068195Y-31347555D01*
X33038008Y-31347834D01*
X32850667Y-31347834D01*
X32512000Y-31347834D01*
X32512000Y-31601834D01*
X32864808Y-31601834D01*
X33061914Y-31599416D01*
G36*
X32258000Y-31347834D02*
G01*
X31834667Y-31347834D01*
X31834667Y-30183667D01*
X31517167Y-30183667D01*
X31517167Y-31347834D01*
X31115000Y-31347834D01*
X31115000Y-31601834D01*
X32258000Y-31601834D01*
X32258000Y-31347834D01*
X32258000Y-31347834D01*
G37*
X32258000Y-31347834D02*
X31834667Y-31347834D01*
X31834667Y-30183667D01*
X31517167Y-30183667D01*
X31517167Y-31347834D01*
X31115000Y-31347834D01*
X31115000Y-31601834D01*
X32258000Y-31601834D01*
X32258000Y-31347834D01*
G36*
X40102566Y-30167602D02*
G01*
X40110776Y-30116331D01*
X40110833Y-30109584D01*
X40103948Y-30054791D01*
X40081975Y-30035634D01*
X40079083Y-30035500D01*
X40055600Y-30051565D01*
X40047391Y-30102837D01*
X40047333Y-30109584D01*
X40054218Y-30164377D01*
X40076192Y-30183533D01*
X40079083Y-30183667D01*
X40102566Y-30167602D01*
X40102566Y-30167602D01*
G37*
X40102566Y-30167602D02*
X40110776Y-30116331D01*
X40110833Y-30109584D01*
X40103948Y-30054791D01*
X40081975Y-30035634D01*
X40079083Y-30035500D01*
X40055600Y-30051565D01*
X40047391Y-30102837D01*
X40047333Y-30109584D01*
X40054218Y-30164377D01*
X40076192Y-30183533D01*
X40079083Y-30183667D01*
X40102566Y-30167602D01*
G36*
X38486843Y-30051375D02*
G01*
X38517381Y-29961417D01*
X38544874Y-30051375D01*
X38571155Y-30114368D01*
X38601577Y-30140110D01*
X38611350Y-30141334D01*
X38632567Y-30136047D01*
X38644399Y-30114079D01*
X38649443Y-30066271D01*
X38650333Y-30003750D01*
X38648214Y-29926578D01*
X38640640Y-29883685D01*
X38625789Y-29867175D01*
X38618583Y-29866167D01*
X38592745Y-29885073D01*
X38584581Y-29924375D01*
X38582330Y-29982584D01*
X38559329Y-29924375D01*
X38531186Y-29877107D01*
X38502337Y-29871796D01*
X38475141Y-29908178D01*
X38465056Y-29934959D01*
X38442988Y-30003750D01*
X38440827Y-29934959D01*
X38430336Y-29881421D01*
X38406917Y-29866167D01*
X38387769Y-29876619D01*
X38377912Y-29913293D01*
X38375167Y-29982584D01*
X38373329Y-30049861D01*
X38365385Y-30084908D01*
X38347685Y-30097759D01*
X38332833Y-30099000D01*
X38308369Y-30093947D01*
X38295624Y-30072100D01*
X38290951Y-30023426D01*
X38290500Y-29982584D01*
X38287649Y-29912378D01*
X38277647Y-29876233D01*
X38258750Y-29866167D01*
X38239603Y-29876619D01*
X38229745Y-29913293D01*
X38227000Y-29982584D01*
X38225162Y-30049861D01*
X38217218Y-30084908D01*
X38199518Y-30097759D01*
X38184667Y-30099000D01*
X38150271Y-30107865D01*
X38142333Y-30120167D01*
X38162012Y-30130864D01*
X38215200Y-30138309D01*
X38293122Y-30141320D01*
X38299319Y-30141334D01*
X38456305Y-30141334D01*
X38486843Y-30051375D01*
X38486843Y-30051375D01*
G37*
X38486843Y-30051375D02*
X38517381Y-29961417D01*
X38544874Y-30051375D01*
X38571155Y-30114368D01*
X38601577Y-30140110D01*
X38611350Y-30141334D01*
X38632567Y-30136047D01*
X38644399Y-30114079D01*
X38649443Y-30066271D01*
X38650333Y-30003750D01*
X38648214Y-29926578D01*
X38640640Y-29883685D01*
X38625789Y-29867175D01*
X38618583Y-29866167D01*
X38592745Y-29885073D01*
X38584581Y-29924375D01*
X38582330Y-29982584D01*
X38559329Y-29924375D01*
X38531186Y-29877107D01*
X38502337Y-29871796D01*
X38475141Y-29908178D01*
X38465056Y-29934959D01*
X38442988Y-30003750D01*
X38440827Y-29934959D01*
X38430336Y-29881421D01*
X38406917Y-29866167D01*
X38387769Y-29876619D01*
X38377912Y-29913293D01*
X38375167Y-29982584D01*
X38373329Y-30049861D01*
X38365385Y-30084908D01*
X38347685Y-30097759D01*
X38332833Y-30099000D01*
X38308369Y-30093947D01*
X38295624Y-30072100D01*
X38290951Y-30023426D01*
X38290500Y-29982584D01*
X38287649Y-29912378D01*
X38277647Y-29876233D01*
X38258750Y-29866167D01*
X38239603Y-29876619D01*
X38229745Y-29913293D01*
X38227000Y-29982584D01*
X38225162Y-30049861D01*
X38217218Y-30084908D01*
X38199518Y-30097759D01*
X38184667Y-30099000D01*
X38150271Y-30107865D01*
X38142333Y-30120167D01*
X38162012Y-30130864D01*
X38215200Y-30138309D01*
X38293122Y-30141320D01*
X38299319Y-30141334D01*
X38456305Y-30141334D01*
X38486843Y-30051375D01*
G36*
X40102566Y-29977102D02*
G01*
X40110776Y-29925831D01*
X40110833Y-29919084D01*
X40103948Y-29864291D01*
X40081975Y-29845134D01*
X40079083Y-29845000D01*
X40055600Y-29861065D01*
X40047391Y-29912337D01*
X40047333Y-29919084D01*
X40054218Y-29973877D01*
X40076192Y-29993033D01*
X40079083Y-29993167D01*
X40102566Y-29977102D01*
X40102566Y-29977102D01*
G37*
X40102566Y-29977102D02*
X40110776Y-29925831D01*
X40110833Y-29919084D01*
X40103948Y-29864291D01*
X40081975Y-29845134D01*
X40079083Y-29845000D01*
X40055600Y-29861065D01*
X40047391Y-29912337D01*
X40047333Y-29919084D01*
X40054218Y-29973877D01*
X40076192Y-29993033D01*
X40079083Y-29993167D01*
X40102566Y-29977102D01*
G36*
X40102566Y-29786602D02*
G01*
X40110776Y-29735331D01*
X40110833Y-29728584D01*
X40103948Y-29673791D01*
X40081975Y-29654634D01*
X40079083Y-29654500D01*
X40055600Y-29670565D01*
X40047391Y-29721837D01*
X40047333Y-29728584D01*
X40054218Y-29783377D01*
X40076192Y-29802533D01*
X40079083Y-29802667D01*
X40102566Y-29786602D01*
X40102566Y-29786602D01*
G37*
X40102566Y-29786602D02*
X40110776Y-29735331D01*
X40110833Y-29728584D01*
X40103948Y-29673791D01*
X40081975Y-29654634D01*
X40079083Y-29654500D01*
X40055600Y-29670565D01*
X40047391Y-29721837D01*
X40047333Y-29728584D01*
X40054218Y-29783377D01*
X40076192Y-29802533D01*
X40079083Y-29802667D01*
X40102566Y-29786602D01*
G36*
X40102566Y-29596102D02*
G01*
X40110776Y-29544831D01*
X40110833Y-29538084D01*
X40103948Y-29483291D01*
X40081975Y-29464134D01*
X40079083Y-29464000D01*
X40055600Y-29480065D01*
X40047391Y-29531337D01*
X40047333Y-29538084D01*
X40054218Y-29592877D01*
X40076192Y-29612033D01*
X40079083Y-29612167D01*
X40102566Y-29596102D01*
X40102566Y-29596102D01*
G37*
X40102566Y-29596102D02*
X40110776Y-29544831D01*
X40110833Y-29538084D01*
X40103948Y-29483291D01*
X40081975Y-29464134D01*
X40079083Y-29464000D01*
X40055600Y-29480065D01*
X40047391Y-29531337D01*
X40047333Y-29538084D01*
X40054218Y-29592877D01*
X40076192Y-29612033D01*
X40079083Y-29612167D01*
X40102566Y-29596102D01*
G36*
X28715761Y-32542492D02*
G01*
X28990920Y-32487350D01*
X29254583Y-32396612D01*
X29501888Y-32270879D01*
X29696833Y-32135968D01*
X29768020Y-32077206D01*
X29838393Y-32015062D01*
X29900545Y-31956580D01*
X29947067Y-31908807D01*
X29970554Y-31878785D01*
X29972000Y-31874283D01*
X29954883Y-31875072D01*
X29910106Y-31891805D01*
X29850292Y-31919452D01*
X29692898Y-31981913D01*
X29527785Y-32015185D01*
X29346836Y-32020091D01*
X29141933Y-31997455D01*
X29119196Y-31993601D01*
X29036388Y-31977067D01*
X28942778Y-31955089D01*
X28846598Y-31930043D01*
X28756082Y-31904302D01*
X28679461Y-31880243D01*
X28624968Y-31860241D01*
X28600837Y-31846670D01*
X28600879Y-31844066D01*
X28624829Y-31843606D01*
X28672514Y-31853696D01*
X28682235Y-31856408D01*
X28800781Y-31881697D01*
X28941846Y-31898303D01*
X29086256Y-31904856D01*
X29214832Y-31899990D01*
X29244513Y-31896518D01*
X29418911Y-31855075D01*
X29563337Y-31785184D01*
X29676910Y-31689149D01*
X29758752Y-31569273D01*
X29807983Y-31427861D01*
X29823723Y-31267216D01*
X29805093Y-31089642D01*
X29751214Y-30897443D01*
X29685405Y-30741456D01*
X29572936Y-30542904D01*
X29430404Y-30347867D01*
X29262934Y-30160009D01*
X29075653Y-29982996D01*
X28873686Y-29820491D01*
X28662160Y-29676160D01*
X28446201Y-29553668D01*
X28230934Y-29456680D01*
X28021486Y-29388860D01*
X27822982Y-29353873D01*
X27738917Y-29349819D01*
X27600406Y-29356110D01*
X27494386Y-29377566D01*
X27413020Y-29416465D01*
X27362754Y-29459198D01*
X27309352Y-29528863D01*
X27277790Y-29608474D01*
X27264079Y-29710428D01*
X27262667Y-29770066D01*
X27278805Y-29926738D01*
X27327375Y-30108233D01*
X27408609Y-30315389D01*
X27421728Y-30344570D01*
X27493091Y-30501167D01*
X27670815Y-30501167D01*
X27757957Y-30501908D01*
X27812433Y-30505848D01*
X27843907Y-30515562D01*
X27862041Y-30533625D01*
X27873102Y-30555080D01*
X27891055Y-30597543D01*
X27897667Y-30618580D01*
X27878171Y-30623032D01*
X27826364Y-30626385D01*
X27752262Y-30628071D01*
X27728333Y-30628167D01*
X27649690Y-30629133D01*
X27590472Y-30631698D01*
X27560697Y-30635368D01*
X27559000Y-30636553D01*
X27567427Y-30657885D01*
X27590347Y-30709650D01*
X27624219Y-30783983D01*
X27663807Y-30869386D01*
X27768614Y-31093834D01*
X27694630Y-31093834D01*
X27644827Y-31086703D01*
X27591481Y-31061576D01*
X27523896Y-31012851D01*
X27495017Y-30989285D01*
X27281694Y-30838324D01*
X27035689Y-30713449D01*
X26920561Y-30667989D01*
X26841940Y-30639023D01*
X26780715Y-30615946D01*
X26746027Y-30602230D01*
X26741508Y-30600032D01*
X26733970Y-30579636D01*
X26724120Y-30548792D01*
X26718562Y-30521643D01*
X26729394Y-30507440D01*
X26765587Y-30502007D01*
X26826469Y-30501167D01*
X26943458Y-30501167D01*
X26838840Y-30284209D01*
X26791908Y-30181489D01*
X26748801Y-30077555D01*
X26715328Y-29986903D01*
X26701034Y-29940250D01*
X26681474Y-29836231D01*
X26670613Y-29716298D01*
X26668786Y-29595444D01*
X26676329Y-29488660D01*
X26689448Y-29423069D01*
X26703867Y-29365165D01*
X26700159Y-29345507D01*
X26678340Y-29364092D01*
X26638426Y-29420917D01*
X26629204Y-29435392D01*
X26560159Y-29563814D01*
X26494291Y-29721312D01*
X26436516Y-29894664D01*
X26391753Y-30070647D01*
X26390244Y-30077834D01*
X26365848Y-30246568D01*
X26355790Y-30437922D01*
X26359698Y-30636662D01*
X26377204Y-30827553D01*
X26407936Y-30995360D01*
X26413014Y-31015174D01*
X26505044Y-31282208D01*
X26633069Y-31534970D01*
X26793209Y-31768939D01*
X26823592Y-31802917D01*
X28490333Y-31802917D01*
X28500917Y-31792334D01*
X28511500Y-31802917D01*
X28500917Y-31813500D01*
X28490333Y-31802917D01*
X26823592Y-31802917D01*
X26842520Y-31824084D01*
X28553833Y-31824084D01*
X28564417Y-31813500D01*
X28575000Y-31824084D01*
X28564417Y-31834667D01*
X28553833Y-31824084D01*
X26842520Y-31824084D01*
X26981584Y-31979597D01*
X27194315Y-32162422D01*
X27427522Y-32312895D01*
X27597421Y-32395106D01*
X27869937Y-32488346D01*
X28150408Y-32543591D01*
X28433970Y-32561439D01*
X28715761Y-32542492D01*
X28715761Y-32542492D01*
G37*
X28715761Y-32542492D02*
X28990920Y-32487350D01*
X29254583Y-32396612D01*
X29501888Y-32270879D01*
X29696833Y-32135968D01*
X29768020Y-32077206D01*
X29838393Y-32015062D01*
X29900545Y-31956580D01*
X29947067Y-31908807D01*
X29970554Y-31878785D01*
X29972000Y-31874283D01*
X29954883Y-31875072D01*
X29910106Y-31891805D01*
X29850292Y-31919452D01*
X29692898Y-31981913D01*
X29527785Y-32015185D01*
X29346836Y-32020091D01*
X29141933Y-31997455D01*
X29119196Y-31993601D01*
X29036388Y-31977067D01*
X28942778Y-31955089D01*
X28846598Y-31930043D01*
X28756082Y-31904302D01*
X28679461Y-31880243D01*
X28624968Y-31860241D01*
X28600837Y-31846670D01*
X28600879Y-31844066D01*
X28624829Y-31843606D01*
X28672514Y-31853696D01*
X28682235Y-31856408D01*
X28800781Y-31881697D01*
X28941846Y-31898303D01*
X29086256Y-31904856D01*
X29214832Y-31899990D01*
X29244513Y-31896518D01*
X29418911Y-31855075D01*
X29563337Y-31785184D01*
X29676910Y-31689149D01*
X29758752Y-31569273D01*
X29807983Y-31427861D01*
X29823723Y-31267216D01*
X29805093Y-31089642D01*
X29751214Y-30897443D01*
X29685405Y-30741456D01*
X29572936Y-30542904D01*
X29430404Y-30347867D01*
X29262934Y-30160009D01*
X29075653Y-29982996D01*
X28873686Y-29820491D01*
X28662160Y-29676160D01*
X28446201Y-29553668D01*
X28230934Y-29456680D01*
X28021486Y-29388860D01*
X27822982Y-29353873D01*
X27738917Y-29349819D01*
X27600406Y-29356110D01*
X27494386Y-29377566D01*
X27413020Y-29416465D01*
X27362754Y-29459198D01*
X27309352Y-29528863D01*
X27277790Y-29608474D01*
X27264079Y-29710428D01*
X27262667Y-29770066D01*
X27278805Y-29926738D01*
X27327375Y-30108233D01*
X27408609Y-30315389D01*
X27421728Y-30344570D01*
X27493091Y-30501167D01*
X27670815Y-30501167D01*
X27757957Y-30501908D01*
X27812433Y-30505848D01*
X27843907Y-30515562D01*
X27862041Y-30533625D01*
X27873102Y-30555080D01*
X27891055Y-30597543D01*
X27897667Y-30618580D01*
X27878171Y-30623032D01*
X27826364Y-30626385D01*
X27752262Y-30628071D01*
X27728333Y-30628167D01*
X27649690Y-30629133D01*
X27590472Y-30631698D01*
X27560697Y-30635368D01*
X27559000Y-30636553D01*
X27567427Y-30657885D01*
X27590347Y-30709650D01*
X27624219Y-30783983D01*
X27663807Y-30869386D01*
X27768614Y-31093834D01*
X27694630Y-31093834D01*
X27644827Y-31086703D01*
X27591481Y-31061576D01*
X27523896Y-31012851D01*
X27495017Y-30989285D01*
X27281694Y-30838324D01*
X27035689Y-30713449D01*
X26920561Y-30667989D01*
X26841940Y-30639023D01*
X26780715Y-30615946D01*
X26746027Y-30602230D01*
X26741508Y-30600032D01*
X26733970Y-30579636D01*
X26724120Y-30548792D01*
X26718562Y-30521643D01*
X26729394Y-30507440D01*
X26765587Y-30502007D01*
X26826469Y-30501167D01*
X26943458Y-30501167D01*
X26838840Y-30284209D01*
X26791908Y-30181489D01*
X26748801Y-30077555D01*
X26715328Y-29986903D01*
X26701034Y-29940250D01*
X26681474Y-29836231D01*
X26670613Y-29716298D01*
X26668786Y-29595444D01*
X26676329Y-29488660D01*
X26689448Y-29423069D01*
X26703867Y-29365165D01*
X26700159Y-29345507D01*
X26678340Y-29364092D01*
X26638426Y-29420917D01*
X26629204Y-29435392D01*
X26560159Y-29563814D01*
X26494291Y-29721312D01*
X26436516Y-29894664D01*
X26391753Y-30070647D01*
X26390244Y-30077834D01*
X26365848Y-30246568D01*
X26355790Y-30437922D01*
X26359698Y-30636662D01*
X26377204Y-30827553D01*
X26407936Y-30995360D01*
X26413014Y-31015174D01*
X26505044Y-31282208D01*
X26633069Y-31534970D01*
X26793209Y-31768939D01*
X26823592Y-31802917D01*
X28490333Y-31802917D01*
X28500917Y-31792334D01*
X28511500Y-31802917D01*
X28500917Y-31813500D01*
X28490333Y-31802917D01*
X26823592Y-31802917D01*
X26842520Y-31824084D01*
X28553833Y-31824084D01*
X28564417Y-31813500D01*
X28575000Y-31824084D01*
X28564417Y-31834667D01*
X28553833Y-31824084D01*
X26842520Y-31824084D01*
X26981584Y-31979597D01*
X27194315Y-32162422D01*
X27427522Y-32312895D01*
X27597421Y-32395106D01*
X27869937Y-32488346D01*
X28150408Y-32543591D01*
X28433970Y-32561439D01*
X28715761Y-32542492D01*
G36*
X40104290Y-29402735D02*
G01*
X40110833Y-29358167D01*
X40101367Y-29307754D01*
X40079083Y-29294667D01*
X40053877Y-29313599D01*
X40047333Y-29358167D01*
X40056799Y-29408580D01*
X40079083Y-29421667D01*
X40104290Y-29402735D01*
X40104290Y-29402735D01*
G37*
X40104290Y-29402735D02*
X40110833Y-29358167D01*
X40101367Y-29307754D01*
X40079083Y-29294667D01*
X40053877Y-29313599D01*
X40047333Y-29358167D01*
X40056799Y-29408580D01*
X40079083Y-29421667D01*
X40104290Y-29402735D01*
G36*
X50849642Y-30448823D02*
G01*
X50967817Y-30380268D01*
X50991877Y-30359822D01*
X51034353Y-30317554D01*
X51067863Y-30272590D01*
X51093441Y-30219480D01*
X51112125Y-30152774D01*
X51124948Y-30067022D01*
X51132946Y-29956773D01*
X51137156Y-29816577D01*
X51138611Y-29640985D01*
X51138667Y-29587159D01*
X51138667Y-29104167D01*
X50927000Y-29104167D01*
X50926535Y-29575125D01*
X50926047Y-29731492D01*
X50924624Y-29851794D01*
X50921799Y-29942298D01*
X50917108Y-30009271D01*
X50910087Y-30058980D01*
X50900270Y-30097690D01*
X50887194Y-30131669D01*
X50884880Y-30136839D01*
X50826168Y-30220215D01*
X50742083Y-30270518D01*
X50635264Y-30286413D01*
X50594263Y-30283746D01*
X50503667Y-30273534D01*
X50503667Y-30363538D01*
X50506367Y-30420867D01*
X50520309Y-30449612D01*
X50554256Y-30463450D01*
X50569812Y-30466771D01*
X50716874Y-30477683D01*
X50849642Y-30448823D01*
X50849642Y-30448823D01*
G37*
X50849642Y-30448823D02*
X50967817Y-30380268D01*
X50991877Y-30359822D01*
X51034353Y-30317554D01*
X51067863Y-30272590D01*
X51093441Y-30219480D01*
X51112125Y-30152774D01*
X51124948Y-30067022D01*
X51132946Y-29956773D01*
X51137156Y-29816577D01*
X51138611Y-29640985D01*
X51138667Y-29587159D01*
X51138667Y-29104167D01*
X50927000Y-29104167D01*
X50926535Y-29575125D01*
X50926047Y-29731492D01*
X50924624Y-29851794D01*
X50921799Y-29942298D01*
X50917108Y-30009271D01*
X50910087Y-30058980D01*
X50900270Y-30097690D01*
X50887194Y-30131669D01*
X50884880Y-30136839D01*
X50826168Y-30220215D01*
X50742083Y-30270518D01*
X50635264Y-30286413D01*
X50594263Y-30283746D01*
X50503667Y-30273534D01*
X50503667Y-30363538D01*
X50506367Y-30420867D01*
X50520309Y-30449612D01*
X50554256Y-30463450D01*
X50569812Y-30466771D01*
X50716874Y-30477683D01*
X50849642Y-30448823D01*
G36*
X50313167Y-29104167D02*
G01*
X50101500Y-29104167D01*
X50101500Y-30797500D01*
X50153039Y-30797500D01*
X50213924Y-30805321D01*
X50258872Y-30818143D01*
X50313167Y-30838786D01*
X50313167Y-29104167D01*
X50313167Y-29104167D01*
G37*
X50313167Y-29104167D02*
X50101500Y-29104167D01*
X50101500Y-30797500D01*
X50153039Y-30797500D01*
X50213924Y-30805321D01*
X50258872Y-30818143D01*
X50313167Y-30838786D01*
X50313167Y-29104167D01*
G36*
X48565484Y-30467897D02*
G01*
X48626947Y-30460489D01*
X48658640Y-30442673D01*
X48666829Y-30410009D01*
X48657784Y-30358062D01*
X48652763Y-30338497D01*
X48629099Y-30270739D01*
X48604552Y-30244351D01*
X48596398Y-30244492D01*
X48471108Y-30271620D01*
X48374805Y-30275069D01*
X48299889Y-30252455D01*
X48238761Y-30201398D01*
X48183820Y-30119514D01*
X48180932Y-30114262D01*
X48168412Y-30085921D01*
X48158720Y-30048684D01*
X48151376Y-29996714D01*
X48145899Y-29924169D01*
X48141810Y-29825212D01*
X48138628Y-29694003D01*
X48136613Y-29575125D01*
X48129479Y-29104167D01*
X47921333Y-29104167D01*
X47921333Y-30437667D01*
X48027167Y-30437667D01*
X48089991Y-30435935D01*
X48121333Y-30427163D01*
X48132011Y-30405986D01*
X48133000Y-30385187D01*
X48133000Y-30332706D01*
X48229858Y-30400978D01*
X48289323Y-30439146D01*
X48341701Y-30459781D01*
X48405094Y-30468080D01*
X48467983Y-30469333D01*
X48565484Y-30467897D01*
X48565484Y-30467897D01*
G37*
X48565484Y-30467897D02*
X48626947Y-30460489D01*
X48658640Y-30442673D01*
X48666829Y-30410009D01*
X48657784Y-30358062D01*
X48652763Y-30338497D01*
X48629099Y-30270739D01*
X48604552Y-30244351D01*
X48596398Y-30244492D01*
X48471108Y-30271620D01*
X48374805Y-30275069D01*
X48299889Y-30252455D01*
X48238761Y-30201398D01*
X48183820Y-30119514D01*
X48180932Y-30114262D01*
X48168412Y-30085921D01*
X48158720Y-30048684D01*
X48151376Y-29996714D01*
X48145899Y-29924169D01*
X48141810Y-29825212D01*
X48138628Y-29694003D01*
X48136613Y-29575125D01*
X48129479Y-29104167D01*
X47921333Y-29104167D01*
X47921333Y-30437667D01*
X48027167Y-30437667D01*
X48089991Y-30435935D01*
X48121333Y-30427163D01*
X48132011Y-30405986D01*
X48133000Y-30385187D01*
X48133000Y-30332706D01*
X48229858Y-30400978D01*
X48289323Y-30439146D01*
X48341701Y-30459781D01*
X48405094Y-30468080D01*
X48467983Y-30469333D01*
X48565484Y-30467897D01*
G36*
X42406323Y-30467584D02*
G01*
X42468212Y-30459783D01*
X42500459Y-30442315D01*
X42509375Y-30411562D01*
X42501271Y-30363907D01*
X42500136Y-30359485D01*
X42484567Y-30301156D01*
X42472663Y-30259214D01*
X42471071Y-30254137D01*
X42454209Y-30241871D01*
X42411889Y-30246256D01*
X42362447Y-30259603D01*
X42248882Y-30277469D01*
X42153396Y-30257092D01*
X42075600Y-30198322D01*
X42029943Y-30131439D01*
X42014963Y-30100555D01*
X42003498Y-30067229D01*
X41994961Y-30025257D01*
X41988763Y-29968440D01*
X41984316Y-29890573D01*
X41981033Y-29785457D01*
X41978324Y-29646890D01*
X41977184Y-29575125D01*
X41969979Y-29104167D01*
X41761833Y-29104167D01*
X41761833Y-30437667D01*
X41867667Y-30437667D01*
X41930491Y-30435935D01*
X41961833Y-30427163D01*
X41972511Y-30405986D01*
X41973500Y-30385187D01*
X41973500Y-30332706D01*
X42070358Y-30400978D01*
X42129823Y-30439146D01*
X42182201Y-30459781D01*
X42245594Y-30468080D01*
X42308483Y-30469333D01*
X42406323Y-30467584D01*
X42406323Y-30467584D01*
G37*
X42406323Y-30467584D02*
X42468212Y-30459783D01*
X42500459Y-30442315D01*
X42509375Y-30411562D01*
X42501271Y-30363907D01*
X42500136Y-30359485D01*
X42484567Y-30301156D01*
X42472663Y-30259214D01*
X42471071Y-30254137D01*
X42454209Y-30241871D01*
X42411889Y-30246256D01*
X42362447Y-30259603D01*
X42248882Y-30277469D01*
X42153396Y-30257092D01*
X42075600Y-30198322D01*
X42029943Y-30131439D01*
X42014963Y-30100555D01*
X42003498Y-30067229D01*
X41994961Y-30025257D01*
X41988763Y-29968440D01*
X41984316Y-29890573D01*
X41981033Y-29785457D01*
X41978324Y-29646890D01*
X41977184Y-29575125D01*
X41969979Y-29104167D01*
X41761833Y-29104167D01*
X41761833Y-30437667D01*
X41867667Y-30437667D01*
X41930491Y-30435935D01*
X41961833Y-30427163D01*
X41972511Y-30405986D01*
X41973500Y-30385187D01*
X41973500Y-30332706D01*
X42070358Y-30400978D01*
X42129823Y-30439146D01*
X42182201Y-30459781D01*
X42245594Y-30468080D01*
X42308483Y-30469333D01*
X42406323Y-30467584D01*
G36*
X40102566Y-29236269D02*
G01*
X40110776Y-29184998D01*
X40110833Y-29178250D01*
X40103948Y-29123457D01*
X40081975Y-29104301D01*
X40079083Y-29104167D01*
X40055600Y-29120232D01*
X40047391Y-29171503D01*
X40047333Y-29178250D01*
X40054218Y-29233044D01*
X40076192Y-29252200D01*
X40079083Y-29252334D01*
X40102566Y-29236269D01*
X40102566Y-29236269D01*
G37*
X40102566Y-29236269D02*
X40110776Y-29184998D01*
X40110833Y-29178250D01*
X40103948Y-29123457D01*
X40081975Y-29104301D01*
X40079083Y-29104167D01*
X40055600Y-29120232D01*
X40047391Y-29171503D01*
X40047333Y-29178250D01*
X40054218Y-29233044D01*
X40076192Y-29252200D01*
X40079083Y-29252334D01*
X40102566Y-29236269D01*
G36*
X49597985Y-30434318D02*
G01*
X49652833Y-30410119D01*
X49728972Y-30367031D01*
X49767858Y-30328750D01*
X49772894Y-30288285D01*
X49747481Y-30238640D01*
X49740775Y-30229321D01*
X49705493Y-30186687D01*
X49679197Y-30163761D01*
X49675126Y-30162500D01*
X49649077Y-30173450D01*
X49602739Y-30200993D01*
X49581728Y-30214857D01*
X49466953Y-30271467D01*
X49354173Y-30287932D01*
X49248675Y-30266313D01*
X49155747Y-30208670D01*
X49080676Y-30117065D01*
X49030610Y-30000096D01*
X49010136Y-29892600D01*
X49003763Y-29770793D01*
X49010862Y-29649473D01*
X49030799Y-29543436D01*
X49052592Y-29485167D01*
X49127020Y-29375506D01*
X49217338Y-29301658D01*
X49318418Y-29264891D01*
X49425133Y-29266471D01*
X49532354Y-29307665D01*
X49594168Y-29351394D01*
X49660261Y-29407008D01*
X49727422Y-29338773D01*
X49794583Y-29270537D01*
X49715743Y-29201446D01*
X49649400Y-29153503D01*
X49577337Y-29115922D01*
X49554537Y-29107678D01*
X49468273Y-29091157D01*
X49365050Y-29084796D01*
X49261150Y-29088365D01*
X49172856Y-29101633D01*
X49135355Y-29113620D01*
X49037568Y-29173933D01*
X48944979Y-29262346D01*
X48870746Y-29365382D01*
X48849905Y-29405969D01*
X48827837Y-29459920D01*
X48813288Y-29512571D01*
X48804758Y-29574846D01*
X48800746Y-29657667D01*
X48799750Y-29770917D01*
X48800767Y-29884963D01*
X48804817Y-29967616D01*
X48813396Y-30029789D01*
X48828002Y-30082396D01*
X48849772Y-30135556D01*
X48929701Y-30264617D01*
X49036143Y-30364913D01*
X49162645Y-30434237D01*
X49302754Y-30470383D01*
X49450019Y-30471145D01*
X49597985Y-30434318D01*
X49597985Y-30434318D01*
G37*
X49597985Y-30434318D02*
X49652833Y-30410119D01*
X49728972Y-30367031D01*
X49767858Y-30328750D01*
X49772894Y-30288285D01*
X49747481Y-30238640D01*
X49740775Y-30229321D01*
X49705493Y-30186687D01*
X49679197Y-30163761D01*
X49675126Y-30162500D01*
X49649077Y-30173450D01*
X49602739Y-30200993D01*
X49581728Y-30214857D01*
X49466953Y-30271467D01*
X49354173Y-30287932D01*
X49248675Y-30266313D01*
X49155747Y-30208670D01*
X49080676Y-30117065D01*
X49030610Y-30000096D01*
X49010136Y-29892600D01*
X49003763Y-29770793D01*
X49010862Y-29649473D01*
X49030799Y-29543436D01*
X49052592Y-29485167D01*
X49127020Y-29375506D01*
X49217338Y-29301658D01*
X49318418Y-29264891D01*
X49425133Y-29266471D01*
X49532354Y-29307665D01*
X49594168Y-29351394D01*
X49660261Y-29407008D01*
X49727422Y-29338773D01*
X49794583Y-29270537D01*
X49715743Y-29201446D01*
X49649400Y-29153503D01*
X49577337Y-29115922D01*
X49554537Y-29107678D01*
X49468273Y-29091157D01*
X49365050Y-29084796D01*
X49261150Y-29088365D01*
X49172856Y-29101633D01*
X49135355Y-29113620D01*
X49037568Y-29173933D01*
X48944979Y-29262346D01*
X48870746Y-29365382D01*
X48849905Y-29405969D01*
X48827837Y-29459920D01*
X48813288Y-29512571D01*
X48804758Y-29574846D01*
X48800746Y-29657667D01*
X48799750Y-29770917D01*
X48800767Y-29884963D01*
X48804817Y-29967616D01*
X48813396Y-30029789D01*
X48828002Y-30082396D01*
X48849772Y-30135556D01*
X48929701Y-30264617D01*
X49036143Y-30364913D01*
X49162645Y-30434237D01*
X49302754Y-30470383D01*
X49450019Y-30471145D01*
X49597985Y-30434318D01*
G36*
X47162408Y-30467377D02*
G01*
X47231849Y-30460585D01*
X47285784Y-30446315D01*
X47337589Y-30422073D01*
X47348061Y-30416266D01*
X47398534Y-30385832D01*
X47438702Y-30354314D01*
X47469810Y-30316646D01*
X47493097Y-30267758D01*
X47509807Y-30202584D01*
X47521181Y-30116056D01*
X47528461Y-30003105D01*
X47532889Y-29858665D01*
X47535708Y-29677667D01*
X47536044Y-29649209D01*
X47542338Y-29104167D01*
X47435502Y-29104167D01*
X47372469Y-29105543D01*
X47340898Y-29113916D01*
X47329922Y-29135656D01*
X47328667Y-29166793D01*
X47328667Y-29229419D01*
X47219442Y-29161501D01*
X47157372Y-29126029D01*
X47102018Y-29104801D01*
X47037466Y-29093655D01*
X46947803Y-29088428D01*
X46938983Y-29088138D01*
X46842022Y-29087494D01*
X46773453Y-29094255D01*
X46719680Y-29110423D01*
X46690078Y-29124812D01*
X46597393Y-29195859D01*
X46533785Y-29294454D01*
X46503146Y-29390007D01*
X46489192Y-29531901D01*
X46512813Y-29659098D01*
X46572714Y-29767960D01*
X46667599Y-29854849D01*
X46669022Y-29855795D01*
X46742281Y-29891583D01*
X46837259Y-29921115D01*
X46938169Y-29941083D01*
X47029227Y-29948176D01*
X47083247Y-29942644D01*
X47119249Y-29927662D01*
X47134920Y-29897814D01*
X47138167Y-29844597D01*
X47138167Y-29760334D01*
X47005875Y-29760255D01*
X46884910Y-29748860D01*
X46796813Y-29713608D01*
X46738289Y-29652651D01*
X46713971Y-29596468D01*
X46701012Y-29495767D01*
X46719903Y-29401592D01*
X46767225Y-29325204D01*
X46805867Y-29293781D01*
X46898010Y-29260747D01*
X47004948Y-29259014D01*
X47115617Y-29286368D01*
X47218953Y-29340592D01*
X47275618Y-29387861D01*
X47295974Y-29409739D01*
X47310318Y-29432866D01*
X47319703Y-29464619D01*
X47325178Y-29512372D01*
X47327797Y-29583503D01*
X47328609Y-29685386D01*
X47328667Y-29760052D01*
X47326844Y-29911961D01*
X47320370Y-30027673D01*
X47307738Y-30113209D01*
X47287441Y-30174586D01*
X47257970Y-30217825D01*
X47217820Y-30248945D01*
X47204385Y-30256345D01*
X47116226Y-30282713D01*
X47006227Y-30287011D01*
X46888467Y-30269569D01*
X46815602Y-30247178D01*
X46751609Y-30223921D01*
X46703926Y-30208544D01*
X46687295Y-30204845D01*
X46668475Y-30222591D01*
X46645872Y-30264891D01*
X46626277Y-30315306D01*
X46616483Y-30357398D01*
X46618238Y-30371990D01*
X46653493Y-30397644D01*
X46721224Y-30422250D01*
X46811587Y-30443663D01*
X46914737Y-30459737D01*
X47020832Y-30468325D01*
X47064083Y-30469183D01*
X47162408Y-30467377D01*
X47162408Y-30467377D01*
G37*
X47162408Y-30467377D02*
X47231849Y-30460585D01*
X47285784Y-30446315D01*
X47337589Y-30422073D01*
X47348061Y-30416266D01*
X47398534Y-30385832D01*
X47438702Y-30354314D01*
X47469810Y-30316646D01*
X47493097Y-30267758D01*
X47509807Y-30202584D01*
X47521181Y-30116056D01*
X47528461Y-30003105D01*
X47532889Y-29858665D01*
X47535708Y-29677667D01*
X47536044Y-29649209D01*
X47542338Y-29104167D01*
X47435502Y-29104167D01*
X47372469Y-29105543D01*
X47340898Y-29113916D01*
X47329922Y-29135656D01*
X47328667Y-29166793D01*
X47328667Y-29229419D01*
X47219442Y-29161501D01*
X47157372Y-29126029D01*
X47102018Y-29104801D01*
X47037466Y-29093655D01*
X46947803Y-29088428D01*
X46938983Y-29088138D01*
X46842022Y-29087494D01*
X46773453Y-29094255D01*
X46719680Y-29110423D01*
X46690078Y-29124812D01*
X46597393Y-29195859D01*
X46533785Y-29294454D01*
X46503146Y-29390007D01*
X46489192Y-29531901D01*
X46512813Y-29659098D01*
X46572714Y-29767960D01*
X46667599Y-29854849D01*
X46669022Y-29855795D01*
X46742281Y-29891583D01*
X46837259Y-29921115D01*
X46938169Y-29941083D01*
X47029227Y-29948176D01*
X47083247Y-29942644D01*
X47119249Y-29927662D01*
X47134920Y-29897814D01*
X47138167Y-29844597D01*
X47138167Y-29760334D01*
X47005875Y-29760255D01*
X46884910Y-29748860D01*
X46796813Y-29713608D01*
X46738289Y-29652651D01*
X46713971Y-29596468D01*
X46701012Y-29495767D01*
X46719903Y-29401592D01*
X46767225Y-29325204D01*
X46805867Y-29293781D01*
X46898010Y-29260747D01*
X47004948Y-29259014D01*
X47115617Y-29286368D01*
X47218953Y-29340592D01*
X47275618Y-29387861D01*
X47295974Y-29409739D01*
X47310318Y-29432866D01*
X47319703Y-29464619D01*
X47325178Y-29512372D01*
X47327797Y-29583503D01*
X47328609Y-29685386D01*
X47328667Y-29760052D01*
X47326844Y-29911961D01*
X47320370Y-30027673D01*
X47307738Y-30113209D01*
X47287441Y-30174586D01*
X47257970Y-30217825D01*
X47217820Y-30248945D01*
X47204385Y-30256345D01*
X47116226Y-30282713D01*
X47006227Y-30287011D01*
X46888467Y-30269569D01*
X46815602Y-30247178D01*
X46751609Y-30223921D01*
X46703926Y-30208544D01*
X46687295Y-30204845D01*
X46668475Y-30222591D01*
X46645872Y-30264891D01*
X46626277Y-30315306D01*
X46616483Y-30357398D01*
X46618238Y-30371990D01*
X46653493Y-30397644D01*
X46721224Y-30422250D01*
X46811587Y-30443663D01*
X46914737Y-30459737D01*
X47020832Y-30468325D01*
X47064083Y-30469183D01*
X47162408Y-30467377D01*
G36*
X45802684Y-30469343D02*
G01*
X45928390Y-30431489D01*
X46041734Y-30362139D01*
X46136016Y-30262220D01*
X46191265Y-30165358D01*
X46221585Y-30066022D01*
X46240763Y-29933285D01*
X46244423Y-29883008D01*
X46255038Y-29696834D01*
X45550667Y-29696834D01*
X45550667Y-29866167D01*
X46060585Y-29866167D01*
X46046586Y-29945542D01*
X46015351Y-30047986D01*
X45962997Y-30145436D01*
X45898959Y-30221269D01*
X45882489Y-30234709D01*
X45806450Y-30268726D01*
X45712072Y-30280568D01*
X45617101Y-30270195D01*
X45539284Y-30237567D01*
X45536344Y-30235484D01*
X45464970Y-30159587D01*
X45410836Y-30053065D01*
X45376173Y-29924876D01*
X45363210Y-29783978D01*
X45374178Y-29639329D01*
X45380054Y-29607743D01*
X45427186Y-29466259D01*
X45503381Y-29355132D01*
X45557213Y-29307419D01*
X45637432Y-29272152D01*
X45739702Y-29263322D01*
X45853390Y-29280463D01*
X45967859Y-29323108D01*
X45972940Y-29325660D01*
X46088297Y-29384336D01*
X46136869Y-29323626D01*
X46167196Y-29278426D01*
X46179323Y-29245302D01*
X46178882Y-29241750D01*
X46158063Y-29221155D01*
X46110541Y-29188923D01*
X46057286Y-29157993D01*
X45992940Y-29126157D01*
X45933244Y-29106369D01*
X45863242Y-29095240D01*
X45767983Y-29089384D01*
X45751750Y-29088792D01*
X45626723Y-29088656D01*
X45538509Y-29098567D01*
X45496105Y-29111786D01*
X45380574Y-29186795D01*
X45282863Y-29296517D01*
X45221237Y-29405222D01*
X45193135Y-29471324D01*
X45175256Y-29529409D01*
X45165307Y-29592784D01*
X45160996Y-29674759D01*
X45160073Y-29760334D01*
X45165941Y-29920705D01*
X45186294Y-30049725D01*
X45223779Y-30156687D01*
X45281046Y-30250887D01*
X45310236Y-30287252D01*
X45418392Y-30384654D01*
X45540985Y-30446852D01*
X45671316Y-30474773D01*
X45802684Y-30469343D01*
X45802684Y-30469343D01*
G37*
X45802684Y-30469343D02*
X45928390Y-30431489D01*
X46041734Y-30362139D01*
X46136016Y-30262220D01*
X46191265Y-30165358D01*
X46221585Y-30066022D01*
X46240763Y-29933285D01*
X46244423Y-29883008D01*
X46255038Y-29696834D01*
X45550667Y-29696834D01*
X45550667Y-29866167D01*
X46060585Y-29866167D01*
X46046586Y-29945542D01*
X46015351Y-30047986D01*
X45962997Y-30145436D01*
X45898959Y-30221269D01*
X45882489Y-30234709D01*
X45806450Y-30268726D01*
X45712072Y-30280568D01*
X45617101Y-30270195D01*
X45539284Y-30237567D01*
X45536344Y-30235484D01*
X45464970Y-30159587D01*
X45410836Y-30053065D01*
X45376173Y-29924876D01*
X45363210Y-29783978D01*
X45374178Y-29639329D01*
X45380054Y-29607743D01*
X45427186Y-29466259D01*
X45503381Y-29355132D01*
X45557213Y-29307419D01*
X45637432Y-29272152D01*
X45739702Y-29263322D01*
X45853390Y-29280463D01*
X45967859Y-29323108D01*
X45972940Y-29325660D01*
X46088297Y-29384336D01*
X46136869Y-29323626D01*
X46167196Y-29278426D01*
X46179323Y-29245302D01*
X46178882Y-29241750D01*
X46158063Y-29221155D01*
X46110541Y-29188923D01*
X46057286Y-29157993D01*
X45992940Y-29126157D01*
X45933244Y-29106369D01*
X45863242Y-29095240D01*
X45767983Y-29089384D01*
X45751750Y-29088792D01*
X45626723Y-29088656D01*
X45538509Y-29098567D01*
X45496105Y-29111786D01*
X45380574Y-29186795D01*
X45282863Y-29296517D01*
X45221237Y-29405222D01*
X45193135Y-29471324D01*
X45175256Y-29529409D01*
X45165307Y-29592784D01*
X45160996Y-29674759D01*
X45160073Y-29760334D01*
X45165941Y-29920705D01*
X45186294Y-30049725D01*
X45223779Y-30156687D01*
X45281046Y-30250887D01*
X45310236Y-30287252D01*
X45418392Y-30384654D01*
X45540985Y-30446852D01*
X45671316Y-30474773D01*
X45802684Y-30469343D01*
G36*
X44558150Y-30466312D02*
G01*
X44631498Y-30455697D01*
X44698744Y-30433606D01*
X44751724Y-30409385D01*
X44814443Y-30375040D01*
X44858083Y-30344141D01*
X44872572Y-30324985D01*
X44859580Y-30293294D01*
X44828593Y-30247455D01*
X44821793Y-30238917D01*
X44771775Y-30177750D01*
X44659648Y-30233625D01*
X44553320Y-30273247D01*
X44450103Y-30287973D01*
X44357857Y-30278963D01*
X44284440Y-30247377D01*
X44237711Y-30194373D01*
X44228888Y-30170084D01*
X44226111Y-30120654D01*
X44246418Y-30073564D01*
X44293738Y-30025113D01*
X44372002Y-29971600D01*
X44485138Y-29909324D01*
X44529703Y-29886764D01*
X44646258Y-29827472D01*
X44730909Y-29780380D01*
X44790279Y-29740138D01*
X44830989Y-29701399D01*
X44859663Y-29658815D01*
X44882923Y-29607036D01*
X44886032Y-29598989D01*
X44911305Y-29478978D01*
X44898555Y-29362006D01*
X44851047Y-29256243D01*
X44772051Y-29169856D01*
X44695874Y-29123495D01*
X44621120Y-29101756D01*
X44520848Y-29088433D01*
X44411160Y-29084218D01*
X44308161Y-29089803D01*
X44234882Y-29103664D01*
X44186204Y-29122504D01*
X44124090Y-29151877D01*
X44059831Y-29185673D01*
X44004717Y-29217783D01*
X43970037Y-29242095D01*
X43963736Y-29250406D01*
X43976431Y-29272927D01*
X44007693Y-29314800D01*
X44023341Y-29334088D01*
X44082376Y-29405259D01*
X44197396Y-29340898D01*
X44318095Y-29284223D01*
X44424082Y-29259956D01*
X44525387Y-29266158D01*
X44551688Y-29272384D01*
X44633971Y-29310920D01*
X44685934Y-29369056D01*
X44704767Y-29438550D01*
X44687662Y-29511157D01*
X44650330Y-29561928D01*
X44607233Y-29594619D01*
X44537256Y-29636754D01*
X44452507Y-29681286D01*
X44412205Y-29700494D01*
X44274216Y-29768295D01*
X44172188Y-29830212D01*
X44101271Y-29891608D01*
X44056612Y-29957842D01*
X44033361Y-30034278D01*
X44026667Y-30126276D01*
X44026667Y-30126569D01*
X44043517Y-30247039D01*
X44093853Y-30341777D01*
X44177345Y-30410525D01*
X44293668Y-30453025D01*
X44442495Y-30469019D01*
X44460683Y-30469150D01*
X44558150Y-30466312D01*
X44558150Y-30466312D01*
G37*
X44558150Y-30466312D02*
X44631498Y-30455697D01*
X44698744Y-30433606D01*
X44751724Y-30409385D01*
X44814443Y-30375040D01*
X44858083Y-30344141D01*
X44872572Y-30324985D01*
X44859580Y-30293294D01*
X44828593Y-30247455D01*
X44821793Y-30238917D01*
X44771775Y-30177750D01*
X44659648Y-30233625D01*
X44553320Y-30273247D01*
X44450103Y-30287973D01*
X44357857Y-30278963D01*
X44284440Y-30247377D01*
X44237711Y-30194373D01*
X44228888Y-30170084D01*
X44226111Y-30120654D01*
X44246418Y-30073564D01*
X44293738Y-30025113D01*
X44372002Y-29971600D01*
X44485138Y-29909324D01*
X44529703Y-29886764D01*
X44646258Y-29827472D01*
X44730909Y-29780380D01*
X44790279Y-29740138D01*
X44830989Y-29701399D01*
X44859663Y-29658815D01*
X44882923Y-29607036D01*
X44886032Y-29598989D01*
X44911305Y-29478978D01*
X44898555Y-29362006D01*
X44851047Y-29256243D01*
X44772051Y-29169856D01*
X44695874Y-29123495D01*
X44621120Y-29101756D01*
X44520848Y-29088433D01*
X44411160Y-29084218D01*
X44308161Y-29089803D01*
X44234882Y-29103664D01*
X44186204Y-29122504D01*
X44124090Y-29151877D01*
X44059831Y-29185673D01*
X44004717Y-29217783D01*
X43970037Y-29242095D01*
X43963736Y-29250406D01*
X43976431Y-29272927D01*
X44007693Y-29314800D01*
X44023341Y-29334088D01*
X44082376Y-29405259D01*
X44197396Y-29340898D01*
X44318095Y-29284223D01*
X44424082Y-29259956D01*
X44525387Y-29266158D01*
X44551688Y-29272384D01*
X44633971Y-29310920D01*
X44685934Y-29369056D01*
X44704767Y-29438550D01*
X44687662Y-29511157D01*
X44650330Y-29561928D01*
X44607233Y-29594619D01*
X44537256Y-29636754D01*
X44452507Y-29681286D01*
X44412205Y-29700494D01*
X44274216Y-29768295D01*
X44172188Y-29830212D01*
X44101271Y-29891608D01*
X44056612Y-29957842D01*
X44033361Y-30034278D01*
X44026667Y-30126276D01*
X44026667Y-30126569D01*
X44043517Y-30247039D01*
X44093853Y-30341777D01*
X44177345Y-30410525D01*
X44293668Y-30453025D01*
X44442495Y-30469019D01*
X44460683Y-30469150D01*
X44558150Y-30466312D01*
G36*
X43369477Y-30455366D02*
G01*
X43488271Y-30413339D01*
X43584576Y-30339317D01*
X43664251Y-30229769D01*
X43685565Y-30189892D01*
X43715474Y-30110994D01*
X43740094Y-30011122D01*
X43756740Y-29906262D01*
X43762723Y-29812398D01*
X43758283Y-29757210D01*
X43746208Y-29696834D01*
X43074167Y-29696834D01*
X43074167Y-29866167D01*
X43566410Y-29866167D01*
X43552028Y-29956125D01*
X43516297Y-30076457D01*
X43455146Y-30172959D01*
X43374729Y-30242372D01*
X43281204Y-30281434D01*
X43180725Y-30286886D01*
X43079447Y-30255468D01*
X43036376Y-30229235D01*
X42969148Y-30157948D01*
X42917212Y-30055899D01*
X42883170Y-29932713D01*
X42869626Y-29798012D01*
X42879180Y-29661423D01*
X42880595Y-29653094D01*
X42921830Y-29503675D01*
X42985520Y-29388982D01*
X43069576Y-29310144D01*
X43171911Y-29268286D01*
X43290438Y-29264538D01*
X43423067Y-29300025D01*
X43483578Y-29327459D01*
X43543175Y-29356357D01*
X43586811Y-29375189D01*
X43600723Y-29379334D01*
X43620285Y-29362760D01*
X43647764Y-29323675D01*
X43673401Y-29278034D01*
X43687438Y-29241795D01*
X43688000Y-29236628D01*
X43670513Y-29217678D01*
X43624852Y-29187625D01*
X43566292Y-29155775D01*
X43496516Y-29124161D01*
X43431352Y-29104697D01*
X43355078Y-29094009D01*
X43254083Y-29088789D01*
X43157876Y-29087210D01*
X43090328Y-29091064D01*
X43037885Y-29102566D01*
X42986995Y-29123933D01*
X42962787Y-29136401D01*
X42848091Y-29220555D01*
X42761535Y-29336217D01*
X42703212Y-29483185D01*
X42673216Y-29661256D01*
X42668833Y-29769198D01*
X42682482Y-29963092D01*
X42724907Y-30126524D01*
X42796570Y-30260505D01*
X42897934Y-30366044D01*
X42962149Y-30409794D01*
X43023624Y-30442143D01*
X43080560Y-30460201D01*
X43149807Y-30467797D01*
X43222333Y-30468927D01*
X43369477Y-30455366D01*
X43369477Y-30455366D01*
G37*
X43369477Y-30455366D02*
X43488271Y-30413339D01*
X43584576Y-30339317D01*
X43664251Y-30229769D01*
X43685565Y-30189892D01*
X43715474Y-30110994D01*
X43740094Y-30011122D01*
X43756740Y-29906262D01*
X43762723Y-29812398D01*
X43758283Y-29757210D01*
X43746208Y-29696834D01*
X43074167Y-29696834D01*
X43074167Y-29866167D01*
X43566410Y-29866167D01*
X43552028Y-29956125D01*
X43516297Y-30076457D01*
X43455146Y-30172959D01*
X43374729Y-30242372D01*
X43281204Y-30281434D01*
X43180725Y-30286886D01*
X43079447Y-30255468D01*
X43036376Y-30229235D01*
X42969148Y-30157948D01*
X42917212Y-30055899D01*
X42883170Y-29932713D01*
X42869626Y-29798012D01*
X42879180Y-29661423D01*
X42880595Y-29653094D01*
X42921830Y-29503675D01*
X42985520Y-29388982D01*
X43069576Y-29310144D01*
X43171911Y-29268286D01*
X43290438Y-29264538D01*
X43423067Y-29300025D01*
X43483578Y-29327459D01*
X43543175Y-29356357D01*
X43586811Y-29375189D01*
X43600723Y-29379334D01*
X43620285Y-29362760D01*
X43647764Y-29323675D01*
X43673401Y-29278034D01*
X43687438Y-29241795D01*
X43688000Y-29236628D01*
X43670513Y-29217678D01*
X43624852Y-29187625D01*
X43566292Y-29155775D01*
X43496516Y-29124161D01*
X43431352Y-29104697D01*
X43355078Y-29094009D01*
X43254083Y-29088789D01*
X43157876Y-29087210D01*
X43090328Y-29091064D01*
X43037885Y-29102566D01*
X42986995Y-29123933D01*
X42962787Y-29136401D01*
X42848091Y-29220555D01*
X42761535Y-29336217D01*
X42703212Y-29483185D01*
X42673216Y-29661256D01*
X42668833Y-29769198D01*
X42682482Y-29963092D01*
X42724907Y-30126524D01*
X42796570Y-30260505D01*
X42897934Y-30366044D01*
X42962149Y-30409794D01*
X43023624Y-30442143D01*
X43080560Y-30460201D01*
X43149807Y-30467797D01*
X43222333Y-30468927D01*
X43369477Y-30455366D01*
G36*
X36208329Y-29821326D02*
G01*
X36305404Y-29812019D01*
X36373562Y-29793237D01*
X36419411Y-29762302D01*
X36449556Y-29716538D01*
X36467443Y-29665163D01*
X36476985Y-29585302D01*
X36466070Y-29505998D01*
X36438767Y-29438110D01*
X36399148Y-29392497D01*
X36360288Y-29379334D01*
X36345790Y-29371879D01*
X36348662Y-29345830D01*
X36370763Y-29295661D01*
X36413951Y-29215846D01*
X36417250Y-29210000D01*
X36453912Y-29142615D01*
X36480402Y-29089111D01*
X36491294Y-29060492D01*
X36491333Y-29059800D01*
X36472352Y-29048707D01*
X36424064Y-29041968D01*
X36390792Y-29040993D01*
X36290250Y-29041319D01*
X36215092Y-29183868D01*
X36174146Y-29257866D01*
X36142822Y-29301737D01*
X36113111Y-29323843D01*
X36077008Y-29332544D01*
X36072217Y-29333050D01*
X36004500Y-29339683D01*
X36004500Y-29040667D01*
X35814000Y-29040667D01*
X35814000Y-29675667D01*
X36004500Y-29675667D01*
X36004500Y-29506334D01*
X36115625Y-29506658D01*
X36183186Y-29509639D01*
X36234127Y-29516905D01*
X36250034Y-29522533D01*
X36282339Y-29566624D01*
X36282313Y-29623337D01*
X36276062Y-29638625D01*
X36254747Y-29660580D01*
X36212861Y-29672051D01*
X36140187Y-29675641D01*
X36130755Y-29675667D01*
X36004500Y-29675667D01*
X35814000Y-29675667D01*
X35814000Y-29823834D01*
X36075729Y-29823834D01*
X36208329Y-29821326D01*
X36208329Y-29821326D01*
G37*
X36208329Y-29821326D02*
X36305404Y-29812019D01*
X36373562Y-29793237D01*
X36419411Y-29762302D01*
X36449556Y-29716538D01*
X36467443Y-29665163D01*
X36476985Y-29585302D01*
X36466070Y-29505998D01*
X36438767Y-29438110D01*
X36399148Y-29392497D01*
X36360288Y-29379334D01*
X36345790Y-29371879D01*
X36348662Y-29345830D01*
X36370763Y-29295661D01*
X36413951Y-29215846D01*
X36417250Y-29210000D01*
X36453912Y-29142615D01*
X36480402Y-29089111D01*
X36491294Y-29060492D01*
X36491333Y-29059800D01*
X36472352Y-29048707D01*
X36424064Y-29041968D01*
X36390792Y-29040993D01*
X36290250Y-29041319D01*
X36215092Y-29183868D01*
X36174146Y-29257866D01*
X36142822Y-29301737D01*
X36113111Y-29323843D01*
X36077008Y-29332544D01*
X36072217Y-29333050D01*
X36004500Y-29339683D01*
X36004500Y-29040667D01*
X35814000Y-29040667D01*
X35814000Y-29675667D01*
X36004500Y-29675667D01*
X36004500Y-29506334D01*
X36115625Y-29506658D01*
X36183186Y-29509639D01*
X36234127Y-29516905D01*
X36250034Y-29522533D01*
X36282339Y-29566624D01*
X36282313Y-29623337D01*
X36276062Y-29638625D01*
X36254747Y-29660580D01*
X36212861Y-29672051D01*
X36140187Y-29675641D01*
X36130755Y-29675667D01*
X36004500Y-29675667D01*
X35814000Y-29675667D01*
X35814000Y-29823834D01*
X36075729Y-29823834D01*
X36208329Y-29821326D01*
G36*
X33231667Y-29040667D02*
G01*
X33062333Y-29040667D01*
X33062333Y-29823834D01*
X33231667Y-29823834D01*
X33231667Y-29040667D01*
X33231667Y-29040667D01*
G37*
X33231667Y-29040667D02*
X33062333Y-29040667D01*
X33062333Y-29823834D01*
X33231667Y-29823834D01*
X33231667Y-29040667D01*
G36*
X31616081Y-29585753D02*
G01*
X31679109Y-29347673D01*
X31740911Y-29585753D01*
X31802713Y-29823834D01*
X32067500Y-29823834D01*
X32067500Y-29040667D01*
X31898167Y-29040667D01*
X31896153Y-29289375D01*
X31894140Y-29538084D01*
X31765704Y-29038500D01*
X31593368Y-29051250D01*
X31525516Y-29315834D01*
X31457663Y-29580417D01*
X31453667Y-29040667D01*
X31305500Y-29040667D01*
X31305500Y-29823834D01*
X31553053Y-29823834D01*
X31616081Y-29585753D01*
X31616081Y-29585753D01*
G37*
X31616081Y-29585753D02*
X31679109Y-29347673D01*
X31740911Y-29585753D01*
X31802713Y-29823834D01*
X32067500Y-29823834D01*
X32067500Y-29040667D01*
X31898167Y-29040667D01*
X31896153Y-29289375D01*
X31894140Y-29538084D01*
X31765704Y-29038500D01*
X31593368Y-29051250D01*
X31525516Y-29315834D01*
X31457663Y-29580417D01*
X31453667Y-29040667D01*
X31305500Y-29040667D01*
X31305500Y-29823834D01*
X31553053Y-29823834D01*
X31616081Y-29585753D01*
G36*
X37789575Y-29837304D02*
G01*
X37880626Y-29813653D01*
X37923390Y-29790122D01*
X37992057Y-29731038D01*
X38036231Y-29669313D01*
X38061352Y-29592940D01*
X38072863Y-29489913D01*
X38074302Y-29457172D01*
X38075720Y-29364454D01*
X38070653Y-29300009D01*
X38056816Y-29249987D01*
X38031957Y-29200597D01*
X37986930Y-29139404D01*
X37934305Y-29089678D01*
X37920071Y-29080195D01*
X37837481Y-29048654D01*
X37734616Y-29031907D01*
X37631599Y-29032085D01*
X37570833Y-29043223D01*
X37469529Y-29094001D01*
X37391910Y-29176184D01*
X37341134Y-29284153D01*
X37320357Y-29412290D01*
X37320612Y-29421090D01*
X37507333Y-29421090D01*
X37511561Y-29348909D01*
X37528874Y-29299491D01*
X37566215Y-29253715D01*
X37569205Y-29250706D01*
X37643905Y-29201590D01*
X37726915Y-29188667D01*
X37806910Y-29213265D01*
X37819516Y-29221359D01*
X37854561Y-29262276D01*
X37884003Y-29323585D01*
X37889449Y-29341146D01*
X37902760Y-29445735D01*
X37887518Y-29538882D01*
X37848440Y-29614536D01*
X37790242Y-29666644D01*
X37717643Y-29689155D01*
X37635359Y-29676016D01*
X37630081Y-29673906D01*
X37563192Y-29624135D01*
X37522086Y-29541577D01*
X37507366Y-29427478D01*
X37507333Y-29421090D01*
X37320612Y-29421090D01*
X37322471Y-29485184D01*
X37347185Y-29613314D01*
X37397155Y-29711084D01*
X37475638Y-29784301D01*
X37497929Y-29798200D01*
X37582734Y-29829872D01*
X37685114Y-29842808D01*
X37789575Y-29837304D01*
X37789575Y-29837304D01*
G37*
X37789575Y-29837304D02*
X37880626Y-29813653D01*
X37923390Y-29790122D01*
X37992057Y-29731038D01*
X38036231Y-29669313D01*
X38061352Y-29592940D01*
X38072863Y-29489913D01*
X38074302Y-29457172D01*
X38075720Y-29364454D01*
X38070653Y-29300009D01*
X38056816Y-29249987D01*
X38031957Y-29200597D01*
X37986930Y-29139404D01*
X37934305Y-29089678D01*
X37920071Y-29080195D01*
X37837481Y-29048654D01*
X37734616Y-29031907D01*
X37631599Y-29032085D01*
X37570833Y-29043223D01*
X37469529Y-29094001D01*
X37391910Y-29176184D01*
X37341134Y-29284153D01*
X37320357Y-29412290D01*
X37320612Y-29421090D01*
X37507333Y-29421090D01*
X37511561Y-29348909D01*
X37528874Y-29299491D01*
X37566215Y-29253715D01*
X37569205Y-29250706D01*
X37643905Y-29201590D01*
X37726915Y-29188667D01*
X37806910Y-29213265D01*
X37819516Y-29221359D01*
X37854561Y-29262276D01*
X37884003Y-29323585D01*
X37889449Y-29341146D01*
X37902760Y-29445735D01*
X37887518Y-29538882D01*
X37848440Y-29614536D01*
X37790242Y-29666644D01*
X37717643Y-29689155D01*
X37635359Y-29676016D01*
X37630081Y-29673906D01*
X37563192Y-29624135D01*
X37522086Y-29541577D01*
X37507366Y-29427478D01*
X37507333Y-29421090D01*
X37320612Y-29421090D01*
X37322471Y-29485184D01*
X37347185Y-29613314D01*
X37397155Y-29711084D01*
X37475638Y-29784301D01*
X37497929Y-29798200D01*
X37582734Y-29829872D01*
X37685114Y-29842808D01*
X37789575Y-29837304D01*
G36*
X34685368Y-29830167D02*
G01*
X34786463Y-29787203D01*
X34857930Y-29718415D01*
X34863920Y-29709111D01*
X34898859Y-29640845D01*
X34902049Y-29597878D01*
X34871812Y-29575715D01*
X34811981Y-29569834D01*
X34750222Y-29574083D01*
X34715787Y-29591067D01*
X34697257Y-29620031D01*
X34655860Y-29667280D01*
X34595788Y-29686384D01*
X34528830Y-29678591D01*
X34466776Y-29645152D01*
X34423223Y-29591000D01*
X34402557Y-29518352D01*
X34397362Y-29426470D01*
X34407338Y-29335406D01*
X34427968Y-29272756D01*
X34476928Y-29217611D01*
X34542706Y-29192759D01*
X34612849Y-29197911D01*
X34674906Y-29232779D01*
X34709147Y-29279285D01*
X34734536Y-29317545D01*
X34771844Y-29333978D01*
X34822967Y-29337000D01*
X34877400Y-29335248D01*
X34899744Y-29323894D01*
X34900240Y-29293792D01*
X34896069Y-29271719D01*
X34855319Y-29170520D01*
X34781342Y-29091554D01*
X34713178Y-29053658D01*
X34598070Y-29023242D01*
X34490304Y-29030741D01*
X34395511Y-29067125D01*
X34313583Y-29122096D01*
X34258221Y-29194253D01*
X34225217Y-29291380D01*
X34211056Y-29408159D01*
X34208526Y-29497129D01*
X34215257Y-29561460D01*
X34234070Y-29618352D01*
X34251429Y-29654330D01*
X34320853Y-29753915D01*
X34408586Y-29816102D01*
X34518516Y-29843296D01*
X34559806Y-29845000D01*
X34685368Y-29830167D01*
X34685368Y-29830167D01*
G37*
X34685368Y-29830167D02*
X34786463Y-29787203D01*
X34857930Y-29718415D01*
X34863920Y-29709111D01*
X34898859Y-29640845D01*
X34902049Y-29597878D01*
X34871812Y-29575715D01*
X34811981Y-29569834D01*
X34750222Y-29574083D01*
X34715787Y-29591067D01*
X34697257Y-29620031D01*
X34655860Y-29667280D01*
X34595788Y-29686384D01*
X34528830Y-29678591D01*
X34466776Y-29645152D01*
X34423223Y-29591000D01*
X34402557Y-29518352D01*
X34397362Y-29426470D01*
X34407338Y-29335406D01*
X34427968Y-29272756D01*
X34476928Y-29217611D01*
X34542706Y-29192759D01*
X34612849Y-29197911D01*
X34674906Y-29232779D01*
X34709147Y-29279285D01*
X34734536Y-29317545D01*
X34771844Y-29333978D01*
X34822967Y-29337000D01*
X34877400Y-29335248D01*
X34899744Y-29323894D01*
X34900240Y-29293792D01*
X34896069Y-29271719D01*
X34855319Y-29170520D01*
X34781342Y-29091554D01*
X34713178Y-29053658D01*
X34598070Y-29023242D01*
X34490304Y-29030741D01*
X34395511Y-29067125D01*
X34313583Y-29122096D01*
X34258221Y-29194253D01*
X34225217Y-29291380D01*
X34211056Y-29408159D01*
X34208526Y-29497129D01*
X34215257Y-29561460D01*
X34234070Y-29618352D01*
X34251429Y-29654330D01*
X34320853Y-29753915D01*
X34408586Y-29816102D01*
X34518516Y-29843296D01*
X34559806Y-29845000D01*
X34685368Y-29830167D01*
G36*
X40102566Y-29045769D02*
G01*
X40110776Y-28994498D01*
X40110833Y-28987750D01*
X40103948Y-28932957D01*
X40081975Y-28913801D01*
X40079083Y-28913667D01*
X40055600Y-28929732D01*
X40047391Y-28981003D01*
X40047333Y-28987750D01*
X40054218Y-29042544D01*
X40076192Y-29061700D01*
X40079083Y-29061834D01*
X40102566Y-29045769D01*
X40102566Y-29045769D01*
G37*
X40102566Y-29045769D02*
X40110776Y-28994498D01*
X40110833Y-28987750D01*
X40103948Y-28932957D01*
X40081975Y-28913801D01*
X40079083Y-28913667D01*
X40055600Y-28929732D01*
X40047391Y-28981003D01*
X40047333Y-28987750D01*
X40054218Y-29042544D01*
X40076192Y-29061700D01*
X40079083Y-29061834D01*
X40102566Y-29045769D01*
G36*
X40102566Y-28855269D02*
G01*
X40110776Y-28803998D01*
X40110833Y-28797250D01*
X40103948Y-28742457D01*
X40081975Y-28723301D01*
X40079083Y-28723167D01*
X40055600Y-28739232D01*
X40047391Y-28790503D01*
X40047333Y-28797250D01*
X40054218Y-28852044D01*
X40076192Y-28871200D01*
X40079083Y-28871334D01*
X40102566Y-28855269D01*
X40102566Y-28855269D01*
G37*
X40102566Y-28855269D02*
X40110776Y-28803998D01*
X40110833Y-28797250D01*
X40103948Y-28742457D01*
X40081975Y-28723301D01*
X40079083Y-28723167D01*
X40055600Y-28739232D01*
X40047391Y-28790503D01*
X40047333Y-28797250D01*
X40054218Y-28852044D01*
X40076192Y-28871200D01*
X40079083Y-28871334D01*
X40102566Y-28855269D01*
G36*
X40102566Y-28664769D02*
G01*
X40110776Y-28613498D01*
X40110833Y-28606750D01*
X40103948Y-28551957D01*
X40081975Y-28532801D01*
X40079083Y-28532667D01*
X40055600Y-28548732D01*
X40047391Y-28600003D01*
X40047333Y-28606750D01*
X40054218Y-28661544D01*
X40076192Y-28680700D01*
X40079083Y-28680834D01*
X40102566Y-28664769D01*
X40102566Y-28664769D01*
G37*
X40102566Y-28664769D02*
X40110776Y-28613498D01*
X40110833Y-28606750D01*
X40103948Y-28551957D01*
X40081975Y-28532801D01*
X40079083Y-28532667D01*
X40055600Y-28548732D01*
X40047391Y-28600003D01*
X40047333Y-28606750D01*
X40054218Y-28661544D01*
X40076192Y-28680700D01*
X40079083Y-28680834D01*
X40102566Y-28664769D01*
G36*
X30181486Y-31592588D02*
G01*
X30182804Y-31591783D01*
X30208097Y-31561524D01*
X30243472Y-31499964D01*
X30285065Y-31415769D01*
X30329010Y-31317606D01*
X30371438Y-31214143D01*
X30408485Y-31114046D01*
X30436284Y-31025984D01*
X30437984Y-31019750D01*
X30472163Y-30849616D01*
X30492314Y-30655015D01*
X30498011Y-30451570D01*
X30488828Y-30254904D01*
X30464337Y-30080639D01*
X30463701Y-30077551D01*
X30383297Y-29789668D01*
X30266834Y-29521573D01*
X30116646Y-29275863D01*
X29935066Y-29055131D01*
X29724425Y-28861974D01*
X29487056Y-28698985D01*
X29225291Y-28568759D01*
X29050377Y-28505172D01*
X28783366Y-28441005D01*
X28502971Y-28410744D01*
X28222827Y-28415703D01*
X28172833Y-28420508D01*
X28010219Y-28449246D01*
X27828590Y-28499692D01*
X27641664Y-28566715D01*
X27463164Y-28645184D01*
X27306809Y-28729967D01*
X27254024Y-28764165D01*
X27198312Y-28805650D01*
X27132713Y-28859183D01*
X27064502Y-28918166D01*
X27000955Y-28975999D01*
X26949346Y-29026085D01*
X26916950Y-29061825D01*
X26910077Y-29076133D01*
X26931837Y-29071883D01*
X26978538Y-29051798D01*
X27017100Y-29032308D01*
X27138695Y-28980815D01*
X27275247Y-28949822D01*
X27435416Y-28937924D01*
X27580167Y-28940883D01*
X27831354Y-28972308D01*
X28089509Y-29039042D01*
X28350463Y-29137676D01*
X28610043Y-29264797D01*
X28864079Y-29416993D01*
X29108399Y-29590853D01*
X29338833Y-29782965D01*
X29551209Y-29989917D01*
X29741357Y-30208298D01*
X29905105Y-30434696D01*
X30038283Y-30665699D01*
X30136719Y-30897896D01*
X30185476Y-31071883D01*
X30195456Y-31146069D01*
X30200087Y-31241038D01*
X30199687Y-31343933D01*
X30194578Y-31441897D01*
X30185080Y-31522074D01*
X30173104Y-31568264D01*
X30165025Y-31596078D01*
X30181486Y-31592588D01*
X30181486Y-31592588D01*
G37*
X30181486Y-31592588D02*
X30182804Y-31591783D01*
X30208097Y-31561524D01*
X30243472Y-31499964D01*
X30285065Y-31415769D01*
X30329010Y-31317606D01*
X30371438Y-31214143D01*
X30408485Y-31114046D01*
X30436284Y-31025984D01*
X30437984Y-31019750D01*
X30472163Y-30849616D01*
X30492314Y-30655015D01*
X30498011Y-30451570D01*
X30488828Y-30254904D01*
X30464337Y-30080639D01*
X30463701Y-30077551D01*
X30383297Y-29789668D01*
X30266834Y-29521573D01*
X30116646Y-29275863D01*
X29935066Y-29055131D01*
X29724425Y-28861974D01*
X29487056Y-28698985D01*
X29225291Y-28568759D01*
X29050377Y-28505172D01*
X28783366Y-28441005D01*
X28502971Y-28410744D01*
X28222827Y-28415703D01*
X28172833Y-28420508D01*
X28010219Y-28449246D01*
X27828590Y-28499692D01*
X27641664Y-28566715D01*
X27463164Y-28645184D01*
X27306809Y-28729967D01*
X27254024Y-28764165D01*
X27198312Y-28805650D01*
X27132713Y-28859183D01*
X27064502Y-28918166D01*
X27000955Y-28975999D01*
X26949346Y-29026085D01*
X26916950Y-29061825D01*
X26910077Y-29076133D01*
X26931837Y-29071883D01*
X26978538Y-29051798D01*
X27017100Y-29032308D01*
X27138695Y-28980815D01*
X27275247Y-28949822D01*
X27435416Y-28937924D01*
X27580167Y-28940883D01*
X27831354Y-28972308D01*
X28089509Y-29039042D01*
X28350463Y-29137676D01*
X28610043Y-29264797D01*
X28864079Y-29416993D01*
X29108399Y-29590853D01*
X29338833Y-29782965D01*
X29551209Y-29989917D01*
X29741357Y-30208298D01*
X29905105Y-30434696D01*
X30038283Y-30665699D01*
X30136719Y-30897896D01*
X30185476Y-31071883D01*
X30195456Y-31146069D01*
X30200087Y-31241038D01*
X30199687Y-31343933D01*
X30194578Y-31441897D01*
X30185080Y-31522074D01*
X30173104Y-31568264D01*
X30165025Y-31596078D01*
X30181486Y-31592588D01*
G36*
X40102566Y-28474269D02*
G01*
X40110776Y-28422998D01*
X40110833Y-28416250D01*
X40103948Y-28361457D01*
X40081975Y-28342301D01*
X40079083Y-28342167D01*
X40055600Y-28358232D01*
X40047391Y-28409503D01*
X40047333Y-28416250D01*
X40054218Y-28471044D01*
X40076192Y-28490200D01*
X40079083Y-28490334D01*
X40102566Y-28474269D01*
X40102566Y-28474269D01*
G37*
X40102566Y-28474269D02*
X40110776Y-28422998D01*
X40110833Y-28416250D01*
X40103948Y-28361457D01*
X40081975Y-28342301D01*
X40079083Y-28342167D01*
X40055600Y-28358232D01*
X40047391Y-28409503D01*
X40047333Y-28416250D01*
X40054218Y-28471044D01*
X40076192Y-28490200D01*
X40079083Y-28490334D01*
X40102566Y-28474269D01*
D11*
M02*
