G04 #@! TF.GenerationSoftware,KiCad,Pcbnew,(5.1.0-0)*
G04 #@! TF.CreationDate,2019-05-27T18:32:18+02:00*
G04 #@! TF.ProjectId,huzzah-cc112x-shield,68757a7a-6168-42d6-9363-313132782d73,1*
G04 #@! TF.SameCoordinates,Original*
G04 #@! TF.FileFunction,Copper,L1,Top*
G04 #@! TF.FilePolarity,Positive*
%FSLAX46Y46*%
G04 Gerber Fmt 4.6, Leading zero omitted, Abs format (unit mm)*
G04 Created by KiCad (PCBNEW (5.1.0-0)) date 2019-05-27 18:32:18*
%MOMM*%
%LPD*%
G04 APERTURE LIST*
%ADD10C,0.100000*%
%ADD11C,0.500000*%
%ADD12C,1.000000*%
%ADD13C,1.778000*%
%ADD14C,3.810000*%
%ADD15R,1.000000X2.000000*%
%ADD16R,1.200000X2.000000*%
%ADD17C,2.050000*%
%ADD18C,2.250000*%
%ADD19C,0.800000*%
%ADD20C,0.400000*%
%ADD21C,0.250000*%
%ADD22C,0.500000*%
%ADD23C,0.254000*%
G04 APERTURE END LIST*
D10*
G36*
X58670000Y-22560000D02*
G01*
X58170000Y-22560000D01*
X58170000Y-23160000D01*
X58670000Y-23160000D01*
X58670000Y-22560000D01*
G37*
G36*
X58670000Y-20020000D02*
G01*
X58170000Y-20020000D01*
X58170000Y-20620000D01*
X58670000Y-20620000D01*
X58670000Y-20020000D01*
G37*
G36*
X58670000Y-27640000D02*
G01*
X58170000Y-27640000D01*
X58170000Y-28240000D01*
X58670000Y-28240000D01*
X58670000Y-27640000D01*
G37*
G36*
X58670000Y-25100000D02*
G01*
X58170000Y-25100000D01*
X58170000Y-25700000D01*
X58670000Y-25700000D01*
X58670000Y-25100000D01*
G37*
G36*
X58670000Y-30180000D02*
G01*
X58170000Y-30180000D01*
X58170000Y-30780000D01*
X58670000Y-30780000D01*
X58670000Y-30180000D01*
G37*
G36*
X58670000Y-17480000D02*
G01*
X58170000Y-17480000D01*
X58170000Y-18080000D01*
X58670000Y-18080000D01*
X58670000Y-17480000D01*
G37*
D11*
X57770000Y-22860000D03*
D10*
G36*
X58270000Y-23610000D02*
G01*
X57770000Y-23610000D01*
X57770000Y-23609398D01*
X57745466Y-23609398D01*
X57696635Y-23604588D01*
X57648510Y-23595016D01*
X57601555Y-23580772D01*
X57556222Y-23561995D01*
X57512949Y-23538864D01*
X57472150Y-23511604D01*
X57434221Y-23480476D01*
X57399524Y-23445779D01*
X57368396Y-23407850D01*
X57341136Y-23367051D01*
X57318005Y-23323778D01*
X57299228Y-23278445D01*
X57284984Y-23231490D01*
X57275412Y-23183365D01*
X57270602Y-23134534D01*
X57270602Y-23110000D01*
X57270000Y-23110000D01*
X57270000Y-22610000D01*
X57270602Y-22610000D01*
X57270602Y-22585466D01*
X57275412Y-22536635D01*
X57284984Y-22488510D01*
X57299228Y-22441555D01*
X57318005Y-22396222D01*
X57341136Y-22352949D01*
X57368396Y-22312150D01*
X57399524Y-22274221D01*
X57434221Y-22239524D01*
X57472150Y-22208396D01*
X57512949Y-22181136D01*
X57556222Y-22158005D01*
X57601555Y-22139228D01*
X57648510Y-22124984D01*
X57696635Y-22115412D01*
X57745466Y-22110602D01*
X57770000Y-22110602D01*
X57770000Y-22110000D01*
X58270000Y-22110000D01*
X58270000Y-23610000D01*
X58270000Y-23610000D01*
G37*
D11*
X59070000Y-22860000D03*
D10*
G36*
X59070000Y-22110602D02*
G01*
X59094534Y-22110602D01*
X59143365Y-22115412D01*
X59191490Y-22124984D01*
X59238445Y-22139228D01*
X59283778Y-22158005D01*
X59327051Y-22181136D01*
X59367850Y-22208396D01*
X59405779Y-22239524D01*
X59440476Y-22274221D01*
X59471604Y-22312150D01*
X59498864Y-22352949D01*
X59521995Y-22396222D01*
X59540772Y-22441555D01*
X59555016Y-22488510D01*
X59564588Y-22536635D01*
X59569398Y-22585466D01*
X59569398Y-22610000D01*
X59570000Y-22610000D01*
X59570000Y-23110000D01*
X59569398Y-23110000D01*
X59569398Y-23134534D01*
X59564588Y-23183365D01*
X59555016Y-23231490D01*
X59540772Y-23278445D01*
X59521995Y-23323778D01*
X59498864Y-23367051D01*
X59471604Y-23407850D01*
X59440476Y-23445779D01*
X59405779Y-23480476D01*
X59367850Y-23511604D01*
X59327051Y-23538864D01*
X59283778Y-23561995D01*
X59238445Y-23580772D01*
X59191490Y-23595016D01*
X59143365Y-23604588D01*
X59094534Y-23609398D01*
X59070000Y-23609398D01*
X59070000Y-23610000D01*
X58570000Y-23610000D01*
X58570000Y-22110000D01*
X59070000Y-22110000D01*
X59070000Y-22110602D01*
X59070000Y-22110602D01*
G37*
D12*
X62230000Y-20955000D03*
X62230000Y-18415000D03*
X61595000Y-30480000D03*
D11*
X57770000Y-20320000D03*
D10*
G36*
X58270000Y-21070000D02*
G01*
X57770000Y-21070000D01*
X57770000Y-21069398D01*
X57745466Y-21069398D01*
X57696635Y-21064588D01*
X57648510Y-21055016D01*
X57601555Y-21040772D01*
X57556222Y-21021995D01*
X57512949Y-20998864D01*
X57472150Y-20971604D01*
X57434221Y-20940476D01*
X57399524Y-20905779D01*
X57368396Y-20867850D01*
X57341136Y-20827051D01*
X57318005Y-20783778D01*
X57299228Y-20738445D01*
X57284984Y-20691490D01*
X57275412Y-20643365D01*
X57270602Y-20594534D01*
X57270602Y-20570000D01*
X57270000Y-20570000D01*
X57270000Y-20070000D01*
X57270602Y-20070000D01*
X57270602Y-20045466D01*
X57275412Y-19996635D01*
X57284984Y-19948510D01*
X57299228Y-19901555D01*
X57318005Y-19856222D01*
X57341136Y-19812949D01*
X57368396Y-19772150D01*
X57399524Y-19734221D01*
X57434221Y-19699524D01*
X57472150Y-19668396D01*
X57512949Y-19641136D01*
X57556222Y-19618005D01*
X57601555Y-19599228D01*
X57648510Y-19584984D01*
X57696635Y-19575412D01*
X57745466Y-19570602D01*
X57770000Y-19570602D01*
X57770000Y-19570000D01*
X58270000Y-19570000D01*
X58270000Y-21070000D01*
X58270000Y-21070000D01*
G37*
D11*
X59070000Y-20320000D03*
D10*
G36*
X59070000Y-19570602D02*
G01*
X59094534Y-19570602D01*
X59143365Y-19575412D01*
X59191490Y-19584984D01*
X59238445Y-19599228D01*
X59283778Y-19618005D01*
X59327051Y-19641136D01*
X59367850Y-19668396D01*
X59405779Y-19699524D01*
X59440476Y-19734221D01*
X59471604Y-19772150D01*
X59498864Y-19812949D01*
X59521995Y-19856222D01*
X59540772Y-19901555D01*
X59555016Y-19948510D01*
X59564588Y-19996635D01*
X59569398Y-20045466D01*
X59569398Y-20070000D01*
X59570000Y-20070000D01*
X59570000Y-20570000D01*
X59569398Y-20570000D01*
X59569398Y-20594534D01*
X59564588Y-20643365D01*
X59555016Y-20691490D01*
X59540772Y-20738445D01*
X59521995Y-20783778D01*
X59498864Y-20827051D01*
X59471604Y-20867850D01*
X59440476Y-20905779D01*
X59405779Y-20940476D01*
X59367850Y-20971604D01*
X59327051Y-20998864D01*
X59283778Y-21021995D01*
X59238445Y-21040772D01*
X59191490Y-21055016D01*
X59143365Y-21064588D01*
X59094534Y-21069398D01*
X59070000Y-21069398D01*
X59070000Y-21070000D01*
X58570000Y-21070000D01*
X58570000Y-19570000D01*
X59070000Y-19570000D01*
X59070000Y-19570602D01*
X59070000Y-19570602D01*
G37*
D11*
X57770000Y-27940000D03*
D10*
G36*
X58270000Y-28690000D02*
G01*
X57770000Y-28690000D01*
X57770000Y-28689398D01*
X57745466Y-28689398D01*
X57696635Y-28684588D01*
X57648510Y-28675016D01*
X57601555Y-28660772D01*
X57556222Y-28641995D01*
X57512949Y-28618864D01*
X57472150Y-28591604D01*
X57434221Y-28560476D01*
X57399524Y-28525779D01*
X57368396Y-28487850D01*
X57341136Y-28447051D01*
X57318005Y-28403778D01*
X57299228Y-28358445D01*
X57284984Y-28311490D01*
X57275412Y-28263365D01*
X57270602Y-28214534D01*
X57270602Y-28190000D01*
X57270000Y-28190000D01*
X57270000Y-27690000D01*
X57270602Y-27690000D01*
X57270602Y-27665466D01*
X57275412Y-27616635D01*
X57284984Y-27568510D01*
X57299228Y-27521555D01*
X57318005Y-27476222D01*
X57341136Y-27432949D01*
X57368396Y-27392150D01*
X57399524Y-27354221D01*
X57434221Y-27319524D01*
X57472150Y-27288396D01*
X57512949Y-27261136D01*
X57556222Y-27238005D01*
X57601555Y-27219228D01*
X57648510Y-27204984D01*
X57696635Y-27195412D01*
X57745466Y-27190602D01*
X57770000Y-27190602D01*
X57770000Y-27190000D01*
X58270000Y-27190000D01*
X58270000Y-28690000D01*
X58270000Y-28690000D01*
G37*
D11*
X59070000Y-27940000D03*
D10*
G36*
X59070000Y-27190602D02*
G01*
X59094534Y-27190602D01*
X59143365Y-27195412D01*
X59191490Y-27204984D01*
X59238445Y-27219228D01*
X59283778Y-27238005D01*
X59327051Y-27261136D01*
X59367850Y-27288396D01*
X59405779Y-27319524D01*
X59440476Y-27354221D01*
X59471604Y-27392150D01*
X59498864Y-27432949D01*
X59521995Y-27476222D01*
X59540772Y-27521555D01*
X59555016Y-27568510D01*
X59564588Y-27616635D01*
X59569398Y-27665466D01*
X59569398Y-27690000D01*
X59570000Y-27690000D01*
X59570000Y-28190000D01*
X59569398Y-28190000D01*
X59569398Y-28214534D01*
X59564588Y-28263365D01*
X59555016Y-28311490D01*
X59540772Y-28358445D01*
X59521995Y-28403778D01*
X59498864Y-28447051D01*
X59471604Y-28487850D01*
X59440476Y-28525779D01*
X59405779Y-28560476D01*
X59367850Y-28591604D01*
X59327051Y-28618864D01*
X59283778Y-28641995D01*
X59238445Y-28660772D01*
X59191490Y-28675016D01*
X59143365Y-28684588D01*
X59094534Y-28689398D01*
X59070000Y-28689398D01*
X59070000Y-28690000D01*
X58570000Y-28690000D01*
X58570000Y-27190000D01*
X59070000Y-27190000D01*
X59070000Y-27190602D01*
X59070000Y-27190602D01*
G37*
D11*
X57770000Y-25400000D03*
D10*
G36*
X58270000Y-26150000D02*
G01*
X57770000Y-26150000D01*
X57770000Y-26149398D01*
X57745466Y-26149398D01*
X57696635Y-26144588D01*
X57648510Y-26135016D01*
X57601555Y-26120772D01*
X57556222Y-26101995D01*
X57512949Y-26078864D01*
X57472150Y-26051604D01*
X57434221Y-26020476D01*
X57399524Y-25985779D01*
X57368396Y-25947850D01*
X57341136Y-25907051D01*
X57318005Y-25863778D01*
X57299228Y-25818445D01*
X57284984Y-25771490D01*
X57275412Y-25723365D01*
X57270602Y-25674534D01*
X57270602Y-25650000D01*
X57270000Y-25650000D01*
X57270000Y-25150000D01*
X57270602Y-25150000D01*
X57270602Y-25125466D01*
X57275412Y-25076635D01*
X57284984Y-25028510D01*
X57299228Y-24981555D01*
X57318005Y-24936222D01*
X57341136Y-24892949D01*
X57368396Y-24852150D01*
X57399524Y-24814221D01*
X57434221Y-24779524D01*
X57472150Y-24748396D01*
X57512949Y-24721136D01*
X57556222Y-24698005D01*
X57601555Y-24679228D01*
X57648510Y-24664984D01*
X57696635Y-24655412D01*
X57745466Y-24650602D01*
X57770000Y-24650602D01*
X57770000Y-24650000D01*
X58270000Y-24650000D01*
X58270000Y-26150000D01*
X58270000Y-26150000D01*
G37*
D11*
X59070000Y-25400000D03*
D10*
G36*
X59070000Y-24650602D02*
G01*
X59094534Y-24650602D01*
X59143365Y-24655412D01*
X59191490Y-24664984D01*
X59238445Y-24679228D01*
X59283778Y-24698005D01*
X59327051Y-24721136D01*
X59367850Y-24748396D01*
X59405779Y-24779524D01*
X59440476Y-24814221D01*
X59471604Y-24852150D01*
X59498864Y-24892949D01*
X59521995Y-24936222D01*
X59540772Y-24981555D01*
X59555016Y-25028510D01*
X59564588Y-25076635D01*
X59569398Y-25125466D01*
X59569398Y-25150000D01*
X59570000Y-25150000D01*
X59570000Y-25650000D01*
X59569398Y-25650000D01*
X59569398Y-25674534D01*
X59564588Y-25723365D01*
X59555016Y-25771490D01*
X59540772Y-25818445D01*
X59521995Y-25863778D01*
X59498864Y-25907051D01*
X59471604Y-25947850D01*
X59440476Y-25985779D01*
X59405779Y-26020476D01*
X59367850Y-26051604D01*
X59327051Y-26078864D01*
X59283778Y-26101995D01*
X59238445Y-26120772D01*
X59191490Y-26135016D01*
X59143365Y-26144588D01*
X59094534Y-26149398D01*
X59070000Y-26149398D01*
X59070000Y-26150000D01*
X58570000Y-26150000D01*
X58570000Y-24650000D01*
X59070000Y-24650000D01*
X59070000Y-24650602D01*
X59070000Y-24650602D01*
G37*
D11*
X57770000Y-30480000D03*
D10*
G36*
X58270000Y-31230000D02*
G01*
X57770000Y-31230000D01*
X57770000Y-31229398D01*
X57745466Y-31229398D01*
X57696635Y-31224588D01*
X57648510Y-31215016D01*
X57601555Y-31200772D01*
X57556222Y-31181995D01*
X57512949Y-31158864D01*
X57472150Y-31131604D01*
X57434221Y-31100476D01*
X57399524Y-31065779D01*
X57368396Y-31027850D01*
X57341136Y-30987051D01*
X57318005Y-30943778D01*
X57299228Y-30898445D01*
X57284984Y-30851490D01*
X57275412Y-30803365D01*
X57270602Y-30754534D01*
X57270602Y-30730000D01*
X57270000Y-30730000D01*
X57270000Y-30230000D01*
X57270602Y-30230000D01*
X57270602Y-30205466D01*
X57275412Y-30156635D01*
X57284984Y-30108510D01*
X57299228Y-30061555D01*
X57318005Y-30016222D01*
X57341136Y-29972949D01*
X57368396Y-29932150D01*
X57399524Y-29894221D01*
X57434221Y-29859524D01*
X57472150Y-29828396D01*
X57512949Y-29801136D01*
X57556222Y-29778005D01*
X57601555Y-29759228D01*
X57648510Y-29744984D01*
X57696635Y-29735412D01*
X57745466Y-29730602D01*
X57770000Y-29730602D01*
X57770000Y-29730000D01*
X58270000Y-29730000D01*
X58270000Y-31230000D01*
X58270000Y-31230000D01*
G37*
D11*
X59070000Y-30480000D03*
D10*
G36*
X59070000Y-29730602D02*
G01*
X59094534Y-29730602D01*
X59143365Y-29735412D01*
X59191490Y-29744984D01*
X59238445Y-29759228D01*
X59283778Y-29778005D01*
X59327051Y-29801136D01*
X59367850Y-29828396D01*
X59405779Y-29859524D01*
X59440476Y-29894221D01*
X59471604Y-29932150D01*
X59498864Y-29972949D01*
X59521995Y-30016222D01*
X59540772Y-30061555D01*
X59555016Y-30108510D01*
X59564588Y-30156635D01*
X59569398Y-30205466D01*
X59569398Y-30230000D01*
X59570000Y-30230000D01*
X59570000Y-30730000D01*
X59569398Y-30730000D01*
X59569398Y-30754534D01*
X59564588Y-30803365D01*
X59555016Y-30851490D01*
X59540772Y-30898445D01*
X59521995Y-30943778D01*
X59498864Y-30987051D01*
X59471604Y-31027850D01*
X59440476Y-31065779D01*
X59405779Y-31100476D01*
X59367850Y-31131604D01*
X59327051Y-31158864D01*
X59283778Y-31181995D01*
X59238445Y-31200772D01*
X59191490Y-31215016D01*
X59143365Y-31224588D01*
X59094534Y-31229398D01*
X59070000Y-31229398D01*
X59070000Y-31230000D01*
X58570000Y-31230000D01*
X58570000Y-29730000D01*
X59070000Y-29730000D01*
X59070000Y-29730602D01*
X59070000Y-29730602D01*
G37*
D11*
X57770000Y-17780000D03*
D10*
G36*
X58270000Y-18530000D02*
G01*
X57770000Y-18530000D01*
X57770000Y-18529398D01*
X57745466Y-18529398D01*
X57696635Y-18524588D01*
X57648510Y-18515016D01*
X57601555Y-18500772D01*
X57556222Y-18481995D01*
X57512949Y-18458864D01*
X57472150Y-18431604D01*
X57434221Y-18400476D01*
X57399524Y-18365779D01*
X57368396Y-18327850D01*
X57341136Y-18287051D01*
X57318005Y-18243778D01*
X57299228Y-18198445D01*
X57284984Y-18151490D01*
X57275412Y-18103365D01*
X57270602Y-18054534D01*
X57270602Y-18030000D01*
X57270000Y-18030000D01*
X57270000Y-17530000D01*
X57270602Y-17530000D01*
X57270602Y-17505466D01*
X57275412Y-17456635D01*
X57284984Y-17408510D01*
X57299228Y-17361555D01*
X57318005Y-17316222D01*
X57341136Y-17272949D01*
X57368396Y-17232150D01*
X57399524Y-17194221D01*
X57434221Y-17159524D01*
X57472150Y-17128396D01*
X57512949Y-17101136D01*
X57556222Y-17078005D01*
X57601555Y-17059228D01*
X57648510Y-17044984D01*
X57696635Y-17035412D01*
X57745466Y-17030602D01*
X57770000Y-17030602D01*
X57770000Y-17030000D01*
X58270000Y-17030000D01*
X58270000Y-18530000D01*
X58270000Y-18530000D01*
G37*
D11*
X59070000Y-17780000D03*
D10*
G36*
X59070000Y-17030602D02*
G01*
X59094534Y-17030602D01*
X59143365Y-17035412D01*
X59191490Y-17044984D01*
X59238445Y-17059228D01*
X59283778Y-17078005D01*
X59327051Y-17101136D01*
X59367850Y-17128396D01*
X59405779Y-17159524D01*
X59440476Y-17194221D01*
X59471604Y-17232150D01*
X59498864Y-17272949D01*
X59521995Y-17316222D01*
X59540772Y-17361555D01*
X59555016Y-17408510D01*
X59564588Y-17456635D01*
X59569398Y-17505466D01*
X59569398Y-17530000D01*
X59570000Y-17530000D01*
X59570000Y-18030000D01*
X59569398Y-18030000D01*
X59569398Y-18054534D01*
X59564588Y-18103365D01*
X59555016Y-18151490D01*
X59540772Y-18198445D01*
X59521995Y-18243778D01*
X59498864Y-18287051D01*
X59471604Y-18327850D01*
X59440476Y-18365779D01*
X59405779Y-18400476D01*
X59367850Y-18431604D01*
X59327051Y-18458864D01*
X59283778Y-18481995D01*
X59238445Y-18500772D01*
X59191490Y-18515016D01*
X59143365Y-18524588D01*
X59094534Y-18529398D01*
X59070000Y-18529398D01*
X59070000Y-18530000D01*
X58570000Y-18530000D01*
X58570000Y-17030000D01*
X59070000Y-17030000D01*
X59070000Y-17030602D01*
X59070000Y-17030602D01*
G37*
D13*
X19685000Y-34925000D03*
X22225000Y-34925000D03*
X24765000Y-34925000D03*
X27305000Y-34925000D03*
X57785000Y-34925000D03*
X55245000Y-34925000D03*
X52705000Y-34925000D03*
X50165000Y-34925000D03*
X47625000Y-34925000D03*
X45085000Y-34925000D03*
X42545000Y-34925000D03*
X40005000Y-34925000D03*
X37465000Y-34925000D03*
X34925000Y-34925000D03*
X32385000Y-34925000D03*
X29845000Y-34925000D03*
X57785000Y-14605000D03*
X55245000Y-14605000D03*
X52705000Y-14605000D03*
X50165000Y-14605000D03*
X47625000Y-14605000D03*
X45085000Y-14605000D03*
X42545000Y-14605000D03*
X40005000Y-14605000D03*
X37465000Y-14605000D03*
X34925000Y-14605000D03*
X32385000Y-14605000D03*
X29845000Y-14605000D03*
D14*
X15875000Y-33655000D03*
X15875000Y-15875000D03*
D15*
X47050000Y-17190000D03*
X45550000Y-17190000D03*
X44050000Y-17190000D03*
X42550000Y-17190000D03*
X41050000Y-17190000D03*
X39550000Y-17190000D03*
X38050000Y-17190000D03*
X36550000Y-17190000D03*
X35050000Y-17190000D03*
X33550000Y-17190000D03*
D16*
X31530000Y-17190000D03*
X28990000Y-17190000D03*
X26450000Y-17190000D03*
X46980000Y-32250000D03*
X44440000Y-32250000D03*
X41900000Y-32250000D03*
X31560000Y-32250000D03*
X29020000Y-32250000D03*
X26480000Y-32250000D03*
D17*
X17780000Y-24765000D03*
D18*
X20320000Y-22225000D03*
X15240000Y-22225000D03*
X15240000Y-27305000D03*
X20320000Y-27305000D03*
D19*
X34290000Y-22860000D03*
X34290000Y-20320000D03*
X34290000Y-33020000D03*
X55880000Y-20320000D03*
X55880000Y-30480000D03*
X50800000Y-30480000D03*
X45720000Y-30480000D03*
X58420000Y-33020000D03*
X55880000Y-27940000D03*
X52070000Y-27940000D03*
X48260000Y-31750000D03*
X55880000Y-22860000D03*
X44450000Y-29210000D03*
X41910000Y-27940000D03*
X44775000Y-25250068D03*
X54610000Y-31750000D03*
X48260000Y-29210000D03*
X43180000Y-26670000D03*
X45720012Y-29210000D03*
X43180000Y-22860000D03*
X52070010Y-22860000D03*
X57150000Y-21590000D03*
X41824996Y-21590000D03*
X60960000Y-27940000D03*
X40640012Y-21590000D03*
X49530000Y-24130000D03*
X52069970Y-26670000D03*
X39370000Y-25400000D03*
X57150094Y-19050000D03*
X36830000Y-19050000D03*
D20*
X22225000Y-33667765D02*
X22225000Y-34925000D01*
X22225000Y-29915000D02*
X22225000Y-33667765D01*
X33550000Y-18590000D02*
X22225000Y-29915000D01*
X33550000Y-17190000D02*
X33550000Y-18590000D01*
D21*
X19229568Y-24765000D02*
X17780000Y-24765000D01*
X21815000Y-24765000D02*
X19229568Y-24765000D01*
X28990000Y-17590000D02*
X21815000Y-24765000D01*
X28990000Y-17190000D02*
X28990000Y-17590000D01*
X60960000Y-17780000D02*
X61595000Y-17780000D01*
X59044999Y-15864999D02*
X60960000Y-17780000D01*
X38724999Y-15864999D02*
X59044999Y-15864999D01*
X61595000Y-17780000D02*
X62230000Y-18415000D01*
X37465000Y-14605000D02*
X38724999Y-15864999D01*
X34290000Y-22860000D02*
X34290000Y-20320000D01*
X30733999Y-34036001D02*
X29845000Y-34925000D01*
X31059001Y-33710999D02*
X30733999Y-34036001D01*
X33599001Y-33710999D02*
X31059001Y-33710999D01*
X34290000Y-33020000D02*
X33599001Y-33710999D01*
X57770000Y-20320000D02*
X55880000Y-20320000D01*
X57770000Y-30480000D02*
X55880000Y-30480000D01*
X50800000Y-30480000D02*
X45720000Y-30480000D01*
X60960000Y-30480000D02*
X58420000Y-33020000D01*
X60960000Y-30480000D02*
X61595000Y-30480000D01*
X40005000Y-31163998D02*
X40005000Y-33667765D01*
X57770000Y-17780000D02*
X53388998Y-17780000D01*
X53388998Y-17780000D02*
X40005000Y-31163998D01*
X57344990Y-26475010D02*
X55880000Y-27940000D01*
X59408328Y-26475010D02*
X57344990Y-26475010D01*
X60960000Y-24923338D02*
X59408328Y-26475010D01*
X40640000Y-33175002D02*
X40640000Y-31324998D01*
X41500999Y-34036001D02*
X40640000Y-33175002D01*
X40640000Y-31324998D02*
X44024998Y-27940000D01*
X51504315Y-27940000D02*
X52070000Y-27940000D01*
X41656001Y-34036001D02*
X41500999Y-34036001D01*
X44024998Y-27940000D02*
X51504315Y-27940000D01*
X42545000Y-34925000D02*
X41656001Y-34036001D01*
X60960000Y-22225000D02*
X62230000Y-20955000D01*
X60960000Y-24923338D02*
X60960000Y-22225000D01*
X48260000Y-33155002D02*
X48260000Y-31750000D01*
X47840001Y-33575001D02*
X48260000Y-33155002D01*
X45085000Y-34925000D02*
X46434999Y-33575001D01*
X46434999Y-33575001D02*
X47840001Y-33575001D01*
X55880000Y-22860000D02*
X57770000Y-22860000D01*
X57150000Y-25400000D02*
X47625000Y-34925000D01*
X57770000Y-25400000D02*
X57150000Y-25400000D01*
X57150000Y-27940000D02*
X50165000Y-34925000D01*
X57770000Y-27940000D02*
X57150000Y-27940000D01*
D22*
X26480000Y-34100000D02*
X27305000Y-34925000D01*
X26480000Y-32250000D02*
X26480000Y-34100000D01*
X27330000Y-32250000D02*
X29020000Y-32250000D01*
X26480000Y-32250000D02*
X27330000Y-32250000D01*
X30710000Y-32250000D02*
X29020000Y-32250000D01*
X31560000Y-32250000D02*
X30710000Y-32250000D01*
X42750000Y-32250000D02*
X44440000Y-32250000D01*
X41900000Y-32250000D02*
X42750000Y-32250000D01*
X45290000Y-32250000D02*
X46980000Y-32250000D01*
X44440000Y-32250000D02*
X45290000Y-32250000D01*
D21*
X47800000Y-17190000D02*
X47050000Y-17190000D01*
X48480000Y-16510000D02*
X47800000Y-17190000D01*
X58647592Y-16510000D02*
X48480000Y-16510000D01*
X59070000Y-16932408D02*
X58647592Y-16510000D01*
X59070000Y-17780000D02*
X59070000Y-16932408D01*
X45550000Y-17190000D02*
X45550000Y-24475068D01*
X45550000Y-24475068D02*
X44775000Y-25250068D01*
X58647592Y-31750000D02*
X54610000Y-31750000D01*
X59070000Y-31327592D02*
X58647592Y-31750000D01*
X44050000Y-25800000D02*
X44050000Y-17190000D01*
X43180000Y-26670000D02*
X44050000Y-25800000D01*
X59070000Y-30480000D02*
X59070000Y-31327592D01*
X48260000Y-29210000D02*
X45720012Y-29210000D01*
X42550000Y-17190000D02*
X42550000Y-22230000D01*
X42550000Y-22230000D02*
X42780001Y-22460001D01*
X42780001Y-22460001D02*
X43180000Y-22860000D01*
X52470009Y-23259999D02*
X52070010Y-22860000D01*
X59070000Y-24552408D02*
X58647592Y-24130000D01*
X59070000Y-25400000D02*
X59070000Y-24552408D01*
X58647592Y-24130000D02*
X53340010Y-24130000D01*
X53340010Y-24130000D02*
X52470009Y-23259999D01*
X57150000Y-21590000D02*
X58647592Y-21590000D01*
X58647592Y-21590000D02*
X59070000Y-22012408D01*
X59070000Y-22860000D02*
X59070000Y-22012408D01*
X41050000Y-17190000D02*
X41050000Y-20815004D01*
X41050000Y-20815004D02*
X41424997Y-21190001D01*
X41424997Y-21190001D02*
X41824996Y-21590000D01*
X59070000Y-27940000D02*
X60960000Y-27940000D01*
X39550000Y-17190000D02*
X39550000Y-20499988D01*
X39550000Y-20499988D02*
X40240013Y-21190001D01*
X40240013Y-21190001D02*
X40640012Y-21590000D01*
X49530000Y-24130000D02*
X52069970Y-26669970D01*
X52069970Y-26669970D02*
X52069970Y-26670000D01*
X38050000Y-20270000D02*
X38050000Y-17190000D01*
X39370000Y-25400000D02*
X39370000Y-21590000D01*
X39370000Y-21590000D02*
X38050000Y-20270000D01*
X59070000Y-19472408D02*
X58647592Y-19050000D01*
X57715779Y-19050000D02*
X57150094Y-19050000D01*
X58647592Y-19050000D02*
X57715779Y-19050000D01*
X59070000Y-20320000D02*
X59070000Y-19472408D01*
X36550000Y-17190000D02*
X36550000Y-18770000D01*
X36550000Y-18770000D02*
X36830000Y-19050000D01*
D23*
G36*
X27498748Y-34910858D02*
G01*
X27484605Y-34925000D01*
X27498748Y-34939143D01*
X27319143Y-35118748D01*
X27305000Y-35104605D01*
X27290858Y-35118748D01*
X27111253Y-34939143D01*
X27125395Y-34925000D01*
X27111253Y-34910858D01*
X27290858Y-34731253D01*
X27305000Y-34745395D01*
X27319143Y-34731253D01*
X27498748Y-34910858D01*
X27498748Y-34910858D01*
G37*
X27498748Y-34910858D02*
X27484605Y-34925000D01*
X27498748Y-34939143D01*
X27319143Y-35118748D01*
X27305000Y-35104605D01*
X27290858Y-35118748D01*
X27111253Y-34939143D01*
X27125395Y-34925000D01*
X27111253Y-34910858D01*
X27290858Y-34731253D01*
X27305000Y-34745395D01*
X27319143Y-34731253D01*
X27498748Y-34910858D01*
G36*
X28379566Y-14160466D02*
G01*
X28321000Y-14454899D01*
X28321000Y-14755101D01*
X28379566Y-15049534D01*
X28494449Y-15326885D01*
X28644818Y-15551928D01*
X28390000Y-15551928D01*
X28265518Y-15564188D01*
X28145820Y-15600498D01*
X28035506Y-15659463D01*
X27938815Y-15738815D01*
X27859463Y-15835506D01*
X27800498Y-15945820D01*
X27764188Y-16065518D01*
X27751928Y-16190000D01*
X27751928Y-17753270D01*
X27686475Y-17818723D01*
X27685000Y-17475750D01*
X27526250Y-17317000D01*
X26577000Y-17317000D01*
X26577000Y-18666250D01*
X26707974Y-18797224D01*
X21500199Y-24005000D01*
X19261969Y-24005000D01*
X19251073Y-23978695D01*
X19069406Y-23706812D01*
X18838188Y-23475594D01*
X18566305Y-23293927D01*
X18264204Y-23168793D01*
X17943496Y-23105000D01*
X17616504Y-23105000D01*
X17295796Y-23168793D01*
X16993695Y-23293927D01*
X16721812Y-23475594D01*
X16490594Y-23706812D01*
X16308927Y-23978695D01*
X16183793Y-24280796D01*
X16120000Y-24601504D01*
X16120000Y-24928496D01*
X16183793Y-25249204D01*
X16308927Y-25551305D01*
X16490594Y-25823188D01*
X16721812Y-26054406D01*
X16993695Y-26236073D01*
X17295796Y-26361207D01*
X17616504Y-26425000D01*
X17943496Y-26425000D01*
X18264204Y-26361207D01*
X18566305Y-26236073D01*
X18838188Y-26054406D01*
X19069406Y-25823188D01*
X19251073Y-25551305D01*
X19261969Y-25525000D01*
X21777678Y-25525000D01*
X21815000Y-25528676D01*
X21852322Y-25525000D01*
X21852333Y-25525000D01*
X21963986Y-25514003D01*
X22107247Y-25470546D01*
X22239276Y-25399974D01*
X22355001Y-25305001D01*
X22378804Y-25275997D01*
X28826730Y-18828072D01*
X29590000Y-18828072D01*
X29714482Y-18815812D01*
X29834180Y-18779502D01*
X29944494Y-18720537D01*
X30041185Y-18641185D01*
X30120537Y-18544494D01*
X30179502Y-18434180D01*
X30215812Y-18314482D01*
X30228072Y-18190000D01*
X30291928Y-18190000D01*
X30304188Y-18314482D01*
X30340498Y-18434180D01*
X30399463Y-18544494D01*
X30478815Y-18641185D01*
X30575506Y-18720537D01*
X30685820Y-18779502D01*
X30805518Y-18815812D01*
X30930000Y-18828072D01*
X31244250Y-18825000D01*
X31403000Y-18666250D01*
X31403000Y-17317000D01*
X30453750Y-17317000D01*
X30295000Y-17475750D01*
X30291928Y-18190000D01*
X30228072Y-18190000D01*
X30228072Y-16190000D01*
X30217703Y-16084722D01*
X30289534Y-16070434D01*
X30304588Y-16064198D01*
X30304188Y-16065518D01*
X30291928Y-16190000D01*
X30295000Y-16904250D01*
X30453750Y-17063000D01*
X31403000Y-17063000D01*
X31403000Y-17043000D01*
X31657000Y-17043000D01*
X31657000Y-17063000D01*
X31677000Y-17063000D01*
X31677000Y-17317000D01*
X31657000Y-17317000D01*
X31657000Y-18666250D01*
X31815750Y-18825000D01*
X32130000Y-18828072D01*
X32131175Y-18827956D01*
X21663579Y-29295554D01*
X21631709Y-29321709D01*
X21530528Y-29445000D01*
X21527364Y-29448855D01*
X21449828Y-29593914D01*
X21402082Y-29751312D01*
X21385960Y-29915000D01*
X21390000Y-29956019D01*
X21390001Y-33626737D01*
X21390000Y-33626747D01*
X21390000Y-33650030D01*
X21253507Y-33741232D01*
X21041232Y-33953507D01*
X20955000Y-34082562D01*
X20868768Y-33953507D01*
X20656493Y-33741232D01*
X20406885Y-33574449D01*
X20129534Y-33459566D01*
X19835101Y-33401000D01*
X19534899Y-33401000D01*
X19240466Y-33459566D01*
X18963115Y-33574449D01*
X18713507Y-33741232D01*
X18501232Y-33953507D01*
X18364757Y-34157756D01*
X18415000Y-33905168D01*
X18415000Y-33404832D01*
X18317389Y-32914109D01*
X18125919Y-32451859D01*
X17847947Y-32035844D01*
X17494156Y-31682053D01*
X17078141Y-31404081D01*
X16615891Y-31212611D01*
X16125168Y-31115000D01*
X15624832Y-31115000D01*
X15134109Y-31212611D01*
X14671859Y-31404081D01*
X14255844Y-31682053D01*
X13995000Y-31942897D01*
X13995000Y-28549016D01*
X14118065Y-28672081D01*
X14406327Y-28864692D01*
X14726627Y-28997364D01*
X15066655Y-29065000D01*
X15413345Y-29065000D01*
X15753373Y-28997364D01*
X16073673Y-28864692D01*
X16361935Y-28672081D01*
X16607081Y-28426935D01*
X16799692Y-28138673D01*
X16932364Y-27818373D01*
X17000000Y-27478345D01*
X17000000Y-27131655D01*
X18560000Y-27131655D01*
X18560000Y-27478345D01*
X18627636Y-27818373D01*
X18760308Y-28138673D01*
X18952919Y-28426935D01*
X19198065Y-28672081D01*
X19486327Y-28864692D01*
X19806627Y-28997364D01*
X20146655Y-29065000D01*
X20493345Y-29065000D01*
X20833373Y-28997364D01*
X21153673Y-28864692D01*
X21441935Y-28672081D01*
X21687081Y-28426935D01*
X21879692Y-28138673D01*
X22012364Y-27818373D01*
X22080000Y-27478345D01*
X22080000Y-27131655D01*
X22012364Y-26791627D01*
X21879692Y-26471327D01*
X21687081Y-26183065D01*
X21441935Y-25937919D01*
X21153673Y-25745308D01*
X20833373Y-25612636D01*
X20493345Y-25545000D01*
X20146655Y-25545000D01*
X19806627Y-25612636D01*
X19486327Y-25745308D01*
X19198065Y-25937919D01*
X18952919Y-26183065D01*
X18760308Y-26471327D01*
X18627636Y-26791627D01*
X18560000Y-27131655D01*
X17000000Y-27131655D01*
X16932364Y-26791627D01*
X16799692Y-26471327D01*
X16607081Y-26183065D01*
X16361935Y-25937919D01*
X16073673Y-25745308D01*
X15753373Y-25612636D01*
X15413345Y-25545000D01*
X15066655Y-25545000D01*
X14726627Y-25612636D01*
X14406327Y-25745308D01*
X14118065Y-25937919D01*
X13995000Y-26060984D01*
X13995000Y-23469016D01*
X14118065Y-23592081D01*
X14406327Y-23784692D01*
X14726627Y-23917364D01*
X15066655Y-23985000D01*
X15413345Y-23985000D01*
X15753373Y-23917364D01*
X16073673Y-23784692D01*
X16361935Y-23592081D01*
X16607081Y-23346935D01*
X16799692Y-23058673D01*
X16932364Y-22738373D01*
X17000000Y-22398345D01*
X17000000Y-22051655D01*
X18560000Y-22051655D01*
X18560000Y-22398345D01*
X18627636Y-22738373D01*
X18760308Y-23058673D01*
X18952919Y-23346935D01*
X19198065Y-23592081D01*
X19486327Y-23784692D01*
X19806627Y-23917364D01*
X20146655Y-23985000D01*
X20493345Y-23985000D01*
X20833373Y-23917364D01*
X21153673Y-23784692D01*
X21441935Y-23592081D01*
X21687081Y-23346935D01*
X21879692Y-23058673D01*
X22012364Y-22738373D01*
X22080000Y-22398345D01*
X22080000Y-22051655D01*
X22012364Y-21711627D01*
X21879692Y-21391327D01*
X21687081Y-21103065D01*
X21441935Y-20857919D01*
X21153673Y-20665308D01*
X20833373Y-20532636D01*
X20493345Y-20465000D01*
X20146655Y-20465000D01*
X19806627Y-20532636D01*
X19486327Y-20665308D01*
X19198065Y-20857919D01*
X18952919Y-21103065D01*
X18760308Y-21391327D01*
X18627636Y-21711627D01*
X18560000Y-22051655D01*
X17000000Y-22051655D01*
X16932364Y-21711627D01*
X16799692Y-21391327D01*
X16607081Y-21103065D01*
X16361935Y-20857919D01*
X16073673Y-20665308D01*
X15753373Y-20532636D01*
X15413345Y-20465000D01*
X15066655Y-20465000D01*
X14726627Y-20532636D01*
X14406327Y-20665308D01*
X14118065Y-20857919D01*
X13995000Y-20980984D01*
X13995000Y-17587103D01*
X14255844Y-17847947D01*
X14671859Y-18125919D01*
X15134109Y-18317389D01*
X15624832Y-18415000D01*
X16125168Y-18415000D01*
X16615891Y-18317389D01*
X16923435Y-18190000D01*
X25211928Y-18190000D01*
X25224188Y-18314482D01*
X25260498Y-18434180D01*
X25319463Y-18544494D01*
X25398815Y-18641185D01*
X25495506Y-18720537D01*
X25605820Y-18779502D01*
X25725518Y-18815812D01*
X25850000Y-18828072D01*
X26164250Y-18825000D01*
X26323000Y-18666250D01*
X26323000Y-17317000D01*
X25373750Y-17317000D01*
X25215000Y-17475750D01*
X25211928Y-18190000D01*
X16923435Y-18190000D01*
X17078141Y-18125919D01*
X17494156Y-17847947D01*
X17847947Y-17494156D01*
X18125919Y-17078141D01*
X18317389Y-16615891D01*
X18402104Y-16190000D01*
X25211928Y-16190000D01*
X25215000Y-16904250D01*
X25373750Y-17063000D01*
X26323000Y-17063000D01*
X26323000Y-15713750D01*
X26577000Y-15713750D01*
X26577000Y-17063000D01*
X27526250Y-17063000D01*
X27685000Y-16904250D01*
X27688072Y-16190000D01*
X27675812Y-16065518D01*
X27639502Y-15945820D01*
X27580537Y-15835506D01*
X27501185Y-15738815D01*
X27404494Y-15659463D01*
X27294180Y-15600498D01*
X27174482Y-15564188D01*
X27050000Y-15551928D01*
X26735750Y-15555000D01*
X26577000Y-15713750D01*
X26323000Y-15713750D01*
X26164250Y-15555000D01*
X25850000Y-15551928D01*
X25725518Y-15564188D01*
X25605820Y-15600498D01*
X25495506Y-15659463D01*
X25398815Y-15738815D01*
X25319463Y-15835506D01*
X25260498Y-15945820D01*
X25224188Y-16065518D01*
X25211928Y-16190000D01*
X18402104Y-16190000D01*
X18415000Y-16125168D01*
X18415000Y-15624832D01*
X18317389Y-15134109D01*
X18125919Y-14671859D01*
X17847947Y-14255844D01*
X17587103Y-13995000D01*
X28448105Y-13995000D01*
X28379566Y-14160466D01*
X28379566Y-14160466D01*
G37*
X28379566Y-14160466D02*
X28321000Y-14454899D01*
X28321000Y-14755101D01*
X28379566Y-15049534D01*
X28494449Y-15326885D01*
X28644818Y-15551928D01*
X28390000Y-15551928D01*
X28265518Y-15564188D01*
X28145820Y-15600498D01*
X28035506Y-15659463D01*
X27938815Y-15738815D01*
X27859463Y-15835506D01*
X27800498Y-15945820D01*
X27764188Y-16065518D01*
X27751928Y-16190000D01*
X27751928Y-17753270D01*
X27686475Y-17818723D01*
X27685000Y-17475750D01*
X27526250Y-17317000D01*
X26577000Y-17317000D01*
X26577000Y-18666250D01*
X26707974Y-18797224D01*
X21500199Y-24005000D01*
X19261969Y-24005000D01*
X19251073Y-23978695D01*
X19069406Y-23706812D01*
X18838188Y-23475594D01*
X18566305Y-23293927D01*
X18264204Y-23168793D01*
X17943496Y-23105000D01*
X17616504Y-23105000D01*
X17295796Y-23168793D01*
X16993695Y-23293927D01*
X16721812Y-23475594D01*
X16490594Y-23706812D01*
X16308927Y-23978695D01*
X16183793Y-24280796D01*
X16120000Y-24601504D01*
X16120000Y-24928496D01*
X16183793Y-25249204D01*
X16308927Y-25551305D01*
X16490594Y-25823188D01*
X16721812Y-26054406D01*
X16993695Y-26236073D01*
X17295796Y-26361207D01*
X17616504Y-26425000D01*
X17943496Y-26425000D01*
X18264204Y-26361207D01*
X18566305Y-26236073D01*
X18838188Y-26054406D01*
X19069406Y-25823188D01*
X19251073Y-25551305D01*
X19261969Y-25525000D01*
X21777678Y-25525000D01*
X21815000Y-25528676D01*
X21852322Y-25525000D01*
X21852333Y-25525000D01*
X21963986Y-25514003D01*
X22107247Y-25470546D01*
X22239276Y-25399974D01*
X22355001Y-25305001D01*
X22378804Y-25275997D01*
X28826730Y-18828072D01*
X29590000Y-18828072D01*
X29714482Y-18815812D01*
X29834180Y-18779502D01*
X29944494Y-18720537D01*
X30041185Y-18641185D01*
X30120537Y-18544494D01*
X30179502Y-18434180D01*
X30215812Y-18314482D01*
X30228072Y-18190000D01*
X30291928Y-18190000D01*
X30304188Y-18314482D01*
X30340498Y-18434180D01*
X30399463Y-18544494D01*
X30478815Y-18641185D01*
X30575506Y-18720537D01*
X30685820Y-18779502D01*
X30805518Y-18815812D01*
X30930000Y-18828072D01*
X31244250Y-18825000D01*
X31403000Y-18666250D01*
X31403000Y-17317000D01*
X30453750Y-17317000D01*
X30295000Y-17475750D01*
X30291928Y-18190000D01*
X30228072Y-18190000D01*
X30228072Y-16190000D01*
X30217703Y-16084722D01*
X30289534Y-16070434D01*
X30304588Y-16064198D01*
X30304188Y-16065518D01*
X30291928Y-16190000D01*
X30295000Y-16904250D01*
X30453750Y-17063000D01*
X31403000Y-17063000D01*
X31403000Y-17043000D01*
X31657000Y-17043000D01*
X31657000Y-17063000D01*
X31677000Y-17063000D01*
X31677000Y-17317000D01*
X31657000Y-17317000D01*
X31657000Y-18666250D01*
X31815750Y-18825000D01*
X32130000Y-18828072D01*
X32131175Y-18827956D01*
X21663579Y-29295554D01*
X21631709Y-29321709D01*
X21530528Y-29445000D01*
X21527364Y-29448855D01*
X21449828Y-29593914D01*
X21402082Y-29751312D01*
X21385960Y-29915000D01*
X21390000Y-29956019D01*
X21390001Y-33626737D01*
X21390000Y-33626747D01*
X21390000Y-33650030D01*
X21253507Y-33741232D01*
X21041232Y-33953507D01*
X20955000Y-34082562D01*
X20868768Y-33953507D01*
X20656493Y-33741232D01*
X20406885Y-33574449D01*
X20129534Y-33459566D01*
X19835101Y-33401000D01*
X19534899Y-33401000D01*
X19240466Y-33459566D01*
X18963115Y-33574449D01*
X18713507Y-33741232D01*
X18501232Y-33953507D01*
X18364757Y-34157756D01*
X18415000Y-33905168D01*
X18415000Y-33404832D01*
X18317389Y-32914109D01*
X18125919Y-32451859D01*
X17847947Y-32035844D01*
X17494156Y-31682053D01*
X17078141Y-31404081D01*
X16615891Y-31212611D01*
X16125168Y-31115000D01*
X15624832Y-31115000D01*
X15134109Y-31212611D01*
X14671859Y-31404081D01*
X14255844Y-31682053D01*
X13995000Y-31942897D01*
X13995000Y-28549016D01*
X14118065Y-28672081D01*
X14406327Y-28864692D01*
X14726627Y-28997364D01*
X15066655Y-29065000D01*
X15413345Y-29065000D01*
X15753373Y-28997364D01*
X16073673Y-28864692D01*
X16361935Y-28672081D01*
X16607081Y-28426935D01*
X16799692Y-28138673D01*
X16932364Y-27818373D01*
X17000000Y-27478345D01*
X17000000Y-27131655D01*
X18560000Y-27131655D01*
X18560000Y-27478345D01*
X18627636Y-27818373D01*
X18760308Y-28138673D01*
X18952919Y-28426935D01*
X19198065Y-28672081D01*
X19486327Y-28864692D01*
X19806627Y-28997364D01*
X20146655Y-29065000D01*
X20493345Y-29065000D01*
X20833373Y-28997364D01*
X21153673Y-28864692D01*
X21441935Y-28672081D01*
X21687081Y-28426935D01*
X21879692Y-28138673D01*
X22012364Y-27818373D01*
X22080000Y-27478345D01*
X22080000Y-27131655D01*
X22012364Y-26791627D01*
X21879692Y-26471327D01*
X21687081Y-26183065D01*
X21441935Y-25937919D01*
X21153673Y-25745308D01*
X20833373Y-25612636D01*
X20493345Y-25545000D01*
X20146655Y-25545000D01*
X19806627Y-25612636D01*
X19486327Y-25745308D01*
X19198065Y-25937919D01*
X18952919Y-26183065D01*
X18760308Y-26471327D01*
X18627636Y-26791627D01*
X18560000Y-27131655D01*
X17000000Y-27131655D01*
X16932364Y-26791627D01*
X16799692Y-26471327D01*
X16607081Y-26183065D01*
X16361935Y-25937919D01*
X16073673Y-25745308D01*
X15753373Y-25612636D01*
X15413345Y-25545000D01*
X15066655Y-25545000D01*
X14726627Y-25612636D01*
X14406327Y-25745308D01*
X14118065Y-25937919D01*
X13995000Y-26060984D01*
X13995000Y-23469016D01*
X14118065Y-23592081D01*
X14406327Y-23784692D01*
X14726627Y-23917364D01*
X15066655Y-23985000D01*
X15413345Y-23985000D01*
X15753373Y-23917364D01*
X16073673Y-23784692D01*
X16361935Y-23592081D01*
X16607081Y-23346935D01*
X16799692Y-23058673D01*
X16932364Y-22738373D01*
X17000000Y-22398345D01*
X17000000Y-22051655D01*
X18560000Y-22051655D01*
X18560000Y-22398345D01*
X18627636Y-22738373D01*
X18760308Y-23058673D01*
X18952919Y-23346935D01*
X19198065Y-23592081D01*
X19486327Y-23784692D01*
X19806627Y-23917364D01*
X20146655Y-23985000D01*
X20493345Y-23985000D01*
X20833373Y-23917364D01*
X21153673Y-23784692D01*
X21441935Y-23592081D01*
X21687081Y-23346935D01*
X21879692Y-23058673D01*
X22012364Y-22738373D01*
X22080000Y-22398345D01*
X22080000Y-22051655D01*
X22012364Y-21711627D01*
X21879692Y-21391327D01*
X21687081Y-21103065D01*
X21441935Y-20857919D01*
X21153673Y-20665308D01*
X20833373Y-20532636D01*
X20493345Y-20465000D01*
X20146655Y-20465000D01*
X19806627Y-20532636D01*
X19486327Y-20665308D01*
X19198065Y-20857919D01*
X18952919Y-21103065D01*
X18760308Y-21391327D01*
X18627636Y-21711627D01*
X18560000Y-22051655D01*
X17000000Y-22051655D01*
X16932364Y-21711627D01*
X16799692Y-21391327D01*
X16607081Y-21103065D01*
X16361935Y-20857919D01*
X16073673Y-20665308D01*
X15753373Y-20532636D01*
X15413345Y-20465000D01*
X15066655Y-20465000D01*
X14726627Y-20532636D01*
X14406327Y-20665308D01*
X14118065Y-20857919D01*
X13995000Y-20980984D01*
X13995000Y-17587103D01*
X14255844Y-17847947D01*
X14671859Y-18125919D01*
X15134109Y-18317389D01*
X15624832Y-18415000D01*
X16125168Y-18415000D01*
X16615891Y-18317389D01*
X16923435Y-18190000D01*
X25211928Y-18190000D01*
X25224188Y-18314482D01*
X25260498Y-18434180D01*
X25319463Y-18544494D01*
X25398815Y-18641185D01*
X25495506Y-18720537D01*
X25605820Y-18779502D01*
X25725518Y-18815812D01*
X25850000Y-18828072D01*
X26164250Y-18825000D01*
X26323000Y-18666250D01*
X26323000Y-17317000D01*
X25373750Y-17317000D01*
X25215000Y-17475750D01*
X25211928Y-18190000D01*
X16923435Y-18190000D01*
X17078141Y-18125919D01*
X17494156Y-17847947D01*
X17847947Y-17494156D01*
X18125919Y-17078141D01*
X18317389Y-16615891D01*
X18402104Y-16190000D01*
X25211928Y-16190000D01*
X25215000Y-16904250D01*
X25373750Y-17063000D01*
X26323000Y-17063000D01*
X26323000Y-15713750D01*
X26577000Y-15713750D01*
X26577000Y-17063000D01*
X27526250Y-17063000D01*
X27685000Y-16904250D01*
X27688072Y-16190000D01*
X27675812Y-16065518D01*
X27639502Y-15945820D01*
X27580537Y-15835506D01*
X27501185Y-15738815D01*
X27404494Y-15659463D01*
X27294180Y-15600498D01*
X27174482Y-15564188D01*
X27050000Y-15551928D01*
X26735750Y-15555000D01*
X26577000Y-15713750D01*
X26323000Y-15713750D01*
X26164250Y-15555000D01*
X25850000Y-15551928D01*
X25725518Y-15564188D01*
X25605820Y-15600498D01*
X25495506Y-15659463D01*
X25398815Y-15738815D01*
X25319463Y-15835506D01*
X25260498Y-15945820D01*
X25224188Y-16065518D01*
X25211928Y-16190000D01*
X18402104Y-16190000D01*
X18415000Y-16125168D01*
X18415000Y-15624832D01*
X18317389Y-15134109D01*
X18125919Y-14671859D01*
X17847947Y-14255844D01*
X17587103Y-13995000D01*
X28448105Y-13995000D01*
X28379566Y-14160466D01*
G36*
X26132786Y-33932394D02*
G01*
X26248767Y-34048375D01*
X26054417Y-34111622D01*
X25948768Y-33953507D01*
X25883301Y-33888040D01*
X26180041Y-33885139D01*
X26132786Y-33932394D01*
X26132786Y-33932394D01*
G37*
X26132786Y-33932394D02*
X26248767Y-34048375D01*
X26054417Y-34111622D01*
X25948768Y-33953507D01*
X25883301Y-33888040D01*
X26180041Y-33885139D01*
X26132786Y-33932394D01*
G36*
X35177000Y-17063000D02*
G01*
X35197000Y-17063000D01*
X35197000Y-17317000D01*
X35177000Y-17317000D01*
X35177000Y-18666250D01*
X35335750Y-18825000D01*
X35550000Y-18828072D01*
X35674482Y-18815812D01*
X35787461Y-18781540D01*
X35800927Y-18918264D01*
X35795000Y-18948061D01*
X35795000Y-19151939D01*
X35834774Y-19351898D01*
X35912795Y-19540256D01*
X36026063Y-19709774D01*
X36170226Y-19853937D01*
X36339744Y-19967205D01*
X36528102Y-20045226D01*
X36728061Y-20085000D01*
X36931939Y-20085000D01*
X37131898Y-20045226D01*
X37290000Y-19979737D01*
X37290000Y-20232677D01*
X37286324Y-20270000D01*
X37290000Y-20307322D01*
X37290000Y-20307332D01*
X37300997Y-20418985D01*
X37335472Y-20532636D01*
X37344454Y-20562246D01*
X37415026Y-20694276D01*
X37451720Y-20738987D01*
X37509999Y-20810001D01*
X37539003Y-20833804D01*
X38610001Y-21904803D01*
X38610000Y-24696289D01*
X38566063Y-24740226D01*
X38452795Y-24909744D01*
X38374774Y-25098102D01*
X38335000Y-25298061D01*
X38335000Y-25501939D01*
X38374774Y-25701898D01*
X38452795Y-25890256D01*
X38566063Y-26059774D01*
X38710226Y-26203937D01*
X38879744Y-26317205D01*
X39068102Y-26395226D01*
X39268061Y-26435000D01*
X39471939Y-26435000D01*
X39671898Y-26395226D01*
X39860256Y-26317205D01*
X40029774Y-26203937D01*
X40173937Y-26059774D01*
X40287205Y-25890256D01*
X40365226Y-25701898D01*
X40405000Y-25501939D01*
X40405000Y-25298061D01*
X40365226Y-25098102D01*
X40287205Y-24909744D01*
X40173937Y-24740226D01*
X40130000Y-24696289D01*
X40130000Y-22494004D01*
X40149756Y-22507205D01*
X40338114Y-22585226D01*
X40538073Y-22625000D01*
X40741951Y-22625000D01*
X40941910Y-22585226D01*
X41130268Y-22507205D01*
X41232504Y-22438893D01*
X41334740Y-22507205D01*
X41523098Y-22585226D01*
X41723057Y-22625000D01*
X41899378Y-22625000D01*
X41915026Y-22654276D01*
X41986201Y-22741002D01*
X42010000Y-22770001D01*
X42038998Y-22793799D01*
X42145000Y-22899801D01*
X42145000Y-22961939D01*
X42184774Y-23161898D01*
X42262795Y-23350256D01*
X42376063Y-23519774D01*
X42520226Y-23663937D01*
X42689744Y-23777205D01*
X42878102Y-23855226D01*
X43078061Y-23895000D01*
X43281939Y-23895000D01*
X43290000Y-23893397D01*
X43290000Y-25485198D01*
X43140198Y-25635000D01*
X43078061Y-25635000D01*
X42878102Y-25674774D01*
X42689744Y-25752795D01*
X42520226Y-25866063D01*
X42376063Y-26010226D01*
X42262795Y-26179744D01*
X42184774Y-26368102D01*
X42145000Y-26568061D01*
X42145000Y-26771939D01*
X42184774Y-26971898D01*
X42262795Y-27160256D01*
X42376063Y-27329774D01*
X42520226Y-27473937D01*
X42580192Y-27514005D01*
X39494003Y-30600194D01*
X39464999Y-30623997D01*
X39410813Y-30690024D01*
X39370026Y-30739722D01*
X39329822Y-30814938D01*
X39299454Y-30871752D01*
X39255997Y-31015013D01*
X39245000Y-31126666D01*
X39245000Y-31126676D01*
X39241324Y-31163998D01*
X39245000Y-31201321D01*
X39245001Y-33599916D01*
X39033507Y-33741232D01*
X38821232Y-33953507D01*
X38735000Y-34082562D01*
X38648768Y-33953507D01*
X38436493Y-33741232D01*
X38186885Y-33574449D01*
X37909534Y-33459566D01*
X37615101Y-33401000D01*
X37314899Y-33401000D01*
X37020466Y-33459566D01*
X36743115Y-33574449D01*
X36493507Y-33741232D01*
X36281232Y-33953507D01*
X36195000Y-34082562D01*
X36108768Y-33953507D01*
X35896493Y-33741232D01*
X35646885Y-33574449D01*
X35369534Y-33459566D01*
X35238960Y-33433593D01*
X35285226Y-33321898D01*
X35325000Y-33121939D01*
X35325000Y-32918061D01*
X35285226Y-32718102D01*
X35207205Y-32529744D01*
X35093937Y-32360226D01*
X34949774Y-32216063D01*
X34780256Y-32102795D01*
X34591898Y-32024774D01*
X34391939Y-31985000D01*
X34188061Y-31985000D01*
X33988102Y-32024774D01*
X33799744Y-32102795D01*
X33630226Y-32216063D01*
X33486063Y-32360226D01*
X33372795Y-32529744D01*
X33294774Y-32718102D01*
X33255000Y-32918061D01*
X33255000Y-32950999D01*
X32796786Y-32950999D01*
X32795000Y-32535750D01*
X32636250Y-32377000D01*
X31687000Y-32377000D01*
X31687000Y-32397000D01*
X31433000Y-32397000D01*
X31433000Y-32377000D01*
X30483750Y-32377000D01*
X30325000Y-32535750D01*
X30321928Y-33250000D01*
X30332980Y-33362219D01*
X30244576Y-33450623D01*
X30223959Y-33446522D01*
X30245812Y-33374482D01*
X30258072Y-33250000D01*
X30255000Y-32535750D01*
X30096250Y-32377000D01*
X29147000Y-32377000D01*
X29147000Y-32397000D01*
X28893000Y-32397000D01*
X28893000Y-32377000D01*
X27943750Y-32377000D01*
X27785000Y-32535750D01*
X27781928Y-33250000D01*
X27794188Y-33374482D01*
X27827941Y-33485750D01*
X27683299Y-33448698D01*
X27705812Y-33374482D01*
X27718072Y-33250000D01*
X27715000Y-32535750D01*
X27556250Y-32377000D01*
X26607000Y-32377000D01*
X26607000Y-32397000D01*
X26353000Y-32397000D01*
X26353000Y-32377000D01*
X25403750Y-32377000D01*
X25245000Y-32535750D01*
X25241928Y-33250000D01*
X25254188Y-33374482D01*
X25290124Y-33492948D01*
X25209534Y-33459566D01*
X24915101Y-33401000D01*
X24614899Y-33401000D01*
X24320466Y-33459566D01*
X24043115Y-33574449D01*
X23793507Y-33741232D01*
X23581232Y-33953507D01*
X23495000Y-34082562D01*
X23408768Y-33953507D01*
X23196493Y-33741232D01*
X23060000Y-33650030D01*
X23060000Y-31250000D01*
X25241928Y-31250000D01*
X25245000Y-31964250D01*
X25403750Y-32123000D01*
X26353000Y-32123000D01*
X26353000Y-30773750D01*
X26607000Y-30773750D01*
X26607000Y-32123000D01*
X27556250Y-32123000D01*
X27715000Y-31964250D01*
X27718072Y-31250000D01*
X27781928Y-31250000D01*
X27785000Y-31964250D01*
X27943750Y-32123000D01*
X28893000Y-32123000D01*
X28893000Y-30773750D01*
X29147000Y-30773750D01*
X29147000Y-32123000D01*
X30096250Y-32123000D01*
X30255000Y-31964250D01*
X30258072Y-31250000D01*
X30321928Y-31250000D01*
X30325000Y-31964250D01*
X30483750Y-32123000D01*
X31433000Y-32123000D01*
X31433000Y-30773750D01*
X31687000Y-30773750D01*
X31687000Y-32123000D01*
X32636250Y-32123000D01*
X32795000Y-31964250D01*
X32798072Y-31250000D01*
X32785812Y-31125518D01*
X32749502Y-31005820D01*
X32690537Y-30895506D01*
X32611185Y-30798815D01*
X32514494Y-30719463D01*
X32404180Y-30660498D01*
X32284482Y-30624188D01*
X32160000Y-30611928D01*
X31845750Y-30615000D01*
X31687000Y-30773750D01*
X31433000Y-30773750D01*
X31274250Y-30615000D01*
X30960000Y-30611928D01*
X30835518Y-30624188D01*
X30715820Y-30660498D01*
X30605506Y-30719463D01*
X30508815Y-30798815D01*
X30429463Y-30895506D01*
X30370498Y-31005820D01*
X30334188Y-31125518D01*
X30321928Y-31250000D01*
X30258072Y-31250000D01*
X30245812Y-31125518D01*
X30209502Y-31005820D01*
X30150537Y-30895506D01*
X30071185Y-30798815D01*
X29974494Y-30719463D01*
X29864180Y-30660498D01*
X29744482Y-30624188D01*
X29620000Y-30611928D01*
X29305750Y-30615000D01*
X29147000Y-30773750D01*
X28893000Y-30773750D01*
X28734250Y-30615000D01*
X28420000Y-30611928D01*
X28295518Y-30624188D01*
X28175820Y-30660498D01*
X28065506Y-30719463D01*
X27968815Y-30798815D01*
X27889463Y-30895506D01*
X27830498Y-31005820D01*
X27794188Y-31125518D01*
X27781928Y-31250000D01*
X27718072Y-31250000D01*
X27705812Y-31125518D01*
X27669502Y-31005820D01*
X27610537Y-30895506D01*
X27531185Y-30798815D01*
X27434494Y-30719463D01*
X27324180Y-30660498D01*
X27204482Y-30624188D01*
X27080000Y-30611928D01*
X26765750Y-30615000D01*
X26607000Y-30773750D01*
X26353000Y-30773750D01*
X26194250Y-30615000D01*
X25880000Y-30611928D01*
X25755518Y-30624188D01*
X25635820Y-30660498D01*
X25525506Y-30719463D01*
X25428815Y-30798815D01*
X25349463Y-30895506D01*
X25290498Y-31005820D01*
X25254188Y-31125518D01*
X25241928Y-31250000D01*
X23060000Y-31250000D01*
X23060000Y-30260867D01*
X33292789Y-20028079D01*
X33255000Y-20218061D01*
X33255000Y-20421939D01*
X33294774Y-20621898D01*
X33372795Y-20810256D01*
X33486063Y-20979774D01*
X33530001Y-21023712D01*
X33530000Y-22156289D01*
X33486063Y-22200226D01*
X33372795Y-22369744D01*
X33294774Y-22558102D01*
X33255000Y-22758061D01*
X33255000Y-22961939D01*
X33294774Y-23161898D01*
X33372795Y-23350256D01*
X33486063Y-23519774D01*
X33630226Y-23663937D01*
X33799744Y-23777205D01*
X33988102Y-23855226D01*
X34188061Y-23895000D01*
X34391939Y-23895000D01*
X34591898Y-23855226D01*
X34780256Y-23777205D01*
X34949774Y-23663937D01*
X35093937Y-23519774D01*
X35207205Y-23350256D01*
X35285226Y-23161898D01*
X35325000Y-22961939D01*
X35325000Y-22758061D01*
X35285226Y-22558102D01*
X35207205Y-22369744D01*
X35093937Y-22200226D01*
X35050000Y-22156289D01*
X35050000Y-21023711D01*
X35093937Y-20979774D01*
X35207205Y-20810256D01*
X35285226Y-20621898D01*
X35325000Y-20421939D01*
X35325000Y-20218061D01*
X35285226Y-20018102D01*
X35207205Y-19829744D01*
X35093937Y-19660226D01*
X34949774Y-19516063D01*
X34780256Y-19402795D01*
X34591898Y-19324774D01*
X34391939Y-19285000D01*
X34188061Y-19285000D01*
X33998080Y-19322789D01*
X34111432Y-19209437D01*
X34143291Y-19183291D01*
X34194785Y-19120546D01*
X34247636Y-19056146D01*
X34325172Y-18911087D01*
X34338336Y-18867690D01*
X34360094Y-18795966D01*
X34425518Y-18815812D01*
X34550000Y-18828072D01*
X34764250Y-18825000D01*
X34923000Y-18666250D01*
X34923000Y-17317000D01*
X34903000Y-17317000D01*
X34903000Y-17063000D01*
X34923000Y-17063000D01*
X34923000Y-17043000D01*
X35177000Y-17043000D01*
X35177000Y-17063000D01*
X35177000Y-17063000D01*
G37*
X35177000Y-17063000D02*
X35197000Y-17063000D01*
X35197000Y-17317000D01*
X35177000Y-17317000D01*
X35177000Y-18666250D01*
X35335750Y-18825000D01*
X35550000Y-18828072D01*
X35674482Y-18815812D01*
X35787461Y-18781540D01*
X35800927Y-18918264D01*
X35795000Y-18948061D01*
X35795000Y-19151939D01*
X35834774Y-19351898D01*
X35912795Y-19540256D01*
X36026063Y-19709774D01*
X36170226Y-19853937D01*
X36339744Y-19967205D01*
X36528102Y-20045226D01*
X36728061Y-20085000D01*
X36931939Y-20085000D01*
X37131898Y-20045226D01*
X37290000Y-19979737D01*
X37290000Y-20232677D01*
X37286324Y-20270000D01*
X37290000Y-20307322D01*
X37290000Y-20307332D01*
X37300997Y-20418985D01*
X37335472Y-20532636D01*
X37344454Y-20562246D01*
X37415026Y-20694276D01*
X37451720Y-20738987D01*
X37509999Y-20810001D01*
X37539003Y-20833804D01*
X38610001Y-21904803D01*
X38610000Y-24696289D01*
X38566063Y-24740226D01*
X38452795Y-24909744D01*
X38374774Y-25098102D01*
X38335000Y-25298061D01*
X38335000Y-25501939D01*
X38374774Y-25701898D01*
X38452795Y-25890256D01*
X38566063Y-26059774D01*
X38710226Y-26203937D01*
X38879744Y-26317205D01*
X39068102Y-26395226D01*
X39268061Y-26435000D01*
X39471939Y-26435000D01*
X39671898Y-26395226D01*
X39860256Y-26317205D01*
X40029774Y-26203937D01*
X40173937Y-26059774D01*
X40287205Y-25890256D01*
X40365226Y-25701898D01*
X40405000Y-25501939D01*
X40405000Y-25298061D01*
X40365226Y-25098102D01*
X40287205Y-24909744D01*
X40173937Y-24740226D01*
X40130000Y-24696289D01*
X40130000Y-22494004D01*
X40149756Y-22507205D01*
X40338114Y-22585226D01*
X40538073Y-22625000D01*
X40741951Y-22625000D01*
X40941910Y-22585226D01*
X41130268Y-22507205D01*
X41232504Y-22438893D01*
X41334740Y-22507205D01*
X41523098Y-22585226D01*
X41723057Y-22625000D01*
X41899378Y-22625000D01*
X41915026Y-22654276D01*
X41986201Y-22741002D01*
X42010000Y-22770001D01*
X42038998Y-22793799D01*
X42145000Y-22899801D01*
X42145000Y-22961939D01*
X42184774Y-23161898D01*
X42262795Y-23350256D01*
X42376063Y-23519774D01*
X42520226Y-23663937D01*
X42689744Y-23777205D01*
X42878102Y-23855226D01*
X43078061Y-23895000D01*
X43281939Y-23895000D01*
X43290000Y-23893397D01*
X43290000Y-25485198D01*
X43140198Y-25635000D01*
X43078061Y-25635000D01*
X42878102Y-25674774D01*
X42689744Y-25752795D01*
X42520226Y-25866063D01*
X42376063Y-26010226D01*
X42262795Y-26179744D01*
X42184774Y-26368102D01*
X42145000Y-26568061D01*
X42145000Y-26771939D01*
X42184774Y-26971898D01*
X42262795Y-27160256D01*
X42376063Y-27329774D01*
X42520226Y-27473937D01*
X42580192Y-27514005D01*
X39494003Y-30600194D01*
X39464999Y-30623997D01*
X39410813Y-30690024D01*
X39370026Y-30739722D01*
X39329822Y-30814938D01*
X39299454Y-30871752D01*
X39255997Y-31015013D01*
X39245000Y-31126666D01*
X39245000Y-31126676D01*
X39241324Y-31163998D01*
X39245000Y-31201321D01*
X39245001Y-33599916D01*
X39033507Y-33741232D01*
X38821232Y-33953507D01*
X38735000Y-34082562D01*
X38648768Y-33953507D01*
X38436493Y-33741232D01*
X38186885Y-33574449D01*
X37909534Y-33459566D01*
X37615101Y-33401000D01*
X37314899Y-33401000D01*
X37020466Y-33459566D01*
X36743115Y-33574449D01*
X36493507Y-33741232D01*
X36281232Y-33953507D01*
X36195000Y-34082562D01*
X36108768Y-33953507D01*
X35896493Y-33741232D01*
X35646885Y-33574449D01*
X35369534Y-33459566D01*
X35238960Y-33433593D01*
X35285226Y-33321898D01*
X35325000Y-33121939D01*
X35325000Y-32918061D01*
X35285226Y-32718102D01*
X35207205Y-32529744D01*
X35093937Y-32360226D01*
X34949774Y-32216063D01*
X34780256Y-32102795D01*
X34591898Y-32024774D01*
X34391939Y-31985000D01*
X34188061Y-31985000D01*
X33988102Y-32024774D01*
X33799744Y-32102795D01*
X33630226Y-32216063D01*
X33486063Y-32360226D01*
X33372795Y-32529744D01*
X33294774Y-32718102D01*
X33255000Y-32918061D01*
X33255000Y-32950999D01*
X32796786Y-32950999D01*
X32795000Y-32535750D01*
X32636250Y-32377000D01*
X31687000Y-32377000D01*
X31687000Y-32397000D01*
X31433000Y-32397000D01*
X31433000Y-32377000D01*
X30483750Y-32377000D01*
X30325000Y-32535750D01*
X30321928Y-33250000D01*
X30332980Y-33362219D01*
X30244576Y-33450623D01*
X30223959Y-33446522D01*
X30245812Y-33374482D01*
X30258072Y-33250000D01*
X30255000Y-32535750D01*
X30096250Y-32377000D01*
X29147000Y-32377000D01*
X29147000Y-32397000D01*
X28893000Y-32397000D01*
X28893000Y-32377000D01*
X27943750Y-32377000D01*
X27785000Y-32535750D01*
X27781928Y-33250000D01*
X27794188Y-33374482D01*
X27827941Y-33485750D01*
X27683299Y-33448698D01*
X27705812Y-33374482D01*
X27718072Y-33250000D01*
X27715000Y-32535750D01*
X27556250Y-32377000D01*
X26607000Y-32377000D01*
X26607000Y-32397000D01*
X26353000Y-32397000D01*
X26353000Y-32377000D01*
X25403750Y-32377000D01*
X25245000Y-32535750D01*
X25241928Y-33250000D01*
X25254188Y-33374482D01*
X25290124Y-33492948D01*
X25209534Y-33459566D01*
X24915101Y-33401000D01*
X24614899Y-33401000D01*
X24320466Y-33459566D01*
X24043115Y-33574449D01*
X23793507Y-33741232D01*
X23581232Y-33953507D01*
X23495000Y-34082562D01*
X23408768Y-33953507D01*
X23196493Y-33741232D01*
X23060000Y-33650030D01*
X23060000Y-31250000D01*
X25241928Y-31250000D01*
X25245000Y-31964250D01*
X25403750Y-32123000D01*
X26353000Y-32123000D01*
X26353000Y-30773750D01*
X26607000Y-30773750D01*
X26607000Y-32123000D01*
X27556250Y-32123000D01*
X27715000Y-31964250D01*
X27718072Y-31250000D01*
X27781928Y-31250000D01*
X27785000Y-31964250D01*
X27943750Y-32123000D01*
X28893000Y-32123000D01*
X28893000Y-30773750D01*
X29147000Y-30773750D01*
X29147000Y-32123000D01*
X30096250Y-32123000D01*
X30255000Y-31964250D01*
X30258072Y-31250000D01*
X30321928Y-31250000D01*
X30325000Y-31964250D01*
X30483750Y-32123000D01*
X31433000Y-32123000D01*
X31433000Y-30773750D01*
X31687000Y-30773750D01*
X31687000Y-32123000D01*
X32636250Y-32123000D01*
X32795000Y-31964250D01*
X32798072Y-31250000D01*
X32785812Y-31125518D01*
X32749502Y-31005820D01*
X32690537Y-30895506D01*
X32611185Y-30798815D01*
X32514494Y-30719463D01*
X32404180Y-30660498D01*
X32284482Y-30624188D01*
X32160000Y-30611928D01*
X31845750Y-30615000D01*
X31687000Y-30773750D01*
X31433000Y-30773750D01*
X31274250Y-30615000D01*
X30960000Y-30611928D01*
X30835518Y-30624188D01*
X30715820Y-30660498D01*
X30605506Y-30719463D01*
X30508815Y-30798815D01*
X30429463Y-30895506D01*
X30370498Y-31005820D01*
X30334188Y-31125518D01*
X30321928Y-31250000D01*
X30258072Y-31250000D01*
X30245812Y-31125518D01*
X30209502Y-31005820D01*
X30150537Y-30895506D01*
X30071185Y-30798815D01*
X29974494Y-30719463D01*
X29864180Y-30660498D01*
X29744482Y-30624188D01*
X29620000Y-30611928D01*
X29305750Y-30615000D01*
X29147000Y-30773750D01*
X28893000Y-30773750D01*
X28734250Y-30615000D01*
X28420000Y-30611928D01*
X28295518Y-30624188D01*
X28175820Y-30660498D01*
X28065506Y-30719463D01*
X27968815Y-30798815D01*
X27889463Y-30895506D01*
X27830498Y-31005820D01*
X27794188Y-31125518D01*
X27781928Y-31250000D01*
X27718072Y-31250000D01*
X27705812Y-31125518D01*
X27669502Y-31005820D01*
X27610537Y-30895506D01*
X27531185Y-30798815D01*
X27434494Y-30719463D01*
X27324180Y-30660498D01*
X27204482Y-30624188D01*
X27080000Y-30611928D01*
X26765750Y-30615000D01*
X26607000Y-30773750D01*
X26353000Y-30773750D01*
X26194250Y-30615000D01*
X25880000Y-30611928D01*
X25755518Y-30624188D01*
X25635820Y-30660498D01*
X25525506Y-30719463D01*
X25428815Y-30798815D01*
X25349463Y-30895506D01*
X25290498Y-31005820D01*
X25254188Y-31125518D01*
X25241928Y-31250000D01*
X23060000Y-31250000D01*
X23060000Y-30260867D01*
X33292789Y-20028079D01*
X33255000Y-20218061D01*
X33255000Y-20421939D01*
X33294774Y-20621898D01*
X33372795Y-20810256D01*
X33486063Y-20979774D01*
X33530001Y-21023712D01*
X33530000Y-22156289D01*
X33486063Y-22200226D01*
X33372795Y-22369744D01*
X33294774Y-22558102D01*
X33255000Y-22758061D01*
X33255000Y-22961939D01*
X33294774Y-23161898D01*
X33372795Y-23350256D01*
X33486063Y-23519774D01*
X33630226Y-23663937D01*
X33799744Y-23777205D01*
X33988102Y-23855226D01*
X34188061Y-23895000D01*
X34391939Y-23895000D01*
X34591898Y-23855226D01*
X34780256Y-23777205D01*
X34949774Y-23663937D01*
X35093937Y-23519774D01*
X35207205Y-23350256D01*
X35285226Y-23161898D01*
X35325000Y-22961939D01*
X35325000Y-22758061D01*
X35285226Y-22558102D01*
X35207205Y-22369744D01*
X35093937Y-22200226D01*
X35050000Y-22156289D01*
X35050000Y-21023711D01*
X35093937Y-20979774D01*
X35207205Y-20810256D01*
X35285226Y-20621898D01*
X35325000Y-20421939D01*
X35325000Y-20218061D01*
X35285226Y-20018102D01*
X35207205Y-19829744D01*
X35093937Y-19660226D01*
X34949774Y-19516063D01*
X34780256Y-19402795D01*
X34591898Y-19324774D01*
X34391939Y-19285000D01*
X34188061Y-19285000D01*
X33998080Y-19322789D01*
X34111432Y-19209437D01*
X34143291Y-19183291D01*
X34194785Y-19120546D01*
X34247636Y-19056146D01*
X34325172Y-18911087D01*
X34338336Y-18867690D01*
X34360094Y-18795966D01*
X34425518Y-18815812D01*
X34550000Y-18828072D01*
X34764250Y-18825000D01*
X34923000Y-18666250D01*
X34923000Y-17317000D01*
X34903000Y-17317000D01*
X34903000Y-17063000D01*
X34923000Y-17063000D01*
X34923000Y-17043000D01*
X35177000Y-17043000D01*
X35177000Y-17063000D01*
G36*
X44802807Y-28719744D02*
G01*
X44724786Y-28908102D01*
X44685012Y-29108061D01*
X44685012Y-29311939D01*
X44724786Y-29511898D01*
X44802807Y-29700256D01*
X44899516Y-29844991D01*
X44802795Y-29989744D01*
X44724774Y-30178102D01*
X44685000Y-30378061D01*
X44685000Y-30581939D01*
X44697246Y-30643504D01*
X44567000Y-30773750D01*
X44567000Y-32123000D01*
X45516250Y-32123000D01*
X45675000Y-31964250D01*
X45676932Y-31515000D01*
X45743068Y-31515000D01*
X45745000Y-31964250D01*
X45903750Y-32123000D01*
X46853000Y-32123000D01*
X46853000Y-32103000D01*
X47107000Y-32103000D01*
X47107000Y-32123000D01*
X47127000Y-32123000D01*
X47127000Y-32377000D01*
X47107000Y-32377000D01*
X47107000Y-32397000D01*
X46853000Y-32397000D01*
X46853000Y-32377000D01*
X45903750Y-32377000D01*
X45745000Y-32535750D01*
X45742173Y-33193025D01*
X45677293Y-33257905D01*
X45678072Y-33250000D01*
X45675000Y-32535750D01*
X45516250Y-32377000D01*
X44567000Y-32377000D01*
X44567000Y-32397000D01*
X44313000Y-32397000D01*
X44313000Y-32377000D01*
X43363750Y-32377000D01*
X43205000Y-32535750D01*
X43201928Y-33250000D01*
X43214188Y-33374482D01*
X43250498Y-33494180D01*
X43308137Y-33602012D01*
X43266885Y-33574449D01*
X43086529Y-33499743D01*
X43089502Y-33494180D01*
X43125812Y-33374482D01*
X43138072Y-33250000D01*
X43135000Y-32535750D01*
X42976250Y-32377000D01*
X42027000Y-32377000D01*
X42027000Y-32397000D01*
X41773000Y-32397000D01*
X41773000Y-32377000D01*
X41753000Y-32377000D01*
X41753000Y-32123000D01*
X41773000Y-32123000D01*
X41773000Y-32103000D01*
X42027000Y-32103000D01*
X42027000Y-32123000D01*
X42976250Y-32123000D01*
X43135000Y-31964250D01*
X43138072Y-31250000D01*
X43201928Y-31250000D01*
X43205000Y-31964250D01*
X43363750Y-32123000D01*
X44313000Y-32123000D01*
X44313000Y-30773750D01*
X44154250Y-30615000D01*
X43840000Y-30611928D01*
X43715518Y-30624188D01*
X43595820Y-30660498D01*
X43485506Y-30719463D01*
X43388815Y-30798815D01*
X43309463Y-30895506D01*
X43250498Y-31005820D01*
X43214188Y-31125518D01*
X43201928Y-31250000D01*
X43138072Y-31250000D01*
X43125812Y-31125518D01*
X43089502Y-31005820D01*
X43030537Y-30895506D01*
X42951185Y-30798815D01*
X42854494Y-30719463D01*
X42744180Y-30660498D01*
X42624482Y-30624188D01*
X42500000Y-30611928D01*
X42427159Y-30612640D01*
X44339800Y-28700000D01*
X44815999Y-28700000D01*
X44802807Y-28719744D01*
X44802807Y-28719744D01*
G37*
X44802807Y-28719744D02*
X44724786Y-28908102D01*
X44685012Y-29108061D01*
X44685012Y-29311939D01*
X44724786Y-29511898D01*
X44802807Y-29700256D01*
X44899516Y-29844991D01*
X44802795Y-29989744D01*
X44724774Y-30178102D01*
X44685000Y-30378061D01*
X44685000Y-30581939D01*
X44697246Y-30643504D01*
X44567000Y-30773750D01*
X44567000Y-32123000D01*
X45516250Y-32123000D01*
X45675000Y-31964250D01*
X45676932Y-31515000D01*
X45743068Y-31515000D01*
X45745000Y-31964250D01*
X45903750Y-32123000D01*
X46853000Y-32123000D01*
X46853000Y-32103000D01*
X47107000Y-32103000D01*
X47107000Y-32123000D01*
X47127000Y-32123000D01*
X47127000Y-32377000D01*
X47107000Y-32377000D01*
X47107000Y-32397000D01*
X46853000Y-32397000D01*
X46853000Y-32377000D01*
X45903750Y-32377000D01*
X45745000Y-32535750D01*
X45742173Y-33193025D01*
X45677293Y-33257905D01*
X45678072Y-33250000D01*
X45675000Y-32535750D01*
X45516250Y-32377000D01*
X44567000Y-32377000D01*
X44567000Y-32397000D01*
X44313000Y-32397000D01*
X44313000Y-32377000D01*
X43363750Y-32377000D01*
X43205000Y-32535750D01*
X43201928Y-33250000D01*
X43214188Y-33374482D01*
X43250498Y-33494180D01*
X43308137Y-33602012D01*
X43266885Y-33574449D01*
X43086529Y-33499743D01*
X43089502Y-33494180D01*
X43125812Y-33374482D01*
X43138072Y-33250000D01*
X43135000Y-32535750D01*
X42976250Y-32377000D01*
X42027000Y-32377000D01*
X42027000Y-32397000D01*
X41773000Y-32397000D01*
X41773000Y-32377000D01*
X41753000Y-32377000D01*
X41753000Y-32123000D01*
X41773000Y-32123000D01*
X41773000Y-32103000D01*
X42027000Y-32103000D01*
X42027000Y-32123000D01*
X42976250Y-32123000D01*
X43135000Y-31964250D01*
X43138072Y-31250000D01*
X43201928Y-31250000D01*
X43205000Y-31964250D01*
X43363750Y-32123000D01*
X44313000Y-32123000D01*
X44313000Y-30773750D01*
X44154250Y-30615000D01*
X43840000Y-30611928D01*
X43715518Y-30624188D01*
X43595820Y-30660498D01*
X43485506Y-30719463D01*
X43388815Y-30798815D01*
X43309463Y-30895506D01*
X43250498Y-31005820D01*
X43214188Y-31125518D01*
X43201928Y-31250000D01*
X43138072Y-31250000D01*
X43125812Y-31125518D01*
X43089502Y-31005820D01*
X43030537Y-30895506D01*
X42951185Y-30798815D01*
X42854494Y-30719463D01*
X42744180Y-30660498D01*
X42624482Y-30624188D01*
X42500000Y-30611928D01*
X42427159Y-30612640D01*
X44339800Y-28700000D01*
X44815999Y-28700000D01*
X44802807Y-28719744D01*
M02*
