G04 #@! TF.GenerationSoftware,KiCad,Pcbnew,(5.1.0-0)*
G04 #@! TF.CreationDate,2019-05-27T18:32:18+02:00*
G04 #@! TF.ProjectId,huzzah-cc112x-shield,68757a7a-6168-42d6-9363-313132782d73,1*
G04 #@! TF.SameCoordinates,Original*
G04 #@! TF.FileFunction,Legend,Bot*
G04 #@! TF.FilePolarity,Positive*
%FSLAX46Y46*%
G04 Gerber Fmt 4.6, Leading zero omitted, Abs format (unit mm)*
G04 Created by KiCad (PCBNEW (5.1.0-0)) date 2019-05-27 18:32:18*
%MOMM*%
%LPD*%
G04 APERTURE LIST*
%ADD10C,0.150000*%
%ADD11C,0.120000*%
%ADD12C,0.010000*%
G04 APERTURE END LIST*
D10*
X24250476Y-28154285D02*
X24250476Y-27344761D01*
X24202857Y-27249523D01*
X24155238Y-27201904D01*
X24060000Y-27154285D01*
X23917142Y-27154285D01*
X23821904Y-27201904D01*
X24250476Y-27535238D02*
X24155238Y-27487619D01*
X23964761Y-27487619D01*
X23869523Y-27535238D01*
X23821904Y-27582857D01*
X23774285Y-27678095D01*
X23774285Y-27963809D01*
X23821904Y-28059047D01*
X23869523Y-28106666D01*
X23964761Y-28154285D01*
X24155238Y-28154285D01*
X24250476Y-28106666D01*
X24726666Y-27487619D02*
X24726666Y-28154285D01*
X24726666Y-28487619D02*
X24679047Y-28440000D01*
X24726666Y-28392380D01*
X24774285Y-28440000D01*
X24726666Y-28487619D01*
X24726666Y-28392380D01*
X25060000Y-28154285D02*
X25440952Y-28154285D01*
X25202857Y-28487619D02*
X25202857Y-27630476D01*
X25250476Y-27535238D01*
X25345714Y-27487619D01*
X25440952Y-27487619D01*
X25774285Y-27487619D02*
X25774285Y-28487619D01*
X26202857Y-27487619D02*
X26202857Y-28011428D01*
X26155238Y-28106666D01*
X26059999Y-28154285D01*
X25917142Y-28154285D01*
X25821904Y-28106666D01*
X25774285Y-28059047D01*
X27107619Y-28154285D02*
X27107619Y-27487619D01*
X26679047Y-28154285D02*
X26679047Y-27630476D01*
X26726666Y-27535238D01*
X26821904Y-27487619D01*
X26964761Y-27487619D01*
X27059999Y-27535238D01*
X27107619Y-27582857D01*
X27583809Y-27487619D02*
X27583809Y-28487619D01*
X27583809Y-28106666D02*
X27679047Y-28154285D01*
X27869523Y-28154285D01*
X27964761Y-28106666D01*
X28012380Y-28059047D01*
X28059999Y-27963809D01*
X28059999Y-27678095D01*
X28012380Y-27582857D01*
X27964761Y-27535238D01*
X27869523Y-27487619D01*
X27679047Y-27487619D01*
X27583809Y-27535238D01*
X28488571Y-27582857D02*
X28536190Y-27535238D01*
X28488571Y-27487619D01*
X28440952Y-27535238D01*
X28488571Y-27582857D01*
X28488571Y-27487619D01*
X29393333Y-27535238D02*
X29298095Y-27487619D01*
X29107619Y-27487619D01*
X29012380Y-27535238D01*
X28964761Y-27582857D01*
X28917142Y-27678095D01*
X28917142Y-27963809D01*
X28964761Y-28059047D01*
X29012380Y-28106666D01*
X29107619Y-28154285D01*
X29298095Y-28154285D01*
X29393333Y-28106666D01*
X29964761Y-27487619D02*
X29869523Y-27535238D01*
X29821904Y-27582857D01*
X29774285Y-27678095D01*
X29774285Y-27963809D01*
X29821904Y-28059047D01*
X29869523Y-28106666D01*
X29964761Y-28154285D01*
X30107619Y-28154285D01*
X30202857Y-28106666D01*
X30250476Y-28059047D01*
X30298095Y-27963809D01*
X30298095Y-27678095D01*
X30250476Y-27582857D01*
X30202857Y-27535238D01*
X30107619Y-27487619D01*
X29964761Y-27487619D01*
X30726666Y-27487619D02*
X30726666Y-28154285D01*
X30726666Y-28059047D02*
X30774285Y-28106666D01*
X30869523Y-28154285D01*
X31012380Y-28154285D01*
X31107619Y-28106666D01*
X31155238Y-28011428D01*
X31155238Y-27487619D01*
X31155238Y-28011428D02*
X31202857Y-28106666D01*
X31298095Y-28154285D01*
X31440952Y-28154285D01*
X31536190Y-28106666D01*
X31583809Y-28011428D01*
X31583809Y-27487619D01*
X32774285Y-28535238D02*
X31917142Y-27249523D01*
X32964761Y-28154285D02*
X33345714Y-28154285D01*
X33107619Y-28487619D02*
X33107619Y-27630476D01*
X33155238Y-27535238D01*
X33250476Y-27487619D01*
X33345714Y-27487619D01*
X33679047Y-27487619D02*
X33679047Y-28154285D01*
X33679047Y-27963809D02*
X33726666Y-28059047D01*
X33774285Y-28106666D01*
X33869523Y-28154285D01*
X33964761Y-28154285D01*
X34679047Y-27535238D02*
X34583809Y-27487619D01*
X34393333Y-27487619D01*
X34298095Y-27535238D01*
X34250476Y-27630476D01*
X34250476Y-28011428D01*
X34298095Y-28106666D01*
X34393333Y-28154285D01*
X34583809Y-28154285D01*
X34679047Y-28106666D01*
X34726666Y-28011428D01*
X34726666Y-27916190D01*
X34250476Y-27820952D01*
X35155238Y-28154285D02*
X35155238Y-27487619D01*
X35155238Y-28059047D02*
X35202857Y-28106666D01*
X35298095Y-28154285D01*
X35440952Y-28154285D01*
X35536190Y-28106666D01*
X35583809Y-28011428D01*
X35583809Y-27487619D01*
X36488571Y-27487619D02*
X36488571Y-28487619D01*
X36488571Y-27535238D02*
X36393333Y-27487619D01*
X36202857Y-27487619D01*
X36107619Y-27535238D01*
X36059999Y-27582857D01*
X36012380Y-27678095D01*
X36012380Y-27963809D01*
X36059999Y-28059047D01*
X36107619Y-28106666D01*
X36202857Y-28154285D01*
X36393333Y-28154285D01*
X36488571Y-28106666D01*
X36964761Y-27487619D02*
X36964761Y-28154285D01*
X36964761Y-28059047D02*
X37012380Y-28106666D01*
X37107619Y-28154285D01*
X37250476Y-28154285D01*
X37345714Y-28106666D01*
X37393333Y-28011428D01*
X37393333Y-27487619D01*
X37393333Y-28011428D02*
X37440952Y-28106666D01*
X37536190Y-28154285D01*
X37679047Y-28154285D01*
X37774285Y-28106666D01*
X37821904Y-28011428D01*
X37821904Y-27487619D01*
X38298095Y-27487619D02*
X38298095Y-28154285D01*
X38298095Y-28487619D02*
X38250476Y-28440000D01*
X38298095Y-28392380D01*
X38345714Y-28440000D01*
X38298095Y-28487619D01*
X38298095Y-28392380D01*
X39202857Y-27535238D02*
X39107619Y-27487619D01*
X38917142Y-27487619D01*
X38821904Y-27535238D01*
X38774285Y-27582857D01*
X38726666Y-27678095D01*
X38726666Y-27963809D01*
X38774285Y-28059047D01*
X38821904Y-28106666D01*
X38917142Y-28154285D01*
X39107619Y-28154285D01*
X39202857Y-28106666D01*
X39631428Y-27487619D02*
X39631428Y-28154285D01*
X39631428Y-27963809D02*
X39679047Y-28059047D01*
X39726666Y-28106666D01*
X39821904Y-28154285D01*
X39917142Y-28154285D01*
X40393333Y-27487619D02*
X40298095Y-27535238D01*
X40250476Y-27582857D01*
X40202857Y-27678095D01*
X40202857Y-27963809D01*
X40250476Y-28059047D01*
X40298095Y-28106666D01*
X40393333Y-28154285D01*
X40536190Y-28154285D01*
X40631428Y-28106666D01*
X40679047Y-28059047D01*
X40726666Y-27963809D01*
X40726666Y-27678095D01*
X40679047Y-27582857D01*
X40631428Y-27535238D01*
X40536190Y-27487619D01*
X40393333Y-27487619D01*
X41869523Y-28535238D02*
X41012380Y-27249523D01*
X42202857Y-27487619D02*
X42202857Y-28154285D01*
X42202857Y-27963809D02*
X42250476Y-28059047D01*
X42298095Y-28106666D01*
X42393333Y-28154285D01*
X42488571Y-28154285D01*
X42679047Y-28154285D02*
X43059999Y-28154285D01*
X42821904Y-27487619D02*
X42821904Y-28344761D01*
X42869523Y-28440000D01*
X42964761Y-28487619D01*
X43059999Y-28487619D01*
X43821904Y-28154285D02*
X43821904Y-27154285D01*
X43821904Y-27535238D02*
X43726666Y-27487619D01*
X43536190Y-27487619D01*
X43440952Y-27535238D01*
X43393333Y-27582857D01*
X43345714Y-27678095D01*
X43345714Y-27963809D01*
X43393333Y-28059047D01*
X43440952Y-28106666D01*
X43536190Y-28154285D01*
X43726666Y-28154285D01*
X43821904Y-28106666D01*
X44726666Y-28154285D02*
X44726666Y-27487619D01*
X44298095Y-28154285D02*
X44298095Y-27630476D01*
X44345714Y-27535238D01*
X44440952Y-27487619D01*
X44583809Y-27487619D01*
X44679047Y-27535238D01*
X44726666Y-27582857D01*
X45631428Y-27487619D02*
X45631428Y-28011428D01*
X45583809Y-28106666D01*
X45488571Y-28154285D01*
X45298095Y-28154285D01*
X45202857Y-28106666D01*
X45631428Y-27535238D02*
X45536190Y-27487619D01*
X45298095Y-27487619D01*
X45202857Y-27535238D01*
X45155238Y-27630476D01*
X45155238Y-27725714D01*
X45202857Y-27820952D01*
X45298095Y-27868571D01*
X45536190Y-27868571D01*
X45631428Y-27916190D01*
X46536190Y-27535238D02*
X46440952Y-27487619D01*
X46250476Y-27487619D01*
X46155238Y-27535238D01*
X46107619Y-27582857D01*
X46059999Y-27678095D01*
X46059999Y-27963809D01*
X46107619Y-28059047D01*
X46155238Y-28106666D01*
X46250476Y-28154285D01*
X46440952Y-28154285D01*
X46536190Y-28106666D01*
X46964761Y-27487619D02*
X46964761Y-28487619D01*
X47059999Y-27868571D02*
X47345714Y-27487619D01*
X47345714Y-28154285D02*
X46964761Y-27773333D01*
X23701904Y-26582619D02*
X24035238Y-25582619D01*
X24368571Y-26582619D01*
X24559047Y-26582619D02*
X25130476Y-26582619D01*
X24844761Y-25582619D02*
X24844761Y-26582619D01*
X25463809Y-25963571D02*
X26225714Y-25963571D01*
X27273333Y-25677857D02*
X27225714Y-25630238D01*
X27082857Y-25582619D01*
X26987619Y-25582619D01*
X26844761Y-25630238D01*
X26749523Y-25725476D01*
X26701904Y-25820714D01*
X26654285Y-26011190D01*
X26654285Y-26154047D01*
X26701904Y-26344523D01*
X26749523Y-26439761D01*
X26844761Y-26535000D01*
X26987619Y-26582619D01*
X27082857Y-26582619D01*
X27225714Y-26535000D01*
X27273333Y-26487380D01*
X28273333Y-25677857D02*
X28225714Y-25630238D01*
X28082857Y-25582619D01*
X27987619Y-25582619D01*
X27844761Y-25630238D01*
X27749523Y-25725476D01*
X27701904Y-25820714D01*
X27654285Y-26011190D01*
X27654285Y-26154047D01*
X27701904Y-26344523D01*
X27749523Y-26439761D01*
X27844761Y-26535000D01*
X27987619Y-26582619D01*
X28082857Y-26582619D01*
X28225714Y-26535000D01*
X28273333Y-26487380D01*
X29225714Y-25582619D02*
X28654285Y-25582619D01*
X28940000Y-25582619D02*
X28940000Y-26582619D01*
X28844761Y-26439761D01*
X28749523Y-26344523D01*
X28654285Y-26296904D01*
X30178095Y-25582619D02*
X29606666Y-25582619D01*
X29892380Y-25582619D02*
X29892380Y-26582619D01*
X29797142Y-26439761D01*
X29701904Y-26344523D01*
X29606666Y-26296904D01*
X30559047Y-26487380D02*
X30606666Y-26535000D01*
X30701904Y-26582619D01*
X30940000Y-26582619D01*
X31035238Y-26535000D01*
X31082857Y-26487380D01*
X31130476Y-26392142D01*
X31130476Y-26296904D01*
X31082857Y-26154047D01*
X30511428Y-25582619D01*
X31130476Y-25582619D01*
X31463809Y-26582619D02*
X32130476Y-25582619D01*
X32130476Y-26582619D02*
X31463809Y-25582619D01*
D11*
X36130000Y-26400000D02*
X37530000Y-26400000D01*
X38230000Y-25700000D02*
X38230000Y-25100000D01*
X37530000Y-24400000D02*
X36130000Y-24400000D01*
X35430000Y-25100000D02*
X35430000Y-25700000D01*
X35430000Y-25700000D02*
G75*
G03X36130000Y-26400000I700000J0D01*
G01*
X36130000Y-24400000D02*
G75*
G03X35430000Y-25100000I0J-700000D01*
G01*
X38230000Y-25100000D02*
G75*
G03X37530000Y-24400000I-700000J0D01*
G01*
X37530000Y-26400000D02*
G75*
G03X38230000Y-25700000I0J700000D01*
G01*
X36130000Y-23860000D02*
X37530000Y-23860000D01*
X38230000Y-23160000D02*
X38230000Y-22560000D01*
X37530000Y-21860000D02*
X36130000Y-21860000D01*
X35430000Y-22560000D02*
X35430000Y-23160000D01*
X35430000Y-23160000D02*
G75*
G03X36130000Y-23860000I700000J0D01*
G01*
X36130000Y-21860000D02*
G75*
G03X35430000Y-22560000I0J-700000D01*
G01*
X38230000Y-22560000D02*
G75*
G03X37530000Y-21860000I-700000J0D01*
G01*
X37530000Y-23860000D02*
G75*
G03X38230000Y-23160000I0J700000D01*
G01*
D12*
G36*
X36927566Y-21192936D02*
G01*
X36935776Y-21141664D01*
X36935833Y-21134917D01*
X36928948Y-21080124D01*
X36906975Y-21060968D01*
X36904083Y-21060834D01*
X36880600Y-21076899D01*
X36872391Y-21128170D01*
X36872333Y-21134917D01*
X36879218Y-21189710D01*
X36901192Y-21208867D01*
X36904083Y-21209000D01*
X36927566Y-21192936D01*
X36927566Y-21192936D01*
G37*
X36927566Y-21192936D02*
X36935776Y-21141664D01*
X36935833Y-21134917D01*
X36928948Y-21080124D01*
X36906975Y-21060968D01*
X36904083Y-21060834D01*
X36880600Y-21076899D01*
X36872391Y-21128170D01*
X36872333Y-21134917D01*
X36879218Y-21189710D01*
X36901192Y-21208867D01*
X36904083Y-21209000D01*
X36927566Y-21192936D01*
G36*
X36927566Y-21002436D02*
G01*
X36935776Y-20951164D01*
X36935833Y-20944417D01*
X36928948Y-20889624D01*
X36906975Y-20870468D01*
X36904083Y-20870334D01*
X36880600Y-20886399D01*
X36872391Y-20937670D01*
X36872333Y-20944417D01*
X36879218Y-20999210D01*
X36901192Y-21018367D01*
X36904083Y-21018500D01*
X36927566Y-21002436D01*
X36927566Y-21002436D01*
G37*
X36927566Y-21002436D02*
X36935776Y-20951164D01*
X36935833Y-20944417D01*
X36928948Y-20889624D01*
X36906975Y-20870468D01*
X36904083Y-20870334D01*
X36880600Y-20886399D01*
X36872391Y-20937670D01*
X36872333Y-20944417D01*
X36879218Y-20999210D01*
X36901192Y-21018367D01*
X36904083Y-21018500D01*
X36927566Y-21002436D01*
G36*
X36927566Y-20811936D02*
G01*
X36935776Y-20760664D01*
X36935833Y-20753917D01*
X36928948Y-20699124D01*
X36906975Y-20679968D01*
X36904083Y-20679834D01*
X36880600Y-20695899D01*
X36872391Y-20747170D01*
X36872333Y-20753917D01*
X36879218Y-20808710D01*
X36901192Y-20827867D01*
X36904083Y-20828000D01*
X36927566Y-20811936D01*
X36927566Y-20811936D01*
G37*
X36927566Y-20811936D02*
X36935776Y-20760664D01*
X36935833Y-20753917D01*
X36928948Y-20699124D01*
X36906975Y-20679968D01*
X36904083Y-20679834D01*
X36880600Y-20695899D01*
X36872391Y-20747170D01*
X36872333Y-20753917D01*
X36879218Y-20808710D01*
X36901192Y-20827867D01*
X36904083Y-20828000D01*
X36927566Y-20811936D01*
G36*
X45781785Y-21014350D02*
G01*
X45844065Y-20964059D01*
X45881397Y-20884865D01*
X45889333Y-20816444D01*
X45871612Y-20730812D01*
X45824675Y-20666455D01*
X45757862Y-20627169D01*
X45680511Y-20616745D01*
X45601962Y-20638980D01*
X45549038Y-20678206D01*
X45498027Y-20754255D01*
X45483182Y-20836476D01*
X45502768Y-20914992D01*
X45555052Y-20979928D01*
X45607480Y-21010909D01*
X45700833Y-21031409D01*
X45781785Y-21014350D01*
X45781785Y-21014350D01*
G37*
X45781785Y-21014350D02*
X45844065Y-20964059D01*
X45881397Y-20884865D01*
X45889333Y-20816444D01*
X45871612Y-20730812D01*
X45824675Y-20666455D01*
X45757862Y-20627169D01*
X45680511Y-20616745D01*
X45601962Y-20638980D01*
X45549038Y-20678206D01*
X45498027Y-20754255D01*
X45483182Y-20836476D01*
X45502768Y-20914992D01*
X45555052Y-20979928D01*
X45607480Y-21010909D01*
X45700833Y-21031409D01*
X45781785Y-21014350D01*
G36*
X36927566Y-20621436D02*
G01*
X36935776Y-20570164D01*
X36935833Y-20563417D01*
X36928948Y-20508624D01*
X36906975Y-20489468D01*
X36904083Y-20489334D01*
X36880600Y-20505399D01*
X36872391Y-20556670D01*
X36872333Y-20563417D01*
X36879218Y-20618210D01*
X36901192Y-20637367D01*
X36904083Y-20637500D01*
X36927566Y-20621436D01*
X36927566Y-20621436D01*
G37*
X36927566Y-20621436D02*
X36935776Y-20570164D01*
X36935833Y-20563417D01*
X36928948Y-20508624D01*
X36906975Y-20489468D01*
X36904083Y-20489334D01*
X36880600Y-20505399D01*
X36872391Y-20556670D01*
X36872333Y-20563417D01*
X36879218Y-20618210D01*
X36901192Y-20637367D01*
X36904083Y-20637500D01*
X36927566Y-20621436D01*
G36*
X36927566Y-20430936D02*
G01*
X36935776Y-20379664D01*
X36935833Y-20372917D01*
X36928948Y-20318124D01*
X36906975Y-20298968D01*
X36904083Y-20298834D01*
X36880600Y-20314899D01*
X36872391Y-20366170D01*
X36872333Y-20372917D01*
X36879218Y-20427710D01*
X36901192Y-20446867D01*
X36904083Y-20447000D01*
X36927566Y-20430936D01*
X36927566Y-20430936D01*
G37*
X36927566Y-20430936D02*
X36935776Y-20379664D01*
X36935833Y-20372917D01*
X36928948Y-20318124D01*
X36906975Y-20298968D01*
X36904083Y-20298834D01*
X36880600Y-20314899D01*
X36872391Y-20366170D01*
X36872333Y-20372917D01*
X36879218Y-20427710D01*
X36901192Y-20446867D01*
X36904083Y-20447000D01*
X36927566Y-20430936D01*
G36*
X36927566Y-20240436D02*
G01*
X36935776Y-20189164D01*
X36935833Y-20182417D01*
X36928948Y-20127624D01*
X36906975Y-20108468D01*
X36904083Y-20108334D01*
X36880600Y-20124399D01*
X36872391Y-20175670D01*
X36872333Y-20182417D01*
X36879218Y-20237210D01*
X36901192Y-20256367D01*
X36904083Y-20256500D01*
X36927566Y-20240436D01*
X36927566Y-20240436D01*
G37*
X36927566Y-20240436D02*
X36935776Y-20189164D01*
X36935833Y-20182417D01*
X36928948Y-20127624D01*
X36906975Y-20108468D01*
X36904083Y-20108334D01*
X36880600Y-20124399D01*
X36872391Y-20175670D01*
X36872333Y-20182417D01*
X36879218Y-20237210D01*
X36901192Y-20256367D01*
X36904083Y-20256500D01*
X36927566Y-20240436D01*
G36*
X36927566Y-20049936D02*
G01*
X36935776Y-19998664D01*
X36935833Y-19991917D01*
X36928948Y-19937124D01*
X36906975Y-19917968D01*
X36904083Y-19917834D01*
X36880600Y-19933899D01*
X36872391Y-19985170D01*
X36872333Y-19991917D01*
X36879218Y-20046710D01*
X36901192Y-20065867D01*
X36904083Y-20066000D01*
X36927566Y-20049936D01*
X36927566Y-20049936D01*
G37*
X36927566Y-20049936D02*
X36935776Y-19998664D01*
X36935833Y-19991917D01*
X36928948Y-19937124D01*
X36906975Y-19917968D01*
X36904083Y-19917834D01*
X36880600Y-19933899D01*
X36872391Y-19985170D01*
X36872333Y-19991917D01*
X36879218Y-20046710D01*
X36901192Y-20065867D01*
X36904083Y-20066000D01*
X36927566Y-20049936D01*
G36*
X36927566Y-19859436D02*
G01*
X36935776Y-19808164D01*
X36935833Y-19801417D01*
X36928948Y-19746624D01*
X36906975Y-19727468D01*
X36904083Y-19727334D01*
X36880600Y-19743399D01*
X36872391Y-19794670D01*
X36872333Y-19801417D01*
X36879218Y-19856210D01*
X36901192Y-19875367D01*
X36904083Y-19875500D01*
X36927566Y-19859436D01*
X36927566Y-19859436D01*
G37*
X36927566Y-19859436D02*
X36935776Y-19808164D01*
X36935833Y-19801417D01*
X36928948Y-19746624D01*
X36906975Y-19727468D01*
X36904083Y-19727334D01*
X36880600Y-19743399D01*
X36872391Y-19794670D01*
X36872333Y-19801417D01*
X36879218Y-19856210D01*
X36901192Y-19875367D01*
X36904083Y-19875500D01*
X36927566Y-19859436D01*
G36*
X36929290Y-19666068D02*
G01*
X36935833Y-19621500D01*
X36926367Y-19571087D01*
X36904083Y-19558000D01*
X36878877Y-19576933D01*
X36872333Y-19621500D01*
X36881799Y-19671914D01*
X36904083Y-19685000D01*
X36929290Y-19666068D01*
X36929290Y-19666068D01*
G37*
X36929290Y-19666068D02*
X36935833Y-19621500D01*
X36926367Y-19571087D01*
X36904083Y-19558000D01*
X36878877Y-19576933D01*
X36872333Y-19621500D01*
X36881799Y-19671914D01*
X36904083Y-19685000D01*
X36929290Y-19666068D01*
G36*
X46939582Y-21102342D02*
G01*
X47012834Y-21058224D01*
X47058129Y-20989229D01*
X47071555Y-20905326D01*
X47050625Y-20819561D01*
X47016403Y-20780375D01*
X46957876Y-20741224D01*
X46891999Y-20711623D01*
X46839312Y-20701000D01*
X46782084Y-20685960D01*
X46716810Y-20648459D01*
X46660811Y-20599931D01*
X46637551Y-20567815D01*
X46619178Y-20505920D01*
X46609000Y-20415903D01*
X46607171Y-20311206D01*
X46613846Y-20205270D01*
X46629178Y-20111536D01*
X46632182Y-20099557D01*
X46677712Y-19997614D01*
X46752150Y-19926466D01*
X46855668Y-19885995D01*
X46961917Y-19875619D01*
X47035468Y-19857744D01*
X47094209Y-19820702D01*
X47139966Y-19772081D01*
X47157661Y-19717604D01*
X47159333Y-19681727D01*
X47148883Y-19590852D01*
X47113792Y-19528407D01*
X47048450Y-19485004D01*
X47039398Y-19481083D01*
X46953330Y-19464685D01*
X46872736Y-19483114D01*
X46807099Y-19530451D01*
X46765903Y-19600777D01*
X46756702Y-19657491D01*
X46747936Y-19699751D01*
X46726533Y-19759885D01*
X46717053Y-19781856D01*
X46685415Y-19838895D01*
X46645665Y-19880125D01*
X46591040Y-19907801D01*
X46514776Y-19924175D01*
X46410110Y-19931498D01*
X46270279Y-19932025D01*
X46266339Y-19931971D01*
X46155378Y-19930133D01*
X46078191Y-19927111D01*
X46026221Y-19921203D01*
X45990912Y-19910703D01*
X45963707Y-19893908D01*
X45936050Y-19869113D01*
X45932187Y-19865415D01*
X45887573Y-19812927D01*
X45858215Y-19760584D01*
X45854683Y-19749087D01*
X45841305Y-19691671D01*
X45824592Y-19623017D01*
X45822879Y-19616152D01*
X45783656Y-19536599D01*
X45718217Y-19484097D01*
X45636155Y-19463123D01*
X45547065Y-19478152D01*
X45536458Y-19482543D01*
X45468133Y-19528718D01*
X45432138Y-19596147D01*
X45423667Y-19671845D01*
X45439456Y-19757001D01*
X45488149Y-19819370D01*
X45571726Y-19860713D01*
X45656806Y-19878751D01*
X45773111Y-19902403D01*
X45856467Y-19940935D01*
X45913233Y-20001055D01*
X45949771Y-20089474D01*
X45972266Y-20211521D01*
X45986673Y-20295597D01*
X46006040Y-20369446D01*
X46026176Y-20417091D01*
X46026192Y-20417115D01*
X46099375Y-20491130D01*
X46204155Y-20541504D01*
X46311271Y-20563445D01*
X46438569Y-20585881D01*
X46531014Y-20625178D01*
X46594492Y-20686693D01*
X46634890Y-20775783D01*
X46655402Y-20876624D01*
X46684153Y-20990393D01*
X46733662Y-21068672D01*
X46802623Y-21110427D01*
X46889733Y-21114620D01*
X46939582Y-21102342D01*
X46939582Y-21102342D01*
G37*
X46939582Y-21102342D02*
X47012834Y-21058224D01*
X47058129Y-20989229D01*
X47071555Y-20905326D01*
X47050625Y-20819561D01*
X47016403Y-20780375D01*
X46957876Y-20741224D01*
X46891999Y-20711623D01*
X46839312Y-20701000D01*
X46782084Y-20685960D01*
X46716810Y-20648459D01*
X46660811Y-20599931D01*
X46637551Y-20567815D01*
X46619178Y-20505920D01*
X46609000Y-20415903D01*
X46607171Y-20311206D01*
X46613846Y-20205270D01*
X46629178Y-20111536D01*
X46632182Y-20099557D01*
X46677712Y-19997614D01*
X46752150Y-19926466D01*
X46855668Y-19885995D01*
X46961917Y-19875619D01*
X47035468Y-19857744D01*
X47094209Y-19820702D01*
X47139966Y-19772081D01*
X47157661Y-19717604D01*
X47159333Y-19681727D01*
X47148883Y-19590852D01*
X47113792Y-19528407D01*
X47048450Y-19485004D01*
X47039398Y-19481083D01*
X46953330Y-19464685D01*
X46872736Y-19483114D01*
X46807099Y-19530451D01*
X46765903Y-19600777D01*
X46756702Y-19657491D01*
X46747936Y-19699751D01*
X46726533Y-19759885D01*
X46717053Y-19781856D01*
X46685415Y-19838895D01*
X46645665Y-19880125D01*
X46591040Y-19907801D01*
X46514776Y-19924175D01*
X46410110Y-19931498D01*
X46270279Y-19932025D01*
X46266339Y-19931971D01*
X46155378Y-19930133D01*
X46078191Y-19927111D01*
X46026221Y-19921203D01*
X45990912Y-19910703D01*
X45963707Y-19893908D01*
X45936050Y-19869113D01*
X45932187Y-19865415D01*
X45887573Y-19812927D01*
X45858215Y-19760584D01*
X45854683Y-19749087D01*
X45841305Y-19691671D01*
X45824592Y-19623017D01*
X45822879Y-19616152D01*
X45783656Y-19536599D01*
X45718217Y-19484097D01*
X45636155Y-19463123D01*
X45547065Y-19478152D01*
X45536458Y-19482543D01*
X45468133Y-19528718D01*
X45432138Y-19596147D01*
X45423667Y-19671845D01*
X45439456Y-19757001D01*
X45488149Y-19819370D01*
X45571726Y-19860713D01*
X45656806Y-19878751D01*
X45773111Y-19902403D01*
X45856467Y-19940935D01*
X45913233Y-20001055D01*
X45949771Y-20089474D01*
X45972266Y-20211521D01*
X45986673Y-20295597D01*
X46006040Y-20369446D01*
X46026176Y-20417091D01*
X46026192Y-20417115D01*
X46099375Y-20491130D01*
X46204155Y-20541504D01*
X46311271Y-20563445D01*
X46438569Y-20585881D01*
X46531014Y-20625178D01*
X46594492Y-20686693D01*
X46634890Y-20775783D01*
X46655402Y-20876624D01*
X46684153Y-20990393D01*
X46733662Y-21068672D01*
X46802623Y-21110427D01*
X46889733Y-21114620D01*
X46939582Y-21102342D01*
G36*
X36927566Y-19499602D02*
G01*
X36935776Y-19448331D01*
X36935833Y-19441584D01*
X36928948Y-19386791D01*
X36906975Y-19367634D01*
X36904083Y-19367500D01*
X36880600Y-19383565D01*
X36872391Y-19434837D01*
X36872333Y-19441584D01*
X36879218Y-19496377D01*
X36901192Y-19515533D01*
X36904083Y-19515667D01*
X36927566Y-19499602D01*
X36927566Y-19499602D01*
G37*
X36927566Y-19499602D02*
X36935776Y-19448331D01*
X36935833Y-19441584D01*
X36928948Y-19386791D01*
X36906975Y-19367634D01*
X36904083Y-19367500D01*
X36880600Y-19383565D01*
X36872391Y-19434837D01*
X36872333Y-19441584D01*
X36879218Y-19496377D01*
X36901192Y-19515533D01*
X36904083Y-19515667D01*
X36927566Y-19499602D01*
G36*
X36927566Y-19309102D02*
G01*
X36935776Y-19257831D01*
X36935833Y-19251084D01*
X36928948Y-19196291D01*
X36906975Y-19177134D01*
X36904083Y-19177000D01*
X36880600Y-19193065D01*
X36872391Y-19244337D01*
X36872333Y-19251084D01*
X36879218Y-19305877D01*
X36901192Y-19325033D01*
X36904083Y-19325167D01*
X36927566Y-19309102D01*
X36927566Y-19309102D01*
G37*
X36927566Y-19309102D02*
X36935776Y-19257831D01*
X36935833Y-19251084D01*
X36928948Y-19196291D01*
X36906975Y-19177134D01*
X36904083Y-19177000D01*
X36880600Y-19193065D01*
X36872391Y-19244337D01*
X36872333Y-19251084D01*
X36879218Y-19305877D01*
X36901192Y-19325033D01*
X36904083Y-19325167D01*
X36927566Y-19309102D01*
G36*
X36927566Y-19118602D02*
G01*
X36935776Y-19067331D01*
X36935833Y-19060584D01*
X36928948Y-19005791D01*
X36906975Y-18986634D01*
X36904083Y-18986500D01*
X36880600Y-19002565D01*
X36872391Y-19053837D01*
X36872333Y-19060584D01*
X36879218Y-19115377D01*
X36901192Y-19134533D01*
X36904083Y-19134667D01*
X36927566Y-19118602D01*
X36927566Y-19118602D01*
G37*
X36927566Y-19118602D02*
X36935776Y-19067331D01*
X36935833Y-19060584D01*
X36928948Y-19005791D01*
X36906975Y-18986634D01*
X36904083Y-18986500D01*
X36880600Y-19002565D01*
X36872391Y-19053837D01*
X36872333Y-19060584D01*
X36879218Y-19115377D01*
X36901192Y-19134533D01*
X36904083Y-19134667D01*
X36927566Y-19118602D01*
G36*
X36927566Y-18928102D02*
G01*
X36935776Y-18876831D01*
X36935833Y-18870084D01*
X36928948Y-18815291D01*
X36906975Y-18796134D01*
X36904083Y-18796000D01*
X36880600Y-18812065D01*
X36872391Y-18863337D01*
X36872333Y-18870084D01*
X36879218Y-18924877D01*
X36901192Y-18944033D01*
X36904083Y-18944167D01*
X36927566Y-18928102D01*
X36927566Y-18928102D01*
G37*
X36927566Y-18928102D02*
X36935776Y-18876831D01*
X36935833Y-18870084D01*
X36928948Y-18815291D01*
X36906975Y-18796134D01*
X36904083Y-18796000D01*
X36880600Y-18812065D01*
X36872391Y-18863337D01*
X36872333Y-18870084D01*
X36879218Y-18924877D01*
X36901192Y-18944033D01*
X36904083Y-18944167D01*
X36927566Y-18928102D01*
G36*
X34404008Y-20168061D02*
G01*
X34560313Y-20155693D01*
X34687016Y-20133158D01*
X34790191Y-20098883D01*
X34875910Y-20051296D01*
X34950246Y-19988824D01*
X34960957Y-19977897D01*
X35040350Y-19866761D01*
X35096140Y-19729575D01*
X35127758Y-19575808D01*
X35134635Y-19414929D01*
X35116204Y-19256405D01*
X35071894Y-19109706D01*
X35019098Y-19009723D01*
X34953163Y-18926796D01*
X34874594Y-18862406D01*
X34778010Y-18814754D01*
X34658034Y-18782038D01*
X34509286Y-18762457D01*
X34326388Y-18754210D01*
X34254408Y-18753667D01*
X33930167Y-18753667D01*
X33930167Y-19007667D01*
X34247667Y-19007667D01*
X34379958Y-19008132D01*
X34504115Y-19019641D01*
X34600966Y-19048875D01*
X34680361Y-19099039D01*
X34735976Y-19169591D01*
X34770312Y-19266085D01*
X34785873Y-19394075D01*
X34787417Y-19462750D01*
X34785316Y-19564869D01*
X34777751Y-19636557D01*
X34762825Y-19689568D01*
X34745083Y-19725121D01*
X34691467Y-19800346D01*
X34629603Y-19849728D01*
X34549079Y-19878590D01*
X34439480Y-19892255D01*
X34415571Y-19893525D01*
X34247667Y-19901150D01*
X34247667Y-19007667D01*
X33930167Y-19007667D01*
X33930167Y-20171834D01*
X34212029Y-20171834D01*
X34404008Y-20168061D01*
X34404008Y-20168061D01*
G37*
X34404008Y-20168061D02*
X34560313Y-20155693D01*
X34687016Y-20133158D01*
X34790191Y-20098883D01*
X34875910Y-20051296D01*
X34950246Y-19988824D01*
X34960957Y-19977897D01*
X35040350Y-19866761D01*
X35096140Y-19729575D01*
X35127758Y-19575808D01*
X35134635Y-19414929D01*
X35116204Y-19256405D01*
X35071894Y-19109706D01*
X35019098Y-19009723D01*
X34953163Y-18926796D01*
X34874594Y-18862406D01*
X34778010Y-18814754D01*
X34658034Y-18782038D01*
X34509286Y-18762457D01*
X34326388Y-18754210D01*
X34254408Y-18753667D01*
X33930167Y-18753667D01*
X33930167Y-19007667D01*
X34247667Y-19007667D01*
X34379958Y-19008132D01*
X34504115Y-19019641D01*
X34600966Y-19048875D01*
X34680361Y-19099039D01*
X34735976Y-19169591D01*
X34770312Y-19266085D01*
X34785873Y-19394075D01*
X34787417Y-19462750D01*
X34785316Y-19564869D01*
X34777751Y-19636557D01*
X34762825Y-19689568D01*
X34745083Y-19725121D01*
X34691467Y-19800346D01*
X34629603Y-19849728D01*
X34549079Y-19878590D01*
X34439480Y-19892255D01*
X34415571Y-19893525D01*
X34247667Y-19901150D01*
X34247667Y-19007667D01*
X33930167Y-19007667D01*
X33930167Y-20171834D01*
X34212029Y-20171834D01*
X34404008Y-20168061D01*
G36*
X33528000Y-18753667D02*
G01*
X33332208Y-18753679D01*
X33136417Y-18753691D01*
X32888017Y-19203471D01*
X32639618Y-19653250D01*
X32639309Y-19203459D01*
X32639000Y-18753667D01*
X32342667Y-18753667D01*
X32342667Y-20171834D01*
X32538458Y-20171503D01*
X32734250Y-20171172D01*
X32977667Y-19732295D01*
X33221083Y-19293417D01*
X33226804Y-19732625D01*
X33232525Y-20171834D01*
X33528000Y-20171834D01*
X33528000Y-18753667D01*
X33528000Y-18753667D01*
G37*
X33528000Y-18753667D02*
X33332208Y-18753679D01*
X33136417Y-18753691D01*
X32888017Y-19203471D01*
X32639618Y-19653250D01*
X32639309Y-19203459D01*
X32639000Y-18753667D01*
X32342667Y-18753667D01*
X32342667Y-20171834D01*
X32538458Y-20171503D01*
X32734250Y-20171172D01*
X32977667Y-19732295D01*
X33221083Y-19293417D01*
X33226804Y-19732625D01*
X33232525Y-20171834D01*
X33528000Y-20171834D01*
X33528000Y-18753667D01*
G36*
X31940500Y-19917834D02*
G01*
X31242000Y-19917834D01*
X31242000Y-19600334D01*
X31877000Y-19600334D01*
X31877000Y-19346334D01*
X31242000Y-19346334D01*
X31242000Y-19007667D01*
X31961667Y-19007667D01*
X31961667Y-18753667D01*
X30924500Y-18753667D01*
X30924500Y-20171834D01*
X31940500Y-20171834D01*
X31940500Y-19917834D01*
X31940500Y-19917834D01*
G37*
X31940500Y-19917834D02*
X31242000Y-19917834D01*
X31242000Y-19600334D01*
X31877000Y-19600334D01*
X31877000Y-19346334D01*
X31242000Y-19346334D01*
X31242000Y-19007667D01*
X31961667Y-19007667D01*
X31961667Y-18753667D01*
X30924500Y-18753667D01*
X30924500Y-20171834D01*
X31940500Y-20171834D01*
X31940500Y-19917834D01*
G36*
X29886914Y-20169416D02*
G01*
X30047110Y-20161307D01*
X30175591Y-20146221D01*
X30277550Y-20122875D01*
X30358181Y-20089983D01*
X30422678Y-20046261D01*
X30476235Y-19990425D01*
X30488637Y-19974270D01*
X30513149Y-19932219D01*
X30526280Y-19881336D01*
X30530661Y-19808217D01*
X30530431Y-19761415D01*
X30516628Y-19620851D01*
X30481664Y-19503796D01*
X30427873Y-19416100D01*
X30375312Y-19372388D01*
X30332283Y-19343751D01*
X30311220Y-19321596D01*
X30310800Y-19319550D01*
X30319756Y-19295609D01*
X30344378Y-19241428D01*
X30381139Y-19164499D01*
X30426512Y-19072316D01*
X30437667Y-19050000D01*
X30484598Y-18954848D01*
X30523700Y-18872657D01*
X30551420Y-18811113D01*
X30564209Y-18777897D01*
X30564667Y-18775159D01*
X30544608Y-18764584D01*
X30488723Y-18757221D01*
X30403444Y-18753814D01*
X30378631Y-18753667D01*
X30192596Y-18753667D01*
X30080250Y-19028834D01*
X29967904Y-19304000D01*
X29675667Y-19304000D01*
X29675667Y-18753667D01*
X29337000Y-18753667D01*
X29337000Y-19917834D01*
X29675667Y-19917834D01*
X29675667Y-19579167D01*
X29893207Y-19579167D01*
X30008815Y-19581421D01*
X30088732Y-19588693D01*
X30139385Y-19601751D01*
X30155372Y-19610423D01*
X30202411Y-19665907D01*
X30218535Y-19735409D01*
X30205563Y-19806102D01*
X30165311Y-19865158D01*
X30115009Y-19895293D01*
X30064143Y-19905661D01*
X29985394Y-19913511D01*
X29893195Y-19917555D01*
X29863008Y-19917834D01*
X29675667Y-19917834D01*
X29337000Y-19917834D01*
X29337000Y-20171834D01*
X29689808Y-20171834D01*
X29886914Y-20169416D01*
X29886914Y-20169416D01*
G37*
X29886914Y-20169416D02*
X30047110Y-20161307D01*
X30175591Y-20146221D01*
X30277550Y-20122875D01*
X30358181Y-20089983D01*
X30422678Y-20046261D01*
X30476235Y-19990425D01*
X30488637Y-19974270D01*
X30513149Y-19932219D01*
X30526280Y-19881336D01*
X30530661Y-19808217D01*
X30530431Y-19761415D01*
X30516628Y-19620851D01*
X30481664Y-19503796D01*
X30427873Y-19416100D01*
X30375312Y-19372388D01*
X30332283Y-19343751D01*
X30311220Y-19321596D01*
X30310800Y-19319550D01*
X30319756Y-19295609D01*
X30344378Y-19241428D01*
X30381139Y-19164499D01*
X30426512Y-19072316D01*
X30437667Y-19050000D01*
X30484598Y-18954848D01*
X30523700Y-18872657D01*
X30551420Y-18811113D01*
X30564209Y-18777897D01*
X30564667Y-18775159D01*
X30544608Y-18764584D01*
X30488723Y-18757221D01*
X30403444Y-18753814D01*
X30378631Y-18753667D01*
X30192596Y-18753667D01*
X30080250Y-19028834D01*
X29967904Y-19304000D01*
X29675667Y-19304000D01*
X29675667Y-18753667D01*
X29337000Y-18753667D01*
X29337000Y-19917834D01*
X29675667Y-19917834D01*
X29675667Y-19579167D01*
X29893207Y-19579167D01*
X30008815Y-19581421D01*
X30088732Y-19588693D01*
X30139385Y-19601751D01*
X30155372Y-19610423D01*
X30202411Y-19665907D01*
X30218535Y-19735409D01*
X30205563Y-19806102D01*
X30165311Y-19865158D01*
X30115009Y-19895293D01*
X30064143Y-19905661D01*
X29985394Y-19913511D01*
X29893195Y-19917555D01*
X29863008Y-19917834D01*
X29675667Y-19917834D01*
X29337000Y-19917834D01*
X29337000Y-20171834D01*
X29689808Y-20171834D01*
X29886914Y-20169416D01*
G36*
X29083000Y-19917834D02*
G01*
X28659667Y-19917834D01*
X28659667Y-18753667D01*
X28342167Y-18753667D01*
X28342167Y-19917834D01*
X27940000Y-19917834D01*
X27940000Y-20171834D01*
X29083000Y-20171834D01*
X29083000Y-19917834D01*
X29083000Y-19917834D01*
G37*
X29083000Y-19917834D02*
X28659667Y-19917834D01*
X28659667Y-18753667D01*
X28342167Y-18753667D01*
X28342167Y-19917834D01*
X27940000Y-19917834D01*
X27940000Y-20171834D01*
X29083000Y-20171834D01*
X29083000Y-19917834D01*
G36*
X36927566Y-18737602D02*
G01*
X36935776Y-18686331D01*
X36935833Y-18679584D01*
X36928948Y-18624791D01*
X36906975Y-18605634D01*
X36904083Y-18605500D01*
X36880600Y-18621565D01*
X36872391Y-18672837D01*
X36872333Y-18679584D01*
X36879218Y-18734377D01*
X36901192Y-18753533D01*
X36904083Y-18753667D01*
X36927566Y-18737602D01*
X36927566Y-18737602D01*
G37*
X36927566Y-18737602D02*
X36935776Y-18686331D01*
X36935833Y-18679584D01*
X36928948Y-18624791D01*
X36906975Y-18605634D01*
X36904083Y-18605500D01*
X36880600Y-18621565D01*
X36872391Y-18672837D01*
X36872333Y-18679584D01*
X36879218Y-18734377D01*
X36901192Y-18753533D01*
X36904083Y-18753667D01*
X36927566Y-18737602D01*
G36*
X35311843Y-18621375D02*
G01*
X35342381Y-18531417D01*
X35369874Y-18621375D01*
X35396155Y-18684368D01*
X35426577Y-18710110D01*
X35436350Y-18711334D01*
X35457567Y-18706047D01*
X35469399Y-18684079D01*
X35474443Y-18636271D01*
X35475333Y-18573750D01*
X35473214Y-18496578D01*
X35465640Y-18453685D01*
X35450789Y-18437175D01*
X35443583Y-18436167D01*
X35417745Y-18455073D01*
X35409581Y-18494375D01*
X35407330Y-18552584D01*
X35384329Y-18494375D01*
X35356186Y-18447107D01*
X35327337Y-18441796D01*
X35300141Y-18478178D01*
X35290056Y-18504959D01*
X35267988Y-18573750D01*
X35265827Y-18504959D01*
X35255336Y-18451421D01*
X35231917Y-18436167D01*
X35212769Y-18446619D01*
X35202912Y-18483293D01*
X35200167Y-18552584D01*
X35198329Y-18619861D01*
X35190385Y-18654908D01*
X35172685Y-18667759D01*
X35157833Y-18669000D01*
X35133369Y-18663947D01*
X35120624Y-18642100D01*
X35115951Y-18593426D01*
X35115500Y-18552584D01*
X35112649Y-18482378D01*
X35102647Y-18446233D01*
X35083750Y-18436167D01*
X35064603Y-18446619D01*
X35054745Y-18483293D01*
X35052000Y-18552584D01*
X35050162Y-18619861D01*
X35042218Y-18654908D01*
X35024518Y-18667759D01*
X35009667Y-18669000D01*
X34975271Y-18677865D01*
X34967333Y-18690167D01*
X34987012Y-18700864D01*
X35040200Y-18708309D01*
X35118122Y-18711320D01*
X35124319Y-18711334D01*
X35281305Y-18711334D01*
X35311843Y-18621375D01*
X35311843Y-18621375D01*
G37*
X35311843Y-18621375D02*
X35342381Y-18531417D01*
X35369874Y-18621375D01*
X35396155Y-18684368D01*
X35426577Y-18710110D01*
X35436350Y-18711334D01*
X35457567Y-18706047D01*
X35469399Y-18684079D01*
X35474443Y-18636271D01*
X35475333Y-18573750D01*
X35473214Y-18496578D01*
X35465640Y-18453685D01*
X35450789Y-18437175D01*
X35443583Y-18436167D01*
X35417745Y-18455073D01*
X35409581Y-18494375D01*
X35407330Y-18552584D01*
X35384329Y-18494375D01*
X35356186Y-18447107D01*
X35327337Y-18441796D01*
X35300141Y-18478178D01*
X35290056Y-18504959D01*
X35267988Y-18573750D01*
X35265827Y-18504959D01*
X35255336Y-18451421D01*
X35231917Y-18436167D01*
X35212769Y-18446619D01*
X35202912Y-18483293D01*
X35200167Y-18552584D01*
X35198329Y-18619861D01*
X35190385Y-18654908D01*
X35172685Y-18667759D01*
X35157833Y-18669000D01*
X35133369Y-18663947D01*
X35120624Y-18642100D01*
X35115951Y-18593426D01*
X35115500Y-18552584D01*
X35112649Y-18482378D01*
X35102647Y-18446233D01*
X35083750Y-18436167D01*
X35064603Y-18446619D01*
X35054745Y-18483293D01*
X35052000Y-18552584D01*
X35050162Y-18619861D01*
X35042218Y-18654908D01*
X35024518Y-18667759D01*
X35009667Y-18669000D01*
X34975271Y-18677865D01*
X34967333Y-18690167D01*
X34987012Y-18700864D01*
X35040200Y-18708309D01*
X35118122Y-18711320D01*
X35124319Y-18711334D01*
X35281305Y-18711334D01*
X35311843Y-18621375D01*
G36*
X36927566Y-18547102D02*
G01*
X36935776Y-18495831D01*
X36935833Y-18489084D01*
X36928948Y-18434291D01*
X36906975Y-18415134D01*
X36904083Y-18415000D01*
X36880600Y-18431065D01*
X36872391Y-18482337D01*
X36872333Y-18489084D01*
X36879218Y-18543877D01*
X36901192Y-18563033D01*
X36904083Y-18563167D01*
X36927566Y-18547102D01*
X36927566Y-18547102D01*
G37*
X36927566Y-18547102D02*
X36935776Y-18495831D01*
X36935833Y-18489084D01*
X36928948Y-18434291D01*
X36906975Y-18415134D01*
X36904083Y-18415000D01*
X36880600Y-18431065D01*
X36872391Y-18482337D01*
X36872333Y-18489084D01*
X36879218Y-18543877D01*
X36901192Y-18563033D01*
X36904083Y-18563167D01*
X36927566Y-18547102D01*
G36*
X36927566Y-18356602D02*
G01*
X36935776Y-18305331D01*
X36935833Y-18298584D01*
X36928948Y-18243791D01*
X36906975Y-18224634D01*
X36904083Y-18224500D01*
X36880600Y-18240565D01*
X36872391Y-18291837D01*
X36872333Y-18298584D01*
X36879218Y-18353377D01*
X36901192Y-18372533D01*
X36904083Y-18372667D01*
X36927566Y-18356602D01*
X36927566Y-18356602D01*
G37*
X36927566Y-18356602D02*
X36935776Y-18305331D01*
X36935833Y-18298584D01*
X36928948Y-18243791D01*
X36906975Y-18224634D01*
X36904083Y-18224500D01*
X36880600Y-18240565D01*
X36872391Y-18291837D01*
X36872333Y-18298584D01*
X36879218Y-18353377D01*
X36901192Y-18372533D01*
X36904083Y-18372667D01*
X36927566Y-18356602D01*
G36*
X36927566Y-18166102D02*
G01*
X36935776Y-18114831D01*
X36935833Y-18108084D01*
X36928948Y-18053291D01*
X36906975Y-18034134D01*
X36904083Y-18034000D01*
X36880600Y-18050065D01*
X36872391Y-18101337D01*
X36872333Y-18108084D01*
X36879218Y-18162877D01*
X36901192Y-18182033D01*
X36904083Y-18182167D01*
X36927566Y-18166102D01*
X36927566Y-18166102D01*
G37*
X36927566Y-18166102D02*
X36935776Y-18114831D01*
X36935833Y-18108084D01*
X36928948Y-18053291D01*
X36906975Y-18034134D01*
X36904083Y-18034000D01*
X36880600Y-18050065D01*
X36872391Y-18101337D01*
X36872333Y-18108084D01*
X36879218Y-18162877D01*
X36901192Y-18182033D01*
X36904083Y-18182167D01*
X36927566Y-18166102D01*
G36*
X25540761Y-21112492D02*
G01*
X25815920Y-21057350D01*
X26079583Y-20966612D01*
X26326888Y-20840879D01*
X26521833Y-20705968D01*
X26593020Y-20647206D01*
X26663393Y-20585062D01*
X26725545Y-20526580D01*
X26772067Y-20478807D01*
X26795554Y-20448785D01*
X26797000Y-20444283D01*
X26779883Y-20445072D01*
X26735106Y-20461805D01*
X26675292Y-20489452D01*
X26517898Y-20551913D01*
X26352785Y-20585185D01*
X26171836Y-20590091D01*
X25966933Y-20567455D01*
X25944196Y-20563601D01*
X25861388Y-20547067D01*
X25767778Y-20525089D01*
X25671598Y-20500043D01*
X25581082Y-20474302D01*
X25504461Y-20450243D01*
X25449968Y-20430241D01*
X25425837Y-20416670D01*
X25425879Y-20414066D01*
X25449829Y-20413606D01*
X25497514Y-20423696D01*
X25507235Y-20426408D01*
X25625781Y-20451697D01*
X25766846Y-20468303D01*
X25911256Y-20474856D01*
X26039832Y-20469990D01*
X26069513Y-20466518D01*
X26243911Y-20425075D01*
X26388337Y-20355184D01*
X26501910Y-20259149D01*
X26583752Y-20139273D01*
X26632983Y-19997861D01*
X26648723Y-19837216D01*
X26630093Y-19659642D01*
X26576214Y-19467443D01*
X26510405Y-19311456D01*
X26397936Y-19112904D01*
X26255404Y-18917867D01*
X26087934Y-18730009D01*
X25900653Y-18552996D01*
X25698686Y-18390491D01*
X25487160Y-18246160D01*
X25271201Y-18123668D01*
X25055934Y-18026680D01*
X24846486Y-17958860D01*
X24647982Y-17923873D01*
X24563917Y-17919819D01*
X24425406Y-17926110D01*
X24319386Y-17947566D01*
X24238020Y-17986465D01*
X24187754Y-18029198D01*
X24134352Y-18098863D01*
X24102790Y-18178474D01*
X24089079Y-18280428D01*
X24087667Y-18340066D01*
X24103805Y-18496738D01*
X24152375Y-18678233D01*
X24233609Y-18885389D01*
X24246728Y-18914570D01*
X24318091Y-19071167D01*
X24495815Y-19071167D01*
X24582957Y-19071908D01*
X24637433Y-19075848D01*
X24668907Y-19085562D01*
X24687041Y-19103625D01*
X24698102Y-19125080D01*
X24716055Y-19167543D01*
X24722667Y-19188580D01*
X24703171Y-19193032D01*
X24651364Y-19196385D01*
X24577262Y-19198071D01*
X24553333Y-19198167D01*
X24474690Y-19199133D01*
X24415472Y-19201698D01*
X24385697Y-19205368D01*
X24384000Y-19206553D01*
X24392427Y-19227885D01*
X24415347Y-19279650D01*
X24449219Y-19353983D01*
X24488807Y-19439386D01*
X24593614Y-19663834D01*
X24519630Y-19663834D01*
X24469827Y-19656703D01*
X24416481Y-19631576D01*
X24348896Y-19582851D01*
X24320017Y-19559285D01*
X24106694Y-19408324D01*
X23860689Y-19283449D01*
X23745561Y-19237989D01*
X23666940Y-19209023D01*
X23605715Y-19185946D01*
X23571027Y-19172230D01*
X23566508Y-19170032D01*
X23558970Y-19149636D01*
X23549120Y-19118792D01*
X23543562Y-19091643D01*
X23554394Y-19077440D01*
X23590587Y-19072007D01*
X23651469Y-19071167D01*
X23768458Y-19071167D01*
X23663840Y-18854209D01*
X23616908Y-18751489D01*
X23573801Y-18647555D01*
X23540328Y-18556903D01*
X23526034Y-18510250D01*
X23506474Y-18406231D01*
X23495613Y-18286298D01*
X23493786Y-18165444D01*
X23501329Y-18058660D01*
X23514448Y-17993069D01*
X23528867Y-17935165D01*
X23525159Y-17915507D01*
X23503340Y-17934092D01*
X23463426Y-17990917D01*
X23454204Y-18005392D01*
X23385159Y-18133814D01*
X23319291Y-18291312D01*
X23261516Y-18464664D01*
X23216753Y-18640647D01*
X23215244Y-18647834D01*
X23190848Y-18816568D01*
X23180790Y-19007922D01*
X23184698Y-19206662D01*
X23202204Y-19397553D01*
X23232936Y-19565360D01*
X23238014Y-19585174D01*
X23330044Y-19852208D01*
X23458069Y-20104970D01*
X23618209Y-20338939D01*
X23648592Y-20372917D01*
X25315333Y-20372917D01*
X25325917Y-20362334D01*
X25336500Y-20372917D01*
X25325917Y-20383500D01*
X25315333Y-20372917D01*
X23648592Y-20372917D01*
X23667520Y-20394084D01*
X25378833Y-20394084D01*
X25389417Y-20383500D01*
X25400000Y-20394084D01*
X25389417Y-20404667D01*
X25378833Y-20394084D01*
X23667520Y-20394084D01*
X23806584Y-20549597D01*
X24019315Y-20732422D01*
X24252522Y-20882895D01*
X24422421Y-20965106D01*
X24694937Y-21058346D01*
X24975408Y-21113591D01*
X25258970Y-21131439D01*
X25540761Y-21112492D01*
X25540761Y-21112492D01*
G37*
X25540761Y-21112492D02*
X25815920Y-21057350D01*
X26079583Y-20966612D01*
X26326888Y-20840879D01*
X26521833Y-20705968D01*
X26593020Y-20647206D01*
X26663393Y-20585062D01*
X26725545Y-20526580D01*
X26772067Y-20478807D01*
X26795554Y-20448785D01*
X26797000Y-20444283D01*
X26779883Y-20445072D01*
X26735106Y-20461805D01*
X26675292Y-20489452D01*
X26517898Y-20551913D01*
X26352785Y-20585185D01*
X26171836Y-20590091D01*
X25966933Y-20567455D01*
X25944196Y-20563601D01*
X25861388Y-20547067D01*
X25767778Y-20525089D01*
X25671598Y-20500043D01*
X25581082Y-20474302D01*
X25504461Y-20450243D01*
X25449968Y-20430241D01*
X25425837Y-20416670D01*
X25425879Y-20414066D01*
X25449829Y-20413606D01*
X25497514Y-20423696D01*
X25507235Y-20426408D01*
X25625781Y-20451697D01*
X25766846Y-20468303D01*
X25911256Y-20474856D01*
X26039832Y-20469990D01*
X26069513Y-20466518D01*
X26243911Y-20425075D01*
X26388337Y-20355184D01*
X26501910Y-20259149D01*
X26583752Y-20139273D01*
X26632983Y-19997861D01*
X26648723Y-19837216D01*
X26630093Y-19659642D01*
X26576214Y-19467443D01*
X26510405Y-19311456D01*
X26397936Y-19112904D01*
X26255404Y-18917867D01*
X26087934Y-18730009D01*
X25900653Y-18552996D01*
X25698686Y-18390491D01*
X25487160Y-18246160D01*
X25271201Y-18123668D01*
X25055934Y-18026680D01*
X24846486Y-17958860D01*
X24647982Y-17923873D01*
X24563917Y-17919819D01*
X24425406Y-17926110D01*
X24319386Y-17947566D01*
X24238020Y-17986465D01*
X24187754Y-18029198D01*
X24134352Y-18098863D01*
X24102790Y-18178474D01*
X24089079Y-18280428D01*
X24087667Y-18340066D01*
X24103805Y-18496738D01*
X24152375Y-18678233D01*
X24233609Y-18885389D01*
X24246728Y-18914570D01*
X24318091Y-19071167D01*
X24495815Y-19071167D01*
X24582957Y-19071908D01*
X24637433Y-19075848D01*
X24668907Y-19085562D01*
X24687041Y-19103625D01*
X24698102Y-19125080D01*
X24716055Y-19167543D01*
X24722667Y-19188580D01*
X24703171Y-19193032D01*
X24651364Y-19196385D01*
X24577262Y-19198071D01*
X24553333Y-19198167D01*
X24474690Y-19199133D01*
X24415472Y-19201698D01*
X24385697Y-19205368D01*
X24384000Y-19206553D01*
X24392427Y-19227885D01*
X24415347Y-19279650D01*
X24449219Y-19353983D01*
X24488807Y-19439386D01*
X24593614Y-19663834D01*
X24519630Y-19663834D01*
X24469827Y-19656703D01*
X24416481Y-19631576D01*
X24348896Y-19582851D01*
X24320017Y-19559285D01*
X24106694Y-19408324D01*
X23860689Y-19283449D01*
X23745561Y-19237989D01*
X23666940Y-19209023D01*
X23605715Y-19185946D01*
X23571027Y-19172230D01*
X23566508Y-19170032D01*
X23558970Y-19149636D01*
X23549120Y-19118792D01*
X23543562Y-19091643D01*
X23554394Y-19077440D01*
X23590587Y-19072007D01*
X23651469Y-19071167D01*
X23768458Y-19071167D01*
X23663840Y-18854209D01*
X23616908Y-18751489D01*
X23573801Y-18647555D01*
X23540328Y-18556903D01*
X23526034Y-18510250D01*
X23506474Y-18406231D01*
X23495613Y-18286298D01*
X23493786Y-18165444D01*
X23501329Y-18058660D01*
X23514448Y-17993069D01*
X23528867Y-17935165D01*
X23525159Y-17915507D01*
X23503340Y-17934092D01*
X23463426Y-17990917D01*
X23454204Y-18005392D01*
X23385159Y-18133814D01*
X23319291Y-18291312D01*
X23261516Y-18464664D01*
X23216753Y-18640647D01*
X23215244Y-18647834D01*
X23190848Y-18816568D01*
X23180790Y-19007922D01*
X23184698Y-19206662D01*
X23202204Y-19397553D01*
X23232936Y-19565360D01*
X23238014Y-19585174D01*
X23330044Y-19852208D01*
X23458069Y-20104970D01*
X23618209Y-20338939D01*
X23648592Y-20372917D01*
X25315333Y-20372917D01*
X25325917Y-20362334D01*
X25336500Y-20372917D01*
X25325917Y-20383500D01*
X25315333Y-20372917D01*
X23648592Y-20372917D01*
X23667520Y-20394084D01*
X25378833Y-20394084D01*
X25389417Y-20383500D01*
X25400000Y-20394084D01*
X25389417Y-20404667D01*
X25378833Y-20394084D01*
X23667520Y-20394084D01*
X23806584Y-20549597D01*
X24019315Y-20732422D01*
X24252522Y-20882895D01*
X24422421Y-20965106D01*
X24694937Y-21058346D01*
X24975408Y-21113591D01*
X25258970Y-21131439D01*
X25540761Y-21112492D01*
G36*
X36929290Y-17972735D02*
G01*
X36935833Y-17928167D01*
X36926367Y-17877754D01*
X36904083Y-17864667D01*
X36878877Y-17883599D01*
X36872333Y-17928167D01*
X36881799Y-17978580D01*
X36904083Y-17991667D01*
X36929290Y-17972735D01*
X36929290Y-17972735D01*
G37*
X36929290Y-17972735D02*
X36935833Y-17928167D01*
X36926367Y-17877754D01*
X36904083Y-17864667D01*
X36878877Y-17883599D01*
X36872333Y-17928167D01*
X36881799Y-17978580D01*
X36904083Y-17991667D01*
X36929290Y-17972735D01*
G36*
X47674642Y-19018823D02*
G01*
X47792817Y-18950268D01*
X47816877Y-18929822D01*
X47859353Y-18887554D01*
X47892863Y-18842590D01*
X47918441Y-18789480D01*
X47937125Y-18722774D01*
X47949948Y-18637022D01*
X47957946Y-18526773D01*
X47962156Y-18386577D01*
X47963611Y-18210985D01*
X47963667Y-18157159D01*
X47963667Y-17674167D01*
X47752000Y-17674167D01*
X47751535Y-18145125D01*
X47751047Y-18301492D01*
X47749624Y-18421794D01*
X47746799Y-18512298D01*
X47742108Y-18579271D01*
X47735087Y-18628980D01*
X47725270Y-18667690D01*
X47712194Y-18701669D01*
X47709880Y-18706839D01*
X47651168Y-18790215D01*
X47567083Y-18840518D01*
X47460264Y-18856413D01*
X47419263Y-18853746D01*
X47328667Y-18843534D01*
X47328667Y-18933538D01*
X47331367Y-18990867D01*
X47345309Y-19019612D01*
X47379256Y-19033450D01*
X47394812Y-19036771D01*
X47541874Y-19047683D01*
X47674642Y-19018823D01*
X47674642Y-19018823D01*
G37*
X47674642Y-19018823D02*
X47792817Y-18950268D01*
X47816877Y-18929822D01*
X47859353Y-18887554D01*
X47892863Y-18842590D01*
X47918441Y-18789480D01*
X47937125Y-18722774D01*
X47949948Y-18637022D01*
X47957946Y-18526773D01*
X47962156Y-18386577D01*
X47963611Y-18210985D01*
X47963667Y-18157159D01*
X47963667Y-17674167D01*
X47752000Y-17674167D01*
X47751535Y-18145125D01*
X47751047Y-18301492D01*
X47749624Y-18421794D01*
X47746799Y-18512298D01*
X47742108Y-18579271D01*
X47735087Y-18628980D01*
X47725270Y-18667690D01*
X47712194Y-18701669D01*
X47709880Y-18706839D01*
X47651168Y-18790215D01*
X47567083Y-18840518D01*
X47460264Y-18856413D01*
X47419263Y-18853746D01*
X47328667Y-18843534D01*
X47328667Y-18933538D01*
X47331367Y-18990867D01*
X47345309Y-19019612D01*
X47379256Y-19033450D01*
X47394812Y-19036771D01*
X47541874Y-19047683D01*
X47674642Y-19018823D01*
G36*
X47138167Y-17674167D02*
G01*
X46926500Y-17674167D01*
X46926500Y-19367500D01*
X46978039Y-19367500D01*
X47038924Y-19375321D01*
X47083872Y-19388143D01*
X47138167Y-19408786D01*
X47138167Y-17674167D01*
X47138167Y-17674167D01*
G37*
X47138167Y-17674167D02*
X46926500Y-17674167D01*
X46926500Y-19367500D01*
X46978039Y-19367500D01*
X47038924Y-19375321D01*
X47083872Y-19388143D01*
X47138167Y-19408786D01*
X47138167Y-17674167D01*
G36*
X45390484Y-19037897D02*
G01*
X45451947Y-19030489D01*
X45483640Y-19012673D01*
X45491829Y-18980009D01*
X45482784Y-18928062D01*
X45477763Y-18908497D01*
X45454099Y-18840739D01*
X45429552Y-18814351D01*
X45421398Y-18814492D01*
X45296108Y-18841620D01*
X45199805Y-18845069D01*
X45124889Y-18822455D01*
X45063761Y-18771398D01*
X45008820Y-18689514D01*
X45005932Y-18684262D01*
X44993412Y-18655921D01*
X44983720Y-18618684D01*
X44976376Y-18566714D01*
X44970899Y-18494169D01*
X44966810Y-18395212D01*
X44963628Y-18264003D01*
X44961613Y-18145125D01*
X44954479Y-17674167D01*
X44746333Y-17674167D01*
X44746333Y-19007667D01*
X44852167Y-19007667D01*
X44914991Y-19005935D01*
X44946333Y-18997163D01*
X44957011Y-18975986D01*
X44958000Y-18955187D01*
X44958000Y-18902706D01*
X45054858Y-18970978D01*
X45114323Y-19009146D01*
X45166701Y-19029781D01*
X45230094Y-19038080D01*
X45292983Y-19039333D01*
X45390484Y-19037897D01*
X45390484Y-19037897D01*
G37*
X45390484Y-19037897D02*
X45451947Y-19030489D01*
X45483640Y-19012673D01*
X45491829Y-18980009D01*
X45482784Y-18928062D01*
X45477763Y-18908497D01*
X45454099Y-18840739D01*
X45429552Y-18814351D01*
X45421398Y-18814492D01*
X45296108Y-18841620D01*
X45199805Y-18845069D01*
X45124889Y-18822455D01*
X45063761Y-18771398D01*
X45008820Y-18689514D01*
X45005932Y-18684262D01*
X44993412Y-18655921D01*
X44983720Y-18618684D01*
X44976376Y-18566714D01*
X44970899Y-18494169D01*
X44966810Y-18395212D01*
X44963628Y-18264003D01*
X44961613Y-18145125D01*
X44954479Y-17674167D01*
X44746333Y-17674167D01*
X44746333Y-19007667D01*
X44852167Y-19007667D01*
X44914991Y-19005935D01*
X44946333Y-18997163D01*
X44957011Y-18975986D01*
X44958000Y-18955187D01*
X44958000Y-18902706D01*
X45054858Y-18970978D01*
X45114323Y-19009146D01*
X45166701Y-19029781D01*
X45230094Y-19038080D01*
X45292983Y-19039333D01*
X45390484Y-19037897D01*
G36*
X39231323Y-19037584D02*
G01*
X39293212Y-19029783D01*
X39325459Y-19012315D01*
X39334375Y-18981562D01*
X39326271Y-18933907D01*
X39325136Y-18929485D01*
X39309567Y-18871156D01*
X39297663Y-18829214D01*
X39296071Y-18824137D01*
X39279209Y-18811871D01*
X39236889Y-18816256D01*
X39187447Y-18829603D01*
X39073882Y-18847469D01*
X38978396Y-18827092D01*
X38900600Y-18768322D01*
X38854943Y-18701439D01*
X38839963Y-18670555D01*
X38828498Y-18637229D01*
X38819961Y-18595257D01*
X38813763Y-18538440D01*
X38809316Y-18460573D01*
X38806033Y-18355457D01*
X38803324Y-18216890D01*
X38802184Y-18145125D01*
X38794979Y-17674167D01*
X38586833Y-17674167D01*
X38586833Y-19007667D01*
X38692667Y-19007667D01*
X38755491Y-19005935D01*
X38786833Y-18997163D01*
X38797511Y-18975986D01*
X38798500Y-18955187D01*
X38798500Y-18902706D01*
X38895358Y-18970978D01*
X38954823Y-19009146D01*
X39007201Y-19029781D01*
X39070594Y-19038080D01*
X39133483Y-19039333D01*
X39231323Y-19037584D01*
X39231323Y-19037584D01*
G37*
X39231323Y-19037584D02*
X39293212Y-19029783D01*
X39325459Y-19012315D01*
X39334375Y-18981562D01*
X39326271Y-18933907D01*
X39325136Y-18929485D01*
X39309567Y-18871156D01*
X39297663Y-18829214D01*
X39296071Y-18824137D01*
X39279209Y-18811871D01*
X39236889Y-18816256D01*
X39187447Y-18829603D01*
X39073882Y-18847469D01*
X38978396Y-18827092D01*
X38900600Y-18768322D01*
X38854943Y-18701439D01*
X38839963Y-18670555D01*
X38828498Y-18637229D01*
X38819961Y-18595257D01*
X38813763Y-18538440D01*
X38809316Y-18460573D01*
X38806033Y-18355457D01*
X38803324Y-18216890D01*
X38802184Y-18145125D01*
X38794979Y-17674167D01*
X38586833Y-17674167D01*
X38586833Y-19007667D01*
X38692667Y-19007667D01*
X38755491Y-19005935D01*
X38786833Y-18997163D01*
X38797511Y-18975986D01*
X38798500Y-18955187D01*
X38798500Y-18902706D01*
X38895358Y-18970978D01*
X38954823Y-19009146D01*
X39007201Y-19029781D01*
X39070594Y-19038080D01*
X39133483Y-19039333D01*
X39231323Y-19037584D01*
G36*
X36927566Y-17806269D02*
G01*
X36935776Y-17754998D01*
X36935833Y-17748250D01*
X36928948Y-17693457D01*
X36906975Y-17674301D01*
X36904083Y-17674167D01*
X36880600Y-17690232D01*
X36872391Y-17741503D01*
X36872333Y-17748250D01*
X36879218Y-17803044D01*
X36901192Y-17822200D01*
X36904083Y-17822334D01*
X36927566Y-17806269D01*
X36927566Y-17806269D01*
G37*
X36927566Y-17806269D02*
X36935776Y-17754998D01*
X36935833Y-17748250D01*
X36928948Y-17693457D01*
X36906975Y-17674301D01*
X36904083Y-17674167D01*
X36880600Y-17690232D01*
X36872391Y-17741503D01*
X36872333Y-17748250D01*
X36879218Y-17803044D01*
X36901192Y-17822200D01*
X36904083Y-17822334D01*
X36927566Y-17806269D01*
G36*
X46422985Y-19004318D02*
G01*
X46477833Y-18980119D01*
X46553972Y-18937031D01*
X46592858Y-18898750D01*
X46597894Y-18858285D01*
X46572481Y-18808640D01*
X46565775Y-18799321D01*
X46530493Y-18756687D01*
X46504197Y-18733761D01*
X46500126Y-18732500D01*
X46474077Y-18743450D01*
X46427739Y-18770993D01*
X46406728Y-18784857D01*
X46291953Y-18841467D01*
X46179173Y-18857932D01*
X46073675Y-18836313D01*
X45980747Y-18778670D01*
X45905676Y-18687065D01*
X45855610Y-18570096D01*
X45835136Y-18462600D01*
X45828763Y-18340793D01*
X45835862Y-18219473D01*
X45855799Y-18113436D01*
X45877592Y-18055167D01*
X45952020Y-17945506D01*
X46042338Y-17871658D01*
X46143418Y-17834891D01*
X46250133Y-17836471D01*
X46357354Y-17877665D01*
X46419168Y-17921394D01*
X46485261Y-17977008D01*
X46552422Y-17908773D01*
X46619583Y-17840537D01*
X46540743Y-17771446D01*
X46474400Y-17723503D01*
X46402337Y-17685922D01*
X46379537Y-17677678D01*
X46293273Y-17661157D01*
X46190050Y-17654796D01*
X46086150Y-17658365D01*
X45997856Y-17671633D01*
X45960355Y-17683620D01*
X45862568Y-17743933D01*
X45769979Y-17832346D01*
X45695746Y-17935382D01*
X45674905Y-17975969D01*
X45652837Y-18029920D01*
X45638288Y-18082571D01*
X45629758Y-18144846D01*
X45625746Y-18227667D01*
X45624750Y-18340917D01*
X45625767Y-18454963D01*
X45629817Y-18537616D01*
X45638396Y-18599789D01*
X45653002Y-18652396D01*
X45674772Y-18705556D01*
X45754701Y-18834617D01*
X45861143Y-18934913D01*
X45987645Y-19004237D01*
X46127754Y-19040383D01*
X46275019Y-19041145D01*
X46422985Y-19004318D01*
X46422985Y-19004318D01*
G37*
X46422985Y-19004318D02*
X46477833Y-18980119D01*
X46553972Y-18937031D01*
X46592858Y-18898750D01*
X46597894Y-18858285D01*
X46572481Y-18808640D01*
X46565775Y-18799321D01*
X46530493Y-18756687D01*
X46504197Y-18733761D01*
X46500126Y-18732500D01*
X46474077Y-18743450D01*
X46427739Y-18770993D01*
X46406728Y-18784857D01*
X46291953Y-18841467D01*
X46179173Y-18857932D01*
X46073675Y-18836313D01*
X45980747Y-18778670D01*
X45905676Y-18687065D01*
X45855610Y-18570096D01*
X45835136Y-18462600D01*
X45828763Y-18340793D01*
X45835862Y-18219473D01*
X45855799Y-18113436D01*
X45877592Y-18055167D01*
X45952020Y-17945506D01*
X46042338Y-17871658D01*
X46143418Y-17834891D01*
X46250133Y-17836471D01*
X46357354Y-17877665D01*
X46419168Y-17921394D01*
X46485261Y-17977008D01*
X46552422Y-17908773D01*
X46619583Y-17840537D01*
X46540743Y-17771446D01*
X46474400Y-17723503D01*
X46402337Y-17685922D01*
X46379537Y-17677678D01*
X46293273Y-17661157D01*
X46190050Y-17654796D01*
X46086150Y-17658365D01*
X45997856Y-17671633D01*
X45960355Y-17683620D01*
X45862568Y-17743933D01*
X45769979Y-17832346D01*
X45695746Y-17935382D01*
X45674905Y-17975969D01*
X45652837Y-18029920D01*
X45638288Y-18082571D01*
X45629758Y-18144846D01*
X45625746Y-18227667D01*
X45624750Y-18340917D01*
X45625767Y-18454963D01*
X45629817Y-18537616D01*
X45638396Y-18599789D01*
X45653002Y-18652396D01*
X45674772Y-18705556D01*
X45754701Y-18834617D01*
X45861143Y-18934913D01*
X45987645Y-19004237D01*
X46127754Y-19040383D01*
X46275019Y-19041145D01*
X46422985Y-19004318D01*
G36*
X43987408Y-19037377D02*
G01*
X44056849Y-19030585D01*
X44110784Y-19016315D01*
X44162589Y-18992073D01*
X44173061Y-18986266D01*
X44223534Y-18955832D01*
X44263702Y-18924314D01*
X44294810Y-18886646D01*
X44318097Y-18837758D01*
X44334807Y-18772584D01*
X44346181Y-18686056D01*
X44353461Y-18573105D01*
X44357889Y-18428665D01*
X44360708Y-18247667D01*
X44361044Y-18219209D01*
X44367338Y-17674167D01*
X44260502Y-17674167D01*
X44197469Y-17675543D01*
X44165898Y-17683916D01*
X44154922Y-17705656D01*
X44153667Y-17736793D01*
X44153667Y-17799419D01*
X44044442Y-17731501D01*
X43982372Y-17696029D01*
X43927018Y-17674801D01*
X43862466Y-17663655D01*
X43772803Y-17658428D01*
X43763983Y-17658138D01*
X43667022Y-17657494D01*
X43598453Y-17664255D01*
X43544680Y-17680423D01*
X43515078Y-17694812D01*
X43422393Y-17765859D01*
X43358785Y-17864454D01*
X43328146Y-17960007D01*
X43314192Y-18101901D01*
X43337813Y-18229098D01*
X43397714Y-18337960D01*
X43492599Y-18424849D01*
X43494022Y-18425795D01*
X43567281Y-18461583D01*
X43662259Y-18491115D01*
X43763169Y-18511083D01*
X43854227Y-18518176D01*
X43908247Y-18512644D01*
X43944249Y-18497662D01*
X43959920Y-18467814D01*
X43963167Y-18414597D01*
X43963167Y-18330334D01*
X43830875Y-18330255D01*
X43709910Y-18318860D01*
X43621813Y-18283608D01*
X43563289Y-18222651D01*
X43538971Y-18166468D01*
X43526012Y-18065767D01*
X43544903Y-17971592D01*
X43592225Y-17895204D01*
X43630867Y-17863781D01*
X43723010Y-17830747D01*
X43829948Y-17829014D01*
X43940617Y-17856368D01*
X44043953Y-17910592D01*
X44100618Y-17957861D01*
X44120974Y-17979739D01*
X44135318Y-18002866D01*
X44144703Y-18034619D01*
X44150178Y-18082372D01*
X44152797Y-18153503D01*
X44153609Y-18255386D01*
X44153667Y-18330052D01*
X44151844Y-18481961D01*
X44145370Y-18597673D01*
X44132738Y-18683209D01*
X44112441Y-18744586D01*
X44082970Y-18787825D01*
X44042820Y-18818945D01*
X44029385Y-18826345D01*
X43941226Y-18852713D01*
X43831227Y-18857011D01*
X43713467Y-18839569D01*
X43640602Y-18817178D01*
X43576609Y-18793921D01*
X43528926Y-18778544D01*
X43512295Y-18774845D01*
X43493475Y-18792591D01*
X43470872Y-18834891D01*
X43451277Y-18885306D01*
X43441483Y-18927398D01*
X43443238Y-18941990D01*
X43478493Y-18967644D01*
X43546224Y-18992250D01*
X43636587Y-19013663D01*
X43739737Y-19029737D01*
X43845832Y-19038325D01*
X43889083Y-19039183D01*
X43987408Y-19037377D01*
X43987408Y-19037377D01*
G37*
X43987408Y-19037377D02*
X44056849Y-19030585D01*
X44110784Y-19016315D01*
X44162589Y-18992073D01*
X44173061Y-18986266D01*
X44223534Y-18955832D01*
X44263702Y-18924314D01*
X44294810Y-18886646D01*
X44318097Y-18837758D01*
X44334807Y-18772584D01*
X44346181Y-18686056D01*
X44353461Y-18573105D01*
X44357889Y-18428665D01*
X44360708Y-18247667D01*
X44361044Y-18219209D01*
X44367338Y-17674167D01*
X44260502Y-17674167D01*
X44197469Y-17675543D01*
X44165898Y-17683916D01*
X44154922Y-17705656D01*
X44153667Y-17736793D01*
X44153667Y-17799419D01*
X44044442Y-17731501D01*
X43982372Y-17696029D01*
X43927018Y-17674801D01*
X43862466Y-17663655D01*
X43772803Y-17658428D01*
X43763983Y-17658138D01*
X43667022Y-17657494D01*
X43598453Y-17664255D01*
X43544680Y-17680423D01*
X43515078Y-17694812D01*
X43422393Y-17765859D01*
X43358785Y-17864454D01*
X43328146Y-17960007D01*
X43314192Y-18101901D01*
X43337813Y-18229098D01*
X43397714Y-18337960D01*
X43492599Y-18424849D01*
X43494022Y-18425795D01*
X43567281Y-18461583D01*
X43662259Y-18491115D01*
X43763169Y-18511083D01*
X43854227Y-18518176D01*
X43908247Y-18512644D01*
X43944249Y-18497662D01*
X43959920Y-18467814D01*
X43963167Y-18414597D01*
X43963167Y-18330334D01*
X43830875Y-18330255D01*
X43709910Y-18318860D01*
X43621813Y-18283608D01*
X43563289Y-18222651D01*
X43538971Y-18166468D01*
X43526012Y-18065767D01*
X43544903Y-17971592D01*
X43592225Y-17895204D01*
X43630867Y-17863781D01*
X43723010Y-17830747D01*
X43829948Y-17829014D01*
X43940617Y-17856368D01*
X44043953Y-17910592D01*
X44100618Y-17957861D01*
X44120974Y-17979739D01*
X44135318Y-18002866D01*
X44144703Y-18034619D01*
X44150178Y-18082372D01*
X44152797Y-18153503D01*
X44153609Y-18255386D01*
X44153667Y-18330052D01*
X44151844Y-18481961D01*
X44145370Y-18597673D01*
X44132738Y-18683209D01*
X44112441Y-18744586D01*
X44082970Y-18787825D01*
X44042820Y-18818945D01*
X44029385Y-18826345D01*
X43941226Y-18852713D01*
X43831227Y-18857011D01*
X43713467Y-18839569D01*
X43640602Y-18817178D01*
X43576609Y-18793921D01*
X43528926Y-18778544D01*
X43512295Y-18774845D01*
X43493475Y-18792591D01*
X43470872Y-18834891D01*
X43451277Y-18885306D01*
X43441483Y-18927398D01*
X43443238Y-18941990D01*
X43478493Y-18967644D01*
X43546224Y-18992250D01*
X43636587Y-19013663D01*
X43739737Y-19029737D01*
X43845832Y-19038325D01*
X43889083Y-19039183D01*
X43987408Y-19037377D01*
G36*
X42627684Y-19039343D02*
G01*
X42753390Y-19001489D01*
X42866734Y-18932139D01*
X42961016Y-18832220D01*
X43016265Y-18735358D01*
X43046585Y-18636022D01*
X43065763Y-18503285D01*
X43069423Y-18453008D01*
X43080038Y-18266834D01*
X42375667Y-18266834D01*
X42375667Y-18436167D01*
X42885585Y-18436167D01*
X42871586Y-18515542D01*
X42840351Y-18617986D01*
X42787997Y-18715436D01*
X42723959Y-18791269D01*
X42707489Y-18804709D01*
X42631450Y-18838726D01*
X42537072Y-18850568D01*
X42442101Y-18840195D01*
X42364284Y-18807567D01*
X42361344Y-18805484D01*
X42289970Y-18729587D01*
X42235836Y-18623065D01*
X42201173Y-18494876D01*
X42188210Y-18353978D01*
X42199178Y-18209329D01*
X42205054Y-18177743D01*
X42252186Y-18036259D01*
X42328381Y-17925132D01*
X42382213Y-17877419D01*
X42462432Y-17842152D01*
X42564702Y-17833322D01*
X42678390Y-17850463D01*
X42792859Y-17893108D01*
X42797940Y-17895660D01*
X42913297Y-17954336D01*
X42961869Y-17893626D01*
X42992196Y-17848426D01*
X43004323Y-17815302D01*
X43003882Y-17811750D01*
X42983063Y-17791155D01*
X42935541Y-17758923D01*
X42882286Y-17727993D01*
X42817940Y-17696157D01*
X42758244Y-17676369D01*
X42688242Y-17665240D01*
X42592983Y-17659384D01*
X42576750Y-17658792D01*
X42451723Y-17658656D01*
X42363509Y-17668567D01*
X42321105Y-17681786D01*
X42205574Y-17756795D01*
X42107863Y-17866517D01*
X42046237Y-17975222D01*
X42018135Y-18041324D01*
X42000256Y-18099409D01*
X41990307Y-18162784D01*
X41985996Y-18244759D01*
X41985073Y-18330334D01*
X41990941Y-18490705D01*
X42011294Y-18619725D01*
X42048779Y-18726687D01*
X42106046Y-18820887D01*
X42135236Y-18857252D01*
X42243392Y-18954654D01*
X42365985Y-19016852D01*
X42496316Y-19044773D01*
X42627684Y-19039343D01*
X42627684Y-19039343D01*
G37*
X42627684Y-19039343D02*
X42753390Y-19001489D01*
X42866734Y-18932139D01*
X42961016Y-18832220D01*
X43016265Y-18735358D01*
X43046585Y-18636022D01*
X43065763Y-18503285D01*
X43069423Y-18453008D01*
X43080038Y-18266834D01*
X42375667Y-18266834D01*
X42375667Y-18436167D01*
X42885585Y-18436167D01*
X42871586Y-18515542D01*
X42840351Y-18617986D01*
X42787997Y-18715436D01*
X42723959Y-18791269D01*
X42707489Y-18804709D01*
X42631450Y-18838726D01*
X42537072Y-18850568D01*
X42442101Y-18840195D01*
X42364284Y-18807567D01*
X42361344Y-18805484D01*
X42289970Y-18729587D01*
X42235836Y-18623065D01*
X42201173Y-18494876D01*
X42188210Y-18353978D01*
X42199178Y-18209329D01*
X42205054Y-18177743D01*
X42252186Y-18036259D01*
X42328381Y-17925132D01*
X42382213Y-17877419D01*
X42462432Y-17842152D01*
X42564702Y-17833322D01*
X42678390Y-17850463D01*
X42792859Y-17893108D01*
X42797940Y-17895660D01*
X42913297Y-17954336D01*
X42961869Y-17893626D01*
X42992196Y-17848426D01*
X43004323Y-17815302D01*
X43003882Y-17811750D01*
X42983063Y-17791155D01*
X42935541Y-17758923D01*
X42882286Y-17727993D01*
X42817940Y-17696157D01*
X42758244Y-17676369D01*
X42688242Y-17665240D01*
X42592983Y-17659384D01*
X42576750Y-17658792D01*
X42451723Y-17658656D01*
X42363509Y-17668567D01*
X42321105Y-17681786D01*
X42205574Y-17756795D01*
X42107863Y-17866517D01*
X42046237Y-17975222D01*
X42018135Y-18041324D01*
X42000256Y-18099409D01*
X41990307Y-18162784D01*
X41985996Y-18244759D01*
X41985073Y-18330334D01*
X41990941Y-18490705D01*
X42011294Y-18619725D01*
X42048779Y-18726687D01*
X42106046Y-18820887D01*
X42135236Y-18857252D01*
X42243392Y-18954654D01*
X42365985Y-19016852D01*
X42496316Y-19044773D01*
X42627684Y-19039343D01*
G36*
X41383150Y-19036312D02*
G01*
X41456498Y-19025697D01*
X41523744Y-19003606D01*
X41576724Y-18979385D01*
X41639443Y-18945040D01*
X41683083Y-18914141D01*
X41697572Y-18894985D01*
X41684580Y-18863294D01*
X41653593Y-18817455D01*
X41646793Y-18808917D01*
X41596775Y-18747750D01*
X41484648Y-18803625D01*
X41378320Y-18843247D01*
X41275103Y-18857973D01*
X41182857Y-18848963D01*
X41109440Y-18817377D01*
X41062711Y-18764373D01*
X41053888Y-18740084D01*
X41051111Y-18690654D01*
X41071418Y-18643564D01*
X41118738Y-18595113D01*
X41197002Y-18541600D01*
X41310138Y-18479324D01*
X41354703Y-18456764D01*
X41471258Y-18397472D01*
X41555909Y-18350380D01*
X41615279Y-18310138D01*
X41655989Y-18271399D01*
X41684663Y-18228815D01*
X41707923Y-18177036D01*
X41711032Y-18168989D01*
X41736305Y-18048978D01*
X41723555Y-17932006D01*
X41676047Y-17826243D01*
X41597051Y-17739856D01*
X41520874Y-17693495D01*
X41446120Y-17671756D01*
X41345848Y-17658433D01*
X41236160Y-17654218D01*
X41133161Y-17659803D01*
X41059882Y-17673664D01*
X41011204Y-17692504D01*
X40949090Y-17721877D01*
X40884831Y-17755673D01*
X40829717Y-17787783D01*
X40795037Y-17812095D01*
X40788736Y-17820406D01*
X40801431Y-17842927D01*
X40832693Y-17884800D01*
X40848341Y-17904088D01*
X40907376Y-17975259D01*
X41022396Y-17910898D01*
X41143095Y-17854223D01*
X41249082Y-17829956D01*
X41350387Y-17836158D01*
X41376688Y-17842384D01*
X41458971Y-17880920D01*
X41510934Y-17939056D01*
X41529767Y-18008550D01*
X41512662Y-18081157D01*
X41475330Y-18131928D01*
X41432233Y-18164619D01*
X41362256Y-18206754D01*
X41277507Y-18251286D01*
X41237205Y-18270494D01*
X41099216Y-18338295D01*
X40997188Y-18400212D01*
X40926271Y-18461608D01*
X40881612Y-18527842D01*
X40858361Y-18604278D01*
X40851667Y-18696276D01*
X40851667Y-18696569D01*
X40868517Y-18817039D01*
X40918853Y-18911777D01*
X41002345Y-18980525D01*
X41118668Y-19023025D01*
X41267495Y-19039019D01*
X41285683Y-19039150D01*
X41383150Y-19036312D01*
X41383150Y-19036312D01*
G37*
X41383150Y-19036312D02*
X41456498Y-19025697D01*
X41523744Y-19003606D01*
X41576724Y-18979385D01*
X41639443Y-18945040D01*
X41683083Y-18914141D01*
X41697572Y-18894985D01*
X41684580Y-18863294D01*
X41653593Y-18817455D01*
X41646793Y-18808917D01*
X41596775Y-18747750D01*
X41484648Y-18803625D01*
X41378320Y-18843247D01*
X41275103Y-18857973D01*
X41182857Y-18848963D01*
X41109440Y-18817377D01*
X41062711Y-18764373D01*
X41053888Y-18740084D01*
X41051111Y-18690654D01*
X41071418Y-18643564D01*
X41118738Y-18595113D01*
X41197002Y-18541600D01*
X41310138Y-18479324D01*
X41354703Y-18456764D01*
X41471258Y-18397472D01*
X41555909Y-18350380D01*
X41615279Y-18310138D01*
X41655989Y-18271399D01*
X41684663Y-18228815D01*
X41707923Y-18177036D01*
X41711032Y-18168989D01*
X41736305Y-18048978D01*
X41723555Y-17932006D01*
X41676047Y-17826243D01*
X41597051Y-17739856D01*
X41520874Y-17693495D01*
X41446120Y-17671756D01*
X41345848Y-17658433D01*
X41236160Y-17654218D01*
X41133161Y-17659803D01*
X41059882Y-17673664D01*
X41011204Y-17692504D01*
X40949090Y-17721877D01*
X40884831Y-17755673D01*
X40829717Y-17787783D01*
X40795037Y-17812095D01*
X40788736Y-17820406D01*
X40801431Y-17842927D01*
X40832693Y-17884800D01*
X40848341Y-17904088D01*
X40907376Y-17975259D01*
X41022396Y-17910898D01*
X41143095Y-17854223D01*
X41249082Y-17829956D01*
X41350387Y-17836158D01*
X41376688Y-17842384D01*
X41458971Y-17880920D01*
X41510934Y-17939056D01*
X41529767Y-18008550D01*
X41512662Y-18081157D01*
X41475330Y-18131928D01*
X41432233Y-18164619D01*
X41362256Y-18206754D01*
X41277507Y-18251286D01*
X41237205Y-18270494D01*
X41099216Y-18338295D01*
X40997188Y-18400212D01*
X40926271Y-18461608D01*
X40881612Y-18527842D01*
X40858361Y-18604278D01*
X40851667Y-18696276D01*
X40851667Y-18696569D01*
X40868517Y-18817039D01*
X40918853Y-18911777D01*
X41002345Y-18980525D01*
X41118668Y-19023025D01*
X41267495Y-19039019D01*
X41285683Y-19039150D01*
X41383150Y-19036312D01*
G36*
X40194477Y-19025366D02*
G01*
X40313271Y-18983339D01*
X40409576Y-18909317D01*
X40489251Y-18799769D01*
X40510565Y-18759892D01*
X40540474Y-18680994D01*
X40565094Y-18581122D01*
X40581740Y-18476262D01*
X40587723Y-18382398D01*
X40583283Y-18327210D01*
X40571208Y-18266834D01*
X39899167Y-18266834D01*
X39899167Y-18436167D01*
X40391410Y-18436167D01*
X40377028Y-18526125D01*
X40341297Y-18646457D01*
X40280146Y-18742959D01*
X40199729Y-18812372D01*
X40106204Y-18851434D01*
X40005725Y-18856886D01*
X39904447Y-18825468D01*
X39861376Y-18799235D01*
X39794148Y-18727948D01*
X39742212Y-18625899D01*
X39708170Y-18502713D01*
X39694626Y-18368012D01*
X39704180Y-18231423D01*
X39705595Y-18223094D01*
X39746830Y-18073675D01*
X39810520Y-17958982D01*
X39894576Y-17880144D01*
X39996911Y-17838286D01*
X40115438Y-17834538D01*
X40248067Y-17870025D01*
X40308578Y-17897459D01*
X40368175Y-17926357D01*
X40411811Y-17945189D01*
X40425723Y-17949334D01*
X40445285Y-17932760D01*
X40472764Y-17893675D01*
X40498401Y-17848034D01*
X40512438Y-17811795D01*
X40513000Y-17806628D01*
X40495513Y-17787678D01*
X40449852Y-17757625D01*
X40391292Y-17725775D01*
X40321516Y-17694161D01*
X40256352Y-17674697D01*
X40180078Y-17664009D01*
X40079083Y-17658789D01*
X39982876Y-17657210D01*
X39915328Y-17661064D01*
X39862885Y-17672566D01*
X39811995Y-17693933D01*
X39787787Y-17706401D01*
X39673091Y-17790555D01*
X39586535Y-17906217D01*
X39528212Y-18053185D01*
X39498216Y-18231256D01*
X39493833Y-18339198D01*
X39507482Y-18533092D01*
X39549907Y-18696524D01*
X39621570Y-18830505D01*
X39722934Y-18936044D01*
X39787149Y-18979794D01*
X39848624Y-19012143D01*
X39905560Y-19030201D01*
X39974807Y-19037797D01*
X40047333Y-19038927D01*
X40194477Y-19025366D01*
X40194477Y-19025366D01*
G37*
X40194477Y-19025366D02*
X40313271Y-18983339D01*
X40409576Y-18909317D01*
X40489251Y-18799769D01*
X40510565Y-18759892D01*
X40540474Y-18680994D01*
X40565094Y-18581122D01*
X40581740Y-18476262D01*
X40587723Y-18382398D01*
X40583283Y-18327210D01*
X40571208Y-18266834D01*
X39899167Y-18266834D01*
X39899167Y-18436167D01*
X40391410Y-18436167D01*
X40377028Y-18526125D01*
X40341297Y-18646457D01*
X40280146Y-18742959D01*
X40199729Y-18812372D01*
X40106204Y-18851434D01*
X40005725Y-18856886D01*
X39904447Y-18825468D01*
X39861376Y-18799235D01*
X39794148Y-18727948D01*
X39742212Y-18625899D01*
X39708170Y-18502713D01*
X39694626Y-18368012D01*
X39704180Y-18231423D01*
X39705595Y-18223094D01*
X39746830Y-18073675D01*
X39810520Y-17958982D01*
X39894576Y-17880144D01*
X39996911Y-17838286D01*
X40115438Y-17834538D01*
X40248067Y-17870025D01*
X40308578Y-17897459D01*
X40368175Y-17926357D01*
X40411811Y-17945189D01*
X40425723Y-17949334D01*
X40445285Y-17932760D01*
X40472764Y-17893675D01*
X40498401Y-17848034D01*
X40512438Y-17811795D01*
X40513000Y-17806628D01*
X40495513Y-17787678D01*
X40449852Y-17757625D01*
X40391292Y-17725775D01*
X40321516Y-17694161D01*
X40256352Y-17674697D01*
X40180078Y-17664009D01*
X40079083Y-17658789D01*
X39982876Y-17657210D01*
X39915328Y-17661064D01*
X39862885Y-17672566D01*
X39811995Y-17693933D01*
X39787787Y-17706401D01*
X39673091Y-17790555D01*
X39586535Y-17906217D01*
X39528212Y-18053185D01*
X39498216Y-18231256D01*
X39493833Y-18339198D01*
X39507482Y-18533092D01*
X39549907Y-18696524D01*
X39621570Y-18830505D01*
X39722934Y-18936044D01*
X39787149Y-18979794D01*
X39848624Y-19012143D01*
X39905560Y-19030201D01*
X39974807Y-19037797D01*
X40047333Y-19038927D01*
X40194477Y-19025366D01*
G36*
X33033329Y-18391326D02*
G01*
X33130404Y-18382019D01*
X33198562Y-18363237D01*
X33244411Y-18332302D01*
X33274556Y-18286538D01*
X33292443Y-18235163D01*
X33301985Y-18155302D01*
X33291070Y-18075998D01*
X33263767Y-18008110D01*
X33224148Y-17962497D01*
X33185288Y-17949334D01*
X33170790Y-17941879D01*
X33173662Y-17915830D01*
X33195763Y-17865661D01*
X33238951Y-17785846D01*
X33242250Y-17780000D01*
X33278912Y-17712615D01*
X33305402Y-17659111D01*
X33316294Y-17630492D01*
X33316333Y-17629800D01*
X33297352Y-17618707D01*
X33249064Y-17611968D01*
X33215792Y-17610993D01*
X33115250Y-17611319D01*
X33040092Y-17753868D01*
X32999146Y-17827866D01*
X32967822Y-17871737D01*
X32938111Y-17893843D01*
X32902008Y-17902544D01*
X32897217Y-17903050D01*
X32829500Y-17909683D01*
X32829500Y-17610667D01*
X32639000Y-17610667D01*
X32639000Y-18245667D01*
X32829500Y-18245667D01*
X32829500Y-18076334D01*
X32940625Y-18076658D01*
X33008186Y-18079639D01*
X33059127Y-18086905D01*
X33075034Y-18092533D01*
X33107339Y-18136624D01*
X33107313Y-18193337D01*
X33101062Y-18208625D01*
X33079747Y-18230580D01*
X33037861Y-18242051D01*
X32965187Y-18245641D01*
X32955755Y-18245667D01*
X32829500Y-18245667D01*
X32639000Y-18245667D01*
X32639000Y-18393834D01*
X32900729Y-18393834D01*
X33033329Y-18391326D01*
X33033329Y-18391326D01*
G37*
X33033329Y-18391326D02*
X33130404Y-18382019D01*
X33198562Y-18363237D01*
X33244411Y-18332302D01*
X33274556Y-18286538D01*
X33292443Y-18235163D01*
X33301985Y-18155302D01*
X33291070Y-18075998D01*
X33263767Y-18008110D01*
X33224148Y-17962497D01*
X33185288Y-17949334D01*
X33170790Y-17941879D01*
X33173662Y-17915830D01*
X33195763Y-17865661D01*
X33238951Y-17785846D01*
X33242250Y-17780000D01*
X33278912Y-17712615D01*
X33305402Y-17659111D01*
X33316294Y-17630492D01*
X33316333Y-17629800D01*
X33297352Y-17618707D01*
X33249064Y-17611968D01*
X33215792Y-17610993D01*
X33115250Y-17611319D01*
X33040092Y-17753868D01*
X32999146Y-17827866D01*
X32967822Y-17871737D01*
X32938111Y-17893843D01*
X32902008Y-17902544D01*
X32897217Y-17903050D01*
X32829500Y-17909683D01*
X32829500Y-17610667D01*
X32639000Y-17610667D01*
X32639000Y-18245667D01*
X32829500Y-18245667D01*
X32829500Y-18076334D01*
X32940625Y-18076658D01*
X33008186Y-18079639D01*
X33059127Y-18086905D01*
X33075034Y-18092533D01*
X33107339Y-18136624D01*
X33107313Y-18193337D01*
X33101062Y-18208625D01*
X33079747Y-18230580D01*
X33037861Y-18242051D01*
X32965187Y-18245641D01*
X32955755Y-18245667D01*
X32829500Y-18245667D01*
X32639000Y-18245667D01*
X32639000Y-18393834D01*
X32900729Y-18393834D01*
X33033329Y-18391326D01*
G36*
X30056667Y-17610667D02*
G01*
X29887333Y-17610667D01*
X29887333Y-18393834D01*
X30056667Y-18393834D01*
X30056667Y-17610667D01*
X30056667Y-17610667D01*
G37*
X30056667Y-17610667D02*
X29887333Y-17610667D01*
X29887333Y-18393834D01*
X30056667Y-18393834D01*
X30056667Y-17610667D01*
G36*
X28441081Y-18155753D02*
G01*
X28504109Y-17917673D01*
X28565911Y-18155753D01*
X28627713Y-18393834D01*
X28892500Y-18393834D01*
X28892500Y-17610667D01*
X28723167Y-17610667D01*
X28721153Y-17859375D01*
X28719140Y-18108084D01*
X28590704Y-17608500D01*
X28418368Y-17621250D01*
X28350516Y-17885834D01*
X28282663Y-18150417D01*
X28278667Y-17610667D01*
X28130500Y-17610667D01*
X28130500Y-18393834D01*
X28378053Y-18393834D01*
X28441081Y-18155753D01*
X28441081Y-18155753D01*
G37*
X28441081Y-18155753D02*
X28504109Y-17917673D01*
X28565911Y-18155753D01*
X28627713Y-18393834D01*
X28892500Y-18393834D01*
X28892500Y-17610667D01*
X28723167Y-17610667D01*
X28721153Y-17859375D01*
X28719140Y-18108084D01*
X28590704Y-17608500D01*
X28418368Y-17621250D01*
X28350516Y-17885834D01*
X28282663Y-18150417D01*
X28278667Y-17610667D01*
X28130500Y-17610667D01*
X28130500Y-18393834D01*
X28378053Y-18393834D01*
X28441081Y-18155753D01*
G36*
X34614575Y-18407304D02*
G01*
X34705626Y-18383653D01*
X34748390Y-18360122D01*
X34817057Y-18301038D01*
X34861231Y-18239313D01*
X34886352Y-18162940D01*
X34897863Y-18059913D01*
X34899302Y-18027172D01*
X34900720Y-17934454D01*
X34895653Y-17870009D01*
X34881816Y-17819987D01*
X34856957Y-17770597D01*
X34811930Y-17709404D01*
X34759305Y-17659678D01*
X34745071Y-17650195D01*
X34662481Y-17618654D01*
X34559616Y-17601907D01*
X34456599Y-17602085D01*
X34395833Y-17613223D01*
X34294529Y-17664001D01*
X34216910Y-17746184D01*
X34166134Y-17854153D01*
X34145357Y-17982290D01*
X34145612Y-17991090D01*
X34332333Y-17991090D01*
X34336561Y-17918909D01*
X34353874Y-17869491D01*
X34391215Y-17823715D01*
X34394205Y-17820706D01*
X34468905Y-17771590D01*
X34551915Y-17758667D01*
X34631910Y-17783265D01*
X34644516Y-17791359D01*
X34679561Y-17832276D01*
X34709003Y-17893585D01*
X34714449Y-17911146D01*
X34727760Y-18015735D01*
X34712518Y-18108882D01*
X34673440Y-18184536D01*
X34615242Y-18236644D01*
X34542643Y-18259155D01*
X34460359Y-18246016D01*
X34455081Y-18243906D01*
X34388192Y-18194135D01*
X34347086Y-18111577D01*
X34332366Y-17997478D01*
X34332333Y-17991090D01*
X34145612Y-17991090D01*
X34147471Y-18055184D01*
X34172185Y-18183314D01*
X34222155Y-18281084D01*
X34300638Y-18354301D01*
X34322929Y-18368200D01*
X34407734Y-18399872D01*
X34510114Y-18412808D01*
X34614575Y-18407304D01*
X34614575Y-18407304D01*
G37*
X34614575Y-18407304D02*
X34705626Y-18383653D01*
X34748390Y-18360122D01*
X34817057Y-18301038D01*
X34861231Y-18239313D01*
X34886352Y-18162940D01*
X34897863Y-18059913D01*
X34899302Y-18027172D01*
X34900720Y-17934454D01*
X34895653Y-17870009D01*
X34881816Y-17819987D01*
X34856957Y-17770597D01*
X34811930Y-17709404D01*
X34759305Y-17659678D01*
X34745071Y-17650195D01*
X34662481Y-17618654D01*
X34559616Y-17601907D01*
X34456599Y-17602085D01*
X34395833Y-17613223D01*
X34294529Y-17664001D01*
X34216910Y-17746184D01*
X34166134Y-17854153D01*
X34145357Y-17982290D01*
X34145612Y-17991090D01*
X34332333Y-17991090D01*
X34336561Y-17918909D01*
X34353874Y-17869491D01*
X34391215Y-17823715D01*
X34394205Y-17820706D01*
X34468905Y-17771590D01*
X34551915Y-17758667D01*
X34631910Y-17783265D01*
X34644516Y-17791359D01*
X34679561Y-17832276D01*
X34709003Y-17893585D01*
X34714449Y-17911146D01*
X34727760Y-18015735D01*
X34712518Y-18108882D01*
X34673440Y-18184536D01*
X34615242Y-18236644D01*
X34542643Y-18259155D01*
X34460359Y-18246016D01*
X34455081Y-18243906D01*
X34388192Y-18194135D01*
X34347086Y-18111577D01*
X34332366Y-17997478D01*
X34332333Y-17991090D01*
X34145612Y-17991090D01*
X34147471Y-18055184D01*
X34172185Y-18183314D01*
X34222155Y-18281084D01*
X34300638Y-18354301D01*
X34322929Y-18368200D01*
X34407734Y-18399872D01*
X34510114Y-18412808D01*
X34614575Y-18407304D01*
G36*
X31510368Y-18400167D02*
G01*
X31611463Y-18357203D01*
X31682930Y-18288415D01*
X31688920Y-18279111D01*
X31723859Y-18210845D01*
X31727049Y-18167878D01*
X31696812Y-18145715D01*
X31636981Y-18139834D01*
X31575222Y-18144083D01*
X31540787Y-18161067D01*
X31522257Y-18190031D01*
X31480860Y-18237280D01*
X31420788Y-18256384D01*
X31353830Y-18248591D01*
X31291776Y-18215152D01*
X31248223Y-18161000D01*
X31227557Y-18088352D01*
X31222362Y-17996470D01*
X31232338Y-17905406D01*
X31252968Y-17842756D01*
X31301928Y-17787611D01*
X31367706Y-17762759D01*
X31437849Y-17767911D01*
X31499906Y-17802779D01*
X31534147Y-17849285D01*
X31559536Y-17887545D01*
X31596844Y-17903978D01*
X31647967Y-17907000D01*
X31702400Y-17905248D01*
X31724744Y-17893894D01*
X31725240Y-17863792D01*
X31721069Y-17841719D01*
X31680319Y-17740520D01*
X31606342Y-17661554D01*
X31538178Y-17623658D01*
X31423070Y-17593242D01*
X31315304Y-17600741D01*
X31220511Y-17637125D01*
X31138583Y-17692096D01*
X31083221Y-17764253D01*
X31050217Y-17861380D01*
X31036056Y-17978159D01*
X31033526Y-18067129D01*
X31040257Y-18131460D01*
X31059070Y-18188352D01*
X31076429Y-18224330D01*
X31145853Y-18323915D01*
X31233586Y-18386102D01*
X31343516Y-18413296D01*
X31384806Y-18415000D01*
X31510368Y-18400167D01*
X31510368Y-18400167D01*
G37*
X31510368Y-18400167D02*
X31611463Y-18357203D01*
X31682930Y-18288415D01*
X31688920Y-18279111D01*
X31723859Y-18210845D01*
X31727049Y-18167878D01*
X31696812Y-18145715D01*
X31636981Y-18139834D01*
X31575222Y-18144083D01*
X31540787Y-18161067D01*
X31522257Y-18190031D01*
X31480860Y-18237280D01*
X31420788Y-18256384D01*
X31353830Y-18248591D01*
X31291776Y-18215152D01*
X31248223Y-18161000D01*
X31227557Y-18088352D01*
X31222362Y-17996470D01*
X31232338Y-17905406D01*
X31252968Y-17842756D01*
X31301928Y-17787611D01*
X31367706Y-17762759D01*
X31437849Y-17767911D01*
X31499906Y-17802779D01*
X31534147Y-17849285D01*
X31559536Y-17887545D01*
X31596844Y-17903978D01*
X31647967Y-17907000D01*
X31702400Y-17905248D01*
X31724744Y-17893894D01*
X31725240Y-17863792D01*
X31721069Y-17841719D01*
X31680319Y-17740520D01*
X31606342Y-17661554D01*
X31538178Y-17623658D01*
X31423070Y-17593242D01*
X31315304Y-17600741D01*
X31220511Y-17637125D01*
X31138583Y-17692096D01*
X31083221Y-17764253D01*
X31050217Y-17861380D01*
X31036056Y-17978159D01*
X31033526Y-18067129D01*
X31040257Y-18131460D01*
X31059070Y-18188352D01*
X31076429Y-18224330D01*
X31145853Y-18323915D01*
X31233586Y-18386102D01*
X31343516Y-18413296D01*
X31384806Y-18415000D01*
X31510368Y-18400167D01*
G36*
X36927566Y-17615769D02*
G01*
X36935776Y-17564498D01*
X36935833Y-17557750D01*
X36928948Y-17502957D01*
X36906975Y-17483801D01*
X36904083Y-17483667D01*
X36880600Y-17499732D01*
X36872391Y-17551003D01*
X36872333Y-17557750D01*
X36879218Y-17612544D01*
X36901192Y-17631700D01*
X36904083Y-17631834D01*
X36927566Y-17615769D01*
X36927566Y-17615769D01*
G37*
X36927566Y-17615769D02*
X36935776Y-17564498D01*
X36935833Y-17557750D01*
X36928948Y-17502957D01*
X36906975Y-17483801D01*
X36904083Y-17483667D01*
X36880600Y-17499732D01*
X36872391Y-17551003D01*
X36872333Y-17557750D01*
X36879218Y-17612544D01*
X36901192Y-17631700D01*
X36904083Y-17631834D01*
X36927566Y-17615769D01*
G36*
X36927566Y-17425269D02*
G01*
X36935776Y-17373998D01*
X36935833Y-17367250D01*
X36928948Y-17312457D01*
X36906975Y-17293301D01*
X36904083Y-17293167D01*
X36880600Y-17309232D01*
X36872391Y-17360503D01*
X36872333Y-17367250D01*
X36879218Y-17422044D01*
X36901192Y-17441200D01*
X36904083Y-17441334D01*
X36927566Y-17425269D01*
X36927566Y-17425269D01*
G37*
X36927566Y-17425269D02*
X36935776Y-17373998D01*
X36935833Y-17367250D01*
X36928948Y-17312457D01*
X36906975Y-17293301D01*
X36904083Y-17293167D01*
X36880600Y-17309232D01*
X36872391Y-17360503D01*
X36872333Y-17367250D01*
X36879218Y-17422044D01*
X36901192Y-17441200D01*
X36904083Y-17441334D01*
X36927566Y-17425269D01*
G36*
X36927566Y-17234769D02*
G01*
X36935776Y-17183498D01*
X36935833Y-17176750D01*
X36928948Y-17121957D01*
X36906975Y-17102801D01*
X36904083Y-17102667D01*
X36880600Y-17118732D01*
X36872391Y-17170003D01*
X36872333Y-17176750D01*
X36879218Y-17231544D01*
X36901192Y-17250700D01*
X36904083Y-17250834D01*
X36927566Y-17234769D01*
X36927566Y-17234769D01*
G37*
X36927566Y-17234769D02*
X36935776Y-17183498D01*
X36935833Y-17176750D01*
X36928948Y-17121957D01*
X36906975Y-17102801D01*
X36904083Y-17102667D01*
X36880600Y-17118732D01*
X36872391Y-17170003D01*
X36872333Y-17176750D01*
X36879218Y-17231544D01*
X36901192Y-17250700D01*
X36904083Y-17250834D01*
X36927566Y-17234769D01*
G36*
X27006486Y-20162588D02*
G01*
X27007804Y-20161783D01*
X27033097Y-20131524D01*
X27068472Y-20069964D01*
X27110065Y-19985769D01*
X27154010Y-19887606D01*
X27196438Y-19784143D01*
X27233485Y-19684046D01*
X27261284Y-19595984D01*
X27262984Y-19589750D01*
X27297163Y-19419616D01*
X27317314Y-19225015D01*
X27323011Y-19021570D01*
X27313828Y-18824904D01*
X27289337Y-18650639D01*
X27288701Y-18647551D01*
X27208297Y-18359668D01*
X27091834Y-18091573D01*
X26941646Y-17845863D01*
X26760066Y-17625131D01*
X26549425Y-17431974D01*
X26312056Y-17268985D01*
X26050291Y-17138759D01*
X25875377Y-17075172D01*
X25608366Y-17011005D01*
X25327971Y-16980744D01*
X25047827Y-16985703D01*
X24997833Y-16990508D01*
X24835219Y-17019246D01*
X24653590Y-17069692D01*
X24466664Y-17136715D01*
X24288164Y-17215184D01*
X24131809Y-17299967D01*
X24079024Y-17334165D01*
X24023312Y-17375650D01*
X23957713Y-17429183D01*
X23889502Y-17488166D01*
X23825955Y-17545999D01*
X23774346Y-17596085D01*
X23741950Y-17631825D01*
X23735077Y-17646133D01*
X23756837Y-17641883D01*
X23803538Y-17621798D01*
X23842100Y-17602308D01*
X23963695Y-17550815D01*
X24100247Y-17519822D01*
X24260416Y-17507924D01*
X24405167Y-17510883D01*
X24656354Y-17542308D01*
X24914509Y-17609042D01*
X25175463Y-17707676D01*
X25435043Y-17834797D01*
X25689079Y-17986993D01*
X25933399Y-18160853D01*
X26163833Y-18352965D01*
X26376209Y-18559917D01*
X26566357Y-18778298D01*
X26730105Y-19004696D01*
X26863283Y-19235699D01*
X26961719Y-19467896D01*
X27010476Y-19641883D01*
X27020456Y-19716069D01*
X27025087Y-19811038D01*
X27024687Y-19913933D01*
X27019578Y-20011897D01*
X27010080Y-20092074D01*
X26998104Y-20138264D01*
X26990025Y-20166078D01*
X27006486Y-20162588D01*
X27006486Y-20162588D01*
G37*
X27006486Y-20162588D02*
X27007804Y-20161783D01*
X27033097Y-20131524D01*
X27068472Y-20069964D01*
X27110065Y-19985769D01*
X27154010Y-19887606D01*
X27196438Y-19784143D01*
X27233485Y-19684046D01*
X27261284Y-19595984D01*
X27262984Y-19589750D01*
X27297163Y-19419616D01*
X27317314Y-19225015D01*
X27323011Y-19021570D01*
X27313828Y-18824904D01*
X27289337Y-18650639D01*
X27288701Y-18647551D01*
X27208297Y-18359668D01*
X27091834Y-18091573D01*
X26941646Y-17845863D01*
X26760066Y-17625131D01*
X26549425Y-17431974D01*
X26312056Y-17268985D01*
X26050291Y-17138759D01*
X25875377Y-17075172D01*
X25608366Y-17011005D01*
X25327971Y-16980744D01*
X25047827Y-16985703D01*
X24997833Y-16990508D01*
X24835219Y-17019246D01*
X24653590Y-17069692D01*
X24466664Y-17136715D01*
X24288164Y-17215184D01*
X24131809Y-17299967D01*
X24079024Y-17334165D01*
X24023312Y-17375650D01*
X23957713Y-17429183D01*
X23889502Y-17488166D01*
X23825955Y-17545999D01*
X23774346Y-17596085D01*
X23741950Y-17631825D01*
X23735077Y-17646133D01*
X23756837Y-17641883D01*
X23803538Y-17621798D01*
X23842100Y-17602308D01*
X23963695Y-17550815D01*
X24100247Y-17519822D01*
X24260416Y-17507924D01*
X24405167Y-17510883D01*
X24656354Y-17542308D01*
X24914509Y-17609042D01*
X25175463Y-17707676D01*
X25435043Y-17834797D01*
X25689079Y-17986993D01*
X25933399Y-18160853D01*
X26163833Y-18352965D01*
X26376209Y-18559917D01*
X26566357Y-18778298D01*
X26730105Y-19004696D01*
X26863283Y-19235699D01*
X26961719Y-19467896D01*
X27010476Y-19641883D01*
X27020456Y-19716069D01*
X27025087Y-19811038D01*
X27024687Y-19913933D01*
X27019578Y-20011897D01*
X27010080Y-20092074D01*
X26998104Y-20138264D01*
X26990025Y-20166078D01*
X27006486Y-20162588D01*
G36*
X36927566Y-17044269D02*
G01*
X36935776Y-16992998D01*
X36935833Y-16986250D01*
X36928948Y-16931457D01*
X36906975Y-16912301D01*
X36904083Y-16912167D01*
X36880600Y-16928232D01*
X36872391Y-16979503D01*
X36872333Y-16986250D01*
X36879218Y-17041044D01*
X36901192Y-17060200D01*
X36904083Y-17060334D01*
X36927566Y-17044269D01*
X36927566Y-17044269D01*
G37*
X36927566Y-17044269D02*
X36935776Y-16992998D01*
X36935833Y-16986250D01*
X36928948Y-16931457D01*
X36906975Y-16912301D01*
X36904083Y-16912167D01*
X36880600Y-16928232D01*
X36872391Y-16979503D01*
X36872333Y-16986250D01*
X36879218Y-17041044D01*
X36901192Y-17060200D01*
X36904083Y-17060334D01*
X36927566Y-17044269D01*
G36*
X31433709Y-31939576D02*
G01*
X31439189Y-31934735D01*
X31430023Y-31922448D01*
X31428848Y-31921146D01*
X31412317Y-31889330D01*
X31413851Y-31855277D01*
X31431843Y-31824562D01*
X31462758Y-31803535D01*
X31489087Y-31796294D01*
X31513337Y-31801324D01*
X31526663Y-31807646D01*
X31559500Y-31824627D01*
X31559460Y-31795251D01*
X31549805Y-31748784D01*
X31524007Y-31709351D01*
X31486616Y-31679728D01*
X31442180Y-31662689D01*
X31395251Y-31661009D01*
X31365294Y-31670625D01*
X31421916Y-31670625D01*
X31427208Y-31665333D01*
X31432500Y-31670625D01*
X31427208Y-31675917D01*
X31421916Y-31670625D01*
X31365294Y-31670625D01*
X31358627Y-31672765D01*
X31333219Y-31691792D01*
X31485416Y-31691792D01*
X31490708Y-31686500D01*
X31496000Y-31691792D01*
X31490708Y-31697083D01*
X31485416Y-31691792D01*
X31333219Y-31691792D01*
X31315142Y-31705328D01*
X31286915Y-31747719D01*
X31286065Y-31751205D01*
X31340469Y-31751205D01*
X31353996Y-31732179D01*
X31371811Y-31721062D01*
X31379583Y-31718250D01*
X31392408Y-31723812D01*
X31405169Y-31732179D01*
X31419288Y-31753185D01*
X31415865Y-31777502D01*
X31398104Y-31796437D01*
X31374545Y-31801944D01*
X31354381Y-31792300D01*
X31341670Y-31773416D01*
X31340469Y-31751205D01*
X31286065Y-31751205D01*
X31275250Y-31795532D01*
X31281453Y-31844364D01*
X31297880Y-31877927D01*
X31333952Y-31916940D01*
X31377848Y-31936897D01*
X31410327Y-31940344D01*
X31433709Y-31939576D01*
X31433709Y-31939576D01*
G37*
X31433709Y-31939576D02*
X31439189Y-31934735D01*
X31430023Y-31922448D01*
X31428848Y-31921146D01*
X31412317Y-31889330D01*
X31413851Y-31855277D01*
X31431843Y-31824562D01*
X31462758Y-31803535D01*
X31489087Y-31796294D01*
X31513337Y-31801324D01*
X31526663Y-31807646D01*
X31559500Y-31824627D01*
X31559460Y-31795251D01*
X31549805Y-31748784D01*
X31524007Y-31709351D01*
X31486616Y-31679728D01*
X31442180Y-31662689D01*
X31395251Y-31661009D01*
X31365294Y-31670625D01*
X31421916Y-31670625D01*
X31427208Y-31665333D01*
X31432500Y-31670625D01*
X31427208Y-31675917D01*
X31421916Y-31670625D01*
X31365294Y-31670625D01*
X31358627Y-31672765D01*
X31333219Y-31691792D01*
X31485416Y-31691792D01*
X31490708Y-31686500D01*
X31496000Y-31691792D01*
X31490708Y-31697083D01*
X31485416Y-31691792D01*
X31333219Y-31691792D01*
X31315142Y-31705328D01*
X31286915Y-31747719D01*
X31286065Y-31751205D01*
X31340469Y-31751205D01*
X31353996Y-31732179D01*
X31371811Y-31721062D01*
X31379583Y-31718250D01*
X31392408Y-31723812D01*
X31405169Y-31732179D01*
X31419288Y-31753185D01*
X31415865Y-31777502D01*
X31398104Y-31796437D01*
X31374545Y-31801944D01*
X31354381Y-31792300D01*
X31341670Y-31773416D01*
X31340469Y-31751205D01*
X31286065Y-31751205D01*
X31275250Y-31795532D01*
X31281453Y-31844364D01*
X31297880Y-31877927D01*
X31333952Y-31916940D01*
X31377848Y-31936897D01*
X31410327Y-31940344D01*
X31433709Y-31939576D01*
G36*
X32093052Y-31808724D02*
G01*
X32114986Y-31800371D01*
X32139046Y-31788221D01*
X32157411Y-31776123D01*
X32162750Y-31769207D01*
X32162309Y-31763182D01*
X32157726Y-31762511D01*
X32144109Y-31768659D01*
X32116772Y-31782983D01*
X32093261Y-31796934D01*
X32081327Y-31807134D01*
X32081066Y-31809427D01*
X32093052Y-31808724D01*
X32093052Y-31808724D01*
G37*
X32093052Y-31808724D02*
X32114986Y-31800371D01*
X32139046Y-31788221D01*
X32157411Y-31776123D01*
X32162750Y-31769207D01*
X32162309Y-31763182D01*
X32157726Y-31762511D01*
X32144109Y-31768659D01*
X32116772Y-31782983D01*
X32093261Y-31796934D01*
X32081327Y-31807134D01*
X32081066Y-31809427D01*
X32093052Y-31808724D01*
G36*
X31521458Y-32082531D02*
G01*
X31587834Y-32048278D01*
X31626542Y-32016650D01*
X31674665Y-31958562D01*
X31703966Y-31893625D01*
X31715797Y-31827245D01*
X31714654Y-31752045D01*
X31697002Y-31686113D01*
X31661198Y-31623647D01*
X31656166Y-31616851D01*
X31604163Y-31564503D01*
X31540501Y-31526560D01*
X31469729Y-31504412D01*
X31396395Y-31499449D01*
X31325049Y-31513063D01*
X31321153Y-31514421D01*
X31246714Y-31551243D01*
X31187254Y-31602727D01*
X31143546Y-31668092D01*
X31125798Y-31711810D01*
X31117324Y-31759510D01*
X31117285Y-31817070D01*
X31118354Y-31825222D01*
X31128504Y-31825222D01*
X31131222Y-31750371D01*
X31151680Y-31682539D01*
X31187182Y-31623509D01*
X31235031Y-31575061D01*
X31292532Y-31538978D01*
X31356986Y-31517043D01*
X31425698Y-31511036D01*
X31495971Y-31522741D01*
X31551201Y-31545890D01*
X31614480Y-31591043D01*
X31661365Y-31646716D01*
X31691700Y-31709853D01*
X31705329Y-31777399D01*
X31702097Y-31846298D01*
X31681850Y-31913493D01*
X31644432Y-31975930D01*
X31589688Y-32030553D01*
X31576321Y-32040501D01*
X31547341Y-32060497D01*
X31524815Y-32073048D01*
X31502287Y-32079887D01*
X31473298Y-32082749D01*
X31431389Y-32083368D01*
X31416625Y-32083375D01*
X31369994Y-32083072D01*
X31338072Y-32081005D01*
X31314400Y-32075441D01*
X31292521Y-32064646D01*
X31265975Y-32046886D01*
X31256928Y-32040501D01*
X31196365Y-31986157D01*
X31154480Y-31922216D01*
X31131637Y-31849288D01*
X31128504Y-31825222D01*
X31118354Y-31825222D01*
X31124921Y-31875288D01*
X31139473Y-31924957D01*
X31144230Y-31935208D01*
X31187985Y-31998962D01*
X31243818Y-32047784D01*
X31308404Y-32081113D01*
X31378421Y-32098388D01*
X31450547Y-32099048D01*
X31521458Y-32082531D01*
X31521458Y-32082531D01*
G37*
X31521458Y-32082531D02*
X31587834Y-32048278D01*
X31626542Y-32016650D01*
X31674665Y-31958562D01*
X31703966Y-31893625D01*
X31715797Y-31827245D01*
X31714654Y-31752045D01*
X31697002Y-31686113D01*
X31661198Y-31623647D01*
X31656166Y-31616851D01*
X31604163Y-31564503D01*
X31540501Y-31526560D01*
X31469729Y-31504412D01*
X31396395Y-31499449D01*
X31325049Y-31513063D01*
X31321153Y-31514421D01*
X31246714Y-31551243D01*
X31187254Y-31602727D01*
X31143546Y-31668092D01*
X31125798Y-31711810D01*
X31117324Y-31759510D01*
X31117285Y-31817070D01*
X31118354Y-31825222D01*
X31128504Y-31825222D01*
X31131222Y-31750371D01*
X31151680Y-31682539D01*
X31187182Y-31623509D01*
X31235031Y-31575061D01*
X31292532Y-31538978D01*
X31356986Y-31517043D01*
X31425698Y-31511036D01*
X31495971Y-31522741D01*
X31551201Y-31545890D01*
X31614480Y-31591043D01*
X31661365Y-31646716D01*
X31691700Y-31709853D01*
X31705329Y-31777399D01*
X31702097Y-31846298D01*
X31681850Y-31913493D01*
X31644432Y-31975930D01*
X31589688Y-32030553D01*
X31576321Y-32040501D01*
X31547341Y-32060497D01*
X31524815Y-32073048D01*
X31502287Y-32079887D01*
X31473298Y-32082749D01*
X31431389Y-32083368D01*
X31416625Y-32083375D01*
X31369994Y-32083072D01*
X31338072Y-32081005D01*
X31314400Y-32075441D01*
X31292521Y-32064646D01*
X31265975Y-32046886D01*
X31256928Y-32040501D01*
X31196365Y-31986157D01*
X31154480Y-31922216D01*
X31131637Y-31849288D01*
X31128504Y-31825222D01*
X31118354Y-31825222D01*
X31124921Y-31875288D01*
X31139473Y-31924957D01*
X31144230Y-31935208D01*
X31187985Y-31998962D01*
X31243818Y-32047784D01*
X31308404Y-32081113D01*
X31378421Y-32098388D01*
X31450547Y-32099048D01*
X31521458Y-32082531D01*
G36*
X32011055Y-32952972D02*
G01*
X32009602Y-32946681D01*
X32004000Y-32945917D01*
X31995288Y-32949789D01*
X31996944Y-32952972D01*
X32009504Y-32954239D01*
X32011055Y-32952972D01*
X32011055Y-32952972D01*
G37*
X32011055Y-32952972D02*
X32009602Y-32946681D01*
X32004000Y-32945917D01*
X31995288Y-32949789D01*
X31996944Y-32952972D01*
X32009504Y-32954239D01*
X32011055Y-32952972D01*
G36*
X30532916Y-32951208D02*
G01*
X30527625Y-32945917D01*
X30522333Y-32951208D01*
X30527625Y-32956500D01*
X30532916Y-32951208D01*
X30532916Y-32951208D01*
G37*
X30532916Y-32951208D02*
X30527625Y-32945917D01*
X30522333Y-32951208D01*
X30527625Y-32956500D01*
X30532916Y-32951208D01*
G36*
X31383555Y-33076958D02*
G01*
X31462080Y-33074279D01*
X31529622Y-33070215D01*
X31581594Y-33064767D01*
X31589636Y-33063525D01*
X31677980Y-33048841D01*
X31671443Y-33016154D01*
X31647184Y-32945672D01*
X31605209Y-32878869D01*
X31548964Y-32818920D01*
X31481892Y-32769002D01*
X31407439Y-32732292D01*
X31344225Y-32714445D01*
X31294916Y-32705233D01*
X31294916Y-32771362D01*
X31297325Y-32816407D01*
X31304880Y-32843256D01*
X31310791Y-32850667D01*
X31324954Y-32875072D01*
X31323066Y-32907579D01*
X31315710Y-32925446D01*
X31297487Y-32940050D01*
X31269081Y-32946107D01*
X31240008Y-32942819D01*
X31222950Y-32933217D01*
X31211738Y-32908966D01*
X31212863Y-32878128D01*
X31225865Y-32850977D01*
X31226661Y-32850074D01*
X31236841Y-32830023D01*
X31240504Y-32797002D01*
X31239890Y-32768987D01*
X31236708Y-32706035D01*
X31178500Y-32718097D01*
X31093327Y-32746126D01*
X31016383Y-32791808D01*
X30950651Y-32852420D01*
X30899116Y-32925243D01*
X30866079Y-33003070D01*
X30852127Y-33049429D01*
X30897866Y-33057042D01*
X31538333Y-33057042D01*
X31543625Y-33051750D01*
X31548916Y-33057042D01*
X31543625Y-33062333D01*
X31538333Y-33057042D01*
X30897866Y-33057042D01*
X30938584Y-33063819D01*
X30986698Y-33069497D01*
X31051346Y-33073777D01*
X31127942Y-33076661D01*
X31211899Y-33078151D01*
X31298632Y-33078249D01*
X31383555Y-33076958D01*
X31383555Y-33076958D01*
G37*
X31383555Y-33076958D02*
X31462080Y-33074279D01*
X31529622Y-33070215D01*
X31581594Y-33064767D01*
X31589636Y-33063525D01*
X31677980Y-33048841D01*
X31671443Y-33016154D01*
X31647184Y-32945672D01*
X31605209Y-32878869D01*
X31548964Y-32818920D01*
X31481892Y-32769002D01*
X31407439Y-32732292D01*
X31344225Y-32714445D01*
X31294916Y-32705233D01*
X31294916Y-32771362D01*
X31297325Y-32816407D01*
X31304880Y-32843256D01*
X31310791Y-32850667D01*
X31324954Y-32875072D01*
X31323066Y-32907579D01*
X31315710Y-32925446D01*
X31297487Y-32940050D01*
X31269081Y-32946107D01*
X31240008Y-32942819D01*
X31222950Y-32933217D01*
X31211738Y-32908966D01*
X31212863Y-32878128D01*
X31225865Y-32850977D01*
X31226661Y-32850074D01*
X31236841Y-32830023D01*
X31240504Y-32797002D01*
X31239890Y-32768987D01*
X31236708Y-32706035D01*
X31178500Y-32718097D01*
X31093327Y-32746126D01*
X31016383Y-32791808D01*
X30950651Y-32852420D01*
X30899116Y-32925243D01*
X30866079Y-33003070D01*
X30852127Y-33049429D01*
X30897866Y-33057042D01*
X31538333Y-33057042D01*
X31543625Y-33051750D01*
X31548916Y-33057042D01*
X31543625Y-33062333D01*
X31538333Y-33057042D01*
X30897866Y-33057042D01*
X30938584Y-33063819D01*
X30986698Y-33069497D01*
X31051346Y-33073777D01*
X31127942Y-33076661D01*
X31211899Y-33078151D01*
X31298632Y-33078249D01*
X31383555Y-33076958D01*
G36*
X29725262Y-32356997D02*
G01*
X29723291Y-32353250D01*
X29713319Y-32343143D01*
X29711459Y-32342667D01*
X29710737Y-32349503D01*
X29712708Y-32353250D01*
X29722680Y-32363357D01*
X29724540Y-32363833D01*
X29725262Y-32356997D01*
X29725262Y-32356997D01*
G37*
X29725262Y-32356997D02*
X29723291Y-32353250D01*
X29713319Y-32343143D01*
X29711459Y-32342667D01*
X29710737Y-32349503D01*
X29712708Y-32353250D01*
X29722680Y-32363357D01*
X29724540Y-32363833D01*
X29725262Y-32356997D01*
G36*
X32838448Y-32327802D02*
G01*
X32849720Y-32317964D01*
X32850666Y-32315584D01*
X32845644Y-32311234D01*
X32835187Y-32320981D01*
X32833781Y-32323135D01*
X32832533Y-32330378D01*
X32838448Y-32327802D01*
X32838448Y-32327802D01*
G37*
X32838448Y-32327802D02*
X32849720Y-32317964D01*
X32850666Y-32315584D01*
X32845644Y-32311234D01*
X32835187Y-32320981D01*
X32833781Y-32323135D01*
X32832533Y-32330378D01*
X32838448Y-32327802D01*
G36*
X29696833Y-32316208D02*
G01*
X29691541Y-32310917D01*
X29686250Y-32316208D01*
X29691541Y-32321500D01*
X29696833Y-32316208D01*
X29696833Y-32316208D01*
G37*
X29696833Y-32316208D02*
X29691541Y-32310917D01*
X29686250Y-32316208D01*
X29691541Y-32321500D01*
X29696833Y-32316208D01*
G36*
X39740416Y-29606875D02*
G01*
X39735125Y-29601583D01*
X39729833Y-29606875D01*
X39735125Y-29612167D01*
X39740416Y-29606875D01*
X39740416Y-29606875D01*
G37*
X39740416Y-29606875D02*
X39735125Y-29601583D01*
X39729833Y-29606875D01*
X39735125Y-29612167D01*
X39740416Y-29606875D01*
G36*
X32490833Y-29490458D02*
G01*
X32485541Y-29485167D01*
X32480250Y-29490458D01*
X32485541Y-29495750D01*
X32490833Y-29490458D01*
X32490833Y-29490458D01*
G37*
X32490833Y-29490458D02*
X32485541Y-29485167D01*
X32480250Y-29490458D01*
X32485541Y-29495750D01*
X32490833Y-29490458D01*
G36*
X42984208Y-30993292D02*
G01*
X43146825Y-30990364D01*
X43219389Y-30989769D01*
X43272177Y-30991017D01*
X43306506Y-30994178D01*
X43323692Y-30999323D01*
X43324439Y-30999882D01*
X43333106Y-31010785D01*
X43352503Y-31037546D01*
X43381478Y-31078504D01*
X43418876Y-31132002D01*
X43463546Y-31196381D01*
X43514333Y-31269980D01*
X43570085Y-31351141D01*
X43629648Y-31438206D01*
X43659238Y-31481584D01*
X43979041Y-31950840D01*
X44346812Y-31950962D01*
X44432656Y-31950833D01*
X44511392Y-31950412D01*
X44580618Y-31949734D01*
X44637929Y-31948837D01*
X44680923Y-31947757D01*
X44707195Y-31946530D01*
X44714583Y-31945399D01*
X44708771Y-31933186D01*
X44693644Y-31909800D01*
X44672664Y-31879923D01*
X44649295Y-31848235D01*
X44626998Y-31819420D01*
X44609236Y-31798159D01*
X44599472Y-31789134D01*
X44598984Y-31789100D01*
X44591777Y-31782771D01*
X44591111Y-31777436D01*
X44586939Y-31767105D01*
X44574023Y-31745321D01*
X44551757Y-31711200D01*
X44519538Y-31663860D01*
X44476762Y-31602416D01*
X44422824Y-31525985D01*
X44357121Y-31433684D01*
X44333583Y-31400750D01*
X44309884Y-31367483D01*
X44277553Y-31321912D01*
X44240136Y-31269043D01*
X44201179Y-31213886D01*
X44183691Y-31189083D01*
X44140239Y-31127469D01*
X44089887Y-31056140D01*
X44037972Y-30982654D01*
X43989832Y-30914567D01*
X43975010Y-30893619D01*
X43940315Y-30843577D01*
X43910785Y-30799021D01*
X43888306Y-30762962D01*
X43874766Y-30738411D01*
X43871713Y-30728788D01*
X43877987Y-30718369D01*
X43894727Y-30691800D01*
X43920893Y-30650695D01*
X43955442Y-30596669D01*
X43997333Y-30531335D01*
X44045522Y-30456308D01*
X44098970Y-30373202D01*
X44156633Y-30283631D01*
X44217469Y-30189210D01*
X44280438Y-30091553D01*
X44344496Y-29992274D01*
X44408602Y-29892988D01*
X44471715Y-29795308D01*
X44532792Y-29700848D01*
X44590791Y-29611224D01*
X44644670Y-29528050D01*
X44693388Y-29452938D01*
X44735902Y-29387505D01*
X44771172Y-29333364D01*
X44798154Y-29292129D01*
X44815806Y-29265415D01*
X44822968Y-29254979D01*
X44821938Y-29251426D01*
X44811477Y-29248532D01*
X44789934Y-29246238D01*
X44755656Y-29244488D01*
X44706988Y-29243222D01*
X44642279Y-29242383D01*
X44559875Y-29241912D01*
X44458124Y-29241751D01*
X44446857Y-29241750D01*
X44060122Y-29241750D01*
X43941164Y-29440188D01*
X43905023Y-29500269D01*
X43871396Y-29555787D01*
X43842202Y-29603603D01*
X43819360Y-29640580D01*
X43804787Y-29663580D01*
X43802059Y-29667657D01*
X43790359Y-29690817D01*
X43789030Y-29708061D01*
X43789507Y-29708980D01*
X43791012Y-29716560D01*
X43787174Y-29715134D01*
X43777515Y-29720599D01*
X43760791Y-29740589D01*
X43740215Y-29771127D01*
X43735025Y-29779644D01*
X43718912Y-29806497D01*
X43693593Y-29848550D01*
X43660825Y-29902893D01*
X43622363Y-29966618D01*
X43579962Y-30036816D01*
X43535376Y-30110579D01*
X43518424Y-30138612D01*
X43344041Y-30426932D01*
X43161479Y-30427008D01*
X42978916Y-30427083D01*
X42978916Y-29241750D01*
X42312166Y-29241750D01*
X42312166Y-33020000D01*
X42978810Y-33020000D01*
X42984208Y-30993292D01*
X42984208Y-30993292D01*
G37*
X42984208Y-30993292D02*
X43146825Y-30990364D01*
X43219389Y-30989769D01*
X43272177Y-30991017D01*
X43306506Y-30994178D01*
X43323692Y-30999323D01*
X43324439Y-30999882D01*
X43333106Y-31010785D01*
X43352503Y-31037546D01*
X43381478Y-31078504D01*
X43418876Y-31132002D01*
X43463546Y-31196381D01*
X43514333Y-31269980D01*
X43570085Y-31351141D01*
X43629648Y-31438206D01*
X43659238Y-31481584D01*
X43979041Y-31950840D01*
X44346812Y-31950962D01*
X44432656Y-31950833D01*
X44511392Y-31950412D01*
X44580618Y-31949734D01*
X44637929Y-31948837D01*
X44680923Y-31947757D01*
X44707195Y-31946530D01*
X44714583Y-31945399D01*
X44708771Y-31933186D01*
X44693644Y-31909800D01*
X44672664Y-31879923D01*
X44649295Y-31848235D01*
X44626998Y-31819420D01*
X44609236Y-31798159D01*
X44599472Y-31789134D01*
X44598984Y-31789100D01*
X44591777Y-31782771D01*
X44591111Y-31777436D01*
X44586939Y-31767105D01*
X44574023Y-31745321D01*
X44551757Y-31711200D01*
X44519538Y-31663860D01*
X44476762Y-31602416D01*
X44422824Y-31525985D01*
X44357121Y-31433684D01*
X44333583Y-31400750D01*
X44309884Y-31367483D01*
X44277553Y-31321912D01*
X44240136Y-31269043D01*
X44201179Y-31213886D01*
X44183691Y-31189083D01*
X44140239Y-31127469D01*
X44089887Y-31056140D01*
X44037972Y-30982654D01*
X43989832Y-30914567D01*
X43975010Y-30893619D01*
X43940315Y-30843577D01*
X43910785Y-30799021D01*
X43888306Y-30762962D01*
X43874766Y-30738411D01*
X43871713Y-30728788D01*
X43877987Y-30718369D01*
X43894727Y-30691800D01*
X43920893Y-30650695D01*
X43955442Y-30596669D01*
X43997333Y-30531335D01*
X44045522Y-30456308D01*
X44098970Y-30373202D01*
X44156633Y-30283631D01*
X44217469Y-30189210D01*
X44280438Y-30091553D01*
X44344496Y-29992274D01*
X44408602Y-29892988D01*
X44471715Y-29795308D01*
X44532792Y-29700848D01*
X44590791Y-29611224D01*
X44644670Y-29528050D01*
X44693388Y-29452938D01*
X44735902Y-29387505D01*
X44771172Y-29333364D01*
X44798154Y-29292129D01*
X44815806Y-29265415D01*
X44822968Y-29254979D01*
X44821938Y-29251426D01*
X44811477Y-29248532D01*
X44789934Y-29246238D01*
X44755656Y-29244488D01*
X44706988Y-29243222D01*
X44642279Y-29242383D01*
X44559875Y-29241912D01*
X44458124Y-29241751D01*
X44446857Y-29241750D01*
X44060122Y-29241750D01*
X43941164Y-29440188D01*
X43905023Y-29500269D01*
X43871396Y-29555787D01*
X43842202Y-29603603D01*
X43819360Y-29640580D01*
X43804787Y-29663580D01*
X43802059Y-29667657D01*
X43790359Y-29690817D01*
X43789030Y-29708061D01*
X43789507Y-29708980D01*
X43791012Y-29716560D01*
X43787174Y-29715134D01*
X43777515Y-29720599D01*
X43760791Y-29740589D01*
X43740215Y-29771127D01*
X43735025Y-29779644D01*
X43718912Y-29806497D01*
X43693593Y-29848550D01*
X43660825Y-29902893D01*
X43622363Y-29966618D01*
X43579962Y-30036816D01*
X43535376Y-30110579D01*
X43518424Y-30138612D01*
X43344041Y-30426932D01*
X43161479Y-30427008D01*
X42978916Y-30427083D01*
X42978916Y-29241750D01*
X42312166Y-29241750D01*
X42312166Y-33020000D01*
X42978810Y-33020000D01*
X42984208Y-30993292D01*
G36*
X29135916Y-32437917D02*
G01*
X27643666Y-32437917D01*
X27643666Y-31358417D01*
X28903083Y-31358417D01*
X28903083Y-30776333D01*
X27643666Y-30776333D01*
X27643666Y-29241750D01*
X26966333Y-29241750D01*
X26966333Y-33020000D01*
X29135916Y-33020000D01*
X29135916Y-32437917D01*
X29135916Y-32437917D01*
G37*
X29135916Y-32437917D02*
X27643666Y-32437917D01*
X27643666Y-31358417D01*
X28903083Y-31358417D01*
X28903083Y-30776333D01*
X27643666Y-30776333D01*
X27643666Y-29241750D01*
X26966333Y-29241750D01*
X26966333Y-33020000D01*
X29135916Y-33020000D01*
X29135916Y-32437917D01*
G36*
X24487187Y-33019817D02*
G01*
X24613375Y-33019638D01*
X24735667Y-33019183D01*
X24852044Y-33018476D01*
X24960487Y-33017542D01*
X25058979Y-33016407D01*
X25145500Y-33015096D01*
X25218033Y-33013633D01*
X25274558Y-33012044D01*
X25313056Y-33010354D01*
X25325916Y-33009380D01*
X25397493Y-33001294D01*
X25459339Y-32992764D01*
X25508971Y-32984247D01*
X25543906Y-32976204D01*
X25561661Y-32969091D01*
X25563111Y-32965578D01*
X25565925Y-32960975D01*
X25573638Y-32962878D01*
X25597088Y-32963135D01*
X25634547Y-32953339D01*
X25682421Y-32935191D01*
X25737118Y-32910395D01*
X25795044Y-32880650D01*
X25852606Y-32847661D01*
X25906210Y-32813127D01*
X25937191Y-32790688D01*
X26023730Y-32716850D01*
X26098007Y-32635835D01*
X26162514Y-32546824D01*
X26191880Y-32498186D01*
X26220443Y-32444053D01*
X26245992Y-32389390D01*
X26266310Y-32339160D01*
X26279185Y-32298327D01*
X26282602Y-32277561D01*
X26285412Y-32258353D01*
X26290043Y-32253383D01*
X26297183Y-32247439D01*
X26305101Y-32223840D01*
X26313305Y-32186059D01*
X26321305Y-32137572D01*
X26328612Y-32081851D01*
X26334734Y-32022371D01*
X26339183Y-31962605D01*
X26341467Y-31906028D01*
X26341664Y-31887583D01*
X26332683Y-31731771D01*
X26305847Y-31582406D01*
X26262029Y-31441031D01*
X26202105Y-31309192D01*
X26126948Y-31188432D01*
X26037433Y-31080295D01*
X25934435Y-30986327D01*
X25818827Y-30908070D01*
X25773062Y-30883421D01*
X25740365Y-30866371D01*
X25716720Y-30852925D01*
X25706955Y-30845840D01*
X25706916Y-30845666D01*
X25712389Y-30835558D01*
X25727189Y-30811701D01*
X25748884Y-30777946D01*
X25768570Y-30747923D01*
X25797073Y-30702949D01*
X25831414Y-30645944D01*
X25867628Y-30583637D01*
X25901748Y-30522757D01*
X25907751Y-30511750D01*
X25938895Y-30454567D01*
X25976873Y-30385160D01*
X26018242Y-30309808D01*
X26059553Y-30234790D01*
X26090722Y-30178375D01*
X26127999Y-30110975D01*
X26166803Y-30040722D01*
X26204110Y-29973095D01*
X26236899Y-29913572D01*
X26260048Y-29871458D01*
X26290857Y-29815373D01*
X26323966Y-29755202D01*
X26354831Y-29699194D01*
X26373666Y-29665083D01*
X26399366Y-29618494D01*
X26430912Y-29561147D01*
X26464008Y-29500863D01*
X26490002Y-29453417D01*
X26517665Y-29402975D01*
X26544137Y-29354902D01*
X26566463Y-29314551D01*
X26581690Y-29287272D01*
X26581997Y-29286729D01*
X26607392Y-29241750D01*
X25847247Y-29241750D01*
X25674494Y-29567188D01*
X25630082Y-29650849D01*
X25585379Y-29735050D01*
X25542233Y-29816312D01*
X25502491Y-29891157D01*
X25468000Y-29956106D01*
X25440606Y-30007680D01*
X25429598Y-30028401D01*
X25404458Y-30077326D01*
X25384121Y-30120028D01*
X25370185Y-30152898D01*
X25364246Y-30172327D01*
X25364487Y-30175558D01*
X25365484Y-30182488D01*
X25361947Y-30181075D01*
X25354542Y-30188362D01*
X25338801Y-30211952D01*
X25316178Y-30249382D01*
X25288132Y-30298190D01*
X25256118Y-30355912D01*
X25230666Y-30403037D01*
X25196187Y-30467115D01*
X25164341Y-30525425D01*
X25136674Y-30575207D01*
X25114732Y-30613701D01*
X25100059Y-30638147D01*
X25094973Y-30645389D01*
X25087153Y-30649622D01*
X25071372Y-30652990D01*
X25045592Y-30655578D01*
X25007775Y-30657475D01*
X24955880Y-30658766D01*
X24887871Y-30659539D01*
X24801707Y-30659881D01*
X24753660Y-30659917D01*
X24426333Y-30659917D01*
X24426333Y-29241750D01*
X23749000Y-29241750D01*
X23749000Y-31236708D01*
X25135416Y-31236708D01*
X25140708Y-31231417D01*
X25146000Y-31236708D01*
X25140708Y-31242000D01*
X25135416Y-31236708D01*
X23749000Y-31236708D01*
X23749000Y-32437917D01*
X24426333Y-32437917D01*
X24426333Y-31240187D01*
X24809979Y-31244431D01*
X24911134Y-31245614D01*
X24993555Y-31246799D01*
X25059670Y-31248131D01*
X25111911Y-31249759D01*
X25152709Y-31251829D01*
X25184493Y-31254486D01*
X25209696Y-31257879D01*
X25230747Y-31262154D01*
X25250076Y-31267457D01*
X25263783Y-31271826D01*
X25363636Y-31312431D01*
X25446248Y-31363553D01*
X25513783Y-31427251D01*
X25568403Y-31505583D01*
X25612271Y-31600610D01*
X25613983Y-31605194D01*
X25628827Y-31648347D01*
X25638831Y-31687073D01*
X25645223Y-31728455D01*
X25648987Y-31776458D01*
X26320750Y-31776458D01*
X26326041Y-31771167D01*
X26331333Y-31776458D01*
X26326041Y-31781750D01*
X26320750Y-31776458D01*
X25648987Y-31776458D01*
X25649232Y-31779574D01*
X25651041Y-31818792D01*
X25648756Y-31943183D01*
X25638305Y-32009292D01*
X26320750Y-32009292D01*
X26326041Y-32004000D01*
X26331333Y-32009292D01*
X26326041Y-32014583D01*
X26320750Y-32009292D01*
X25638305Y-32009292D01*
X25631423Y-32052815D01*
X25598877Y-32147985D01*
X25550951Y-32228986D01*
X25487479Y-32296114D01*
X25408293Y-32349664D01*
X25332259Y-32383383D01*
X25290487Y-32397624D01*
X25249981Y-32409201D01*
X25207962Y-32418379D01*
X25161648Y-32425423D01*
X25108261Y-32430599D01*
X25045019Y-32434171D01*
X24969143Y-32436404D01*
X24877854Y-32437564D01*
X24768370Y-32437916D01*
X24760326Y-32437917D01*
X24426333Y-32437917D01*
X23749000Y-32437917D01*
X23749000Y-32455556D01*
X24980194Y-32455556D01*
X24981647Y-32449264D01*
X24987250Y-32448500D01*
X24995961Y-32452372D01*
X24994305Y-32455556D01*
X24981745Y-32456822D01*
X24980194Y-32455556D01*
X23749000Y-32455556D01*
X23749000Y-33020000D01*
X24487187Y-33019817D01*
X24487187Y-33019817D01*
G37*
X24487187Y-33019817D02*
X24613375Y-33019638D01*
X24735667Y-33019183D01*
X24852044Y-33018476D01*
X24960487Y-33017542D01*
X25058979Y-33016407D01*
X25145500Y-33015096D01*
X25218033Y-33013633D01*
X25274558Y-33012044D01*
X25313056Y-33010354D01*
X25325916Y-33009380D01*
X25397493Y-33001294D01*
X25459339Y-32992764D01*
X25508971Y-32984247D01*
X25543906Y-32976204D01*
X25561661Y-32969091D01*
X25563111Y-32965578D01*
X25565925Y-32960975D01*
X25573638Y-32962878D01*
X25597088Y-32963135D01*
X25634547Y-32953339D01*
X25682421Y-32935191D01*
X25737118Y-32910395D01*
X25795044Y-32880650D01*
X25852606Y-32847661D01*
X25906210Y-32813127D01*
X25937191Y-32790688D01*
X26023730Y-32716850D01*
X26098007Y-32635835D01*
X26162514Y-32546824D01*
X26191880Y-32498186D01*
X26220443Y-32444053D01*
X26245992Y-32389390D01*
X26266310Y-32339160D01*
X26279185Y-32298327D01*
X26282602Y-32277561D01*
X26285412Y-32258353D01*
X26290043Y-32253383D01*
X26297183Y-32247439D01*
X26305101Y-32223840D01*
X26313305Y-32186059D01*
X26321305Y-32137572D01*
X26328612Y-32081851D01*
X26334734Y-32022371D01*
X26339183Y-31962605D01*
X26341467Y-31906028D01*
X26341664Y-31887583D01*
X26332683Y-31731771D01*
X26305847Y-31582406D01*
X26262029Y-31441031D01*
X26202105Y-31309192D01*
X26126948Y-31188432D01*
X26037433Y-31080295D01*
X25934435Y-30986327D01*
X25818827Y-30908070D01*
X25773062Y-30883421D01*
X25740365Y-30866371D01*
X25716720Y-30852925D01*
X25706955Y-30845840D01*
X25706916Y-30845666D01*
X25712389Y-30835558D01*
X25727189Y-30811701D01*
X25748884Y-30777946D01*
X25768570Y-30747923D01*
X25797073Y-30702949D01*
X25831414Y-30645944D01*
X25867628Y-30583637D01*
X25901748Y-30522757D01*
X25907751Y-30511750D01*
X25938895Y-30454567D01*
X25976873Y-30385160D01*
X26018242Y-30309808D01*
X26059553Y-30234790D01*
X26090722Y-30178375D01*
X26127999Y-30110975D01*
X26166803Y-30040722D01*
X26204110Y-29973095D01*
X26236899Y-29913572D01*
X26260048Y-29871458D01*
X26290857Y-29815373D01*
X26323966Y-29755202D01*
X26354831Y-29699194D01*
X26373666Y-29665083D01*
X26399366Y-29618494D01*
X26430912Y-29561147D01*
X26464008Y-29500863D01*
X26490002Y-29453417D01*
X26517665Y-29402975D01*
X26544137Y-29354902D01*
X26566463Y-29314551D01*
X26581690Y-29287272D01*
X26581997Y-29286729D01*
X26607392Y-29241750D01*
X25847247Y-29241750D01*
X25674494Y-29567188D01*
X25630082Y-29650849D01*
X25585379Y-29735050D01*
X25542233Y-29816312D01*
X25502491Y-29891157D01*
X25468000Y-29956106D01*
X25440606Y-30007680D01*
X25429598Y-30028401D01*
X25404458Y-30077326D01*
X25384121Y-30120028D01*
X25370185Y-30152898D01*
X25364246Y-30172327D01*
X25364487Y-30175558D01*
X25365484Y-30182488D01*
X25361947Y-30181075D01*
X25354542Y-30188362D01*
X25338801Y-30211952D01*
X25316178Y-30249382D01*
X25288132Y-30298190D01*
X25256118Y-30355912D01*
X25230666Y-30403037D01*
X25196187Y-30467115D01*
X25164341Y-30525425D01*
X25136674Y-30575207D01*
X25114732Y-30613701D01*
X25100059Y-30638147D01*
X25094973Y-30645389D01*
X25087153Y-30649622D01*
X25071372Y-30652990D01*
X25045592Y-30655578D01*
X25007775Y-30657475D01*
X24955880Y-30658766D01*
X24887871Y-30659539D01*
X24801707Y-30659881D01*
X24753660Y-30659917D01*
X24426333Y-30659917D01*
X24426333Y-29241750D01*
X23749000Y-29241750D01*
X23749000Y-31236708D01*
X25135416Y-31236708D01*
X25140708Y-31231417D01*
X25146000Y-31236708D01*
X25140708Y-31242000D01*
X25135416Y-31236708D01*
X23749000Y-31236708D01*
X23749000Y-32437917D01*
X24426333Y-32437917D01*
X24426333Y-31240187D01*
X24809979Y-31244431D01*
X24911134Y-31245614D01*
X24993555Y-31246799D01*
X25059670Y-31248131D01*
X25111911Y-31249759D01*
X25152709Y-31251829D01*
X25184493Y-31254486D01*
X25209696Y-31257879D01*
X25230747Y-31262154D01*
X25250076Y-31267457D01*
X25263783Y-31271826D01*
X25363636Y-31312431D01*
X25446248Y-31363553D01*
X25513783Y-31427251D01*
X25568403Y-31505583D01*
X25612271Y-31600610D01*
X25613983Y-31605194D01*
X25628827Y-31648347D01*
X25638831Y-31687073D01*
X25645223Y-31728455D01*
X25648987Y-31776458D01*
X26320750Y-31776458D01*
X26326041Y-31771167D01*
X26331333Y-31776458D01*
X26326041Y-31781750D01*
X26320750Y-31776458D01*
X25648987Y-31776458D01*
X25649232Y-31779574D01*
X25651041Y-31818792D01*
X25648756Y-31943183D01*
X25638305Y-32009292D01*
X26320750Y-32009292D01*
X26326041Y-32004000D01*
X26331333Y-32009292D01*
X26326041Y-32014583D01*
X26320750Y-32009292D01*
X25638305Y-32009292D01*
X25631423Y-32052815D01*
X25598877Y-32147985D01*
X25550951Y-32228986D01*
X25487479Y-32296114D01*
X25408293Y-32349664D01*
X25332259Y-32383383D01*
X25290487Y-32397624D01*
X25249981Y-32409201D01*
X25207962Y-32418379D01*
X25161648Y-32425423D01*
X25108261Y-32430599D01*
X25045019Y-32434171D01*
X24969143Y-32436404D01*
X24877854Y-32437564D01*
X24768370Y-32437916D01*
X24760326Y-32437917D01*
X24426333Y-32437917D01*
X23749000Y-32437917D01*
X23749000Y-32455556D01*
X24980194Y-32455556D01*
X24981647Y-32449264D01*
X24987250Y-32448500D01*
X24995961Y-32452372D01*
X24994305Y-32455556D01*
X24981745Y-32456822D01*
X24980194Y-32455556D01*
X23749000Y-32455556D01*
X23749000Y-33020000D01*
X24487187Y-33019817D01*
G36*
X41029847Y-32004693D02*
G01*
X41140879Y-31989119D01*
X41249832Y-31964343D01*
X41347721Y-31934630D01*
X41445785Y-31897105D01*
X41544491Y-31850700D01*
X41639248Y-31798103D01*
X41725466Y-31742004D01*
X41798553Y-31685089D01*
X41838373Y-31647331D01*
X41867288Y-31616945D01*
X41792411Y-31500910D01*
X41758402Y-31448227D01*
X41723029Y-31393465D01*
X41690750Y-31343522D01*
X41668441Y-31309036D01*
X41645427Y-31275360D01*
X41626159Y-31250600D01*
X41613703Y-31238562D01*
X41611336Y-31238148D01*
X41606913Y-31235198D01*
X41608308Y-31229321D01*
X41605980Y-31211756D01*
X41594001Y-31190521D01*
X41574711Y-31165500D01*
X41485709Y-31231843D01*
X41397218Y-31290753D01*
X41298966Y-31344105D01*
X41198239Y-31388378D01*
X41102322Y-31420050D01*
X41089718Y-31423271D01*
X41003039Y-31438825D01*
X40906616Y-31446560D01*
X40807847Y-31446477D01*
X40714134Y-31438574D01*
X40634708Y-31423341D01*
X40512231Y-31380196D01*
X40400546Y-31319420D01*
X40300880Y-31242265D01*
X40214461Y-31149981D01*
X40142517Y-31043822D01*
X40086276Y-30925039D01*
X40056616Y-30833971D01*
X40045990Y-30788585D01*
X40039026Y-30742269D01*
X40035077Y-30688689D01*
X40033496Y-30621514D01*
X40033411Y-30607000D01*
X40035108Y-30518230D01*
X40041894Y-30443593D01*
X40055193Y-30376373D01*
X40076431Y-30309858D01*
X40107032Y-30237332D01*
X40115848Y-30218455D01*
X40181856Y-30102221D01*
X40261856Y-30001149D01*
X40354483Y-29915835D01*
X40458374Y-29846871D01*
X40572164Y-29794853D01*
X40694491Y-29760373D01*
X40823989Y-29744027D01*
X40959295Y-29746408D01*
X41099046Y-29768110D01*
X41131780Y-29775925D01*
X41248123Y-29813517D01*
X41367386Y-29866666D01*
X41483097Y-29931962D01*
X41588783Y-30005992D01*
X41625520Y-30036179D01*
X41684999Y-30087478D01*
X41743046Y-29979468D01*
X41771718Y-29926227D01*
X41806058Y-29862630D01*
X41841616Y-29796913D01*
X41871952Y-29740968D01*
X41942811Y-29610478D01*
X41892828Y-29566343D01*
X41842090Y-29523529D01*
X41789516Y-29482622D01*
X41738055Y-29445562D01*
X41690660Y-29414288D01*
X41650282Y-29390738D01*
X41619871Y-29376851D01*
X41602378Y-29374567D01*
X41601563Y-29374981D01*
X41594111Y-29376350D01*
X41596087Y-29371507D01*
X41590035Y-29362865D01*
X41567734Y-29348708D01*
X41532844Y-29330713D01*
X41489024Y-29310553D01*
X41439933Y-29289907D01*
X41389231Y-29270448D01*
X41340578Y-29253853D01*
X41336139Y-29252469D01*
X41255680Y-29229127D01*
X41182267Y-29211610D01*
X41110063Y-29199063D01*
X41033231Y-29190633D01*
X40945936Y-29185463D01*
X40862250Y-29183053D01*
X40755973Y-29182178D01*
X40669449Y-29184116D01*
X40601443Y-29188908D01*
X40569074Y-29193163D01*
X40504695Y-29204476D01*
X40445912Y-29216372D01*
X40395835Y-29228065D01*
X40357576Y-29238774D01*
X40334244Y-29247714D01*
X40328648Y-29253721D01*
X40326005Y-29258523D01*
X40318773Y-29256761D01*
X40300557Y-29257739D01*
X40267261Y-29266973D01*
X40222641Y-29283069D01*
X40170456Y-29304634D01*
X40114463Y-29330274D01*
X40094958Y-29339804D01*
X40055028Y-29361145D01*
X40011426Y-29386864D01*
X39967712Y-29414541D01*
X39927445Y-29441755D01*
X39894186Y-29466084D01*
X39871495Y-29485108D01*
X39862930Y-29496405D01*
X39863166Y-29497435D01*
X39862133Y-29504372D01*
X39859078Y-29503950D01*
X39845551Y-29508716D01*
X39822770Y-29524215D01*
X39795939Y-29545946D01*
X39770260Y-29569402D01*
X39750935Y-29590082D01*
X39743168Y-29603481D01*
X39743226Y-29604240D01*
X39737714Y-29615983D01*
X39733496Y-29616977D01*
X39717605Y-29626004D01*
X39692787Y-29650535D01*
X39661158Y-29688017D01*
X39624834Y-29735897D01*
X39585929Y-29791620D01*
X39574157Y-29809353D01*
X39497104Y-29945446D01*
X39435979Y-30093026D01*
X39391121Y-30249267D01*
X39362864Y-30411340D01*
X39356343Y-30506458D01*
X39359416Y-30506458D01*
X39364708Y-30501167D01*
X39370000Y-30506458D01*
X39364708Y-30511750D01*
X39359416Y-30506458D01*
X39356343Y-30506458D01*
X39351546Y-30576419D01*
X39357503Y-30741676D01*
X39381072Y-30904285D01*
X39422588Y-31061419D01*
X39424469Y-31067080D01*
X39443906Y-31119351D01*
X39468420Y-31176523D01*
X39496378Y-31235674D01*
X39526151Y-31293879D01*
X39556105Y-31348215D01*
X39584612Y-31395758D01*
X39610038Y-31433586D01*
X39630754Y-31458774D01*
X39631028Y-31458958D01*
X40767000Y-31458958D01*
X40772291Y-31453667D01*
X40777583Y-31458958D01*
X40946916Y-31458958D01*
X40952208Y-31453667D01*
X40957500Y-31458958D01*
X40952208Y-31464250D01*
X40946916Y-31458958D01*
X40777583Y-31458958D01*
X40772291Y-31464250D01*
X40767000Y-31458958D01*
X39631028Y-31458958D01*
X39645127Y-31468399D01*
X39648042Y-31467764D01*
X39653954Y-31467799D01*
X39651620Y-31472954D01*
X39655258Y-31485764D01*
X39672249Y-31509619D01*
X39699894Y-31541762D01*
X39735496Y-31579440D01*
X39776355Y-31619897D01*
X39819774Y-31660378D01*
X39863056Y-31698129D01*
X39903500Y-31730395D01*
X39904458Y-31731112D01*
X39976630Y-31779897D01*
X40061934Y-31829314D01*
X40152829Y-31875445D01*
X40241774Y-31914374D01*
X40294817Y-31933908D01*
X40382260Y-31960840D01*
X40465374Y-31981014D01*
X40550118Y-31995385D01*
X40642449Y-32004911D01*
X40748329Y-32010549D01*
X40777583Y-32011463D01*
X40910745Y-32011872D01*
X41029847Y-32004693D01*
X41029847Y-32004693D01*
G37*
X41029847Y-32004693D02*
X41140879Y-31989119D01*
X41249832Y-31964343D01*
X41347721Y-31934630D01*
X41445785Y-31897105D01*
X41544491Y-31850700D01*
X41639248Y-31798103D01*
X41725466Y-31742004D01*
X41798553Y-31685089D01*
X41838373Y-31647331D01*
X41867288Y-31616945D01*
X41792411Y-31500910D01*
X41758402Y-31448227D01*
X41723029Y-31393465D01*
X41690750Y-31343522D01*
X41668441Y-31309036D01*
X41645427Y-31275360D01*
X41626159Y-31250600D01*
X41613703Y-31238562D01*
X41611336Y-31238148D01*
X41606913Y-31235198D01*
X41608308Y-31229321D01*
X41605980Y-31211756D01*
X41594001Y-31190521D01*
X41574711Y-31165500D01*
X41485709Y-31231843D01*
X41397218Y-31290753D01*
X41298966Y-31344105D01*
X41198239Y-31388378D01*
X41102322Y-31420050D01*
X41089718Y-31423271D01*
X41003039Y-31438825D01*
X40906616Y-31446560D01*
X40807847Y-31446477D01*
X40714134Y-31438574D01*
X40634708Y-31423341D01*
X40512231Y-31380196D01*
X40400546Y-31319420D01*
X40300880Y-31242265D01*
X40214461Y-31149981D01*
X40142517Y-31043822D01*
X40086276Y-30925039D01*
X40056616Y-30833971D01*
X40045990Y-30788585D01*
X40039026Y-30742269D01*
X40035077Y-30688689D01*
X40033496Y-30621514D01*
X40033411Y-30607000D01*
X40035108Y-30518230D01*
X40041894Y-30443593D01*
X40055193Y-30376373D01*
X40076431Y-30309858D01*
X40107032Y-30237332D01*
X40115848Y-30218455D01*
X40181856Y-30102221D01*
X40261856Y-30001149D01*
X40354483Y-29915835D01*
X40458374Y-29846871D01*
X40572164Y-29794853D01*
X40694491Y-29760373D01*
X40823989Y-29744027D01*
X40959295Y-29746408D01*
X41099046Y-29768110D01*
X41131780Y-29775925D01*
X41248123Y-29813517D01*
X41367386Y-29866666D01*
X41483097Y-29931962D01*
X41588783Y-30005992D01*
X41625520Y-30036179D01*
X41684999Y-30087478D01*
X41743046Y-29979468D01*
X41771718Y-29926227D01*
X41806058Y-29862630D01*
X41841616Y-29796913D01*
X41871952Y-29740968D01*
X41942811Y-29610478D01*
X41892828Y-29566343D01*
X41842090Y-29523529D01*
X41789516Y-29482622D01*
X41738055Y-29445562D01*
X41690660Y-29414288D01*
X41650282Y-29390738D01*
X41619871Y-29376851D01*
X41602378Y-29374567D01*
X41601563Y-29374981D01*
X41594111Y-29376350D01*
X41596087Y-29371507D01*
X41590035Y-29362865D01*
X41567734Y-29348708D01*
X41532844Y-29330713D01*
X41489024Y-29310553D01*
X41439933Y-29289907D01*
X41389231Y-29270448D01*
X41340578Y-29253853D01*
X41336139Y-29252469D01*
X41255680Y-29229127D01*
X41182267Y-29211610D01*
X41110063Y-29199063D01*
X41033231Y-29190633D01*
X40945936Y-29185463D01*
X40862250Y-29183053D01*
X40755973Y-29182178D01*
X40669449Y-29184116D01*
X40601443Y-29188908D01*
X40569074Y-29193163D01*
X40504695Y-29204476D01*
X40445912Y-29216372D01*
X40395835Y-29228065D01*
X40357576Y-29238774D01*
X40334244Y-29247714D01*
X40328648Y-29253721D01*
X40326005Y-29258523D01*
X40318773Y-29256761D01*
X40300557Y-29257739D01*
X40267261Y-29266973D01*
X40222641Y-29283069D01*
X40170456Y-29304634D01*
X40114463Y-29330274D01*
X40094958Y-29339804D01*
X40055028Y-29361145D01*
X40011426Y-29386864D01*
X39967712Y-29414541D01*
X39927445Y-29441755D01*
X39894186Y-29466084D01*
X39871495Y-29485108D01*
X39862930Y-29496405D01*
X39863166Y-29497435D01*
X39862133Y-29504372D01*
X39859078Y-29503950D01*
X39845551Y-29508716D01*
X39822770Y-29524215D01*
X39795939Y-29545946D01*
X39770260Y-29569402D01*
X39750935Y-29590082D01*
X39743168Y-29603481D01*
X39743226Y-29604240D01*
X39737714Y-29615983D01*
X39733496Y-29616977D01*
X39717605Y-29626004D01*
X39692787Y-29650535D01*
X39661158Y-29688017D01*
X39624834Y-29735897D01*
X39585929Y-29791620D01*
X39574157Y-29809353D01*
X39497104Y-29945446D01*
X39435979Y-30093026D01*
X39391121Y-30249267D01*
X39362864Y-30411340D01*
X39356343Y-30506458D01*
X39359416Y-30506458D01*
X39364708Y-30501167D01*
X39370000Y-30506458D01*
X39364708Y-30511750D01*
X39359416Y-30506458D01*
X39356343Y-30506458D01*
X39351546Y-30576419D01*
X39357503Y-30741676D01*
X39381072Y-30904285D01*
X39422588Y-31061419D01*
X39424469Y-31067080D01*
X39443906Y-31119351D01*
X39468420Y-31176523D01*
X39496378Y-31235674D01*
X39526151Y-31293879D01*
X39556105Y-31348215D01*
X39584612Y-31395758D01*
X39610038Y-31433586D01*
X39630754Y-31458774D01*
X39631028Y-31458958D01*
X40767000Y-31458958D01*
X40772291Y-31453667D01*
X40777583Y-31458958D01*
X40946916Y-31458958D01*
X40952208Y-31453667D01*
X40957500Y-31458958D01*
X40952208Y-31464250D01*
X40946916Y-31458958D01*
X40777583Y-31458958D01*
X40772291Y-31464250D01*
X40767000Y-31458958D01*
X39631028Y-31458958D01*
X39645127Y-31468399D01*
X39648042Y-31467764D01*
X39653954Y-31467799D01*
X39651620Y-31472954D01*
X39655258Y-31485764D01*
X39672249Y-31509619D01*
X39699894Y-31541762D01*
X39735496Y-31579440D01*
X39776355Y-31619897D01*
X39819774Y-31660378D01*
X39863056Y-31698129D01*
X39903500Y-31730395D01*
X39904458Y-31731112D01*
X39976630Y-31779897D01*
X40061934Y-31829314D01*
X40152829Y-31875445D01*
X40241774Y-31914374D01*
X40294817Y-31933908D01*
X40382260Y-31960840D01*
X40465374Y-31981014D01*
X40550118Y-31995385D01*
X40642449Y-32004911D01*
X40748329Y-32010549D01*
X40777583Y-32011463D01*
X40910745Y-32011872D01*
X41029847Y-32004693D01*
G36*
X37851667Y-32011604D02*
G01*
X37933425Y-32009285D01*
X38009182Y-32005036D01*
X38074045Y-31998939D01*
X38123124Y-31991077D01*
X38126458Y-31990319D01*
X38195749Y-31973211D01*
X38251050Y-31957807D01*
X38290568Y-31944690D01*
X38312510Y-31934442D01*
X38316206Y-31928700D01*
X38318805Y-31923807D01*
X38326287Y-31925608D01*
X38344427Y-31923802D01*
X38375980Y-31912058D01*
X38416987Y-31892532D01*
X38463491Y-31867378D01*
X38511533Y-31838750D01*
X38557152Y-31808805D01*
X38596391Y-31779697D01*
X38600496Y-31776352D01*
X38694878Y-31685199D01*
X38774244Y-31579701D01*
X38838807Y-31459491D01*
X38888781Y-31324201D01*
X38909369Y-31246502D01*
X38915844Y-31216544D01*
X38921539Y-31184801D01*
X38926505Y-31149797D01*
X38930787Y-31110057D01*
X38934435Y-31064104D01*
X38937497Y-31010464D01*
X38940021Y-30947662D01*
X38942055Y-30874221D01*
X38943647Y-30788667D01*
X38944846Y-30689524D01*
X38945699Y-30575317D01*
X38946254Y-30444569D01*
X38946560Y-30295806D01*
X38946665Y-30127552D01*
X38946666Y-30103170D01*
X38946666Y-29241750D01*
X38332833Y-29241750D01*
X38332833Y-29448125D01*
X38332301Y-29524711D01*
X38330750Y-29584774D01*
X38328245Y-29627043D01*
X38326551Y-29638625D01*
X38343416Y-29638625D01*
X38348708Y-29633333D01*
X38354000Y-29638625D01*
X38348708Y-29643917D01*
X38343416Y-29638625D01*
X38326551Y-29638625D01*
X38324851Y-29650245D01*
X38322250Y-29654500D01*
X38312172Y-29646292D01*
X38311666Y-29642694D01*
X38305079Y-29624053D01*
X38287356Y-29593873D01*
X38261561Y-29556318D01*
X38230753Y-29515550D01*
X38197994Y-29475732D01*
X38166346Y-29441025D01*
X38155368Y-29430159D01*
X38093612Y-29377108D01*
X38023518Y-29326445D01*
X37952231Y-29282931D01*
X37887105Y-29251409D01*
X37819955Y-29226289D01*
X37758626Y-29208148D01*
X37696885Y-29195837D01*
X37628503Y-29188207D01*
X37547249Y-29184111D01*
X37517916Y-29183368D01*
X37459072Y-29182489D01*
X37405977Y-29182354D01*
X37363043Y-29182925D01*
X37334682Y-29184165D01*
X37327416Y-29185009D01*
X37273179Y-29197039D01*
X37212746Y-29213013D01*
X37152446Y-29231015D01*
X37098612Y-29249126D01*
X37057572Y-29265429D01*
X37049906Y-29269071D01*
X36992622Y-29299097D01*
X36944374Y-29326990D01*
X36907670Y-29351097D01*
X36885014Y-29369762D01*
X36878912Y-29381332D01*
X36879150Y-29381802D01*
X36879489Y-29388254D01*
X36875190Y-29386391D01*
X36863082Y-29390413D01*
X36841146Y-29407888D01*
X36812459Y-29435490D01*
X36780096Y-29469893D01*
X36747135Y-29507771D01*
X36716651Y-29545798D01*
X36691720Y-29580648D01*
X36683730Y-29593394D01*
X36634392Y-29695629D01*
X36600205Y-29807706D01*
X36581227Y-29925745D01*
X36577519Y-30045865D01*
X36578579Y-30056667D01*
X37249870Y-30056667D01*
X37258620Y-29969895D01*
X37285321Y-29893198D01*
X37328779Y-29827626D01*
X37387801Y-29774228D01*
X37461190Y-29734056D01*
X37547753Y-29708159D01*
X37646295Y-29697589D01*
X37658479Y-29697403D01*
X37726565Y-29699886D01*
X37783273Y-29709096D01*
X37817229Y-29718901D01*
X37886824Y-29746426D01*
X37948535Y-29781208D01*
X37995331Y-29814872D01*
X38019743Y-29830951D01*
X38037660Y-29837705D01*
X38042007Y-29836779D01*
X38045933Y-29836318D01*
X38043864Y-29840735D01*
X38046686Y-29854514D01*
X38061678Y-29875160D01*
X38069367Y-29883068D01*
X38096444Y-29912624D01*
X38120411Y-29944490D01*
X38122811Y-29948254D01*
X38139014Y-29968599D01*
X38152832Y-29976424D01*
X38155455Y-29975723D01*
X38161752Y-29975424D01*
X38159462Y-29980555D01*
X38160205Y-29995937D01*
X38170628Y-30020878D01*
X38177321Y-30032461D01*
X38222298Y-30120753D01*
X38255506Y-30221157D01*
X38275155Y-30327116D01*
X38279916Y-30407861D01*
X38279916Y-30480000D01*
X38115457Y-30480000D01*
X37950776Y-30475198D01*
X37802469Y-30460914D01*
X37670914Y-30437334D01*
X37556489Y-30404641D01*
X37459572Y-30363021D01*
X37380539Y-30312657D01*
X37319769Y-30253736D01*
X37277638Y-30186440D01*
X37254525Y-30110956D01*
X37249870Y-30056667D01*
X36578579Y-30056667D01*
X36589138Y-30164186D01*
X36616144Y-30276828D01*
X36658596Y-30379910D01*
X36671404Y-30403343D01*
X36707645Y-30456291D01*
X36756654Y-30514225D01*
X36812923Y-30571453D01*
X36870946Y-30622280D01*
X36913402Y-30653507D01*
X37038169Y-30726200D01*
X37175746Y-30787560D01*
X37327154Y-30837839D01*
X37491671Y-30876875D01*
X37549666Y-30876875D01*
X37554958Y-30871583D01*
X37560250Y-30876875D01*
X37554958Y-30882167D01*
X37549666Y-30876875D01*
X37491671Y-30876875D01*
X37493412Y-30877288D01*
X37675544Y-30906160D01*
X37874570Y-30924706D01*
X38044437Y-30932222D01*
X38279916Y-30938139D01*
X38279836Y-30981590D01*
X38271419Y-31084433D01*
X38247178Y-31178284D01*
X38208044Y-31260666D01*
X38154946Y-31329098D01*
X38146318Y-31337549D01*
X38091121Y-31382642D01*
X38030970Y-31416804D01*
X37962713Y-31440919D01*
X37883198Y-31455874D01*
X37789274Y-31462554D01*
X37701510Y-31462532D01*
X37648453Y-31460735D01*
X37604356Y-31458222D01*
X37572821Y-31455279D01*
X37557452Y-31452193D01*
X37556613Y-31451021D01*
X37551813Y-31444855D01*
X37538402Y-31443084D01*
X37505637Y-31438294D01*
X37458201Y-31425022D01*
X37400012Y-31404910D01*
X37334986Y-31379600D01*
X37267040Y-31350735D01*
X37200092Y-31319957D01*
X37138058Y-31288910D01*
X37084855Y-31259236D01*
X37055634Y-31240622D01*
X37029418Y-31223262D01*
X37011030Y-31212269D01*
X37006249Y-31210250D01*
X36998212Y-31219201D01*
X36983709Y-31243169D01*
X36964872Y-31277831D01*
X36943832Y-31318862D01*
X36922721Y-31361938D01*
X36903669Y-31402736D01*
X36888809Y-31436929D01*
X36880271Y-31460196D01*
X36879283Y-31467845D01*
X36880877Y-31474475D01*
X36877551Y-31472181D01*
X36870195Y-31478221D01*
X36855605Y-31498723D01*
X36836278Y-31529354D01*
X36814710Y-31565777D01*
X36793397Y-31603658D01*
X36774835Y-31638663D01*
X36761522Y-31666455D01*
X36755952Y-31682701D01*
X36755916Y-31683400D01*
X36764754Y-31694067D01*
X36788896Y-31712174D01*
X36824789Y-31735551D01*
X36868877Y-31762030D01*
X36917607Y-31789440D01*
X36967422Y-31815613D01*
X36994041Y-31828717D01*
X37055817Y-31857041D01*
X37115365Y-31882088D01*
X37169232Y-31902609D01*
X37213964Y-31917357D01*
X37246107Y-31925083D01*
X37261001Y-31925178D01*
X37270661Y-31925082D01*
X37269688Y-31929140D01*
X37276435Y-31935815D01*
X37300961Y-31945025D01*
X37340135Y-31956013D01*
X37390828Y-31968024D01*
X37449909Y-31980299D01*
X37514249Y-31992084D01*
X37562486Y-31999904D01*
X37619319Y-32006141D01*
X37689722Y-32010115D01*
X37768802Y-32011908D01*
X37851667Y-32011604D01*
X37851667Y-32011604D01*
G37*
X37851667Y-32011604D02*
X37933425Y-32009285D01*
X38009182Y-32005036D01*
X38074045Y-31998939D01*
X38123124Y-31991077D01*
X38126458Y-31990319D01*
X38195749Y-31973211D01*
X38251050Y-31957807D01*
X38290568Y-31944690D01*
X38312510Y-31934442D01*
X38316206Y-31928700D01*
X38318805Y-31923807D01*
X38326287Y-31925608D01*
X38344427Y-31923802D01*
X38375980Y-31912058D01*
X38416987Y-31892532D01*
X38463491Y-31867378D01*
X38511533Y-31838750D01*
X38557152Y-31808805D01*
X38596391Y-31779697D01*
X38600496Y-31776352D01*
X38694878Y-31685199D01*
X38774244Y-31579701D01*
X38838807Y-31459491D01*
X38888781Y-31324201D01*
X38909369Y-31246502D01*
X38915844Y-31216544D01*
X38921539Y-31184801D01*
X38926505Y-31149797D01*
X38930787Y-31110057D01*
X38934435Y-31064104D01*
X38937497Y-31010464D01*
X38940021Y-30947662D01*
X38942055Y-30874221D01*
X38943647Y-30788667D01*
X38944846Y-30689524D01*
X38945699Y-30575317D01*
X38946254Y-30444569D01*
X38946560Y-30295806D01*
X38946665Y-30127552D01*
X38946666Y-30103170D01*
X38946666Y-29241750D01*
X38332833Y-29241750D01*
X38332833Y-29448125D01*
X38332301Y-29524711D01*
X38330750Y-29584774D01*
X38328245Y-29627043D01*
X38326551Y-29638625D01*
X38343416Y-29638625D01*
X38348708Y-29633333D01*
X38354000Y-29638625D01*
X38348708Y-29643917D01*
X38343416Y-29638625D01*
X38326551Y-29638625D01*
X38324851Y-29650245D01*
X38322250Y-29654500D01*
X38312172Y-29646292D01*
X38311666Y-29642694D01*
X38305079Y-29624053D01*
X38287356Y-29593873D01*
X38261561Y-29556318D01*
X38230753Y-29515550D01*
X38197994Y-29475732D01*
X38166346Y-29441025D01*
X38155368Y-29430159D01*
X38093612Y-29377108D01*
X38023518Y-29326445D01*
X37952231Y-29282931D01*
X37887105Y-29251409D01*
X37819955Y-29226289D01*
X37758626Y-29208148D01*
X37696885Y-29195837D01*
X37628503Y-29188207D01*
X37547249Y-29184111D01*
X37517916Y-29183368D01*
X37459072Y-29182489D01*
X37405977Y-29182354D01*
X37363043Y-29182925D01*
X37334682Y-29184165D01*
X37327416Y-29185009D01*
X37273179Y-29197039D01*
X37212746Y-29213013D01*
X37152446Y-29231015D01*
X37098612Y-29249126D01*
X37057572Y-29265429D01*
X37049906Y-29269071D01*
X36992622Y-29299097D01*
X36944374Y-29326990D01*
X36907670Y-29351097D01*
X36885014Y-29369762D01*
X36878912Y-29381332D01*
X36879150Y-29381802D01*
X36879489Y-29388254D01*
X36875190Y-29386391D01*
X36863082Y-29390413D01*
X36841146Y-29407888D01*
X36812459Y-29435490D01*
X36780096Y-29469893D01*
X36747135Y-29507771D01*
X36716651Y-29545798D01*
X36691720Y-29580648D01*
X36683730Y-29593394D01*
X36634392Y-29695629D01*
X36600205Y-29807706D01*
X36581227Y-29925745D01*
X36577519Y-30045865D01*
X36578579Y-30056667D01*
X37249870Y-30056667D01*
X37258620Y-29969895D01*
X37285321Y-29893198D01*
X37328779Y-29827626D01*
X37387801Y-29774228D01*
X37461190Y-29734056D01*
X37547753Y-29708159D01*
X37646295Y-29697589D01*
X37658479Y-29697403D01*
X37726565Y-29699886D01*
X37783273Y-29709096D01*
X37817229Y-29718901D01*
X37886824Y-29746426D01*
X37948535Y-29781208D01*
X37995331Y-29814872D01*
X38019743Y-29830951D01*
X38037660Y-29837705D01*
X38042007Y-29836779D01*
X38045933Y-29836318D01*
X38043864Y-29840735D01*
X38046686Y-29854514D01*
X38061678Y-29875160D01*
X38069367Y-29883068D01*
X38096444Y-29912624D01*
X38120411Y-29944490D01*
X38122811Y-29948254D01*
X38139014Y-29968599D01*
X38152832Y-29976424D01*
X38155455Y-29975723D01*
X38161752Y-29975424D01*
X38159462Y-29980555D01*
X38160205Y-29995937D01*
X38170628Y-30020878D01*
X38177321Y-30032461D01*
X38222298Y-30120753D01*
X38255506Y-30221157D01*
X38275155Y-30327116D01*
X38279916Y-30407861D01*
X38279916Y-30480000D01*
X38115457Y-30480000D01*
X37950776Y-30475198D01*
X37802469Y-30460914D01*
X37670914Y-30437334D01*
X37556489Y-30404641D01*
X37459572Y-30363021D01*
X37380539Y-30312657D01*
X37319769Y-30253736D01*
X37277638Y-30186440D01*
X37254525Y-30110956D01*
X37249870Y-30056667D01*
X36578579Y-30056667D01*
X36589138Y-30164186D01*
X36616144Y-30276828D01*
X36658596Y-30379910D01*
X36671404Y-30403343D01*
X36707645Y-30456291D01*
X36756654Y-30514225D01*
X36812923Y-30571453D01*
X36870946Y-30622280D01*
X36913402Y-30653507D01*
X37038169Y-30726200D01*
X37175746Y-30787560D01*
X37327154Y-30837839D01*
X37491671Y-30876875D01*
X37549666Y-30876875D01*
X37554958Y-30871583D01*
X37560250Y-30876875D01*
X37554958Y-30882167D01*
X37549666Y-30876875D01*
X37491671Y-30876875D01*
X37493412Y-30877288D01*
X37675544Y-30906160D01*
X37874570Y-30924706D01*
X38044437Y-30932222D01*
X38279916Y-30938139D01*
X38279836Y-30981590D01*
X38271419Y-31084433D01*
X38247178Y-31178284D01*
X38208044Y-31260666D01*
X38154946Y-31329098D01*
X38146318Y-31337549D01*
X38091121Y-31382642D01*
X38030970Y-31416804D01*
X37962713Y-31440919D01*
X37883198Y-31455874D01*
X37789274Y-31462554D01*
X37701510Y-31462532D01*
X37648453Y-31460735D01*
X37604356Y-31458222D01*
X37572821Y-31455279D01*
X37557452Y-31452193D01*
X37556613Y-31451021D01*
X37551813Y-31444855D01*
X37538402Y-31443084D01*
X37505637Y-31438294D01*
X37458201Y-31425022D01*
X37400012Y-31404910D01*
X37334986Y-31379600D01*
X37267040Y-31350735D01*
X37200092Y-31319957D01*
X37138058Y-31288910D01*
X37084855Y-31259236D01*
X37055634Y-31240622D01*
X37029418Y-31223262D01*
X37011030Y-31212269D01*
X37006249Y-31210250D01*
X36998212Y-31219201D01*
X36983709Y-31243169D01*
X36964872Y-31277831D01*
X36943832Y-31318862D01*
X36922721Y-31361938D01*
X36903669Y-31402736D01*
X36888809Y-31436929D01*
X36880271Y-31460196D01*
X36879283Y-31467845D01*
X36880877Y-31474475D01*
X36877551Y-31472181D01*
X36870195Y-31478221D01*
X36855605Y-31498723D01*
X36836278Y-31529354D01*
X36814710Y-31565777D01*
X36793397Y-31603658D01*
X36774835Y-31638663D01*
X36761522Y-31666455D01*
X36755952Y-31682701D01*
X36755916Y-31683400D01*
X36764754Y-31694067D01*
X36788896Y-31712174D01*
X36824789Y-31735551D01*
X36868877Y-31762030D01*
X36917607Y-31789440D01*
X36967422Y-31815613D01*
X36994041Y-31828717D01*
X37055817Y-31857041D01*
X37115365Y-31882088D01*
X37169232Y-31902609D01*
X37213964Y-31917357D01*
X37246107Y-31925083D01*
X37261001Y-31925178D01*
X37270661Y-31925082D01*
X37269688Y-31929140D01*
X37276435Y-31935815D01*
X37300961Y-31945025D01*
X37340135Y-31956013D01*
X37390828Y-31968024D01*
X37449909Y-31980299D01*
X37514249Y-31992084D01*
X37562486Y-31999904D01*
X37619319Y-32006141D01*
X37689722Y-32010115D01*
X37768802Y-32011908D01*
X37851667Y-32011604D01*
G36*
X34336461Y-31032979D02*
G01*
X34337343Y-30866716D01*
X34338160Y-30720370D01*
X34338935Y-30592693D01*
X34339690Y-30482436D01*
X34340450Y-30388350D01*
X34341237Y-30309186D01*
X34342074Y-30243695D01*
X34342986Y-30190629D01*
X34343995Y-30148738D01*
X34345124Y-30116774D01*
X34346398Y-30093487D01*
X34347839Y-30077629D01*
X34349470Y-30067952D01*
X34351316Y-30063205D01*
X34353398Y-30062141D01*
X34354574Y-30062623D01*
X34361260Y-30056211D01*
X34370107Y-30035402D01*
X34372729Y-30027216D01*
X34405457Y-29953910D01*
X34455972Y-29891074D01*
X34522983Y-29840008D01*
X34591625Y-29806947D01*
X34645308Y-29793406D01*
X34712784Y-29786752D01*
X34787885Y-29786828D01*
X34864443Y-29793474D01*
X34936292Y-29806533D01*
X34972625Y-29816735D01*
X35066959Y-29854170D01*
X35149975Y-29902259D01*
X35227678Y-29964872D01*
X35274373Y-30011152D01*
X35355090Y-30111290D01*
X35420607Y-30225411D01*
X35471235Y-30354111D01*
X35493101Y-30432375D01*
X35521421Y-30548792D01*
X35525514Y-31249938D01*
X35529606Y-31951084D01*
X35862303Y-31951083D01*
X36195000Y-31951083D01*
X36195000Y-29241750D01*
X35546418Y-29241750D01*
X35551730Y-29490458D01*
X35552953Y-29560464D01*
X35553523Y-29622847D01*
X35553454Y-29674686D01*
X35552765Y-29713058D01*
X35551470Y-29735044D01*
X35550344Y-29739167D01*
X35541734Y-29730710D01*
X35528138Y-29709494D01*
X35522719Y-29699664D01*
X35506730Y-29673149D01*
X35482081Y-29636404D01*
X35453153Y-29595872D01*
X35441787Y-29580602D01*
X35349114Y-29475148D01*
X35241008Y-29383454D01*
X35118851Y-29306423D01*
X34984024Y-29244956D01*
X34872924Y-29208933D01*
X34817167Y-29197709D01*
X34746121Y-29189265D01*
X34665502Y-29183758D01*
X34581023Y-29181347D01*
X34498401Y-29182189D01*
X34423350Y-29186442D01*
X34361585Y-29194264D01*
X34359027Y-29194736D01*
X34222983Y-29229167D01*
X34102023Y-29278437D01*
X33996101Y-29342588D01*
X33905167Y-29421660D01*
X33829175Y-29515692D01*
X33768075Y-29624726D01*
X33728843Y-29726010D01*
X33717932Y-29759893D01*
X33708283Y-29790498D01*
X33699813Y-29819288D01*
X33692439Y-29847727D01*
X33686077Y-29877275D01*
X33680645Y-29909397D01*
X33676060Y-29945555D01*
X33672238Y-29987211D01*
X33669098Y-30035829D01*
X33666555Y-30092870D01*
X33664767Y-30151917D01*
X33665583Y-30151917D01*
X33669455Y-30143206D01*
X33672638Y-30144861D01*
X33673905Y-30157421D01*
X33672638Y-30158972D01*
X33666347Y-30157520D01*
X33665583Y-30151917D01*
X33664767Y-30151917D01*
X33664528Y-30159798D01*
X33662932Y-30238076D01*
X33661686Y-30329165D01*
X33660706Y-30434529D01*
X33659908Y-30555630D01*
X33659211Y-30693931D01*
X33658531Y-30850895D01*
X33658012Y-30974771D01*
X33653955Y-31935208D01*
X33665583Y-31935208D01*
X33670875Y-31929917D01*
X33676166Y-31935208D01*
X33670875Y-31940500D01*
X33665583Y-31935208D01*
X33653955Y-31935208D01*
X33653887Y-31951084D01*
X34331660Y-31951084D01*
X34336461Y-31032979D01*
X34336461Y-31032979D01*
G37*
X34336461Y-31032979D02*
X34337343Y-30866716D01*
X34338160Y-30720370D01*
X34338935Y-30592693D01*
X34339690Y-30482436D01*
X34340450Y-30388350D01*
X34341237Y-30309186D01*
X34342074Y-30243695D01*
X34342986Y-30190629D01*
X34343995Y-30148738D01*
X34345124Y-30116774D01*
X34346398Y-30093487D01*
X34347839Y-30077629D01*
X34349470Y-30067952D01*
X34351316Y-30063205D01*
X34353398Y-30062141D01*
X34354574Y-30062623D01*
X34361260Y-30056211D01*
X34370107Y-30035402D01*
X34372729Y-30027216D01*
X34405457Y-29953910D01*
X34455972Y-29891074D01*
X34522983Y-29840008D01*
X34591625Y-29806947D01*
X34645308Y-29793406D01*
X34712784Y-29786752D01*
X34787885Y-29786828D01*
X34864443Y-29793474D01*
X34936292Y-29806533D01*
X34972625Y-29816735D01*
X35066959Y-29854170D01*
X35149975Y-29902259D01*
X35227678Y-29964872D01*
X35274373Y-30011152D01*
X35355090Y-30111290D01*
X35420607Y-30225411D01*
X35471235Y-30354111D01*
X35493101Y-30432375D01*
X35521421Y-30548792D01*
X35525514Y-31249938D01*
X35529606Y-31951084D01*
X35862303Y-31951083D01*
X36195000Y-31951083D01*
X36195000Y-29241750D01*
X35546418Y-29241750D01*
X35551730Y-29490458D01*
X35552953Y-29560464D01*
X35553523Y-29622847D01*
X35553454Y-29674686D01*
X35552765Y-29713058D01*
X35551470Y-29735044D01*
X35550344Y-29739167D01*
X35541734Y-29730710D01*
X35528138Y-29709494D01*
X35522719Y-29699664D01*
X35506730Y-29673149D01*
X35482081Y-29636404D01*
X35453153Y-29595872D01*
X35441787Y-29580602D01*
X35349114Y-29475148D01*
X35241008Y-29383454D01*
X35118851Y-29306423D01*
X34984024Y-29244956D01*
X34872924Y-29208933D01*
X34817167Y-29197709D01*
X34746121Y-29189265D01*
X34665502Y-29183758D01*
X34581023Y-29181347D01*
X34498401Y-29182189D01*
X34423350Y-29186442D01*
X34361585Y-29194264D01*
X34359027Y-29194736D01*
X34222983Y-29229167D01*
X34102023Y-29278437D01*
X33996101Y-29342588D01*
X33905167Y-29421660D01*
X33829175Y-29515692D01*
X33768075Y-29624726D01*
X33728843Y-29726010D01*
X33717932Y-29759893D01*
X33708283Y-29790498D01*
X33699813Y-29819288D01*
X33692439Y-29847727D01*
X33686077Y-29877275D01*
X33680645Y-29909397D01*
X33676060Y-29945555D01*
X33672238Y-29987211D01*
X33669098Y-30035829D01*
X33666555Y-30092870D01*
X33664767Y-30151917D01*
X33665583Y-30151917D01*
X33669455Y-30143206D01*
X33672638Y-30144861D01*
X33673905Y-30157421D01*
X33672638Y-30158972D01*
X33666347Y-30157520D01*
X33665583Y-30151917D01*
X33664767Y-30151917D01*
X33664528Y-30159798D01*
X33662932Y-30238076D01*
X33661686Y-30329165D01*
X33660706Y-30434529D01*
X33659908Y-30555630D01*
X33659211Y-30693931D01*
X33658531Y-30850895D01*
X33658012Y-30974771D01*
X33653955Y-31935208D01*
X33665583Y-31935208D01*
X33670875Y-31929917D01*
X33676166Y-31935208D01*
X33670875Y-31940500D01*
X33665583Y-31935208D01*
X33653955Y-31935208D01*
X33653887Y-31951084D01*
X34331660Y-31951084D01*
X34336461Y-31032979D01*
G36*
X30824850Y-33037289D02*
G01*
X30828625Y-33032424D01*
X30829250Y-33024264D01*
X30829250Y-33022569D01*
X30833825Y-33003443D01*
X30845929Y-32971863D01*
X30863128Y-32934052D01*
X30866661Y-32926896D01*
X30913061Y-32853851D01*
X30972881Y-32790080D01*
X31042154Y-32738561D01*
X31116910Y-32702272D01*
X31189615Y-32684589D01*
X31242000Y-32678385D01*
X31242000Y-32579318D01*
X31242190Y-32533151D01*
X31243474Y-32504157D01*
X31246917Y-32488341D01*
X31253586Y-32481709D01*
X31264548Y-32480268D01*
X31268458Y-32480250D01*
X31280783Y-32480963D01*
X31288526Y-32485765D01*
X31292751Y-32498646D01*
X31294525Y-32523599D01*
X31294911Y-32564617D01*
X31294916Y-32579415D01*
X31294916Y-32678581D01*
X31341690Y-32683853D01*
X31395184Y-32696496D01*
X31455571Y-32721273D01*
X31515610Y-32754564D01*
X31568058Y-32792748D01*
X31578983Y-32802491D01*
X31619464Y-32847660D01*
X31656542Y-32902072D01*
X31685715Y-32958250D01*
X31702169Y-33007188D01*
X31710541Y-33031407D01*
X31723035Y-33037833D01*
X31727120Y-33037052D01*
X31744443Y-33032213D01*
X31776830Y-33023195D01*
X31818950Y-33011483D01*
X31847667Y-33003505D01*
X31890121Y-32990831D01*
X31923019Y-32979314D01*
X31942312Y-32970477D01*
X31945548Y-32966691D01*
X31949861Y-32962540D01*
X31963308Y-32964446D01*
X31978823Y-32966265D01*
X31982610Y-32956551D01*
X31979937Y-32939373D01*
X31951490Y-32846706D01*
X31904721Y-32754860D01*
X31842320Y-32667222D01*
X31766974Y-32587181D01*
X31681372Y-32518125D01*
X31611689Y-32475382D01*
X31576914Y-32455919D01*
X31560334Y-32443080D01*
X31561037Y-32434380D01*
X31578110Y-32427332D01*
X31592691Y-32423606D01*
X31621742Y-32426124D01*
X31660644Y-32443096D01*
X31706498Y-32472079D01*
X31756410Y-32510630D01*
X31807483Y-32556304D01*
X31856819Y-32606657D01*
X31901523Y-32659246D01*
X31938698Y-32711628D01*
X31943713Y-32719757D01*
X31965818Y-32759699D01*
X31987322Y-32804165D01*
X32006382Y-32848558D01*
X32021152Y-32888277D01*
X32029791Y-32918722D01*
X32030455Y-32935294D01*
X32030246Y-32935677D01*
X32034303Y-32938375D01*
X32053701Y-32932377D01*
X32085261Y-32919233D01*
X32125803Y-32900490D01*
X32172146Y-32877699D01*
X32221109Y-32852409D01*
X32269514Y-32826168D01*
X32314178Y-32800526D01*
X32339564Y-32784999D01*
X32379540Y-32758987D01*
X32401354Y-32742933D01*
X32404887Y-32736940D01*
X32390291Y-32741006D01*
X32376726Y-32740039D01*
X32374416Y-32734296D01*
X32369392Y-32715005D01*
X32355794Y-32681887D01*
X32335831Y-32639330D01*
X32311714Y-32591720D01*
X32285651Y-32543445D01*
X32259853Y-32498891D01*
X32240200Y-32467843D01*
X32209564Y-32425626D01*
X32170372Y-32376486D01*
X32129103Y-32328402D01*
X32110581Y-32308170D01*
X32075262Y-32269618D01*
X32053632Y-32243196D01*
X32044028Y-32226461D01*
X32044786Y-32216972D01*
X32047081Y-32214980D01*
X32067389Y-32206337D01*
X32074499Y-32205246D01*
X32088035Y-32212984D01*
X32111596Y-32234255D01*
X32142264Y-32265842D01*
X32177119Y-32304531D01*
X32213244Y-32347105D01*
X32247719Y-32390349D01*
X32271277Y-32422042D01*
X32298109Y-32462513D01*
X32326228Y-32509858D01*
X32353784Y-32560314D01*
X32378928Y-32610118D01*
X32399811Y-32655508D01*
X32414583Y-32692722D01*
X32421395Y-32717996D01*
X32420742Y-32726138D01*
X32421523Y-32730372D01*
X32435389Y-32722455D01*
X32459775Y-32704489D01*
X32492117Y-32678573D01*
X32529850Y-32646809D01*
X32570409Y-32611298D01*
X32611229Y-32574139D01*
X32642426Y-32544564D01*
X32677394Y-32509870D01*
X32712374Y-32473745D01*
X32744947Y-32438889D01*
X32772693Y-32408003D01*
X32793193Y-32383788D01*
X32804029Y-32368946D01*
X32802780Y-32366175D01*
X32801624Y-32366831D01*
X32789572Y-32363406D01*
X32776560Y-32342555D01*
X32775633Y-32340373D01*
X32760800Y-32311096D01*
X32736275Y-32269625D01*
X32705149Y-32220640D01*
X32670512Y-32168817D01*
X32635455Y-32118834D01*
X32603070Y-32075369D01*
X32588328Y-32056917D01*
X32558391Y-32022168D01*
X32520149Y-31979833D01*
X32480289Y-31937267D01*
X32466491Y-31922953D01*
X32392755Y-31847197D01*
X32416056Y-31814474D01*
X32432326Y-31793381D01*
X32443343Y-31782261D01*
X32444635Y-31781750D01*
X32460732Y-31789449D01*
X32487669Y-31810848D01*
X32522715Y-31843403D01*
X32563141Y-31884572D01*
X32606217Y-31931808D01*
X32608708Y-31934645D01*
X32687529Y-32029700D01*
X32756186Y-32122860D01*
X32811658Y-32209914D01*
X32829644Y-32242399D01*
X32860840Y-32301705D01*
X32918425Y-32212442D01*
X32990806Y-32091213D01*
X33051331Y-31968942D01*
X33102788Y-31839269D01*
X33147964Y-31695837D01*
X33153436Y-31676158D01*
X33190943Y-31507528D01*
X33213775Y-31331555D01*
X33221800Y-31153200D01*
X33214883Y-30977421D01*
X33192892Y-30809180D01*
X33178516Y-30739292D01*
X33123987Y-30548405D01*
X33049778Y-30360794D01*
X32957379Y-30179895D01*
X32887027Y-30065659D01*
X32855350Y-30017393D01*
X32834150Y-29983546D01*
X32822050Y-29961000D01*
X32817671Y-29946638D01*
X32819637Y-29937340D01*
X32826572Y-29929990D01*
X32826965Y-29929667D01*
X32840038Y-29918333D01*
X32866407Y-29894978D01*
X32903653Y-29861763D01*
X32949360Y-29820847D01*
X33001107Y-29774391D01*
X33039023Y-29740277D01*
X33099630Y-29685436D01*
X33145921Y-29642785D01*
X33179527Y-29610590D01*
X33202079Y-29587123D01*
X33215209Y-29570653D01*
X33220545Y-29559447D01*
X33219720Y-29551776D01*
X33218458Y-29549832D01*
X33207990Y-29537628D01*
X33185786Y-29512495D01*
X33154322Y-29477187D01*
X33116078Y-29434456D01*
X33073530Y-29387059D01*
X33029158Y-29337747D01*
X32985438Y-29289276D01*
X32944849Y-29244399D01*
X32909869Y-29205871D01*
X32882976Y-29176444D01*
X32867268Y-29159527D01*
X32844488Y-29135512D01*
X32667891Y-29305739D01*
X32617874Y-29354348D01*
X32573561Y-29398170D01*
X32537053Y-29435068D01*
X32510449Y-29462901D01*
X32495847Y-29479531D01*
X32493709Y-29483213D01*
X32488471Y-29491760D01*
X32487198Y-29492072D01*
X32474287Y-29499874D01*
X32454002Y-29517004D01*
X32449992Y-29520778D01*
X32421713Y-29547871D01*
X32353086Y-29499922D01*
X32236065Y-29426327D01*
X32105905Y-29358671D01*
X31970325Y-29300522D01*
X31837040Y-29255447D01*
X31805846Y-29246866D01*
X31728077Y-29227209D01*
X31660479Y-29212060D01*
X31598152Y-29200849D01*
X31536198Y-29193009D01*
X31469716Y-29187970D01*
X31393808Y-29185166D01*
X31303574Y-29184026D01*
X31263166Y-29183910D01*
X31157857Y-29184680D01*
X31068587Y-29187656D01*
X30990287Y-29193485D01*
X30917887Y-29202814D01*
X30846317Y-29216289D01*
X30770507Y-29234558D01*
X30689259Y-29257142D01*
X30632312Y-29275433D01*
X30569629Y-29298535D01*
X30503950Y-29325115D01*
X30438017Y-29353841D01*
X30374571Y-29383379D01*
X30316352Y-29412396D01*
X30266103Y-29439559D01*
X30226563Y-29463537D01*
X30200474Y-29482994D01*
X30190578Y-29496599D01*
X30191184Y-29499353D01*
X30190570Y-29504601D01*
X30186006Y-29502488D01*
X30171796Y-29505103D01*
X30145017Y-29520166D01*
X30108395Y-29545496D01*
X30064658Y-29578910D01*
X30016532Y-29618226D01*
X29966746Y-29661262D01*
X29918025Y-29705836D01*
X29873098Y-29749767D01*
X29859863Y-29763442D01*
X29771150Y-29861959D01*
X29693561Y-29960693D01*
X29621674Y-30066971D01*
X29564284Y-30162951D01*
X29535618Y-30216670D01*
X29505622Y-30278897D01*
X29475874Y-30345686D01*
X29447951Y-30413091D01*
X29423431Y-30477167D01*
X29403892Y-30533969D01*
X29390910Y-30579552D01*
X29386100Y-30608558D01*
X29383736Y-30632610D01*
X29379736Y-30643597D01*
X29378679Y-30643560D01*
X29373181Y-30651170D01*
X29365534Y-30678011D01*
X29356114Y-30722301D01*
X29345295Y-30782255D01*
X29333452Y-30856090D01*
X29331905Y-30866292D01*
X29323929Y-30937994D01*
X29318762Y-31024390D01*
X29316406Y-31119198D01*
X29316460Y-31130875D01*
X29936621Y-31130875D01*
X29946794Y-30961950D01*
X29977132Y-30799238D01*
X30027362Y-30643447D01*
X30097212Y-30495280D01*
X30186410Y-30355443D01*
X30280571Y-30239971D01*
X30400464Y-30122931D01*
X30531462Y-30022984D01*
X30671928Y-29940677D01*
X30820226Y-29876557D01*
X30974717Y-29831172D01*
X31133764Y-29805069D01*
X31295729Y-29798794D01*
X31458974Y-29812896D01*
X31524392Y-29824390D01*
X31684246Y-29866065D01*
X31832602Y-29924648D01*
X31971070Y-30001038D01*
X32101260Y-30096135D01*
X32224781Y-30210839D01*
X32235558Y-30222083D01*
X32343595Y-30350551D01*
X32433404Y-30488805D01*
X32504416Y-30635585D01*
X32556064Y-30789630D01*
X32562865Y-30823958D01*
X33178750Y-30823958D01*
X33184041Y-30818667D01*
X33189333Y-30823958D01*
X33184041Y-30829250D01*
X33178750Y-30823958D01*
X32562865Y-30823958D01*
X32587777Y-30949678D01*
X32592361Y-30993292D01*
X33199916Y-30993292D01*
X33205208Y-30988000D01*
X33210500Y-30993292D01*
X33205208Y-30998583D01*
X33199916Y-30993292D01*
X32592361Y-30993292D01*
X32595060Y-31018967D01*
X32598437Y-31065091D01*
X32600768Y-31102586D01*
X32601802Y-31126959D01*
X32601550Y-31133959D01*
X32594741Y-31127508D01*
X32578459Y-31107644D01*
X32555684Y-31078066D01*
X32545061Y-31063853D01*
X32445968Y-30947205D01*
X32334775Y-30846963D01*
X32213252Y-30763542D01*
X32083171Y-30697362D01*
X31946305Y-30648839D01*
X31804426Y-30618392D01*
X31659304Y-30606439D01*
X31512713Y-30613397D01*
X31366423Y-30639685D01*
X31222207Y-30685719D01*
X31125234Y-30729014D01*
X31055485Y-30769136D01*
X30980122Y-30821164D01*
X30906012Y-30879909D01*
X30840021Y-30940179D01*
X30823274Y-30957316D01*
X30742542Y-31054003D01*
X30672018Y-31161520D01*
X30613313Y-31276062D01*
X30568041Y-31393825D01*
X30537814Y-31511006D01*
X30524246Y-31623803D01*
X30523770Y-31663619D01*
X30525207Y-31734125D01*
X30533129Y-31659025D01*
X30556120Y-31536428D01*
X30597393Y-31422268D01*
X30655362Y-31318094D01*
X30728444Y-31225458D01*
X30815053Y-31145911D01*
X30913606Y-31081003D01*
X31022516Y-31032285D01*
X31140201Y-31001308D01*
X31214867Y-30991844D01*
X31334907Y-30992934D01*
X31452072Y-31013912D01*
X31564032Y-31053507D01*
X31668455Y-31110447D01*
X31763012Y-31183460D01*
X31845370Y-31271275D01*
X31878901Y-31321375D01*
X33199916Y-31321375D01*
X33205208Y-31316083D01*
X33210500Y-31321375D01*
X33205208Y-31326667D01*
X33199916Y-31321375D01*
X31878901Y-31321375D01*
X31913201Y-31372621D01*
X31913366Y-31372917D01*
X31960795Y-31478915D01*
X31991241Y-31592947D01*
X32004006Y-31710300D01*
X31998391Y-31826264D01*
X31988678Y-31881334D01*
X31957473Y-31980321D01*
X31972250Y-31980321D01*
X31975593Y-31968006D01*
X31984061Y-31943007D01*
X31989256Y-31928602D01*
X32000807Y-31882597D01*
X32008474Y-31822035D01*
X32012146Y-31753189D01*
X32011709Y-31682329D01*
X32007049Y-31615727D01*
X31998053Y-31559656D01*
X31996069Y-31551563D01*
X31986876Y-31514907D01*
X31980826Y-31487781D01*
X31979015Y-31475176D01*
X31979230Y-31474833D01*
X31987920Y-31481553D01*
X32007374Y-31499074D01*
X32030457Y-31520821D01*
X32090815Y-31568142D01*
X32162609Y-31607784D01*
X32239130Y-31636902D01*
X32313667Y-31652650D01*
X32346008Y-31654625D01*
X32395888Y-31661198D01*
X32429658Y-31680171D01*
X32446500Y-31710957D01*
X32448337Y-31728000D01*
X32439224Y-31761370D01*
X32414373Y-31784195D01*
X32379512Y-31792333D01*
X32302617Y-31800577D01*
X32220361Y-31823494D01*
X32139448Y-31858364D01*
X32066580Y-31902469D01*
X32025378Y-31936034D01*
X31999108Y-31959895D01*
X31980115Y-31975787D01*
X31972280Y-31980476D01*
X31972250Y-31980321D01*
X31957473Y-31980321D01*
X31954173Y-31990788D01*
X31901563Y-32095942D01*
X31833583Y-32192914D01*
X31752966Y-32277824D01*
X31662447Y-32346791D01*
X31659471Y-32348658D01*
X31559091Y-32401934D01*
X31455015Y-32438039D01*
X31343886Y-32457712D01*
X31222345Y-32461694D01*
X31161854Y-32458448D01*
X30998756Y-32435626D01*
X30842886Y-32393789D01*
X30695412Y-32334203D01*
X30557505Y-32258135D01*
X30430331Y-32166852D01*
X30315060Y-32061619D01*
X30212860Y-31943703D01*
X30124900Y-31814369D01*
X30052349Y-31674885D01*
X29996374Y-31526516D01*
X29958146Y-31370529D01*
X29938832Y-31208190D01*
X29936621Y-31130875D01*
X29316460Y-31130875D01*
X29316860Y-31216132D01*
X29320125Y-31308909D01*
X29326200Y-31391243D01*
X29331896Y-31437792D01*
X29368902Y-31629362D01*
X29420890Y-31808508D01*
X29489235Y-31979021D01*
X29575315Y-32144693D01*
X29609099Y-32200967D01*
X29632436Y-32237096D01*
X29652361Y-32265258D01*
X29665874Y-32281335D01*
X29669197Y-32283548D01*
X29678791Y-32275580D01*
X29695616Y-32253670D01*
X29716351Y-32222226D01*
X29720379Y-32215667D01*
X29811858Y-32078312D01*
X29913747Y-31948938D01*
X29965152Y-31891458D01*
X30008161Y-31845995D01*
X30039609Y-31814910D01*
X30062139Y-31796890D01*
X30078394Y-31790621D01*
X30091019Y-31794791D01*
X30102657Y-31808086D01*
X30110018Y-31819495D01*
X30133262Y-31857106D01*
X30048993Y-31943782D01*
X30005641Y-31990502D01*
X29959448Y-32043724D01*
X29917606Y-32095036D01*
X29900044Y-32118047D01*
X29872973Y-32156379D01*
X29843374Y-32201004D01*
X29813586Y-32248053D01*
X29785948Y-32293653D01*
X29762796Y-32333934D01*
X29746469Y-32365023D01*
X29739306Y-32383051D01*
X29739166Y-32384422D01*
X29746525Y-32396207D01*
X29766699Y-32419419D01*
X29796832Y-32451252D01*
X29834066Y-32488906D01*
X29875548Y-32529576D01*
X29918419Y-32570459D01*
X29959825Y-32608753D01*
X29996910Y-32641654D01*
X30024916Y-32664877D01*
X30070395Y-32700499D01*
X30101401Y-32724518D01*
X30120089Y-32738427D01*
X30128613Y-32743724D01*
X30129127Y-32741903D01*
X30123783Y-32734461D01*
X30122210Y-32732440D01*
X30117571Y-32710467D01*
X30125048Y-32675053D01*
X30143047Y-32628880D01*
X30169972Y-32574631D01*
X30204227Y-32514990D01*
X30244217Y-32452640D01*
X30288346Y-32390264D01*
X30335019Y-32330545D01*
X30382641Y-32276165D01*
X30410377Y-32247827D01*
X30437116Y-32222656D01*
X30453798Y-32210590D01*
X30465088Y-32209529D01*
X30475651Y-32217371D01*
X30476376Y-32218091D01*
X30483121Y-32226935D01*
X30483442Y-32237051D01*
X30475382Y-32251726D01*
X30456982Y-32274247D01*
X30426285Y-32307903D01*
X30416912Y-32317958D01*
X30334737Y-32414601D01*
X30264182Y-32515202D01*
X30208126Y-32615324D01*
X30177626Y-32686625D01*
X30165031Y-32717660D01*
X30153716Y-32739812D01*
X30148741Y-32746121D01*
X30152500Y-32754121D01*
X30171960Y-32769742D01*
X30203926Y-32791064D01*
X30245203Y-32816171D01*
X30292594Y-32843145D01*
X30342907Y-32870068D01*
X30392944Y-32895022D01*
X30410696Y-32903348D01*
X30456808Y-32924414D01*
X30486715Y-32937524D01*
X30503378Y-32943698D01*
X30509761Y-32943957D01*
X30508828Y-32939321D01*
X30507225Y-32936575D01*
X30507034Y-32920258D01*
X30514817Y-32889863D01*
X30528826Y-32850113D01*
X30547314Y-32805732D01*
X30568533Y-32761444D01*
X30579736Y-32740604D01*
X30622828Y-32674587D01*
X30677028Y-32607733D01*
X30737654Y-32544812D01*
X30800021Y-32490594D01*
X30859448Y-32449849D01*
X30871854Y-32443068D01*
X30895879Y-32435765D01*
X30924434Y-32433576D01*
X30950058Y-32436176D01*
X30965293Y-32443245D01*
X30966808Y-32447177D01*
X30958187Y-32455202D01*
X30935853Y-32469270D01*
X30911245Y-32482820D01*
X30839173Y-32528037D01*
X30767117Y-32586809D01*
X30702606Y-32652903D01*
X30695210Y-32661654D01*
X30663925Y-32704980D01*
X30630621Y-32760221D01*
X30599053Y-32820241D01*
X30572973Y-32877900D01*
X30556132Y-32926061D01*
X30556053Y-32926358D01*
X30545779Y-32965007D01*
X30658410Y-32997420D01*
X30720929Y-33015360D01*
X30765966Y-33027895D01*
X30796388Y-33035446D01*
X30815060Y-33038437D01*
X30824850Y-33037289D01*
X30824850Y-33037289D01*
G37*
X30824850Y-33037289D02*
X30828625Y-33032424D01*
X30829250Y-33024264D01*
X30829250Y-33022569D01*
X30833825Y-33003443D01*
X30845929Y-32971863D01*
X30863128Y-32934052D01*
X30866661Y-32926896D01*
X30913061Y-32853851D01*
X30972881Y-32790080D01*
X31042154Y-32738561D01*
X31116910Y-32702272D01*
X31189615Y-32684589D01*
X31242000Y-32678385D01*
X31242000Y-32579318D01*
X31242190Y-32533151D01*
X31243474Y-32504157D01*
X31246917Y-32488341D01*
X31253586Y-32481709D01*
X31264548Y-32480268D01*
X31268458Y-32480250D01*
X31280783Y-32480963D01*
X31288526Y-32485765D01*
X31292751Y-32498646D01*
X31294525Y-32523599D01*
X31294911Y-32564617D01*
X31294916Y-32579415D01*
X31294916Y-32678581D01*
X31341690Y-32683853D01*
X31395184Y-32696496D01*
X31455571Y-32721273D01*
X31515610Y-32754564D01*
X31568058Y-32792748D01*
X31578983Y-32802491D01*
X31619464Y-32847660D01*
X31656542Y-32902072D01*
X31685715Y-32958250D01*
X31702169Y-33007188D01*
X31710541Y-33031407D01*
X31723035Y-33037833D01*
X31727120Y-33037052D01*
X31744443Y-33032213D01*
X31776830Y-33023195D01*
X31818950Y-33011483D01*
X31847667Y-33003505D01*
X31890121Y-32990831D01*
X31923019Y-32979314D01*
X31942312Y-32970477D01*
X31945548Y-32966691D01*
X31949861Y-32962540D01*
X31963308Y-32964446D01*
X31978823Y-32966265D01*
X31982610Y-32956551D01*
X31979937Y-32939373D01*
X31951490Y-32846706D01*
X31904721Y-32754860D01*
X31842320Y-32667222D01*
X31766974Y-32587181D01*
X31681372Y-32518125D01*
X31611689Y-32475382D01*
X31576914Y-32455919D01*
X31560334Y-32443080D01*
X31561037Y-32434380D01*
X31578110Y-32427332D01*
X31592691Y-32423606D01*
X31621742Y-32426124D01*
X31660644Y-32443096D01*
X31706498Y-32472079D01*
X31756410Y-32510630D01*
X31807483Y-32556304D01*
X31856819Y-32606657D01*
X31901523Y-32659246D01*
X31938698Y-32711628D01*
X31943713Y-32719757D01*
X31965818Y-32759699D01*
X31987322Y-32804165D01*
X32006382Y-32848558D01*
X32021152Y-32888277D01*
X32029791Y-32918722D01*
X32030455Y-32935294D01*
X32030246Y-32935677D01*
X32034303Y-32938375D01*
X32053701Y-32932377D01*
X32085261Y-32919233D01*
X32125803Y-32900490D01*
X32172146Y-32877699D01*
X32221109Y-32852409D01*
X32269514Y-32826168D01*
X32314178Y-32800526D01*
X32339564Y-32784999D01*
X32379540Y-32758987D01*
X32401354Y-32742933D01*
X32404887Y-32736940D01*
X32390291Y-32741006D01*
X32376726Y-32740039D01*
X32374416Y-32734296D01*
X32369392Y-32715005D01*
X32355794Y-32681887D01*
X32335831Y-32639330D01*
X32311714Y-32591720D01*
X32285651Y-32543445D01*
X32259853Y-32498891D01*
X32240200Y-32467843D01*
X32209564Y-32425626D01*
X32170372Y-32376486D01*
X32129103Y-32328402D01*
X32110581Y-32308170D01*
X32075262Y-32269618D01*
X32053632Y-32243196D01*
X32044028Y-32226461D01*
X32044786Y-32216972D01*
X32047081Y-32214980D01*
X32067389Y-32206337D01*
X32074499Y-32205246D01*
X32088035Y-32212984D01*
X32111596Y-32234255D01*
X32142264Y-32265842D01*
X32177119Y-32304531D01*
X32213244Y-32347105D01*
X32247719Y-32390349D01*
X32271277Y-32422042D01*
X32298109Y-32462513D01*
X32326228Y-32509858D01*
X32353784Y-32560314D01*
X32378928Y-32610118D01*
X32399811Y-32655508D01*
X32414583Y-32692722D01*
X32421395Y-32717996D01*
X32420742Y-32726138D01*
X32421523Y-32730372D01*
X32435389Y-32722455D01*
X32459775Y-32704489D01*
X32492117Y-32678573D01*
X32529850Y-32646809D01*
X32570409Y-32611298D01*
X32611229Y-32574139D01*
X32642426Y-32544564D01*
X32677394Y-32509870D01*
X32712374Y-32473745D01*
X32744947Y-32438889D01*
X32772693Y-32408003D01*
X32793193Y-32383788D01*
X32804029Y-32368946D01*
X32802780Y-32366175D01*
X32801624Y-32366831D01*
X32789572Y-32363406D01*
X32776560Y-32342555D01*
X32775633Y-32340373D01*
X32760800Y-32311096D01*
X32736275Y-32269625D01*
X32705149Y-32220640D01*
X32670512Y-32168817D01*
X32635455Y-32118834D01*
X32603070Y-32075369D01*
X32588328Y-32056917D01*
X32558391Y-32022168D01*
X32520149Y-31979833D01*
X32480289Y-31937267D01*
X32466491Y-31922953D01*
X32392755Y-31847197D01*
X32416056Y-31814474D01*
X32432326Y-31793381D01*
X32443343Y-31782261D01*
X32444635Y-31781750D01*
X32460732Y-31789449D01*
X32487669Y-31810848D01*
X32522715Y-31843403D01*
X32563141Y-31884572D01*
X32606217Y-31931808D01*
X32608708Y-31934645D01*
X32687529Y-32029700D01*
X32756186Y-32122860D01*
X32811658Y-32209914D01*
X32829644Y-32242399D01*
X32860840Y-32301705D01*
X32918425Y-32212442D01*
X32990806Y-32091213D01*
X33051331Y-31968942D01*
X33102788Y-31839269D01*
X33147964Y-31695837D01*
X33153436Y-31676158D01*
X33190943Y-31507528D01*
X33213775Y-31331555D01*
X33221800Y-31153200D01*
X33214883Y-30977421D01*
X33192892Y-30809180D01*
X33178516Y-30739292D01*
X33123987Y-30548405D01*
X33049778Y-30360794D01*
X32957379Y-30179895D01*
X32887027Y-30065659D01*
X32855350Y-30017393D01*
X32834150Y-29983546D01*
X32822050Y-29961000D01*
X32817671Y-29946638D01*
X32819637Y-29937340D01*
X32826572Y-29929990D01*
X32826965Y-29929667D01*
X32840038Y-29918333D01*
X32866407Y-29894978D01*
X32903653Y-29861763D01*
X32949360Y-29820847D01*
X33001107Y-29774391D01*
X33039023Y-29740277D01*
X33099630Y-29685436D01*
X33145921Y-29642785D01*
X33179527Y-29610590D01*
X33202079Y-29587123D01*
X33215209Y-29570653D01*
X33220545Y-29559447D01*
X33219720Y-29551776D01*
X33218458Y-29549832D01*
X33207990Y-29537628D01*
X33185786Y-29512495D01*
X33154322Y-29477187D01*
X33116078Y-29434456D01*
X33073530Y-29387059D01*
X33029158Y-29337747D01*
X32985438Y-29289276D01*
X32944849Y-29244399D01*
X32909869Y-29205871D01*
X32882976Y-29176444D01*
X32867268Y-29159527D01*
X32844488Y-29135512D01*
X32667891Y-29305739D01*
X32617874Y-29354348D01*
X32573561Y-29398170D01*
X32537053Y-29435068D01*
X32510449Y-29462901D01*
X32495847Y-29479531D01*
X32493709Y-29483213D01*
X32488471Y-29491760D01*
X32487198Y-29492072D01*
X32474287Y-29499874D01*
X32454002Y-29517004D01*
X32449992Y-29520778D01*
X32421713Y-29547871D01*
X32353086Y-29499922D01*
X32236065Y-29426327D01*
X32105905Y-29358671D01*
X31970325Y-29300522D01*
X31837040Y-29255447D01*
X31805846Y-29246866D01*
X31728077Y-29227209D01*
X31660479Y-29212060D01*
X31598152Y-29200849D01*
X31536198Y-29193009D01*
X31469716Y-29187970D01*
X31393808Y-29185166D01*
X31303574Y-29184026D01*
X31263166Y-29183910D01*
X31157857Y-29184680D01*
X31068587Y-29187656D01*
X30990287Y-29193485D01*
X30917887Y-29202814D01*
X30846317Y-29216289D01*
X30770507Y-29234558D01*
X30689259Y-29257142D01*
X30632312Y-29275433D01*
X30569629Y-29298535D01*
X30503950Y-29325115D01*
X30438017Y-29353841D01*
X30374571Y-29383379D01*
X30316352Y-29412396D01*
X30266103Y-29439559D01*
X30226563Y-29463537D01*
X30200474Y-29482994D01*
X30190578Y-29496599D01*
X30191184Y-29499353D01*
X30190570Y-29504601D01*
X30186006Y-29502488D01*
X30171796Y-29505103D01*
X30145017Y-29520166D01*
X30108395Y-29545496D01*
X30064658Y-29578910D01*
X30016532Y-29618226D01*
X29966746Y-29661262D01*
X29918025Y-29705836D01*
X29873098Y-29749767D01*
X29859863Y-29763442D01*
X29771150Y-29861959D01*
X29693561Y-29960693D01*
X29621674Y-30066971D01*
X29564284Y-30162951D01*
X29535618Y-30216670D01*
X29505622Y-30278897D01*
X29475874Y-30345686D01*
X29447951Y-30413091D01*
X29423431Y-30477167D01*
X29403892Y-30533969D01*
X29390910Y-30579552D01*
X29386100Y-30608558D01*
X29383736Y-30632610D01*
X29379736Y-30643597D01*
X29378679Y-30643560D01*
X29373181Y-30651170D01*
X29365534Y-30678011D01*
X29356114Y-30722301D01*
X29345295Y-30782255D01*
X29333452Y-30856090D01*
X29331905Y-30866292D01*
X29323929Y-30937994D01*
X29318762Y-31024390D01*
X29316406Y-31119198D01*
X29316460Y-31130875D01*
X29936621Y-31130875D01*
X29946794Y-30961950D01*
X29977132Y-30799238D01*
X30027362Y-30643447D01*
X30097212Y-30495280D01*
X30186410Y-30355443D01*
X30280571Y-30239971D01*
X30400464Y-30122931D01*
X30531462Y-30022984D01*
X30671928Y-29940677D01*
X30820226Y-29876557D01*
X30974717Y-29831172D01*
X31133764Y-29805069D01*
X31295729Y-29798794D01*
X31458974Y-29812896D01*
X31524392Y-29824390D01*
X31684246Y-29866065D01*
X31832602Y-29924648D01*
X31971070Y-30001038D01*
X32101260Y-30096135D01*
X32224781Y-30210839D01*
X32235558Y-30222083D01*
X32343595Y-30350551D01*
X32433404Y-30488805D01*
X32504416Y-30635585D01*
X32556064Y-30789630D01*
X32562865Y-30823958D01*
X33178750Y-30823958D01*
X33184041Y-30818667D01*
X33189333Y-30823958D01*
X33184041Y-30829250D01*
X33178750Y-30823958D01*
X32562865Y-30823958D01*
X32587777Y-30949678D01*
X32592361Y-30993292D01*
X33199916Y-30993292D01*
X33205208Y-30988000D01*
X33210500Y-30993292D01*
X33205208Y-30998583D01*
X33199916Y-30993292D01*
X32592361Y-30993292D01*
X32595060Y-31018967D01*
X32598437Y-31065091D01*
X32600768Y-31102586D01*
X32601802Y-31126959D01*
X32601550Y-31133959D01*
X32594741Y-31127508D01*
X32578459Y-31107644D01*
X32555684Y-31078066D01*
X32545061Y-31063853D01*
X32445968Y-30947205D01*
X32334775Y-30846963D01*
X32213252Y-30763542D01*
X32083171Y-30697362D01*
X31946305Y-30648839D01*
X31804426Y-30618392D01*
X31659304Y-30606439D01*
X31512713Y-30613397D01*
X31366423Y-30639685D01*
X31222207Y-30685719D01*
X31125234Y-30729014D01*
X31055485Y-30769136D01*
X30980122Y-30821164D01*
X30906012Y-30879909D01*
X30840021Y-30940179D01*
X30823274Y-30957316D01*
X30742542Y-31054003D01*
X30672018Y-31161520D01*
X30613313Y-31276062D01*
X30568041Y-31393825D01*
X30537814Y-31511006D01*
X30524246Y-31623803D01*
X30523770Y-31663619D01*
X30525207Y-31734125D01*
X30533129Y-31659025D01*
X30556120Y-31536428D01*
X30597393Y-31422268D01*
X30655362Y-31318094D01*
X30728444Y-31225458D01*
X30815053Y-31145911D01*
X30913606Y-31081003D01*
X31022516Y-31032285D01*
X31140201Y-31001308D01*
X31214867Y-30991844D01*
X31334907Y-30992934D01*
X31452072Y-31013912D01*
X31564032Y-31053507D01*
X31668455Y-31110447D01*
X31763012Y-31183460D01*
X31845370Y-31271275D01*
X31878901Y-31321375D01*
X33199916Y-31321375D01*
X33205208Y-31316083D01*
X33210500Y-31321375D01*
X33205208Y-31326667D01*
X33199916Y-31321375D01*
X31878901Y-31321375D01*
X31913201Y-31372621D01*
X31913366Y-31372917D01*
X31960795Y-31478915D01*
X31991241Y-31592947D01*
X32004006Y-31710300D01*
X31998391Y-31826264D01*
X31988678Y-31881334D01*
X31957473Y-31980321D01*
X31972250Y-31980321D01*
X31975593Y-31968006D01*
X31984061Y-31943007D01*
X31989256Y-31928602D01*
X32000807Y-31882597D01*
X32008474Y-31822035D01*
X32012146Y-31753189D01*
X32011709Y-31682329D01*
X32007049Y-31615727D01*
X31998053Y-31559656D01*
X31996069Y-31551563D01*
X31986876Y-31514907D01*
X31980826Y-31487781D01*
X31979015Y-31475176D01*
X31979230Y-31474833D01*
X31987920Y-31481553D01*
X32007374Y-31499074D01*
X32030457Y-31520821D01*
X32090815Y-31568142D01*
X32162609Y-31607784D01*
X32239130Y-31636902D01*
X32313667Y-31652650D01*
X32346008Y-31654625D01*
X32395888Y-31661198D01*
X32429658Y-31680171D01*
X32446500Y-31710957D01*
X32448337Y-31728000D01*
X32439224Y-31761370D01*
X32414373Y-31784195D01*
X32379512Y-31792333D01*
X32302617Y-31800577D01*
X32220361Y-31823494D01*
X32139448Y-31858364D01*
X32066580Y-31902469D01*
X32025378Y-31936034D01*
X31999108Y-31959895D01*
X31980115Y-31975787D01*
X31972280Y-31980476D01*
X31972250Y-31980321D01*
X31957473Y-31980321D01*
X31954173Y-31990788D01*
X31901563Y-32095942D01*
X31833583Y-32192914D01*
X31752966Y-32277824D01*
X31662447Y-32346791D01*
X31659471Y-32348658D01*
X31559091Y-32401934D01*
X31455015Y-32438039D01*
X31343886Y-32457712D01*
X31222345Y-32461694D01*
X31161854Y-32458448D01*
X30998756Y-32435626D01*
X30842886Y-32393789D01*
X30695412Y-32334203D01*
X30557505Y-32258135D01*
X30430331Y-32166852D01*
X30315060Y-32061619D01*
X30212860Y-31943703D01*
X30124900Y-31814369D01*
X30052349Y-31674885D01*
X29996374Y-31526516D01*
X29958146Y-31370529D01*
X29938832Y-31208190D01*
X29936621Y-31130875D01*
X29316460Y-31130875D01*
X29316860Y-31216132D01*
X29320125Y-31308909D01*
X29326200Y-31391243D01*
X29331896Y-31437792D01*
X29368902Y-31629362D01*
X29420890Y-31808508D01*
X29489235Y-31979021D01*
X29575315Y-32144693D01*
X29609099Y-32200967D01*
X29632436Y-32237096D01*
X29652361Y-32265258D01*
X29665874Y-32281335D01*
X29669197Y-32283548D01*
X29678791Y-32275580D01*
X29695616Y-32253670D01*
X29716351Y-32222226D01*
X29720379Y-32215667D01*
X29811858Y-32078312D01*
X29913747Y-31948938D01*
X29965152Y-31891458D01*
X30008161Y-31845995D01*
X30039609Y-31814910D01*
X30062139Y-31796890D01*
X30078394Y-31790621D01*
X30091019Y-31794791D01*
X30102657Y-31808086D01*
X30110018Y-31819495D01*
X30133262Y-31857106D01*
X30048993Y-31943782D01*
X30005641Y-31990502D01*
X29959448Y-32043724D01*
X29917606Y-32095036D01*
X29900044Y-32118047D01*
X29872973Y-32156379D01*
X29843374Y-32201004D01*
X29813586Y-32248053D01*
X29785948Y-32293653D01*
X29762796Y-32333934D01*
X29746469Y-32365023D01*
X29739306Y-32383051D01*
X29739166Y-32384422D01*
X29746525Y-32396207D01*
X29766699Y-32419419D01*
X29796832Y-32451252D01*
X29834066Y-32488906D01*
X29875548Y-32529576D01*
X29918419Y-32570459D01*
X29959825Y-32608753D01*
X29996910Y-32641654D01*
X30024916Y-32664877D01*
X30070395Y-32700499D01*
X30101401Y-32724518D01*
X30120089Y-32738427D01*
X30128613Y-32743724D01*
X30129127Y-32741903D01*
X30123783Y-32734461D01*
X30122210Y-32732440D01*
X30117571Y-32710467D01*
X30125048Y-32675053D01*
X30143047Y-32628880D01*
X30169972Y-32574631D01*
X30204227Y-32514990D01*
X30244217Y-32452640D01*
X30288346Y-32390264D01*
X30335019Y-32330545D01*
X30382641Y-32276165D01*
X30410377Y-32247827D01*
X30437116Y-32222656D01*
X30453798Y-32210590D01*
X30465088Y-32209529D01*
X30475651Y-32217371D01*
X30476376Y-32218091D01*
X30483121Y-32226935D01*
X30483442Y-32237051D01*
X30475382Y-32251726D01*
X30456982Y-32274247D01*
X30426285Y-32307903D01*
X30416912Y-32317958D01*
X30334737Y-32414601D01*
X30264182Y-32515202D01*
X30208126Y-32615324D01*
X30177626Y-32686625D01*
X30165031Y-32717660D01*
X30153716Y-32739812D01*
X30148741Y-32746121D01*
X30152500Y-32754121D01*
X30171960Y-32769742D01*
X30203926Y-32791064D01*
X30245203Y-32816171D01*
X30292594Y-32843145D01*
X30342907Y-32870068D01*
X30392944Y-32895022D01*
X30410696Y-32903348D01*
X30456808Y-32924414D01*
X30486715Y-32937524D01*
X30503378Y-32943698D01*
X30509761Y-32943957D01*
X30508828Y-32939321D01*
X30507225Y-32936575D01*
X30507034Y-32920258D01*
X30514817Y-32889863D01*
X30528826Y-32850113D01*
X30547314Y-32805732D01*
X30568533Y-32761444D01*
X30579736Y-32740604D01*
X30622828Y-32674587D01*
X30677028Y-32607733D01*
X30737654Y-32544812D01*
X30800021Y-32490594D01*
X30859448Y-32449849D01*
X30871854Y-32443068D01*
X30895879Y-32435765D01*
X30924434Y-32433576D01*
X30950058Y-32436176D01*
X30965293Y-32443245D01*
X30966808Y-32447177D01*
X30958187Y-32455202D01*
X30935853Y-32469270D01*
X30911245Y-32482820D01*
X30839173Y-32528037D01*
X30767117Y-32586809D01*
X30702606Y-32652903D01*
X30695210Y-32661654D01*
X30663925Y-32704980D01*
X30630621Y-32760221D01*
X30599053Y-32820241D01*
X30572973Y-32877900D01*
X30556132Y-32926061D01*
X30556053Y-32926358D01*
X30545779Y-32965007D01*
X30658410Y-32997420D01*
X30720929Y-33015360D01*
X30765966Y-33027895D01*
X30796388Y-33035446D01*
X30815060Y-33038437D01*
X30824850Y-33037289D01*
D10*
X40838333Y-24852380D02*
X40838333Y-25566666D01*
X40885952Y-25709523D01*
X40981190Y-25804761D01*
X41124047Y-25852380D01*
X41219285Y-25852380D01*
X40362142Y-25852380D02*
X40362142Y-24852380D01*
X39981190Y-24852380D01*
X39885952Y-24900000D01*
X39838333Y-24947619D01*
X39790714Y-25042857D01*
X39790714Y-25185714D01*
X39838333Y-25280952D01*
X39885952Y-25328571D01*
X39981190Y-25376190D01*
X40362142Y-25376190D01*
X39457380Y-24852380D02*
X38790714Y-24852380D01*
X39219285Y-25852380D01*
X40838333Y-22312380D02*
X40838333Y-23026666D01*
X40885952Y-23169523D01*
X40981190Y-23264761D01*
X41124047Y-23312380D01*
X41219285Y-23312380D01*
X40362142Y-23312380D02*
X40362142Y-22312380D01*
X39981190Y-22312380D01*
X39885952Y-22360000D01*
X39838333Y-22407619D01*
X39790714Y-22502857D01*
X39790714Y-22645714D01*
X39838333Y-22740952D01*
X39885952Y-22788571D01*
X39981190Y-22836190D01*
X40362142Y-22836190D01*
X39409761Y-22407619D02*
X39362142Y-22360000D01*
X39266904Y-22312380D01*
X39028809Y-22312380D01*
X38933571Y-22360000D01*
X38885952Y-22407619D01*
X38838333Y-22502857D01*
X38838333Y-22598095D01*
X38885952Y-22740952D01*
X39457380Y-23312380D01*
X38838333Y-23312380D01*
M02*
