M48
; DRILL file {KiCad (5.1.0-0)} date 2019 May 27, Monday 18:32:21
; FORMAT={-:-/ absolute / inch / decimal}
; #@! TF.CreationDate,2019-05-27T18:32:21+02:00
; #@! TF.GenerationSoftware,Kicad,Pcbnew,(5.1.0-0)
FMAT,2
INCH
T1C0.0157
T2C0.0394
T3C0.0591
T4C0.0669
T5C0.0984
T6C0.1000
%
G90
G05
T1
X1.35Y-0.8
X1.35Y-0.9
X1.35Y-1.3
X1.45Y-0.75
X1.55Y-1.0
X1.6Y-0.85
X1.6467Y-0.85
X1.65Y-1.1
X1.7Y-0.9
X1.7Y-1.05
X1.75Y-1.15
X1.7628Y-0.9941
X1.8Y-1.2
X1.8Y-1.15
X1.9Y-1.15
X1.9Y-1.25
X1.95Y-0.95
X2.0Y-1.2
X2.05Y-1.05
X2.05Y-1.1
X2.05Y-0.9
X2.15Y-1.25
X2.2Y-0.8
X2.2Y-0.9
X2.2Y-1.1
X2.2Y-1.2
X2.25Y-0.85
X2.25Y-0.75
X2.3Y-1.3
X2.4Y-1.1
T2
X0.775Y-1.375
X0.875Y-1.375
X0.975Y-1.375
X1.075Y-1.375
X1.175Y-0.575
X1.175Y-1.375
X1.275Y-0.575
X1.275Y-1.375
X1.375Y-0.575
X1.375Y-1.375
X1.475Y-0.575
X1.475Y-1.375
X1.575Y-0.575
X1.575Y-1.375
X1.675Y-0.575
X1.675Y-1.375
X1.775Y-0.575
X1.775Y-1.375
X1.875Y-0.575
X1.875Y-1.375
X1.975Y-0.575
X1.975Y-1.375
X2.075Y-0.575
X2.075Y-1.375
X2.175Y-0.575
X2.175Y-1.375
X2.275Y-0.575
X2.275Y-1.375
T3
X0.7Y-0.975
T4
X0.6Y-0.875
X0.6Y-1.075
X0.8Y-0.875
X0.8Y-1.075
T5
X0.625Y-0.625
X0.625Y-1.325
T6
X2.425Y-0.625
X2.425Y-1.325
T0
M30
