G04 #@! TF.GenerationSoftware,KiCad,Pcbnew,(5.1.0-0)*
G04 #@! TF.CreationDate,2019-05-27T18:32:18+02:00*
G04 #@! TF.ProjectId,huzzah-cc112x-shield,68757a7a-6168-42d6-9363-313132782d73,1*
G04 #@! TF.SameCoordinates,Original*
G04 #@! TF.FileFunction,Legend,Top*
G04 #@! TF.FilePolarity,Positive*
%FSLAX46Y46*%
G04 Gerber Fmt 4.6, Leading zero omitted, Abs format (unit mm)*
G04 Created by KiCad (PCBNEW (5.1.0-0)) date 2019-05-27 18:32:18*
%MOMM*%
%LPD*%
G04 APERTURE LIST*
%ADD10C,0.120000*%
%ADD11C,0.100000*%
%ADD12C,0.150000*%
G04 APERTURE END LIST*
D10*
X57720000Y-21860000D02*
X59120000Y-21860000D01*
X59820000Y-22560000D02*
X59820000Y-23160000D01*
X59120000Y-23860000D02*
X57720000Y-23860000D01*
X57020000Y-23160000D02*
X57020000Y-22560000D01*
X57020000Y-22560000D02*
G75*
G02X57720000Y-21860000I700000J0D01*
G01*
X57720000Y-23860000D02*
G75*
G02X57020000Y-23160000I0J700000D01*
G01*
X59820000Y-23160000D02*
G75*
G02X59120000Y-23860000I-700000J0D01*
G01*
X59120000Y-21860000D02*
G75*
G02X59820000Y-22560000I0J-700000D01*
G01*
X62930000Y-20955000D02*
G75*
G03X62930000Y-20955000I-700000J0D01*
G01*
X62930000Y-18415000D02*
G75*
G03X62930000Y-18415000I-700000J0D01*
G01*
X62295000Y-30480000D02*
G75*
G03X62295000Y-30480000I-700000J0D01*
G01*
X57720000Y-19320000D02*
X59120000Y-19320000D01*
X59820000Y-20020000D02*
X59820000Y-20620000D01*
X59120000Y-21320000D02*
X57720000Y-21320000D01*
X57020000Y-20620000D02*
X57020000Y-20020000D01*
X57020000Y-20020000D02*
G75*
G02X57720000Y-19320000I700000J0D01*
G01*
X57720000Y-21320000D02*
G75*
G02X57020000Y-20620000I0J700000D01*
G01*
X59820000Y-20620000D02*
G75*
G02X59120000Y-21320000I-700000J0D01*
G01*
X59120000Y-19320000D02*
G75*
G02X59820000Y-20020000I0J-700000D01*
G01*
X57720000Y-26940000D02*
X59120000Y-26940000D01*
X59820000Y-27640000D02*
X59820000Y-28240000D01*
X59120000Y-28940000D02*
X57720000Y-28940000D01*
X57020000Y-28240000D02*
X57020000Y-27640000D01*
X57020000Y-27640000D02*
G75*
G02X57720000Y-26940000I700000J0D01*
G01*
X57720000Y-28940000D02*
G75*
G02X57020000Y-28240000I0J700000D01*
G01*
X59820000Y-28240000D02*
G75*
G02X59120000Y-28940000I-700000J0D01*
G01*
X59120000Y-26940000D02*
G75*
G02X59820000Y-27640000I0J-700000D01*
G01*
X57720000Y-24400000D02*
X59120000Y-24400000D01*
X59820000Y-25100000D02*
X59820000Y-25700000D01*
X59120000Y-26400000D02*
X57720000Y-26400000D01*
X57020000Y-25700000D02*
X57020000Y-25100000D01*
X57020000Y-25100000D02*
G75*
G02X57720000Y-24400000I700000J0D01*
G01*
X57720000Y-26400000D02*
G75*
G02X57020000Y-25700000I0J700000D01*
G01*
X59820000Y-25700000D02*
G75*
G02X59120000Y-26400000I-700000J0D01*
G01*
X59120000Y-24400000D02*
G75*
G02X59820000Y-25100000I0J-700000D01*
G01*
X57720000Y-29480000D02*
X59120000Y-29480000D01*
X59820000Y-30180000D02*
X59820000Y-30780000D01*
X59120000Y-31480000D02*
X57720000Y-31480000D01*
X57020000Y-30780000D02*
X57020000Y-30180000D01*
X57020000Y-30180000D02*
G75*
G02X57720000Y-29480000I700000J0D01*
G01*
X57720000Y-31480000D02*
G75*
G02X57020000Y-30780000I0J700000D01*
G01*
X59820000Y-30780000D02*
G75*
G02X59120000Y-31480000I-700000J0D01*
G01*
X59120000Y-29480000D02*
G75*
G02X59820000Y-30180000I0J-700000D01*
G01*
X57720000Y-16780000D02*
X59120000Y-16780000D01*
X59820000Y-17480000D02*
X59820000Y-18080000D01*
X59120000Y-18780000D02*
X57720000Y-18780000D01*
X57020000Y-18080000D02*
X57020000Y-17480000D01*
X57020000Y-17480000D02*
G75*
G02X57720000Y-16780000I700000J0D01*
G01*
X57720000Y-18780000D02*
G75*
G02X57020000Y-18080000I0J700000D01*
G01*
X59820000Y-18080000D02*
G75*
G02X59120000Y-18780000I-700000J0D01*
G01*
X59120000Y-16780000D02*
G75*
G02X59820000Y-17480000I0J-700000D01*
G01*
D11*
X15875000Y-36195000D02*
G75*
G02X13335000Y-33655000I0J2540000D01*
G01*
X13335000Y-27051000D02*
X13335000Y-33655000D01*
X13843000Y-26543000D02*
X13335000Y-27051000D01*
X13843000Y-22987000D02*
X13843000Y-26543000D01*
X13335000Y-22479000D02*
X13843000Y-22987000D01*
X13335000Y-15875000D02*
X13335000Y-22479000D01*
X13335000Y-15875000D02*
G75*
G02X15875000Y-13335000I2540000J0D01*
G01*
X61595000Y-13335000D02*
X15875000Y-13335000D01*
X61595000Y-13335000D02*
G75*
G02X64135000Y-15875000I0J-2540000D01*
G01*
X64135000Y-33655000D02*
X64135000Y-15875000D01*
X64135000Y-33655000D02*
G75*
G02X61595000Y-36195000I-2540000J0D01*
G01*
X15875000Y-36195000D02*
X61595000Y-36195000D01*
D10*
X48250000Y-32250000D02*
X48250000Y-17190000D01*
X48250000Y-32250000D02*
X25200000Y-32250000D01*
X25200000Y-32250000D02*
X25200000Y-17190000D01*
X48250000Y-17190000D02*
X25200000Y-17190000D01*
X16330000Y-28120000D02*
X19230000Y-28120000D01*
X16330000Y-21410000D02*
X19230000Y-21410000D01*
X21135000Y-26215000D02*
X21135000Y-23315000D01*
X14425000Y-26215000D02*
X14425000Y-23315000D01*
D12*
X49560357Y-23312380D02*
X49560357Y-22312380D01*
X49893690Y-23026666D01*
X50227023Y-22312380D01*
X50227023Y-23312380D01*
X50893690Y-22312380D02*
X51084166Y-22312380D01*
X51179404Y-22360000D01*
X51274642Y-22455238D01*
X51322261Y-22645714D01*
X51322261Y-22979047D01*
X51274642Y-23169523D01*
X51179404Y-23264761D01*
X51084166Y-23312380D01*
X50893690Y-23312380D01*
X50798452Y-23264761D01*
X50703214Y-23169523D01*
X50655595Y-22979047D01*
X50655595Y-22645714D01*
X50703214Y-22455238D01*
X50798452Y-22360000D01*
X50893690Y-22312380D01*
X51703214Y-23264761D02*
X51846071Y-23312380D01*
X52084166Y-23312380D01*
X52179404Y-23264761D01*
X52227023Y-23217142D01*
X52274642Y-23121904D01*
X52274642Y-23026666D01*
X52227023Y-22931428D01*
X52179404Y-22883809D01*
X52084166Y-22836190D01*
X51893690Y-22788571D01*
X51798452Y-22740952D01*
X51750833Y-22693333D01*
X51703214Y-22598095D01*
X51703214Y-22502857D01*
X51750833Y-22407619D01*
X51798452Y-22360000D01*
X51893690Y-22312380D01*
X52131785Y-22312380D01*
X52274642Y-22360000D01*
X52703214Y-23312380D02*
X52703214Y-22312380D01*
X54227023Y-22312380D02*
X54227023Y-23026666D01*
X54179404Y-23169523D01*
X54084166Y-23264761D01*
X53941309Y-23312380D01*
X53846071Y-23312380D01*
X54703214Y-23312380D02*
X54703214Y-22312380D01*
X55084166Y-22312380D01*
X55179404Y-22360000D01*
X55227023Y-22407619D01*
X55274642Y-22502857D01*
X55274642Y-22645714D01*
X55227023Y-22740952D01*
X55179404Y-22788571D01*
X55084166Y-22836190D01*
X54703214Y-22836190D01*
X56179404Y-22312380D02*
X55703214Y-22312380D01*
X55655595Y-22788571D01*
X55703214Y-22740952D01*
X55798452Y-22693333D01*
X56036547Y-22693333D01*
X56131785Y-22740952D01*
X56179404Y-22788571D01*
X56227023Y-22883809D01*
X56227023Y-23121904D01*
X56179404Y-23217142D01*
X56131785Y-23264761D01*
X56036547Y-23312380D01*
X55798452Y-23312380D01*
X55703214Y-23264761D01*
X55655595Y-23217142D01*
X50750833Y-19820000D02*
X50655595Y-19772380D01*
X50512738Y-19772380D01*
X50369880Y-19820000D01*
X50274642Y-19915238D01*
X50227023Y-20010476D01*
X50179404Y-20200952D01*
X50179404Y-20343809D01*
X50227023Y-20534285D01*
X50274642Y-20629523D01*
X50369880Y-20724761D01*
X50512738Y-20772380D01*
X50607976Y-20772380D01*
X50750833Y-20724761D01*
X50798452Y-20677142D01*
X50798452Y-20343809D01*
X50607976Y-20343809D01*
X51227023Y-20772380D02*
X51227023Y-19772380D01*
X51607976Y-19772380D01*
X51703214Y-19820000D01*
X51750833Y-19867619D01*
X51798452Y-19962857D01*
X51798452Y-20105714D01*
X51750833Y-20200952D01*
X51703214Y-20248571D01*
X51607976Y-20296190D01*
X51227023Y-20296190D01*
X52417499Y-19772380D02*
X52512738Y-19772380D01*
X52607976Y-19820000D01*
X52655595Y-19867619D01*
X52703214Y-19962857D01*
X52750833Y-20153333D01*
X52750833Y-20391428D01*
X52703214Y-20581904D01*
X52655595Y-20677142D01*
X52607976Y-20724761D01*
X52512738Y-20772380D01*
X52417499Y-20772380D01*
X52322261Y-20724761D01*
X52274642Y-20677142D01*
X52227023Y-20581904D01*
X52179404Y-20391428D01*
X52179404Y-20153333D01*
X52227023Y-19962857D01*
X52274642Y-19867619D01*
X52322261Y-19820000D01*
X52417499Y-19772380D01*
X54227023Y-19772380D02*
X54227023Y-20486666D01*
X54179404Y-20629523D01*
X54084166Y-20724761D01*
X53941309Y-20772380D01*
X53846071Y-20772380D01*
X54703214Y-20772380D02*
X54703214Y-19772380D01*
X55084166Y-19772380D01*
X55179404Y-19820000D01*
X55227023Y-19867619D01*
X55274642Y-19962857D01*
X55274642Y-20105714D01*
X55227023Y-20200952D01*
X55179404Y-20248571D01*
X55084166Y-20296190D01*
X54703214Y-20296190D01*
X55846071Y-20200952D02*
X55750833Y-20153333D01*
X55703214Y-20105714D01*
X55655595Y-20010476D01*
X55655595Y-19962857D01*
X55703214Y-19867619D01*
X55750833Y-19820000D01*
X55846071Y-19772380D01*
X56036547Y-19772380D01*
X56131785Y-19820000D01*
X56179404Y-19867619D01*
X56227023Y-19962857D01*
X56227023Y-20010476D01*
X56179404Y-20105714D01*
X56131785Y-20153333D01*
X56036547Y-20200952D01*
X55846071Y-20200952D01*
X55750833Y-20248571D01*
X55703214Y-20296190D01*
X55655595Y-20391428D01*
X55655595Y-20581904D01*
X55703214Y-20677142D01*
X55750833Y-20724761D01*
X55846071Y-20772380D01*
X56036547Y-20772380D01*
X56131785Y-20724761D01*
X56179404Y-20677142D01*
X56227023Y-20581904D01*
X56227023Y-20391428D01*
X56179404Y-20296190D01*
X56131785Y-20248571D01*
X56036547Y-20200952D01*
X50179404Y-28344761D02*
X50322261Y-28392380D01*
X50560357Y-28392380D01*
X50655595Y-28344761D01*
X50703214Y-28297142D01*
X50750833Y-28201904D01*
X50750833Y-28106666D01*
X50703214Y-28011428D01*
X50655595Y-27963809D01*
X50560357Y-27916190D01*
X50369880Y-27868571D01*
X50274642Y-27820952D01*
X50227023Y-27773333D01*
X50179404Y-27678095D01*
X50179404Y-27582857D01*
X50227023Y-27487619D01*
X50274642Y-27440000D01*
X50369880Y-27392380D01*
X50607976Y-27392380D01*
X50750833Y-27440000D01*
X51750833Y-28297142D02*
X51703214Y-28344761D01*
X51560357Y-28392380D01*
X51465119Y-28392380D01*
X51322261Y-28344761D01*
X51227023Y-28249523D01*
X51179404Y-28154285D01*
X51131785Y-27963809D01*
X51131785Y-27820952D01*
X51179404Y-27630476D01*
X51227023Y-27535238D01*
X51322261Y-27440000D01*
X51465119Y-27392380D01*
X51560357Y-27392380D01*
X51703214Y-27440000D01*
X51750833Y-27487619D01*
X52179404Y-28392380D02*
X52179404Y-27392380D01*
X52750833Y-28392380D02*
X52322261Y-27820952D01*
X52750833Y-27392380D02*
X52179404Y-27963809D01*
X54227023Y-27392380D02*
X54227023Y-28106666D01*
X54179404Y-28249523D01*
X54084166Y-28344761D01*
X53941309Y-28392380D01*
X53846071Y-28392380D01*
X54703214Y-28392380D02*
X54703214Y-27392380D01*
X55084166Y-27392380D01*
X55179404Y-27440000D01*
X55227023Y-27487619D01*
X55274642Y-27582857D01*
X55274642Y-27725714D01*
X55227023Y-27820952D01*
X55179404Y-27868571D01*
X55084166Y-27916190D01*
X54703214Y-27916190D01*
X56131785Y-27392380D02*
X55941309Y-27392380D01*
X55846071Y-27440000D01*
X55798452Y-27487619D01*
X55703214Y-27630476D01*
X55655595Y-27820952D01*
X55655595Y-28201904D01*
X55703214Y-28297142D01*
X55750833Y-28344761D01*
X55846071Y-28392380D01*
X56036547Y-28392380D01*
X56131785Y-28344761D01*
X56179404Y-28297142D01*
X56227023Y-28201904D01*
X56227023Y-27963809D01*
X56179404Y-27868571D01*
X56131785Y-27820952D01*
X56036547Y-27773333D01*
X55846071Y-27773333D01*
X55750833Y-27820952D01*
X55703214Y-27868571D01*
X55655595Y-27963809D01*
X50750833Y-24900000D02*
X50655595Y-24852380D01*
X50512738Y-24852380D01*
X50369880Y-24900000D01*
X50274642Y-24995238D01*
X50227023Y-25090476D01*
X50179404Y-25280952D01*
X50179404Y-25423809D01*
X50227023Y-25614285D01*
X50274642Y-25709523D01*
X50369880Y-25804761D01*
X50512738Y-25852380D01*
X50607976Y-25852380D01*
X50750833Y-25804761D01*
X50798452Y-25757142D01*
X50798452Y-25423809D01*
X50607976Y-25423809D01*
X51227023Y-25852380D02*
X51227023Y-24852380D01*
X51607976Y-24852380D01*
X51703214Y-24900000D01*
X51750833Y-24947619D01*
X51798452Y-25042857D01*
X51798452Y-25185714D01*
X51750833Y-25280952D01*
X51703214Y-25328571D01*
X51607976Y-25376190D01*
X51227023Y-25376190D01*
X52179404Y-24947619D02*
X52227023Y-24900000D01*
X52322261Y-24852380D01*
X52560357Y-24852380D01*
X52655595Y-24900000D01*
X52703214Y-24947619D01*
X52750833Y-25042857D01*
X52750833Y-25138095D01*
X52703214Y-25280952D01*
X52131785Y-25852380D01*
X52750833Y-25852380D01*
X54227023Y-24852380D02*
X54227023Y-25566666D01*
X54179404Y-25709523D01*
X54084166Y-25804761D01*
X53941309Y-25852380D01*
X53846071Y-25852380D01*
X54703214Y-25852380D02*
X54703214Y-24852380D01*
X55084166Y-24852380D01*
X55179404Y-24900000D01*
X55227023Y-24947619D01*
X55274642Y-25042857D01*
X55274642Y-25185714D01*
X55227023Y-25280952D01*
X55179404Y-25328571D01*
X55084166Y-25376190D01*
X54703214Y-25376190D01*
X56131785Y-25185714D02*
X56131785Y-25852380D01*
X55893690Y-24804761D02*
X55655595Y-25519047D01*
X56274642Y-25519047D01*
X50887619Y-29980000D02*
X50792380Y-29932380D01*
X50649523Y-29932380D01*
X50506666Y-29980000D01*
X50411428Y-30075238D01*
X50363809Y-30170476D01*
X50316190Y-30360952D01*
X50316190Y-30503809D01*
X50363809Y-30694285D01*
X50411428Y-30789523D01*
X50506666Y-30884761D01*
X50649523Y-30932380D01*
X50744761Y-30932380D01*
X50887619Y-30884761D01*
X50935238Y-30837142D01*
X50935238Y-30503809D01*
X50744761Y-30503809D01*
X51363809Y-30932380D02*
X51363809Y-29932380D01*
X51744761Y-29932380D01*
X51840000Y-29980000D01*
X51887619Y-30027619D01*
X51935238Y-30122857D01*
X51935238Y-30265714D01*
X51887619Y-30360952D01*
X51840000Y-30408571D01*
X51744761Y-30456190D01*
X51363809Y-30456190D01*
X52268571Y-29932380D02*
X52887619Y-29932380D01*
X52554285Y-30313333D01*
X52697142Y-30313333D01*
X52792380Y-30360952D01*
X52840000Y-30408571D01*
X52887619Y-30503809D01*
X52887619Y-30741904D01*
X52840000Y-30837142D01*
X52792380Y-30884761D01*
X52697142Y-30932380D01*
X52411428Y-30932380D01*
X52316190Y-30884761D01*
X52268571Y-30837142D01*
X54363809Y-29932380D02*
X54363809Y-30646666D01*
X54316190Y-30789523D01*
X54220952Y-30884761D01*
X54078095Y-30932380D01*
X53982857Y-30932380D01*
X54840000Y-30932380D02*
X54840000Y-29932380D01*
X55220952Y-29932380D01*
X55316190Y-29980000D01*
X55363809Y-30027619D01*
X55411428Y-30122857D01*
X55411428Y-30265714D01*
X55363809Y-30360952D01*
X55316190Y-30408571D01*
X55220952Y-30456190D01*
X54840000Y-30456190D01*
X55744761Y-29932380D02*
X56363809Y-29932380D01*
X56030476Y-30313333D01*
X56173333Y-30313333D01*
X56268571Y-30360952D01*
X56316190Y-30408571D01*
X56363809Y-30503809D01*
X56363809Y-30741904D01*
X56316190Y-30837142D01*
X56268571Y-30884761D01*
X56173333Y-30932380D01*
X55887619Y-30932380D01*
X55792380Y-30884761D01*
X55744761Y-30837142D01*
X51036547Y-18232380D02*
X50703214Y-17756190D01*
X50465119Y-18232380D02*
X50465119Y-17232380D01*
X50846071Y-17232380D01*
X50941309Y-17280000D01*
X50988928Y-17327619D01*
X51036547Y-17422857D01*
X51036547Y-17565714D01*
X50988928Y-17660952D01*
X50941309Y-17708571D01*
X50846071Y-17756190D01*
X50465119Y-17756190D01*
X51417500Y-18184761D02*
X51560357Y-18232380D01*
X51798452Y-18232380D01*
X51893690Y-18184761D01*
X51941309Y-18137142D01*
X51988928Y-18041904D01*
X51988928Y-17946666D01*
X51941309Y-17851428D01*
X51893690Y-17803809D01*
X51798452Y-17756190D01*
X51607976Y-17708571D01*
X51512738Y-17660952D01*
X51465119Y-17613333D01*
X51417500Y-17518095D01*
X51417500Y-17422857D01*
X51465119Y-17327619D01*
X51512738Y-17280000D01*
X51607976Y-17232380D01*
X51846071Y-17232380D01*
X51988928Y-17280000D01*
X52274642Y-17232380D02*
X52846071Y-17232380D01*
X52560357Y-18232380D02*
X52560357Y-17232380D01*
X54227023Y-17232380D02*
X54227023Y-17946666D01*
X54179404Y-18089523D01*
X54084166Y-18184761D01*
X53941309Y-18232380D01*
X53846071Y-18232380D01*
X54703214Y-18232380D02*
X54703214Y-17232380D01*
X55084166Y-17232380D01*
X55179404Y-17280000D01*
X55227023Y-17327619D01*
X55274642Y-17422857D01*
X55274642Y-17565714D01*
X55227023Y-17660952D01*
X55179404Y-17708571D01*
X55084166Y-17756190D01*
X54703214Y-17756190D01*
X56227023Y-18232380D02*
X55655595Y-18232380D01*
X55941309Y-18232380D02*
X55941309Y-17232380D01*
X55846071Y-17375238D01*
X55750833Y-17470476D01*
X55655595Y-17518095D01*
M02*
