G04 #@! TF.GenerationSoftware,KiCad,Pcbnew,(5.1.4-0-10_14)*
G04 #@! TF.CreationDate,2019-11-15T13:57:30+01:00*
G04 #@! TF.ProjectId,FeatherWing nRF24L01 Adapter,46656174-6865-4725-9769-6e67206e5246,rev?*
G04 #@! TF.SameCoordinates,Original*
G04 #@! TF.FileFunction,Soldermask,Bot*
G04 #@! TF.FilePolarity,Negative*
%FSLAX46Y46*%
G04 Gerber Fmt 4.6, Leading zero omitted, Abs format (unit mm)*
G04 Created by KiCad (PCBNEW (5.1.4-0-10_14)) date 2019-11-15 13:57:30*
%MOMM*%
%LPD*%
G04 APERTURE LIST*
%ADD10C,0.100000*%
G04 APERTURE END LIST*
D10*
G36*
X144063607Y-99314277D02*
G01*
X144124129Y-99326316D01*
X144295162Y-99397160D01*
X144449087Y-99500010D01*
X144579990Y-99630913D01*
X144682841Y-99784840D01*
X144753684Y-99955872D01*
X144784805Y-100112323D01*
X144789800Y-100137438D01*
X144789800Y-100322562D01*
X144753684Y-100504129D01*
X144682840Y-100675162D01*
X144579990Y-100829087D01*
X144449087Y-100959990D01*
X144295162Y-101062840D01*
X144124129Y-101133684D01*
X144063607Y-101145723D01*
X143942564Y-101169800D01*
X143757436Y-101169800D01*
X143636393Y-101145723D01*
X143575871Y-101133684D01*
X143404838Y-101062840D01*
X143250913Y-100959990D01*
X143120010Y-100829087D01*
X143017160Y-100675162D01*
X142946316Y-100504129D01*
X142910200Y-100322562D01*
X142910200Y-100137438D01*
X142915196Y-100112323D01*
X142946316Y-99955872D01*
X143017159Y-99784840D01*
X143120010Y-99630913D01*
X143250913Y-99500010D01*
X143404838Y-99397160D01*
X143575871Y-99326316D01*
X143636393Y-99314277D01*
X143757436Y-99290200D01*
X143942564Y-99290200D01*
X144063607Y-99314277D01*
X144063607Y-99314277D01*
G37*
G36*
X141523607Y-99314277D02*
G01*
X141584129Y-99326316D01*
X141755162Y-99397160D01*
X141909087Y-99500010D01*
X142039990Y-99630913D01*
X142142841Y-99784840D01*
X142213684Y-99955872D01*
X142244805Y-100112323D01*
X142249800Y-100137438D01*
X142249800Y-100322562D01*
X142213684Y-100504129D01*
X142142840Y-100675162D01*
X142039990Y-100829087D01*
X141909087Y-100959990D01*
X141755162Y-101062840D01*
X141584129Y-101133684D01*
X141523607Y-101145723D01*
X141402564Y-101169800D01*
X141217436Y-101169800D01*
X141096393Y-101145723D01*
X141035871Y-101133684D01*
X140864838Y-101062840D01*
X140710913Y-100959990D01*
X140580010Y-100829087D01*
X140477160Y-100675162D01*
X140406316Y-100504129D01*
X140370200Y-100322562D01*
X140370200Y-100137438D01*
X140375196Y-100112323D01*
X140406316Y-99955872D01*
X140477159Y-99784840D01*
X140580010Y-99630913D01*
X140710913Y-99500010D01*
X140864838Y-99397160D01*
X141035871Y-99326316D01*
X141096393Y-99314277D01*
X141217436Y-99290200D01*
X141402564Y-99290200D01*
X141523607Y-99314277D01*
X141523607Y-99314277D01*
G37*
G36*
X138983607Y-99314277D02*
G01*
X139044129Y-99326316D01*
X139215162Y-99397160D01*
X139369087Y-99500010D01*
X139499990Y-99630913D01*
X139602841Y-99784840D01*
X139673684Y-99955872D01*
X139704805Y-100112323D01*
X139709800Y-100137438D01*
X139709800Y-100322562D01*
X139673684Y-100504129D01*
X139602840Y-100675162D01*
X139499990Y-100829087D01*
X139369087Y-100959990D01*
X139215162Y-101062840D01*
X139044129Y-101133684D01*
X138983607Y-101145723D01*
X138862564Y-101169800D01*
X138677436Y-101169800D01*
X138556393Y-101145723D01*
X138495871Y-101133684D01*
X138324838Y-101062840D01*
X138170913Y-100959990D01*
X138040010Y-100829087D01*
X137937160Y-100675162D01*
X137866316Y-100504129D01*
X137830200Y-100322562D01*
X137830200Y-100137438D01*
X137835196Y-100112323D01*
X137866316Y-99955872D01*
X137937159Y-99784840D01*
X138040010Y-99630913D01*
X138170913Y-99500010D01*
X138324838Y-99397160D01*
X138495871Y-99326316D01*
X138556393Y-99314277D01*
X138677436Y-99290200D01*
X138862564Y-99290200D01*
X138983607Y-99314277D01*
X138983607Y-99314277D01*
G37*
G36*
X136443607Y-99314277D02*
G01*
X136504129Y-99326316D01*
X136675162Y-99397160D01*
X136829087Y-99500010D01*
X136959990Y-99630913D01*
X137062841Y-99784840D01*
X137133684Y-99955872D01*
X137164805Y-100112323D01*
X137169800Y-100137438D01*
X137169800Y-100322562D01*
X137133684Y-100504129D01*
X137062840Y-100675162D01*
X136959990Y-100829087D01*
X136829087Y-100959990D01*
X136675162Y-101062840D01*
X136504129Y-101133684D01*
X136443607Y-101145723D01*
X136322564Y-101169800D01*
X136137436Y-101169800D01*
X136016393Y-101145723D01*
X135955871Y-101133684D01*
X135784838Y-101062840D01*
X135630913Y-100959990D01*
X135500010Y-100829087D01*
X135397160Y-100675162D01*
X135326316Y-100504129D01*
X135290200Y-100322562D01*
X135290200Y-100137438D01*
X135295196Y-100112323D01*
X135326316Y-99955872D01*
X135397159Y-99784840D01*
X135500010Y-99630913D01*
X135630913Y-99500010D01*
X135784838Y-99397160D01*
X135955871Y-99326316D01*
X136016393Y-99314277D01*
X136137436Y-99290200D01*
X136322564Y-99290200D01*
X136443607Y-99314277D01*
X136443607Y-99314277D01*
G37*
G36*
X133903607Y-99314277D02*
G01*
X133964129Y-99326316D01*
X134135162Y-99397160D01*
X134289087Y-99500010D01*
X134419990Y-99630913D01*
X134522841Y-99784840D01*
X134593684Y-99955872D01*
X134624805Y-100112323D01*
X134629800Y-100137438D01*
X134629800Y-100322562D01*
X134593684Y-100504129D01*
X134522840Y-100675162D01*
X134419990Y-100829087D01*
X134289087Y-100959990D01*
X134135162Y-101062840D01*
X133964129Y-101133684D01*
X133903607Y-101145723D01*
X133782564Y-101169800D01*
X133597436Y-101169800D01*
X133476393Y-101145723D01*
X133415871Y-101133684D01*
X133244838Y-101062840D01*
X133090913Y-100959990D01*
X132960010Y-100829087D01*
X132857160Y-100675162D01*
X132786316Y-100504129D01*
X132750200Y-100322562D01*
X132750200Y-100137438D01*
X132755196Y-100112323D01*
X132786316Y-99955872D01*
X132857159Y-99784840D01*
X132960010Y-99630913D01*
X133090913Y-99500010D01*
X133244838Y-99397160D01*
X133415871Y-99326316D01*
X133476393Y-99314277D01*
X133597436Y-99290200D01*
X133782564Y-99290200D01*
X133903607Y-99314277D01*
X133903607Y-99314277D01*
G37*
G36*
X131363607Y-99314277D02*
G01*
X131424129Y-99326316D01*
X131595162Y-99397160D01*
X131749087Y-99500010D01*
X131879990Y-99630913D01*
X131982841Y-99784840D01*
X132053684Y-99955872D01*
X132084805Y-100112323D01*
X132089800Y-100137438D01*
X132089800Y-100322562D01*
X132053684Y-100504129D01*
X131982840Y-100675162D01*
X131879990Y-100829087D01*
X131749087Y-100959990D01*
X131595162Y-101062840D01*
X131424129Y-101133684D01*
X131363607Y-101145723D01*
X131242564Y-101169800D01*
X131057436Y-101169800D01*
X130936393Y-101145723D01*
X130875871Y-101133684D01*
X130704838Y-101062840D01*
X130550913Y-100959990D01*
X130420010Y-100829087D01*
X130317160Y-100675162D01*
X130246316Y-100504129D01*
X130210200Y-100322562D01*
X130210200Y-100137438D01*
X130215196Y-100112323D01*
X130246316Y-99955872D01*
X130317159Y-99784840D01*
X130420010Y-99630913D01*
X130550913Y-99500010D01*
X130704838Y-99397160D01*
X130875871Y-99326316D01*
X130936393Y-99314277D01*
X131057436Y-99290200D01*
X131242564Y-99290200D01*
X131363607Y-99314277D01*
X131363607Y-99314277D01*
G37*
G36*
X128823607Y-99314277D02*
G01*
X128884129Y-99326316D01*
X129055162Y-99397160D01*
X129209087Y-99500010D01*
X129339990Y-99630913D01*
X129442841Y-99784840D01*
X129513684Y-99955872D01*
X129544805Y-100112323D01*
X129549800Y-100137438D01*
X129549800Y-100322562D01*
X129513684Y-100504129D01*
X129442840Y-100675162D01*
X129339990Y-100829087D01*
X129209087Y-100959990D01*
X129055162Y-101062840D01*
X128884129Y-101133684D01*
X128823607Y-101145723D01*
X128702564Y-101169800D01*
X128517436Y-101169800D01*
X128396393Y-101145723D01*
X128335871Y-101133684D01*
X128164838Y-101062840D01*
X128010913Y-100959990D01*
X127880010Y-100829087D01*
X127777160Y-100675162D01*
X127706316Y-100504129D01*
X127670200Y-100322562D01*
X127670200Y-100137438D01*
X127675196Y-100112323D01*
X127706316Y-99955872D01*
X127777159Y-99784840D01*
X127880010Y-99630913D01*
X128010913Y-99500010D01*
X128164838Y-99397160D01*
X128335871Y-99326316D01*
X128396393Y-99314277D01*
X128517436Y-99290200D01*
X128702564Y-99290200D01*
X128823607Y-99314277D01*
X128823607Y-99314277D01*
G37*
G36*
X126283607Y-99314277D02*
G01*
X126344129Y-99326316D01*
X126515162Y-99397160D01*
X126669087Y-99500010D01*
X126799990Y-99630913D01*
X126902841Y-99784840D01*
X126973684Y-99955872D01*
X127004805Y-100112323D01*
X127009800Y-100137438D01*
X127009800Y-100322562D01*
X126973684Y-100504129D01*
X126902840Y-100675162D01*
X126799990Y-100829087D01*
X126669087Y-100959990D01*
X126515162Y-101062840D01*
X126344129Y-101133684D01*
X126283607Y-101145723D01*
X126162564Y-101169800D01*
X125977436Y-101169800D01*
X125856393Y-101145723D01*
X125795871Y-101133684D01*
X125624838Y-101062840D01*
X125470913Y-100959990D01*
X125340010Y-100829087D01*
X125237160Y-100675162D01*
X125166316Y-100504129D01*
X125130200Y-100322562D01*
X125130200Y-100137438D01*
X125135196Y-100112323D01*
X125166316Y-99955872D01*
X125237159Y-99784840D01*
X125340010Y-99630913D01*
X125470913Y-99500010D01*
X125624838Y-99397160D01*
X125795871Y-99326316D01*
X125856393Y-99314277D01*
X125977436Y-99290200D01*
X126162564Y-99290200D01*
X126283607Y-99314277D01*
X126283607Y-99314277D01*
G37*
G36*
X123743607Y-99314277D02*
G01*
X123804129Y-99326316D01*
X123975162Y-99397160D01*
X124129087Y-99500010D01*
X124259990Y-99630913D01*
X124362841Y-99784840D01*
X124433684Y-99955872D01*
X124464805Y-100112323D01*
X124469800Y-100137438D01*
X124469800Y-100322562D01*
X124433684Y-100504129D01*
X124362840Y-100675162D01*
X124259990Y-100829087D01*
X124129087Y-100959990D01*
X123975162Y-101062840D01*
X123804129Y-101133684D01*
X123743607Y-101145723D01*
X123622564Y-101169800D01*
X123437436Y-101169800D01*
X123316393Y-101145723D01*
X123255871Y-101133684D01*
X123084838Y-101062840D01*
X122930913Y-100959990D01*
X122800010Y-100829087D01*
X122697160Y-100675162D01*
X122626316Y-100504129D01*
X122590200Y-100322562D01*
X122590200Y-100137438D01*
X122595196Y-100112323D01*
X122626316Y-99955872D01*
X122697159Y-99784840D01*
X122800010Y-99630913D01*
X122930913Y-99500010D01*
X123084838Y-99397160D01*
X123255871Y-99326316D01*
X123316393Y-99314277D01*
X123437436Y-99290200D01*
X123622564Y-99290200D01*
X123743607Y-99314277D01*
X123743607Y-99314277D01*
G37*
G36*
X121203607Y-99314277D02*
G01*
X121264129Y-99326316D01*
X121435162Y-99397160D01*
X121589087Y-99500010D01*
X121719990Y-99630913D01*
X121822841Y-99784840D01*
X121893684Y-99955872D01*
X121924805Y-100112323D01*
X121929800Y-100137438D01*
X121929800Y-100322562D01*
X121893684Y-100504129D01*
X121822840Y-100675162D01*
X121719990Y-100829087D01*
X121589087Y-100959990D01*
X121435162Y-101062840D01*
X121264129Y-101133684D01*
X121203607Y-101145723D01*
X121082564Y-101169800D01*
X120897436Y-101169800D01*
X120776393Y-101145723D01*
X120715871Y-101133684D01*
X120544838Y-101062840D01*
X120390913Y-100959990D01*
X120260010Y-100829087D01*
X120157160Y-100675162D01*
X120086316Y-100504129D01*
X120050200Y-100322562D01*
X120050200Y-100137438D01*
X120055196Y-100112323D01*
X120086316Y-99955872D01*
X120157159Y-99784840D01*
X120260010Y-99630913D01*
X120390913Y-99500010D01*
X120544838Y-99397160D01*
X120715871Y-99326316D01*
X120776393Y-99314277D01*
X120897436Y-99290200D01*
X121082564Y-99290200D01*
X121203607Y-99314277D01*
X121203607Y-99314277D01*
G37*
G36*
X118663607Y-99314277D02*
G01*
X118724129Y-99326316D01*
X118895162Y-99397160D01*
X119049087Y-99500010D01*
X119179990Y-99630913D01*
X119282841Y-99784840D01*
X119353684Y-99955872D01*
X119384805Y-100112323D01*
X119389800Y-100137438D01*
X119389800Y-100322562D01*
X119353684Y-100504129D01*
X119282840Y-100675162D01*
X119179990Y-100829087D01*
X119049087Y-100959990D01*
X118895162Y-101062840D01*
X118724129Y-101133684D01*
X118663607Y-101145723D01*
X118542564Y-101169800D01*
X118357436Y-101169800D01*
X118236393Y-101145723D01*
X118175871Y-101133684D01*
X118004838Y-101062840D01*
X117850913Y-100959990D01*
X117720010Y-100829087D01*
X117617160Y-100675162D01*
X117546316Y-100504129D01*
X117510200Y-100322562D01*
X117510200Y-100137438D01*
X117515196Y-100112323D01*
X117546316Y-99955872D01*
X117617159Y-99784840D01*
X117720010Y-99630913D01*
X117850913Y-99500010D01*
X118004838Y-99397160D01*
X118175871Y-99326316D01*
X118236393Y-99314277D01*
X118357436Y-99290200D01*
X118542564Y-99290200D01*
X118663607Y-99314277D01*
X118663607Y-99314277D01*
G37*
G36*
X116123607Y-99314277D02*
G01*
X116184129Y-99326316D01*
X116355162Y-99397160D01*
X116509087Y-99500010D01*
X116639990Y-99630913D01*
X116742841Y-99784840D01*
X116813684Y-99955872D01*
X116844805Y-100112323D01*
X116849800Y-100137438D01*
X116849800Y-100322562D01*
X116813684Y-100504129D01*
X116742840Y-100675162D01*
X116639990Y-100829087D01*
X116509087Y-100959990D01*
X116355162Y-101062840D01*
X116184129Y-101133684D01*
X116123607Y-101145723D01*
X116002564Y-101169800D01*
X115817436Y-101169800D01*
X115696393Y-101145723D01*
X115635871Y-101133684D01*
X115464838Y-101062840D01*
X115310913Y-100959990D01*
X115180010Y-100829087D01*
X115077160Y-100675162D01*
X115006316Y-100504129D01*
X114970200Y-100322562D01*
X114970200Y-100137438D01*
X114975196Y-100112323D01*
X115006316Y-99955872D01*
X115077159Y-99784840D01*
X115180010Y-99630913D01*
X115310913Y-99500010D01*
X115464838Y-99397160D01*
X115635871Y-99326316D01*
X115696393Y-99314277D01*
X115817436Y-99290200D01*
X116002564Y-99290200D01*
X116123607Y-99314277D01*
X116123607Y-99314277D01*
G37*
G36*
X113583607Y-99314277D02*
G01*
X113644129Y-99326316D01*
X113815162Y-99397160D01*
X113969087Y-99500010D01*
X114099990Y-99630913D01*
X114202841Y-99784840D01*
X114273684Y-99955872D01*
X114304805Y-100112323D01*
X114309800Y-100137438D01*
X114309800Y-100322562D01*
X114273684Y-100504129D01*
X114202840Y-100675162D01*
X114099990Y-100829087D01*
X113969087Y-100959990D01*
X113815162Y-101062840D01*
X113644129Y-101133684D01*
X113583607Y-101145723D01*
X113462564Y-101169800D01*
X113277436Y-101169800D01*
X113156393Y-101145723D01*
X113095871Y-101133684D01*
X112924838Y-101062840D01*
X112770913Y-100959990D01*
X112640010Y-100829087D01*
X112537160Y-100675162D01*
X112466316Y-100504129D01*
X112430200Y-100322562D01*
X112430200Y-100137438D01*
X112435196Y-100112323D01*
X112466316Y-99955872D01*
X112537159Y-99784840D01*
X112640010Y-99630913D01*
X112770913Y-99500010D01*
X112924838Y-99397160D01*
X113095871Y-99326316D01*
X113156393Y-99314277D01*
X113277436Y-99290200D01*
X113462564Y-99290200D01*
X113583607Y-99314277D01*
X113583607Y-99314277D01*
G37*
G36*
X111043607Y-99314277D02*
G01*
X111104129Y-99326316D01*
X111275162Y-99397160D01*
X111429087Y-99500010D01*
X111559990Y-99630913D01*
X111662841Y-99784840D01*
X111733684Y-99955872D01*
X111764805Y-100112323D01*
X111769800Y-100137438D01*
X111769800Y-100322562D01*
X111733684Y-100504129D01*
X111662840Y-100675162D01*
X111559990Y-100829087D01*
X111429087Y-100959990D01*
X111275162Y-101062840D01*
X111104129Y-101133684D01*
X111043607Y-101145723D01*
X110922564Y-101169800D01*
X110737436Y-101169800D01*
X110616393Y-101145723D01*
X110555871Y-101133684D01*
X110384838Y-101062840D01*
X110230913Y-100959990D01*
X110100010Y-100829087D01*
X109997160Y-100675162D01*
X109926316Y-100504129D01*
X109890200Y-100322562D01*
X109890200Y-100137438D01*
X109895196Y-100112323D01*
X109926316Y-99955872D01*
X109997159Y-99784840D01*
X110100010Y-99630913D01*
X110230913Y-99500010D01*
X110384838Y-99397160D01*
X110555871Y-99326316D01*
X110616393Y-99314277D01*
X110737436Y-99290200D01*
X110922564Y-99290200D01*
X111043607Y-99314277D01*
X111043607Y-99314277D01*
G37*
G36*
X108503607Y-99314277D02*
G01*
X108564129Y-99326316D01*
X108735162Y-99397160D01*
X108889087Y-99500010D01*
X109019990Y-99630913D01*
X109122841Y-99784840D01*
X109193684Y-99955872D01*
X109224805Y-100112323D01*
X109229800Y-100137438D01*
X109229800Y-100322562D01*
X109193684Y-100504129D01*
X109122840Y-100675162D01*
X109019990Y-100829087D01*
X108889087Y-100959990D01*
X108735162Y-101062840D01*
X108564129Y-101133684D01*
X108503607Y-101145723D01*
X108382564Y-101169800D01*
X108197436Y-101169800D01*
X108076393Y-101145723D01*
X108015871Y-101133684D01*
X107844838Y-101062840D01*
X107690913Y-100959990D01*
X107560010Y-100829087D01*
X107457160Y-100675162D01*
X107386316Y-100504129D01*
X107350200Y-100322562D01*
X107350200Y-100137438D01*
X107355196Y-100112323D01*
X107386316Y-99955872D01*
X107457159Y-99784840D01*
X107560010Y-99630913D01*
X107690913Y-99500010D01*
X107844838Y-99397160D01*
X108015871Y-99326316D01*
X108076393Y-99314277D01*
X108197436Y-99290200D01*
X108382564Y-99290200D01*
X108503607Y-99314277D01*
X108503607Y-99314277D01*
G37*
G36*
X105963607Y-99314277D02*
G01*
X106024129Y-99326316D01*
X106195162Y-99397160D01*
X106349087Y-99500010D01*
X106479990Y-99630913D01*
X106582841Y-99784840D01*
X106653684Y-99955872D01*
X106684805Y-100112323D01*
X106689800Y-100137438D01*
X106689800Y-100322562D01*
X106653684Y-100504129D01*
X106582840Y-100675162D01*
X106479990Y-100829087D01*
X106349087Y-100959990D01*
X106195162Y-101062840D01*
X106024129Y-101133684D01*
X105963607Y-101145723D01*
X105842564Y-101169800D01*
X105657436Y-101169800D01*
X105536393Y-101145723D01*
X105475871Y-101133684D01*
X105304838Y-101062840D01*
X105150913Y-100959990D01*
X105020010Y-100829087D01*
X104917160Y-100675162D01*
X104846316Y-100504129D01*
X104810200Y-100322562D01*
X104810200Y-100137438D01*
X104815196Y-100112323D01*
X104846316Y-99955872D01*
X104917159Y-99784840D01*
X105020010Y-99630913D01*
X105150913Y-99500010D01*
X105304838Y-99397160D01*
X105475871Y-99326316D01*
X105536393Y-99314277D01*
X105657436Y-99290200D01*
X105842564Y-99290200D01*
X105963607Y-99314277D01*
X105963607Y-99314277D01*
G37*
G36*
X102503900Y-97430346D02*
G01*
X102716521Y-97472639D01*
X103016947Y-97597080D01*
X103287324Y-97777740D01*
X103517260Y-98007676D01*
X103697920Y-98278053D01*
X103822361Y-98578479D01*
X103885800Y-98897410D01*
X103885800Y-99222590D01*
X103822361Y-99541521D01*
X103697920Y-99841947D01*
X103517260Y-100112324D01*
X103287324Y-100342260D01*
X103016947Y-100522920D01*
X102716521Y-100647361D01*
X102576765Y-100675160D01*
X102397591Y-100710800D01*
X102072409Y-100710800D01*
X101893235Y-100675160D01*
X101753479Y-100647361D01*
X101453053Y-100522920D01*
X101182676Y-100342260D01*
X100952740Y-100112324D01*
X100772080Y-99841947D01*
X100647639Y-99541521D01*
X100584200Y-99222590D01*
X100584200Y-98897410D01*
X100647639Y-98578479D01*
X100772080Y-98278053D01*
X100952740Y-98007676D01*
X101182676Y-97777740D01*
X101453053Y-97597080D01*
X101753479Y-97472639D01*
X101966100Y-97430346D01*
X102072409Y-97409200D01*
X102397591Y-97409200D01*
X102503900Y-97430346D01*
X102503900Y-97430346D01*
G37*
G36*
X105386926Y-94006029D02*
G01*
X105452356Y-94019044D01*
X105624142Y-94090200D01*
X105637256Y-94095632D01*
X105803662Y-94206821D01*
X105945179Y-94348338D01*
X106056368Y-94514744D01*
X106132956Y-94699645D01*
X106172000Y-94895931D01*
X106172000Y-95096069D01*
X106158773Y-95162564D01*
X106132956Y-95292356D01*
X106056368Y-95477256D01*
X105945179Y-95643662D01*
X105803662Y-95785179D01*
X105637256Y-95896368D01*
X105452356Y-95972956D01*
X105386926Y-95985971D01*
X105256069Y-96012000D01*
X105055931Y-96012000D01*
X104925074Y-95985971D01*
X104859644Y-95972956D01*
X104674744Y-95896368D01*
X104508338Y-95785179D01*
X104366821Y-95643662D01*
X104255632Y-95477256D01*
X104179044Y-95292356D01*
X104153227Y-95162564D01*
X104140000Y-95096069D01*
X104140000Y-94895931D01*
X104179044Y-94699645D01*
X104255632Y-94514744D01*
X104366821Y-94348338D01*
X104508338Y-94206821D01*
X104674744Y-94095632D01*
X104687858Y-94090200D01*
X104859644Y-94019044D01*
X104925074Y-94006029D01*
X105055931Y-93980000D01*
X105256069Y-93980000D01*
X105386926Y-94006029D01*
X105386926Y-94006029D01*
G37*
G36*
X101413607Y-94154277D02*
G01*
X101474129Y-94166316D01*
X101645162Y-94237160D01*
X101799087Y-94340010D01*
X101929990Y-94470913D01*
X102032840Y-94624838D01*
X102087116Y-94755871D01*
X102103684Y-94795872D01*
X102131844Y-94937438D01*
X102139800Y-94977438D01*
X102139800Y-95162562D01*
X102111641Y-95304129D01*
X102103684Y-95344128D01*
X102049409Y-95475162D01*
X102032840Y-95515162D01*
X101929990Y-95669087D01*
X101799087Y-95799990D01*
X101645162Y-95902840D01*
X101474129Y-95973684D01*
X101413607Y-95985723D01*
X101292564Y-96009800D01*
X101107436Y-96009800D01*
X100986393Y-95985723D01*
X100925871Y-95973684D01*
X100754838Y-95902840D01*
X100600913Y-95799990D01*
X100470010Y-95669087D01*
X100367160Y-95515162D01*
X100350592Y-95475162D01*
X100296316Y-95344128D01*
X100288360Y-95304129D01*
X100260200Y-95162562D01*
X100260200Y-94977438D01*
X100268157Y-94937438D01*
X100296316Y-94795872D01*
X100312885Y-94755871D01*
X100367160Y-94624838D01*
X100470010Y-94470913D01*
X100600913Y-94340010D01*
X100754838Y-94237160D01*
X100925871Y-94166316D01*
X100986393Y-94154277D01*
X101107436Y-94130200D01*
X101292564Y-94130200D01*
X101413607Y-94154277D01*
X101413607Y-94154277D01*
G37*
G36*
X118603607Y-94114277D02*
G01*
X118664129Y-94126316D01*
X118835162Y-94197160D01*
X118895024Y-94237159D01*
X118989087Y-94300010D01*
X119119990Y-94430913D01*
X119222841Y-94584840D01*
X119239409Y-94624840D01*
X119293684Y-94755871D01*
X119301641Y-94795872D01*
X119329800Y-94937436D01*
X119329800Y-95122564D01*
X119321843Y-95162564D01*
X119293684Y-95304129D01*
X119222840Y-95475162D01*
X119119990Y-95629087D01*
X118989087Y-95759990D01*
X118835162Y-95862840D01*
X118664129Y-95933684D01*
X118603607Y-95945723D01*
X118482564Y-95969800D01*
X118297436Y-95969800D01*
X118176393Y-95945723D01*
X118115871Y-95933684D01*
X117944838Y-95862840D01*
X117790913Y-95759990D01*
X117660010Y-95629087D01*
X117557160Y-95475162D01*
X117486316Y-95304129D01*
X117458157Y-95162564D01*
X117450200Y-95122564D01*
X117450200Y-94937436D01*
X117478359Y-94795872D01*
X117486316Y-94755871D01*
X117540591Y-94624840D01*
X117557159Y-94584840D01*
X117660010Y-94430913D01*
X117790913Y-94300010D01*
X117884976Y-94237159D01*
X117944838Y-94197160D01*
X118115871Y-94126316D01*
X118176393Y-94114277D01*
X118297436Y-94090200D01*
X118482564Y-94090200D01*
X118603607Y-94114277D01*
X118603607Y-94114277D01*
G37*
G36*
X113523607Y-94114277D02*
G01*
X113584129Y-94126316D01*
X113755162Y-94197160D01*
X113815024Y-94237159D01*
X113909087Y-94300010D01*
X114039990Y-94430913D01*
X114142841Y-94584840D01*
X114159409Y-94624840D01*
X114213684Y-94755871D01*
X114221641Y-94795872D01*
X114249800Y-94937436D01*
X114249800Y-95122564D01*
X114241843Y-95162564D01*
X114213684Y-95304129D01*
X114142840Y-95475162D01*
X114039990Y-95629087D01*
X113909087Y-95759990D01*
X113755162Y-95862840D01*
X113584129Y-95933684D01*
X113523607Y-95945723D01*
X113402564Y-95969800D01*
X113217436Y-95969800D01*
X113096393Y-95945723D01*
X113035871Y-95933684D01*
X112864838Y-95862840D01*
X112710913Y-95759990D01*
X112580010Y-95629087D01*
X112477160Y-95475162D01*
X112406316Y-95304129D01*
X112378157Y-95162564D01*
X112370200Y-95122564D01*
X112370200Y-94937436D01*
X112398359Y-94795872D01*
X112406316Y-94755871D01*
X112460591Y-94624840D01*
X112477159Y-94584840D01*
X112580010Y-94430913D01*
X112710913Y-94300010D01*
X112804976Y-94237159D01*
X112864838Y-94197160D01*
X113035871Y-94126316D01*
X113096393Y-94114277D01*
X113217436Y-94090200D01*
X113402564Y-94090200D01*
X113523607Y-94114277D01*
X113523607Y-94114277D01*
G37*
G36*
X110983607Y-94114277D02*
G01*
X111044129Y-94126316D01*
X111215162Y-94197160D01*
X111275024Y-94237159D01*
X111369087Y-94300010D01*
X111499990Y-94430913D01*
X111602841Y-94584840D01*
X111619409Y-94624840D01*
X111673684Y-94755871D01*
X111681641Y-94795872D01*
X111709800Y-94937436D01*
X111709800Y-95122564D01*
X111701843Y-95162564D01*
X111673684Y-95304129D01*
X111602840Y-95475162D01*
X111499990Y-95629087D01*
X111369087Y-95759990D01*
X111215162Y-95862840D01*
X111044129Y-95933684D01*
X110983607Y-95945723D01*
X110862564Y-95969800D01*
X110677436Y-95969800D01*
X110556393Y-95945723D01*
X110495871Y-95933684D01*
X110324838Y-95862840D01*
X110170913Y-95759990D01*
X110040010Y-95629087D01*
X109937160Y-95475162D01*
X109866316Y-95304129D01*
X109838157Y-95162564D01*
X109830200Y-95122564D01*
X109830200Y-94937436D01*
X109858359Y-94795872D01*
X109866316Y-94755871D01*
X109920591Y-94624840D01*
X109937159Y-94584840D01*
X110040010Y-94430913D01*
X110170913Y-94300010D01*
X110264976Y-94237159D01*
X110324838Y-94197160D01*
X110495871Y-94126316D01*
X110556393Y-94114277D01*
X110677436Y-94090200D01*
X110862564Y-94090200D01*
X110983607Y-94114277D01*
X110983607Y-94114277D01*
G37*
G36*
X108443607Y-94114277D02*
G01*
X108504129Y-94126316D01*
X108675162Y-94197160D01*
X108735024Y-94237159D01*
X108829087Y-94300010D01*
X108959990Y-94430913D01*
X109062841Y-94584840D01*
X109079409Y-94624840D01*
X109133684Y-94755871D01*
X109141641Y-94795872D01*
X109169800Y-94937436D01*
X109169800Y-95122564D01*
X109161843Y-95162564D01*
X109133684Y-95304129D01*
X109062840Y-95475162D01*
X108959990Y-95629087D01*
X108829087Y-95759990D01*
X108675162Y-95862840D01*
X108504129Y-95933684D01*
X108443607Y-95945723D01*
X108322564Y-95969800D01*
X108137436Y-95969800D01*
X108016393Y-95945723D01*
X107955871Y-95933684D01*
X107784838Y-95862840D01*
X107630913Y-95759990D01*
X107500010Y-95629087D01*
X107397160Y-95475162D01*
X107326316Y-95304129D01*
X107298157Y-95162564D01*
X107290200Y-95122564D01*
X107290200Y-94937436D01*
X107318359Y-94795872D01*
X107326316Y-94755871D01*
X107380591Y-94624840D01*
X107397159Y-94584840D01*
X107500010Y-94430913D01*
X107630913Y-94300010D01*
X107724976Y-94237159D01*
X107784838Y-94197160D01*
X107955871Y-94126316D01*
X108016393Y-94114277D01*
X108137436Y-94090200D01*
X108322564Y-94090200D01*
X108443607Y-94114277D01*
X108443607Y-94114277D01*
G37*
G36*
X105386926Y-91466029D02*
G01*
X105452356Y-91479044D01*
X105624142Y-91550200D01*
X105637256Y-91555632D01*
X105803662Y-91666821D01*
X105945179Y-91808338D01*
X106056368Y-91974744D01*
X106132956Y-92159645D01*
X106172000Y-92355931D01*
X106172000Y-92556069D01*
X106158773Y-92622564D01*
X106132956Y-92752356D01*
X106056368Y-92937256D01*
X105945179Y-93103662D01*
X105803662Y-93245179D01*
X105637256Y-93356368D01*
X105452356Y-93432956D01*
X105386926Y-93445971D01*
X105256069Y-93472000D01*
X105055931Y-93472000D01*
X104925074Y-93445971D01*
X104859644Y-93432956D01*
X104674744Y-93356368D01*
X104508338Y-93245179D01*
X104366821Y-93103662D01*
X104255632Y-92937256D01*
X104179044Y-92752356D01*
X104153227Y-92622564D01*
X104140000Y-92556069D01*
X104140000Y-92355931D01*
X104179044Y-92159645D01*
X104255632Y-91974744D01*
X104366821Y-91808338D01*
X104508338Y-91666821D01*
X104674744Y-91555632D01*
X104687858Y-91550200D01*
X104859644Y-91479044D01*
X104925074Y-91466029D01*
X105055931Y-91440000D01*
X105256069Y-91440000D01*
X105386926Y-91466029D01*
X105386926Y-91466029D01*
G37*
G36*
X101413607Y-91614277D02*
G01*
X101474129Y-91626316D01*
X101645162Y-91697160D01*
X101799087Y-91800010D01*
X101929990Y-91930913D01*
X102032840Y-92084838D01*
X102087116Y-92215871D01*
X102103684Y-92255872D01*
X102131844Y-92397438D01*
X102139800Y-92437438D01*
X102139800Y-92622562D01*
X102111641Y-92764129D01*
X102103684Y-92804128D01*
X102049409Y-92935162D01*
X102032840Y-92975162D01*
X101929990Y-93129087D01*
X101799087Y-93259990D01*
X101645162Y-93362840D01*
X101474129Y-93433684D01*
X101413607Y-93445723D01*
X101292564Y-93469800D01*
X101107436Y-93469800D01*
X100986393Y-93445723D01*
X100925871Y-93433684D01*
X100754838Y-93362840D01*
X100600913Y-93259990D01*
X100470010Y-93129087D01*
X100367160Y-92975162D01*
X100350592Y-92935162D01*
X100296316Y-92804128D01*
X100288360Y-92764129D01*
X100260200Y-92622562D01*
X100260200Y-92437438D01*
X100268157Y-92397438D01*
X100296316Y-92255872D01*
X100312885Y-92215871D01*
X100367160Y-92084838D01*
X100470010Y-91930913D01*
X100600913Y-91800010D01*
X100754838Y-91697160D01*
X100925871Y-91626316D01*
X100986393Y-91614277D01*
X101107436Y-91590200D01*
X101292564Y-91590200D01*
X101413607Y-91614277D01*
X101413607Y-91614277D01*
G37*
G36*
X118603607Y-91574277D02*
G01*
X118664129Y-91586316D01*
X118835162Y-91657160D01*
X118895024Y-91697159D01*
X118989087Y-91760010D01*
X119119990Y-91890913D01*
X119222841Y-92044840D01*
X119239409Y-92084840D01*
X119293684Y-92215871D01*
X119301641Y-92255872D01*
X119329800Y-92397436D01*
X119329800Y-92582564D01*
X119321843Y-92622564D01*
X119293684Y-92764129D01*
X119222840Y-92935162D01*
X119119990Y-93089087D01*
X118989087Y-93219990D01*
X118835162Y-93322840D01*
X118664129Y-93393684D01*
X118603607Y-93405723D01*
X118482564Y-93429800D01*
X118297436Y-93429800D01*
X118176393Y-93405723D01*
X118115871Y-93393684D01*
X117944838Y-93322840D01*
X117790913Y-93219990D01*
X117660010Y-93089087D01*
X117557160Y-92935162D01*
X117486316Y-92764129D01*
X117458157Y-92622564D01*
X117450200Y-92582564D01*
X117450200Y-92397436D01*
X117478359Y-92255872D01*
X117486316Y-92215871D01*
X117540591Y-92084840D01*
X117557159Y-92044840D01*
X117660010Y-91890913D01*
X117790913Y-91760010D01*
X117884976Y-91697159D01*
X117944838Y-91657160D01*
X118115871Y-91586316D01*
X118176393Y-91574277D01*
X118297436Y-91550200D01*
X118482564Y-91550200D01*
X118603607Y-91574277D01*
X118603607Y-91574277D01*
G37*
G36*
X116063607Y-91574277D02*
G01*
X116124129Y-91586316D01*
X116295162Y-91657160D01*
X116355024Y-91697159D01*
X116449087Y-91760010D01*
X116579990Y-91890913D01*
X116682841Y-92044840D01*
X116699409Y-92084840D01*
X116753684Y-92215871D01*
X116761641Y-92255872D01*
X116789800Y-92397436D01*
X116789800Y-92582564D01*
X116781843Y-92622564D01*
X116753684Y-92764129D01*
X116682840Y-92935162D01*
X116579990Y-93089087D01*
X116449087Y-93219990D01*
X116295162Y-93322840D01*
X116124129Y-93393684D01*
X116063607Y-93405723D01*
X115942564Y-93429800D01*
X115757436Y-93429800D01*
X115636393Y-93405723D01*
X115575871Y-93393684D01*
X115404838Y-93322840D01*
X115250913Y-93219990D01*
X115120010Y-93089087D01*
X115017160Y-92935162D01*
X114946316Y-92764129D01*
X114918157Y-92622564D01*
X114910200Y-92582564D01*
X114910200Y-92397436D01*
X114938359Y-92255872D01*
X114946316Y-92215871D01*
X115000591Y-92084840D01*
X115017159Y-92044840D01*
X115120010Y-91890913D01*
X115250913Y-91760010D01*
X115344976Y-91697159D01*
X115404838Y-91657160D01*
X115575871Y-91586316D01*
X115636393Y-91574277D01*
X115757436Y-91550200D01*
X115942564Y-91550200D01*
X116063607Y-91574277D01*
X116063607Y-91574277D01*
G37*
G36*
X113523607Y-91574277D02*
G01*
X113584129Y-91586316D01*
X113755162Y-91657160D01*
X113815024Y-91697159D01*
X113909087Y-91760010D01*
X114039990Y-91890913D01*
X114142841Y-92044840D01*
X114159409Y-92084840D01*
X114213684Y-92215871D01*
X114221641Y-92255872D01*
X114249800Y-92397436D01*
X114249800Y-92582564D01*
X114241843Y-92622564D01*
X114213684Y-92764129D01*
X114142840Y-92935162D01*
X114039990Y-93089087D01*
X113909087Y-93219990D01*
X113755162Y-93322840D01*
X113584129Y-93393684D01*
X113523607Y-93405723D01*
X113402564Y-93429800D01*
X113217436Y-93429800D01*
X113096393Y-93405723D01*
X113035871Y-93393684D01*
X112864838Y-93322840D01*
X112710913Y-93219990D01*
X112580010Y-93089087D01*
X112477160Y-92935162D01*
X112406316Y-92764129D01*
X112378157Y-92622564D01*
X112370200Y-92582564D01*
X112370200Y-92397436D01*
X112398359Y-92255872D01*
X112406316Y-92215871D01*
X112460591Y-92084840D01*
X112477159Y-92044840D01*
X112580010Y-91890913D01*
X112710913Y-91760010D01*
X112804976Y-91697159D01*
X112864838Y-91657160D01*
X113035871Y-91586316D01*
X113096393Y-91574277D01*
X113217436Y-91550200D01*
X113402564Y-91550200D01*
X113523607Y-91574277D01*
X113523607Y-91574277D01*
G37*
G36*
X110983607Y-91574277D02*
G01*
X111044129Y-91586316D01*
X111215162Y-91657160D01*
X111275024Y-91697159D01*
X111369087Y-91760010D01*
X111499990Y-91890913D01*
X111602841Y-92044840D01*
X111619409Y-92084840D01*
X111673684Y-92215871D01*
X111681641Y-92255872D01*
X111709800Y-92397436D01*
X111709800Y-92582564D01*
X111701843Y-92622564D01*
X111673684Y-92764129D01*
X111602840Y-92935162D01*
X111499990Y-93089087D01*
X111369087Y-93219990D01*
X111215162Y-93322840D01*
X111044129Y-93393684D01*
X110983607Y-93405723D01*
X110862564Y-93429800D01*
X110677436Y-93429800D01*
X110556393Y-93405723D01*
X110495871Y-93393684D01*
X110324838Y-93322840D01*
X110170913Y-93219990D01*
X110040010Y-93089087D01*
X109937160Y-92935162D01*
X109866316Y-92764129D01*
X109838157Y-92622564D01*
X109830200Y-92582564D01*
X109830200Y-92397436D01*
X109858359Y-92255872D01*
X109866316Y-92215871D01*
X109920591Y-92084840D01*
X109937159Y-92044840D01*
X110040010Y-91890913D01*
X110170913Y-91760010D01*
X110264976Y-91697159D01*
X110324838Y-91657160D01*
X110495871Y-91586316D01*
X110556393Y-91574277D01*
X110677436Y-91550200D01*
X110862564Y-91550200D01*
X110983607Y-91574277D01*
X110983607Y-91574277D01*
G37*
G36*
X105386926Y-88926029D02*
G01*
X105452356Y-88939044D01*
X105637256Y-89015632D01*
X105803662Y-89126821D01*
X105945179Y-89268338D01*
X106056368Y-89434744D01*
X106132956Y-89619644D01*
X106172000Y-89815933D01*
X106172000Y-90016067D01*
X106132956Y-90212356D01*
X106056368Y-90397256D01*
X105945179Y-90563662D01*
X105803662Y-90705179D01*
X105637256Y-90816368D01*
X105452356Y-90892956D01*
X105386926Y-90905971D01*
X105256069Y-90932000D01*
X105055931Y-90932000D01*
X104925074Y-90905971D01*
X104859644Y-90892956D01*
X104674744Y-90816368D01*
X104508338Y-90705179D01*
X104366821Y-90563662D01*
X104255632Y-90397256D01*
X104179044Y-90212356D01*
X104140000Y-90016067D01*
X104140000Y-89815933D01*
X104179044Y-89619644D01*
X104255632Y-89434744D01*
X104366821Y-89268338D01*
X104508338Y-89126821D01*
X104674744Y-89015632D01*
X104859644Y-88939044D01*
X104925074Y-88926029D01*
X105055931Y-88900000D01*
X105256069Y-88900000D01*
X105386926Y-88926029D01*
X105386926Y-88926029D01*
G37*
G36*
X101430926Y-88810029D02*
G01*
X101496356Y-88823044D01*
X101681256Y-88899632D01*
X101847662Y-89010821D01*
X101989179Y-89152338D01*
X102100368Y-89318744D01*
X102176956Y-89503644D01*
X102216000Y-89699933D01*
X102216000Y-89900067D01*
X102176956Y-90096356D01*
X102100368Y-90281256D01*
X101989179Y-90447662D01*
X101847662Y-90589179D01*
X101681256Y-90700368D01*
X101496356Y-90776956D01*
X101430926Y-90789971D01*
X101300069Y-90816000D01*
X101099931Y-90816000D01*
X100969074Y-90789971D01*
X100903644Y-90776956D01*
X100718744Y-90700368D01*
X100552338Y-90589179D01*
X100410821Y-90447662D01*
X100299632Y-90281256D01*
X100223044Y-90096356D01*
X100184000Y-89900067D01*
X100184000Y-89699933D01*
X100223044Y-89503644D01*
X100299632Y-89318744D01*
X100410821Y-89152338D01*
X100552338Y-89010821D01*
X100718744Y-88899632D01*
X100903644Y-88823044D01*
X100969074Y-88810029D01*
X101099931Y-88784000D01*
X101300069Y-88784000D01*
X101430926Y-88810029D01*
X101430926Y-88810029D01*
G37*
G36*
X118785426Y-86843229D02*
G01*
X118850856Y-86856244D01*
X119035756Y-86932832D01*
X119202162Y-87044021D01*
X119343679Y-87185538D01*
X119454868Y-87351944D01*
X119531456Y-87536844D01*
X119570500Y-87733133D01*
X119570500Y-87933267D01*
X119531456Y-88129556D01*
X119454868Y-88314456D01*
X119343679Y-88480862D01*
X119202162Y-88622379D01*
X119035756Y-88733568D01*
X118850856Y-88810156D01*
X118786063Y-88823044D01*
X118654569Y-88849200D01*
X118454431Y-88849200D01*
X118322937Y-88823044D01*
X118258144Y-88810156D01*
X118073244Y-88733568D01*
X117906838Y-88622379D01*
X117765321Y-88480862D01*
X117654132Y-88314456D01*
X117577544Y-88129556D01*
X117538500Y-87933267D01*
X117538500Y-87733133D01*
X117577544Y-87536844D01*
X117654132Y-87351944D01*
X117765321Y-87185538D01*
X117906838Y-87044021D01*
X118073244Y-86932832D01*
X118258144Y-86856244D01*
X118323574Y-86843229D01*
X118454431Y-86817200D01*
X118654569Y-86817200D01*
X118785426Y-86843229D01*
X118785426Y-86843229D01*
G37*
G36*
X113705426Y-86843229D02*
G01*
X113770856Y-86856244D01*
X113955756Y-86932832D01*
X114122162Y-87044021D01*
X114263679Y-87185538D01*
X114374868Y-87351944D01*
X114451456Y-87536844D01*
X114490500Y-87733133D01*
X114490500Y-87933267D01*
X114451456Y-88129556D01*
X114374868Y-88314456D01*
X114263679Y-88480862D01*
X114122162Y-88622379D01*
X113955756Y-88733568D01*
X113770856Y-88810156D01*
X113706063Y-88823044D01*
X113574569Y-88849200D01*
X113374431Y-88849200D01*
X113242937Y-88823044D01*
X113178144Y-88810156D01*
X112993244Y-88733568D01*
X112826838Y-88622379D01*
X112685321Y-88480862D01*
X112574132Y-88314456D01*
X112497544Y-88129556D01*
X112458500Y-87933267D01*
X112458500Y-87733133D01*
X112497544Y-87536844D01*
X112574132Y-87351944D01*
X112685321Y-87185538D01*
X112826838Y-87044021D01*
X112993244Y-86932832D01*
X113178144Y-86856244D01*
X113243574Y-86843229D01*
X113374431Y-86817200D01*
X113574569Y-86817200D01*
X113705426Y-86843229D01*
X113705426Y-86843229D01*
G37*
G36*
X111165426Y-86843229D02*
G01*
X111230856Y-86856244D01*
X111415756Y-86932832D01*
X111582162Y-87044021D01*
X111723679Y-87185538D01*
X111834868Y-87351944D01*
X111911456Y-87536844D01*
X111950500Y-87733133D01*
X111950500Y-87933267D01*
X111911456Y-88129556D01*
X111834868Y-88314456D01*
X111723679Y-88480862D01*
X111582162Y-88622379D01*
X111415756Y-88733568D01*
X111230856Y-88810156D01*
X111166063Y-88823044D01*
X111034569Y-88849200D01*
X110834431Y-88849200D01*
X110702937Y-88823044D01*
X110638144Y-88810156D01*
X110453244Y-88733568D01*
X110286838Y-88622379D01*
X110145321Y-88480862D01*
X110034132Y-88314456D01*
X109957544Y-88129556D01*
X109918500Y-87933267D01*
X109918500Y-87733133D01*
X109957544Y-87536844D01*
X110034132Y-87351944D01*
X110145321Y-87185538D01*
X110286838Y-87044021D01*
X110453244Y-86932832D01*
X110638144Y-86856244D01*
X110703574Y-86843229D01*
X110834431Y-86817200D01*
X111034569Y-86817200D01*
X111165426Y-86843229D01*
X111165426Y-86843229D01*
G37*
G36*
X108625426Y-86843229D02*
G01*
X108690856Y-86856244D01*
X108875756Y-86932832D01*
X109042162Y-87044021D01*
X109183679Y-87185538D01*
X109294868Y-87351944D01*
X109371456Y-87536844D01*
X109410500Y-87733133D01*
X109410500Y-87933267D01*
X109371456Y-88129556D01*
X109294868Y-88314456D01*
X109183679Y-88480862D01*
X109042162Y-88622379D01*
X108875756Y-88733568D01*
X108690856Y-88810156D01*
X108626063Y-88823044D01*
X108494569Y-88849200D01*
X108294431Y-88849200D01*
X108162937Y-88823044D01*
X108098144Y-88810156D01*
X107913244Y-88733568D01*
X107746838Y-88622379D01*
X107605321Y-88480862D01*
X107494132Y-88314456D01*
X107417544Y-88129556D01*
X107378500Y-87933267D01*
X107378500Y-87733133D01*
X107417544Y-87536844D01*
X107494132Y-87351944D01*
X107605321Y-87185538D01*
X107746838Y-87044021D01*
X107913244Y-86932832D01*
X108098144Y-86856244D01*
X108163574Y-86843229D01*
X108294431Y-86817200D01*
X108494569Y-86817200D01*
X108625426Y-86843229D01*
X108625426Y-86843229D01*
G37*
G36*
X116245426Y-86843229D02*
G01*
X116310856Y-86856244D01*
X116495756Y-86932832D01*
X116662162Y-87044021D01*
X116803679Y-87185538D01*
X116914868Y-87351944D01*
X116991456Y-87536844D01*
X117030500Y-87733133D01*
X117030500Y-87933267D01*
X116991456Y-88129556D01*
X116914868Y-88314456D01*
X116803679Y-88480862D01*
X116662162Y-88622379D01*
X116495756Y-88733568D01*
X116310856Y-88810156D01*
X116246063Y-88823044D01*
X116114569Y-88849200D01*
X115914431Y-88849200D01*
X115782937Y-88823044D01*
X115718144Y-88810156D01*
X115533244Y-88733568D01*
X115366838Y-88622379D01*
X115225321Y-88480862D01*
X115114132Y-88314456D01*
X115037544Y-88129556D01*
X114998500Y-87933267D01*
X114998500Y-87733133D01*
X115037544Y-87536844D01*
X115114132Y-87351944D01*
X115225321Y-87185538D01*
X115366838Y-87044021D01*
X115533244Y-86932832D01*
X115718144Y-86856244D01*
X115783574Y-86843229D01*
X115914431Y-86817200D01*
X116114569Y-86817200D01*
X116245426Y-86843229D01*
X116245426Y-86843229D01*
G37*
G36*
X101430926Y-86270029D02*
G01*
X101496356Y-86283044D01*
X101681256Y-86359632D01*
X101847662Y-86470821D01*
X101989179Y-86612338D01*
X102100368Y-86778744D01*
X102176956Y-86963644D01*
X102216000Y-87159933D01*
X102216000Y-87360067D01*
X102176956Y-87556356D01*
X102100368Y-87741256D01*
X101989179Y-87907662D01*
X101847662Y-88049179D01*
X101681256Y-88160368D01*
X101496356Y-88236956D01*
X101430926Y-88249971D01*
X101300069Y-88276000D01*
X101099931Y-88276000D01*
X100969074Y-88249971D01*
X100903644Y-88236956D01*
X100718744Y-88160368D01*
X100552338Y-88049179D01*
X100410821Y-87907662D01*
X100299632Y-87741256D01*
X100223044Y-87556356D01*
X100184000Y-87360067D01*
X100184000Y-87159933D01*
X100223044Y-86963644D01*
X100299632Y-86778744D01*
X100410821Y-86612338D01*
X100552338Y-86470821D01*
X100718744Y-86359632D01*
X100903644Y-86283044D01*
X100969074Y-86270029D01*
X101099931Y-86244000D01*
X101300069Y-86244000D01*
X101430926Y-86270029D01*
X101430926Y-86270029D01*
G37*
G36*
X118590307Y-84263177D02*
G01*
X118650829Y-84275216D01*
X118821862Y-84346060D01*
X118975787Y-84448910D01*
X119106690Y-84579813D01*
X119209540Y-84733738D01*
X119245299Y-84820067D01*
X119280384Y-84904772D01*
X119302580Y-85016355D01*
X119316500Y-85086338D01*
X119316500Y-85271462D01*
X119280384Y-85453029D01*
X119209540Y-85624062D01*
X119106690Y-85777987D01*
X118975787Y-85908890D01*
X118821862Y-86011740D01*
X118650829Y-86082584D01*
X118590307Y-86094623D01*
X118469264Y-86118700D01*
X118284136Y-86118700D01*
X118163093Y-86094623D01*
X118102571Y-86082584D01*
X117931538Y-86011740D01*
X117777613Y-85908890D01*
X117646710Y-85777987D01*
X117543860Y-85624062D01*
X117473016Y-85453029D01*
X117436900Y-85271462D01*
X117436900Y-85086338D01*
X117450821Y-85016355D01*
X117473016Y-84904772D01*
X117508102Y-84820067D01*
X117543860Y-84733738D01*
X117646710Y-84579813D01*
X117777613Y-84448910D01*
X117931538Y-84346060D01*
X118102571Y-84275216D01*
X118163093Y-84263177D01*
X118284136Y-84239100D01*
X118469264Y-84239100D01*
X118590307Y-84263177D01*
X118590307Y-84263177D01*
G37*
G36*
X116050307Y-84263177D02*
G01*
X116110829Y-84275216D01*
X116281862Y-84346060D01*
X116435787Y-84448910D01*
X116566690Y-84579813D01*
X116669540Y-84733738D01*
X116705299Y-84820067D01*
X116740384Y-84904772D01*
X116762580Y-85016355D01*
X116776500Y-85086338D01*
X116776500Y-85271462D01*
X116740384Y-85453029D01*
X116669540Y-85624062D01*
X116566690Y-85777987D01*
X116435787Y-85908890D01*
X116281862Y-86011740D01*
X116110829Y-86082584D01*
X116050307Y-86094623D01*
X115929264Y-86118700D01*
X115744136Y-86118700D01*
X115623093Y-86094623D01*
X115562571Y-86082584D01*
X115391538Y-86011740D01*
X115237613Y-85908890D01*
X115106710Y-85777987D01*
X115003860Y-85624062D01*
X114933016Y-85453029D01*
X114896900Y-85271462D01*
X114896900Y-85086338D01*
X114910821Y-85016355D01*
X114933016Y-84904772D01*
X114968102Y-84820067D01*
X115003860Y-84733738D01*
X115106710Y-84579813D01*
X115237613Y-84448910D01*
X115391538Y-84346060D01*
X115562571Y-84275216D01*
X115623093Y-84263177D01*
X115744136Y-84239100D01*
X115929264Y-84239100D01*
X116050307Y-84263177D01*
X116050307Y-84263177D01*
G37*
G36*
X101430926Y-83730029D02*
G01*
X101496356Y-83743044D01*
X101681256Y-83819632D01*
X101847662Y-83930821D01*
X101989179Y-84072338D01*
X102100368Y-84238744D01*
X102144820Y-84346060D01*
X102176956Y-84423645D01*
X102216000Y-84619931D01*
X102216000Y-84820069D01*
X102199151Y-84904772D01*
X102176956Y-85016356D01*
X102100368Y-85201256D01*
X101989179Y-85367662D01*
X101847662Y-85509179D01*
X101681256Y-85620368D01*
X101496356Y-85696956D01*
X101430926Y-85709971D01*
X101300069Y-85736000D01*
X101099931Y-85736000D01*
X100969074Y-85709971D01*
X100903644Y-85696956D01*
X100718744Y-85620368D01*
X100552338Y-85509179D01*
X100410821Y-85367662D01*
X100299632Y-85201256D01*
X100223044Y-85016356D01*
X100200849Y-84904772D01*
X100184000Y-84820069D01*
X100184000Y-84619931D01*
X100223044Y-84423645D01*
X100255181Y-84346060D01*
X100299632Y-84238744D01*
X100410821Y-84072338D01*
X100552338Y-83930821D01*
X100718744Y-83819632D01*
X100903644Y-83743044D01*
X100969074Y-83730029D01*
X101099931Y-83704000D01*
X101300069Y-83704000D01*
X101430926Y-83730029D01*
X101430926Y-83730029D01*
G37*
G36*
X102431128Y-79635871D02*
G01*
X102716521Y-79692639D01*
X103016947Y-79817080D01*
X103287324Y-79997740D01*
X103517260Y-80227676D01*
X103697920Y-80498053D01*
X103822361Y-80798479D01*
X103885800Y-81117410D01*
X103885800Y-81442590D01*
X103822361Y-81761521D01*
X103697920Y-82061947D01*
X103517260Y-82332324D01*
X103287324Y-82562260D01*
X103016947Y-82742920D01*
X102716521Y-82867361D01*
X102503900Y-82909654D01*
X102397591Y-82930800D01*
X102072409Y-82930800D01*
X101966100Y-82909654D01*
X101753479Y-82867361D01*
X101453053Y-82742920D01*
X101182676Y-82562260D01*
X100952740Y-82332324D01*
X100772080Y-82061947D01*
X100647639Y-81761521D01*
X100584200Y-81442590D01*
X100584200Y-81117410D01*
X100647639Y-80798479D01*
X100772080Y-80498053D01*
X100952740Y-80227676D01*
X101182676Y-79997740D01*
X101453053Y-79817080D01*
X101753479Y-79692639D01*
X102038872Y-79635871D01*
X102072409Y-79629200D01*
X102397591Y-79629200D01*
X102431128Y-79635871D01*
X102431128Y-79635871D01*
G37*
G36*
X133903607Y-78994277D02*
G01*
X133964129Y-79006316D01*
X134135162Y-79077160D01*
X134289087Y-79180010D01*
X134419990Y-79310913D01*
X134522840Y-79464838D01*
X134593684Y-79635871D01*
X134629800Y-79817438D01*
X134629800Y-80002562D01*
X134593684Y-80184129D01*
X134522840Y-80355162D01*
X134419990Y-80509087D01*
X134289087Y-80639990D01*
X134135162Y-80742840D01*
X133964129Y-80813684D01*
X133903607Y-80825723D01*
X133782564Y-80849800D01*
X133597436Y-80849800D01*
X133476393Y-80825723D01*
X133415871Y-80813684D01*
X133244838Y-80742840D01*
X133090913Y-80639990D01*
X132960010Y-80509087D01*
X132857160Y-80355162D01*
X132786316Y-80184129D01*
X132750200Y-80002562D01*
X132750200Y-79817438D01*
X132786316Y-79635871D01*
X132857160Y-79464838D01*
X132960010Y-79310913D01*
X133090913Y-79180010D01*
X133244838Y-79077160D01*
X133415871Y-79006316D01*
X133476393Y-78994277D01*
X133597436Y-78970200D01*
X133782564Y-78970200D01*
X133903607Y-78994277D01*
X133903607Y-78994277D01*
G37*
G36*
X136443607Y-78994277D02*
G01*
X136504129Y-79006316D01*
X136675162Y-79077160D01*
X136829087Y-79180010D01*
X136959990Y-79310913D01*
X137062840Y-79464838D01*
X137133684Y-79635871D01*
X137169800Y-79817438D01*
X137169800Y-80002562D01*
X137133684Y-80184129D01*
X137062840Y-80355162D01*
X136959990Y-80509087D01*
X136829087Y-80639990D01*
X136675162Y-80742840D01*
X136504129Y-80813684D01*
X136443607Y-80825723D01*
X136322564Y-80849800D01*
X136137436Y-80849800D01*
X136016393Y-80825723D01*
X135955871Y-80813684D01*
X135784838Y-80742840D01*
X135630913Y-80639990D01*
X135500010Y-80509087D01*
X135397160Y-80355162D01*
X135326316Y-80184129D01*
X135290200Y-80002562D01*
X135290200Y-79817438D01*
X135326316Y-79635871D01*
X135397160Y-79464838D01*
X135500010Y-79310913D01*
X135630913Y-79180010D01*
X135784838Y-79077160D01*
X135955871Y-79006316D01*
X136016393Y-78994277D01*
X136137436Y-78970200D01*
X136322564Y-78970200D01*
X136443607Y-78994277D01*
X136443607Y-78994277D01*
G37*
G36*
X138983607Y-78994277D02*
G01*
X139044129Y-79006316D01*
X139215162Y-79077160D01*
X139369087Y-79180010D01*
X139499990Y-79310913D01*
X139602840Y-79464838D01*
X139673684Y-79635871D01*
X139709800Y-79817438D01*
X139709800Y-80002562D01*
X139673684Y-80184129D01*
X139602840Y-80355162D01*
X139499990Y-80509087D01*
X139369087Y-80639990D01*
X139215162Y-80742840D01*
X139044129Y-80813684D01*
X138983607Y-80825723D01*
X138862564Y-80849800D01*
X138677436Y-80849800D01*
X138556393Y-80825723D01*
X138495871Y-80813684D01*
X138324838Y-80742840D01*
X138170913Y-80639990D01*
X138040010Y-80509087D01*
X137937160Y-80355162D01*
X137866316Y-80184129D01*
X137830200Y-80002562D01*
X137830200Y-79817438D01*
X137866316Y-79635871D01*
X137937160Y-79464838D01*
X138040010Y-79310913D01*
X138170913Y-79180010D01*
X138324838Y-79077160D01*
X138495871Y-79006316D01*
X138556393Y-78994277D01*
X138677436Y-78970200D01*
X138862564Y-78970200D01*
X138983607Y-78994277D01*
X138983607Y-78994277D01*
G37*
G36*
X141523607Y-78994277D02*
G01*
X141584129Y-79006316D01*
X141755162Y-79077160D01*
X141909087Y-79180010D01*
X142039990Y-79310913D01*
X142142840Y-79464838D01*
X142213684Y-79635871D01*
X142249800Y-79817438D01*
X142249800Y-80002562D01*
X142213684Y-80184129D01*
X142142840Y-80355162D01*
X142039990Y-80509087D01*
X141909087Y-80639990D01*
X141755162Y-80742840D01*
X141584129Y-80813684D01*
X141523607Y-80825723D01*
X141402564Y-80849800D01*
X141217436Y-80849800D01*
X141096393Y-80825723D01*
X141035871Y-80813684D01*
X140864838Y-80742840D01*
X140710913Y-80639990D01*
X140580010Y-80509087D01*
X140477160Y-80355162D01*
X140406316Y-80184129D01*
X140370200Y-80002562D01*
X140370200Y-79817438D01*
X140406316Y-79635871D01*
X140477160Y-79464838D01*
X140580010Y-79310913D01*
X140710913Y-79180010D01*
X140864838Y-79077160D01*
X141035871Y-79006316D01*
X141096393Y-78994277D01*
X141217436Y-78970200D01*
X141402564Y-78970200D01*
X141523607Y-78994277D01*
X141523607Y-78994277D01*
G37*
G36*
X144063607Y-78994277D02*
G01*
X144124129Y-79006316D01*
X144295162Y-79077160D01*
X144449087Y-79180010D01*
X144579990Y-79310913D01*
X144682840Y-79464838D01*
X144753684Y-79635871D01*
X144789800Y-79817438D01*
X144789800Y-80002562D01*
X144753684Y-80184129D01*
X144682840Y-80355162D01*
X144579990Y-80509087D01*
X144449087Y-80639990D01*
X144295162Y-80742840D01*
X144124129Y-80813684D01*
X144063607Y-80825723D01*
X143942564Y-80849800D01*
X143757436Y-80849800D01*
X143636393Y-80825723D01*
X143575871Y-80813684D01*
X143404838Y-80742840D01*
X143250913Y-80639990D01*
X143120010Y-80509087D01*
X143017160Y-80355162D01*
X142946316Y-80184129D01*
X142910200Y-80002562D01*
X142910200Y-79817438D01*
X142946316Y-79635871D01*
X143017160Y-79464838D01*
X143120010Y-79310913D01*
X143250913Y-79180010D01*
X143404838Y-79077160D01*
X143575871Y-79006316D01*
X143636393Y-78994277D01*
X143757436Y-78970200D01*
X143942564Y-78970200D01*
X144063607Y-78994277D01*
X144063607Y-78994277D01*
G37*
G36*
X131363607Y-78994277D02*
G01*
X131424129Y-79006316D01*
X131595162Y-79077160D01*
X131749087Y-79180010D01*
X131879990Y-79310913D01*
X131982840Y-79464838D01*
X132053684Y-79635871D01*
X132089800Y-79817438D01*
X132089800Y-80002562D01*
X132053684Y-80184129D01*
X131982840Y-80355162D01*
X131879990Y-80509087D01*
X131749087Y-80639990D01*
X131595162Y-80742840D01*
X131424129Y-80813684D01*
X131363607Y-80825723D01*
X131242564Y-80849800D01*
X131057436Y-80849800D01*
X130936393Y-80825723D01*
X130875871Y-80813684D01*
X130704838Y-80742840D01*
X130550913Y-80639990D01*
X130420010Y-80509087D01*
X130317160Y-80355162D01*
X130246316Y-80184129D01*
X130210200Y-80002562D01*
X130210200Y-79817438D01*
X130246316Y-79635871D01*
X130317160Y-79464838D01*
X130420010Y-79310913D01*
X130550913Y-79180010D01*
X130704838Y-79077160D01*
X130875871Y-79006316D01*
X130936393Y-78994277D01*
X131057436Y-78970200D01*
X131242564Y-78970200D01*
X131363607Y-78994277D01*
X131363607Y-78994277D01*
G37*
G36*
X116123607Y-78994277D02*
G01*
X116184129Y-79006316D01*
X116355162Y-79077160D01*
X116509087Y-79180010D01*
X116639990Y-79310913D01*
X116742840Y-79464838D01*
X116813684Y-79635871D01*
X116849800Y-79817438D01*
X116849800Y-80002562D01*
X116813684Y-80184129D01*
X116742840Y-80355162D01*
X116639990Y-80509087D01*
X116509087Y-80639990D01*
X116355162Y-80742840D01*
X116184129Y-80813684D01*
X116123607Y-80825723D01*
X116002564Y-80849800D01*
X115817436Y-80849800D01*
X115696393Y-80825723D01*
X115635871Y-80813684D01*
X115464838Y-80742840D01*
X115310913Y-80639990D01*
X115180010Y-80509087D01*
X115077160Y-80355162D01*
X115006316Y-80184129D01*
X114970200Y-80002562D01*
X114970200Y-79817438D01*
X115006316Y-79635871D01*
X115077160Y-79464838D01*
X115180010Y-79310913D01*
X115310913Y-79180010D01*
X115464838Y-79077160D01*
X115635871Y-79006316D01*
X115696393Y-78994277D01*
X115817436Y-78970200D01*
X116002564Y-78970200D01*
X116123607Y-78994277D01*
X116123607Y-78994277D01*
G37*
G36*
X118663607Y-78994277D02*
G01*
X118724129Y-79006316D01*
X118895162Y-79077160D01*
X119049087Y-79180010D01*
X119179990Y-79310913D01*
X119282840Y-79464838D01*
X119353684Y-79635871D01*
X119389800Y-79817438D01*
X119389800Y-80002562D01*
X119353684Y-80184129D01*
X119282840Y-80355162D01*
X119179990Y-80509087D01*
X119049087Y-80639990D01*
X118895162Y-80742840D01*
X118724129Y-80813684D01*
X118663607Y-80825723D01*
X118542564Y-80849800D01*
X118357436Y-80849800D01*
X118236393Y-80825723D01*
X118175871Y-80813684D01*
X118004838Y-80742840D01*
X117850913Y-80639990D01*
X117720010Y-80509087D01*
X117617160Y-80355162D01*
X117546316Y-80184129D01*
X117510200Y-80002562D01*
X117510200Y-79817438D01*
X117546316Y-79635871D01*
X117617160Y-79464838D01*
X117720010Y-79310913D01*
X117850913Y-79180010D01*
X118004838Y-79077160D01*
X118175871Y-79006316D01*
X118236393Y-78994277D01*
X118357436Y-78970200D01*
X118542564Y-78970200D01*
X118663607Y-78994277D01*
X118663607Y-78994277D01*
G37*
G36*
X121203607Y-78994277D02*
G01*
X121264129Y-79006316D01*
X121435162Y-79077160D01*
X121589087Y-79180010D01*
X121719990Y-79310913D01*
X121822840Y-79464838D01*
X121893684Y-79635871D01*
X121929800Y-79817438D01*
X121929800Y-80002562D01*
X121893684Y-80184129D01*
X121822840Y-80355162D01*
X121719990Y-80509087D01*
X121589087Y-80639990D01*
X121435162Y-80742840D01*
X121264129Y-80813684D01*
X121203607Y-80825723D01*
X121082564Y-80849800D01*
X120897436Y-80849800D01*
X120776393Y-80825723D01*
X120715871Y-80813684D01*
X120544838Y-80742840D01*
X120390913Y-80639990D01*
X120260010Y-80509087D01*
X120157160Y-80355162D01*
X120086316Y-80184129D01*
X120050200Y-80002562D01*
X120050200Y-79817438D01*
X120086316Y-79635871D01*
X120157160Y-79464838D01*
X120260010Y-79310913D01*
X120390913Y-79180010D01*
X120544838Y-79077160D01*
X120715871Y-79006316D01*
X120776393Y-78994277D01*
X120897436Y-78970200D01*
X121082564Y-78970200D01*
X121203607Y-78994277D01*
X121203607Y-78994277D01*
G37*
G36*
X123743607Y-78994277D02*
G01*
X123804129Y-79006316D01*
X123975162Y-79077160D01*
X124129087Y-79180010D01*
X124259990Y-79310913D01*
X124362840Y-79464838D01*
X124433684Y-79635871D01*
X124469800Y-79817438D01*
X124469800Y-80002562D01*
X124433684Y-80184129D01*
X124362840Y-80355162D01*
X124259990Y-80509087D01*
X124129087Y-80639990D01*
X123975162Y-80742840D01*
X123804129Y-80813684D01*
X123743607Y-80825723D01*
X123622564Y-80849800D01*
X123437436Y-80849800D01*
X123316393Y-80825723D01*
X123255871Y-80813684D01*
X123084838Y-80742840D01*
X122930913Y-80639990D01*
X122800010Y-80509087D01*
X122697160Y-80355162D01*
X122626316Y-80184129D01*
X122590200Y-80002562D01*
X122590200Y-79817438D01*
X122626316Y-79635871D01*
X122697160Y-79464838D01*
X122800010Y-79310913D01*
X122930913Y-79180010D01*
X123084838Y-79077160D01*
X123255871Y-79006316D01*
X123316393Y-78994277D01*
X123437436Y-78970200D01*
X123622564Y-78970200D01*
X123743607Y-78994277D01*
X123743607Y-78994277D01*
G37*
G36*
X126283607Y-78994277D02*
G01*
X126344129Y-79006316D01*
X126515162Y-79077160D01*
X126669087Y-79180010D01*
X126799990Y-79310913D01*
X126902840Y-79464838D01*
X126973684Y-79635871D01*
X127009800Y-79817438D01*
X127009800Y-80002562D01*
X126973684Y-80184129D01*
X126902840Y-80355162D01*
X126799990Y-80509087D01*
X126669087Y-80639990D01*
X126515162Y-80742840D01*
X126344129Y-80813684D01*
X126283607Y-80825723D01*
X126162564Y-80849800D01*
X125977436Y-80849800D01*
X125856393Y-80825723D01*
X125795871Y-80813684D01*
X125624838Y-80742840D01*
X125470913Y-80639990D01*
X125340010Y-80509087D01*
X125237160Y-80355162D01*
X125166316Y-80184129D01*
X125130200Y-80002562D01*
X125130200Y-79817438D01*
X125166316Y-79635871D01*
X125237160Y-79464838D01*
X125340010Y-79310913D01*
X125470913Y-79180010D01*
X125624838Y-79077160D01*
X125795871Y-79006316D01*
X125856393Y-78994277D01*
X125977436Y-78970200D01*
X126162564Y-78970200D01*
X126283607Y-78994277D01*
X126283607Y-78994277D01*
G37*
G36*
X128823607Y-78994277D02*
G01*
X128884129Y-79006316D01*
X129055162Y-79077160D01*
X129209087Y-79180010D01*
X129339990Y-79310913D01*
X129442840Y-79464838D01*
X129513684Y-79635871D01*
X129549800Y-79817438D01*
X129549800Y-80002562D01*
X129513684Y-80184129D01*
X129442840Y-80355162D01*
X129339990Y-80509087D01*
X129209087Y-80639990D01*
X129055162Y-80742840D01*
X128884129Y-80813684D01*
X128823607Y-80825723D01*
X128702564Y-80849800D01*
X128517436Y-80849800D01*
X128396393Y-80825723D01*
X128335871Y-80813684D01*
X128164838Y-80742840D01*
X128010913Y-80639990D01*
X127880010Y-80509087D01*
X127777160Y-80355162D01*
X127706316Y-80184129D01*
X127670200Y-80002562D01*
X127670200Y-79817438D01*
X127706316Y-79635871D01*
X127777160Y-79464838D01*
X127880010Y-79310913D01*
X128010913Y-79180010D01*
X128164838Y-79077160D01*
X128335871Y-79006316D01*
X128396393Y-78994277D01*
X128517436Y-78970200D01*
X128702564Y-78970200D01*
X128823607Y-78994277D01*
X128823607Y-78994277D01*
G37*
M02*
