G04 #@! TF.GenerationSoftware,KiCad,Pcbnew,(5.1.4-0-10_14)*
G04 #@! TF.CreationDate,2019-11-15T13:57:30+01:00*
G04 #@! TF.ProjectId,FeatherWing nRF24L01 Adapter,46656174-6865-4725-9769-6e67206e5246,rev?*
G04 #@! TF.SameCoordinates,Original*
G04 #@! TF.FileFunction,Copper,L2,Bot*
G04 #@! TF.FilePolarity,Positive*
%FSLAX46Y46*%
G04 Gerber Fmt 4.6, Leading zero omitted, Abs format (unit mm)*
G04 Created by KiCad (PCBNEW (5.1.4-0-10_14)) date 2019-11-15 13:57:30*
%MOMM*%
%LPD*%
G04 APERTURE LIST*
%ADD10C,1.778000*%
%ADD11C,3.200000*%
%ADD12C,1.930400*%
%ADD13C,0.800000*%
%ADD14C,0.250000*%
G04 APERTURE END LIST*
D10*
X105750000Y-100230000D03*
X108290000Y-100230000D03*
X110830000Y-100230000D03*
X113370000Y-100230000D03*
X143850000Y-100230000D03*
X141310000Y-100230000D03*
X138770000Y-100230000D03*
X136230000Y-100230000D03*
X133690000Y-100230000D03*
X131150000Y-100230000D03*
X128610000Y-100230000D03*
X126070000Y-100230000D03*
X123530000Y-100230000D03*
X120990000Y-100230000D03*
X118450000Y-100230000D03*
X115910000Y-100230000D03*
X143850000Y-79910000D03*
X141310000Y-79910000D03*
X138770000Y-79910000D03*
X136230000Y-79910000D03*
X133690000Y-79910000D03*
X131150000Y-79910000D03*
X128610000Y-79910000D03*
X126070000Y-79910000D03*
X123530000Y-79910000D03*
X120990000Y-79910000D03*
X118450000Y-79910000D03*
X115910000Y-79910000D03*
X108230000Y-95030000D03*
X110770000Y-95030000D03*
X113310000Y-95030000D03*
X118390000Y-95030000D03*
X110770000Y-92490000D03*
X113310000Y-92490000D03*
X115850000Y-92490000D03*
X118390000Y-92490000D03*
X118376700Y-85178900D03*
X115836700Y-85178900D03*
D11*
X102235000Y-81280000D03*
X102235000Y-99060000D03*
D12*
X118554500Y-87833200D03*
X116014500Y-87833200D03*
X113474500Y-87833200D03*
X110934500Y-87833200D03*
X108394500Y-87833200D03*
D10*
X101200000Y-95070000D03*
X101200000Y-92530000D03*
D12*
X101200000Y-84720000D03*
X101200000Y-87260000D03*
X101200000Y-89800000D03*
X105156000Y-94996000D03*
X105156000Y-92456000D03*
X105156000Y-89916000D03*
D13*
X107920000Y-85160000D03*
X105810000Y-85290000D03*
X102765167Y-89810365D03*
X103220000Y-92870000D03*
X104860000Y-98960000D03*
X107004999Y-98960000D03*
X113230000Y-81680000D03*
X123300000Y-85000000D03*
X106370000Y-93510000D03*
X108120000Y-93450000D03*
X126613597Y-97476403D03*
X139740000Y-97390000D03*
X122931893Y-93794699D03*
X111910000Y-90985000D03*
X103540000Y-94040000D03*
X104520000Y-97200000D03*
X110520000Y-97220000D03*
X115260000Y-96800000D03*
X117300000Y-97410000D03*
X119507347Y-98912653D03*
X106379299Y-89950000D03*
X107829299Y-89910000D03*
X120110000Y-92640000D03*
X121554764Y-94526430D03*
X122364500Y-87122000D03*
X122364500Y-87122000D03*
X110520000Y-98550000D03*
X112880000Y-98311000D03*
X103505000Y-88900000D03*
X121544997Y-91114999D03*
X127650000Y-92800000D03*
X127650000Y-94900000D03*
X129850000Y-96550000D03*
X135900000Y-96350000D03*
X129800000Y-92100000D03*
X131800000Y-90600000D03*
X133750000Y-92900000D03*
X133750000Y-94850000D03*
X132300000Y-92900000D03*
X131200000Y-95900000D03*
X116091723Y-81550000D03*
X117320000Y-81740000D03*
X122850000Y-89550000D03*
X131150000Y-89400000D03*
X131150000Y-87400000D03*
X118910000Y-97290000D03*
X119845875Y-95561201D03*
X120724834Y-95084301D03*
X127250000Y-85100000D03*
X113250000Y-80050000D03*
X129600000Y-86100000D03*
X123400000Y-87500000D03*
X114000000Y-97525000D03*
X114335059Y-99036000D03*
D14*
X105940000Y-85160000D02*
X105810000Y-85290000D01*
X107920000Y-85160000D02*
X105940000Y-85160000D01*
X103220000Y-90265198D02*
X103220000Y-92870000D01*
X102765167Y-89810365D02*
X103220000Y-90265198D01*
X107004999Y-98960000D02*
X108295000Y-100250001D01*
X104860000Y-98960000D02*
X107004999Y-98960000D01*
X123302289Y-82979789D02*
X114529789Y-82979789D01*
X114529789Y-82979789D02*
X113230000Y-81680000D01*
X123302289Y-84997711D02*
X123300000Y-85000000D01*
X123302289Y-82979789D02*
X123302289Y-84997711D01*
X108060000Y-93510000D02*
X108120000Y-93450000D01*
X106370000Y-93510000D02*
X108060000Y-93510000D01*
X139653597Y-97476403D02*
X139740000Y-97390000D01*
X126613597Y-97476403D02*
X139653597Y-97476403D01*
X112179699Y-91254699D02*
X111910000Y-90985000D01*
X119797701Y-91254699D02*
X112179699Y-91254699D01*
X122337701Y-93794699D02*
X119797701Y-91254699D01*
X122931893Y-93794699D02*
X122337701Y-93794699D01*
X105124000Y-92456000D02*
X103540000Y-94040000D01*
X105156000Y-92456000D02*
X105124000Y-92456000D01*
X110500000Y-97200000D02*
X110520000Y-97220000D01*
X104520000Y-97200000D02*
X110500000Y-97200000D01*
X116690000Y-96800000D02*
X117300000Y-97410000D01*
X115260000Y-96800000D02*
X116690000Y-96800000D01*
X137437652Y-98912653D02*
X119507347Y-98912653D01*
X138775000Y-100250001D02*
X137437652Y-98912653D01*
X107789299Y-89950000D02*
X107829299Y-89910000D01*
X106379299Y-89950000D02*
X107789299Y-89950000D01*
X120110000Y-93081666D02*
X121554764Y-94526430D01*
X120110000Y-92640000D02*
X120110000Y-93081666D01*
X102165199Y-85685199D02*
X101200000Y-84720000D01*
X120707869Y-86542999D02*
X103022999Y-86542999D01*
X103022999Y-86542999D02*
X102165199Y-85685199D01*
X121286870Y-87122000D02*
X120707869Y-86542999D01*
X122364500Y-87122000D02*
X121286870Y-87122000D01*
X100234801Y-86294801D02*
X101200000Y-87260000D01*
X99909799Y-85969799D02*
X100234801Y-86294801D01*
X100580703Y-83429799D02*
X99909799Y-84100703D01*
X118424321Y-83429799D02*
X100580703Y-83429799D01*
X99909799Y-84100703D02*
X99909799Y-85969799D01*
X120756143Y-85761621D02*
X118424321Y-83429799D01*
X122612883Y-85761621D02*
X120756143Y-85761621D01*
X101740000Y-91050000D02*
X101600000Y-90910000D01*
X102414001Y-91894001D02*
X101740000Y-91220000D01*
X104536703Y-96286201D02*
X102414001Y-94163499D01*
X108735921Y-96286201D02*
X104536703Y-96286201D01*
X109430701Y-95591421D02*
X108735921Y-96286201D01*
X101740000Y-91220000D02*
X101740000Y-91050000D01*
X102414001Y-94163499D02*
X102414001Y-91894001D01*
X101600000Y-90200000D02*
X101200000Y-89800000D01*
X101600000Y-90910000D02*
X101600000Y-90200000D01*
X109430701Y-94433979D02*
X109444001Y-94447279D01*
X119296998Y-90260000D02*
X111168678Y-90260000D01*
X119671999Y-90635001D02*
X119296998Y-90260000D01*
X111168678Y-90260000D02*
X109430701Y-91997977D01*
X121064999Y-90635001D02*
X119671999Y-90635001D01*
X121544997Y-91114999D02*
X121064999Y-90635001D01*
X109444001Y-94447279D02*
X109444001Y-95591421D01*
X109430701Y-91997977D02*
X109430701Y-94433979D01*
X104310000Y-98180000D02*
X101200000Y-95070000D01*
X123090000Y-98180000D02*
X115020000Y-98150000D01*
X124518598Y-96751402D02*
X123090000Y-98180000D01*
X127033599Y-96751402D02*
X124518598Y-96751402D01*
X143855000Y-79930001D02*
X127033599Y-96751402D01*
X110150000Y-98180000D02*
X110520000Y-98550000D01*
X104310000Y-98180000D02*
X110150000Y-98180000D01*
X114859000Y-98311000D02*
X115020000Y-98150000D01*
X112880000Y-98311000D02*
X114859000Y-98311000D01*
X140426001Y-80819000D02*
X141315000Y-79930001D01*
X119173797Y-89123401D02*
X120032198Y-88265000D01*
X107775203Y-89123401D02*
X119173797Y-89123401D01*
X104536703Y-88625799D02*
X107277601Y-88625799D01*
X104262502Y-88900000D02*
X104536703Y-88625799D01*
X132980001Y-88265000D02*
X140426001Y-80819000D01*
X107277601Y-88625799D02*
X107775203Y-89123401D01*
X120032198Y-88265000D02*
X132980001Y-88265000D01*
X103505000Y-88900000D02*
X104262502Y-88900000D01*
X127650000Y-92800000D02*
X127650000Y-94900000D01*
X135300001Y-96949999D02*
X135900000Y-96350000D01*
X130249999Y-96949999D02*
X135300001Y-96949999D01*
X129850000Y-96550000D02*
X130249999Y-96949999D01*
X131300000Y-90600000D02*
X131800000Y-90600000D01*
X129800000Y-92100000D02*
X131300000Y-90600000D01*
X133750000Y-92900000D02*
X133750000Y-94850000D01*
X131200000Y-94000000D02*
X131200000Y-95900000D01*
X132300000Y-92900000D02*
X131200000Y-94000000D01*
X116091723Y-81550000D02*
X117011723Y-80630000D01*
X117358277Y-80630000D02*
X117872279Y-81144002D01*
X117872279Y-81144002D02*
X119015998Y-81144002D01*
X117011723Y-80630000D02*
X117358277Y-80630000D01*
X119300000Y-80860000D02*
X119440000Y-80860000D01*
X119015998Y-81144002D02*
X119300000Y-80860000D01*
X119724002Y-81144002D02*
X126554002Y-81144002D01*
X119440000Y-80860000D02*
X119724002Y-81144002D01*
X126554002Y-81144002D02*
X126937500Y-81527500D01*
X127017500Y-81527500D02*
X128615000Y-79930001D01*
X126937500Y-81527500D02*
X127017500Y-81527500D01*
X126995004Y-81549997D02*
X127017500Y-81527500D01*
X129084400Y-82000601D02*
X118289399Y-82000601D01*
X131155000Y-79930001D02*
X129084400Y-82000601D01*
X117580601Y-82000601D02*
X117320000Y-81740000D01*
X118289399Y-82000601D02*
X117580601Y-82000601D01*
X136462348Y-80157349D02*
X136235000Y-79930001D01*
X131000000Y-89550000D02*
X131150000Y-89400000D01*
X122850000Y-89550000D02*
X131000000Y-89550000D01*
X136235000Y-82315000D02*
X131150000Y-87400000D01*
X136235000Y-79930001D02*
X136235000Y-82315000D01*
X117050701Y-95430701D02*
X118910000Y-97290000D01*
X117050701Y-94425979D02*
X117050701Y-95430701D01*
X116419421Y-93794699D02*
X117050701Y-94425979D01*
X114622699Y-93794699D02*
X116419421Y-93794699D01*
X113296700Y-92468700D02*
X114622699Y-93794699D01*
X119845875Y-94681153D02*
X119845875Y-95561201D01*
X118959421Y-93794699D02*
X119845875Y-94681153D01*
X115836700Y-92468700D02*
X117162699Y-93794699D01*
X117162699Y-93794699D02*
X118959421Y-93794699D01*
X120724834Y-94816834D02*
X120724834Y-95084301D01*
X118376700Y-92468700D02*
X120724834Y-94816834D01*
X124679779Y-82529779D02*
X115879779Y-82529779D01*
X127250000Y-85100000D02*
X124679779Y-82529779D01*
X115729779Y-82529779D02*
X113250000Y-80050000D01*
X115879779Y-82529779D02*
X115729779Y-82529779D01*
X123400000Y-86548738D02*
X123400000Y-87500000D01*
X122612883Y-85761621D02*
X123400000Y-86548738D01*
X111984001Y-95509001D02*
X114000000Y-97525000D01*
X111984001Y-93704001D02*
X111984001Y-95509001D01*
X110770000Y-92490000D02*
X111984001Y-93704001D01*
X117561001Y-99341001D02*
X118450000Y-100230000D01*
X114900744Y-99036000D02*
X114920745Y-99015999D01*
X117235999Y-99015999D02*
X117561001Y-99341001D01*
X114920745Y-99015999D02*
X117235999Y-99015999D01*
X114335059Y-99036000D02*
X114900744Y-99036000D01*
M02*
