M48
; DRILL file {KiCad (5.1.4-0-10_14)} date 2019 November 15, Friday 10:31:33
; FORMAT={-:-/ absolute / inch / decimal}
; #@! TF.CreationDate,2019-11-15T10:31:33+01:00
; #@! TF.GenerationSoftware,Kicad,Pcbnew,(5.1.4-0-10_14)
FMAT,2
INCH
T1C0.0157
T2C0.0300
T3C0.0394
T4C0.0984
%
G90
G05
T1
X4.0459Y-3.5358
X4.0638Y-3.6563
X4.075Y-3.5
X4.0764Y-3.7024
X4.115Y-3.8268
X4.1283Y-3.8961
X4.1657Y-3.3579
X4.1878Y-3.6815
X4.1882Y-3.5413
X4.2128Y-3.8961
X4.2452Y-3.5398
X4.2488Y-3.3528
X4.2567Y-3.6791
X4.3512Y-3.8276
X4.3512Y-3.8799
X4.4059Y-3.5821
X4.4362Y-3.1567
X4.4441Y-3.8705
X4.4579Y-3.2157
X4.5378Y-3.811
X4.5705Y-3.2106
X4.6181Y-3.835
X4.6189Y-3.2181
X4.6815Y-3.8303
X4.705Y-3.8942
X4.7183Y-3.7623
X4.7252Y-3.5398
X4.7287Y-3.6472
X4.7529Y-3.7435
X4.7856Y-3.7215
X4.8398Y-3.6927
X4.9848Y-3.8377
X4.9925Y-3.7039
X5.0878Y-3.6524
X5.3725Y-3.2975
X5.5016Y-3.8343
T2
X4.8175Y-3.33
X4.8175Y-3.43
X4.8175Y-3.53
X4.8175Y-3.63
X4.9175Y-3.33
X4.9175Y-3.43
X4.9175Y-3.53
X4.9175Y-3.63
T3
X4.361Y-3.6413
X4.461Y-3.6413
X4.461Y-3.7413
X4.561Y-3.6413
X4.661Y-3.6413
X4.661Y-3.7413
X3.9843Y-3.4354
X3.9843Y-3.5354
X4.261Y-3.7413
X4.361Y-3.7413
X3.9843Y-3.3354
X4.1636Y-3.9469
X4.2636Y-3.9469
X4.3636Y-3.9469
X4.4636Y-3.9469
X4.5636Y-3.1469
X4.5636Y-3.9469
X4.6636Y-3.1469
X4.6636Y-3.9469
X4.7636Y-3.1469
X4.7636Y-3.9469
X4.8636Y-3.1469
X4.8636Y-3.9469
X4.9636Y-3.1469
X4.9636Y-3.9469
X5.0636Y-3.1469
X5.0636Y-3.9469
X5.1636Y-3.1469
X5.1636Y-3.9469
X5.2636Y-3.1469
X5.2636Y-3.9469
X5.3636Y-3.1469
X5.3636Y-3.9469
X5.4636Y-3.1469
X5.4636Y-3.9469
X5.5636Y-3.1469
X5.5636Y-3.9469
X5.6636Y-3.1469
X4.2675Y-3.458
X4.3675Y-3.458
X4.4675Y-3.458
X4.5675Y-3.458
X4.6675Y-3.458
X5.6636Y-3.9469
X4.14Y-3.54
X4.14Y-3.64
X4.14Y-3.74
X3.9843Y-3.6429
X3.9843Y-3.7429
X4.5605Y-3.3535
X4.6605Y-3.3535
T4
X4.025Y-3.9
X4.025Y-3.2
T0
M30
