G04 #@! TF.GenerationSoftware,KiCad,Pcbnew,(5.1.4-0-10_14)*
G04 #@! TF.CreationDate,2019-11-15T13:24:20+01:00*
G04 #@! TF.ProjectId,FeatherWing nRF24L01 Adapter,46656174-6865-4725-9769-6e67206e5246,rev?*
G04 #@! TF.SameCoordinates,Original*
G04 #@! TF.FileFunction,Copper,L1,Top*
G04 #@! TF.FilePolarity,Positive*
%FSLAX46Y46*%
G04 Gerber Fmt 4.6, Leading zero omitted, Abs format (unit mm)*
G04 Created by KiCad (PCBNEW (5.1.4-0-10_14)) date 2019-11-15 13:24:20*
%MOMM*%
%LPD*%
G04 APERTURE LIST*
%ADD10C,2.000000*%
%ADD11C,0.100000*%
%ADD12C,0.900000*%
%ADD13C,1.778000*%
%ADD14C,3.200000*%
%ADD15R,0.900000X0.900000*%
%ADD16C,1.930400*%
%ADD17C,1.000000*%
%ADD18R,1.500000X1.240000*%
%ADD19C,0.800000*%
%ADD20C,0.250000*%
G04 APERTURE END LIST*
D10*
X137700000Y-83250000D03*
X141200000Y-96050000D03*
D11*
G36*
X125847054Y-93491083D02*
G01*
X125868895Y-93494323D01*
X125890314Y-93499688D01*
X125911104Y-93507127D01*
X125931064Y-93516568D01*
X125950003Y-93527919D01*
X125967738Y-93541073D01*
X125984099Y-93555901D01*
X125998927Y-93572262D01*
X126012081Y-93589997D01*
X126023432Y-93608936D01*
X126032873Y-93628896D01*
X126040312Y-93649686D01*
X126045677Y-93671105D01*
X126048917Y-93692946D01*
X126050000Y-93715000D01*
X126050000Y-94165000D01*
X126048917Y-94187054D01*
X126045677Y-94208895D01*
X126040312Y-94230314D01*
X126032873Y-94251104D01*
X126023432Y-94271064D01*
X126012081Y-94290003D01*
X125998927Y-94307738D01*
X125984099Y-94324099D01*
X125967738Y-94338927D01*
X125950003Y-94352081D01*
X125931064Y-94363432D01*
X125911104Y-94372873D01*
X125890314Y-94380312D01*
X125868895Y-94385677D01*
X125847054Y-94388917D01*
X125825000Y-94390000D01*
X124375000Y-94390000D01*
X124352946Y-94388917D01*
X124331105Y-94385677D01*
X124309686Y-94380312D01*
X124288896Y-94372873D01*
X124268936Y-94363432D01*
X124249997Y-94352081D01*
X124232262Y-94338927D01*
X124215901Y-94324099D01*
X124201073Y-94307738D01*
X124187919Y-94290003D01*
X124176568Y-94271064D01*
X124167127Y-94251104D01*
X124159688Y-94230314D01*
X124154323Y-94208895D01*
X124151083Y-94187054D01*
X124150000Y-94165000D01*
X124150000Y-93715000D01*
X124151083Y-93692946D01*
X124154323Y-93671105D01*
X124159688Y-93649686D01*
X124167127Y-93628896D01*
X124176568Y-93608936D01*
X124187919Y-93589997D01*
X124201073Y-93572262D01*
X124215901Y-93555901D01*
X124232262Y-93541073D01*
X124249997Y-93527919D01*
X124268936Y-93516568D01*
X124288896Y-93507127D01*
X124309686Y-93499688D01*
X124331105Y-93494323D01*
X124352946Y-93491083D01*
X124375000Y-93490000D01*
X125825000Y-93490000D01*
X125847054Y-93491083D01*
X125847054Y-93491083D01*
G37*
D12*
X125100000Y-93940000D03*
D11*
G36*
X125847054Y-92221083D02*
G01*
X125868895Y-92224323D01*
X125890314Y-92229688D01*
X125911104Y-92237127D01*
X125931064Y-92246568D01*
X125950003Y-92257919D01*
X125967738Y-92271073D01*
X125984099Y-92285901D01*
X125998927Y-92302262D01*
X126012081Y-92319997D01*
X126023432Y-92338936D01*
X126032873Y-92358896D01*
X126040312Y-92379686D01*
X126045677Y-92401105D01*
X126048917Y-92422946D01*
X126050000Y-92445000D01*
X126050000Y-92895000D01*
X126048917Y-92917054D01*
X126045677Y-92938895D01*
X126040312Y-92960314D01*
X126032873Y-92981104D01*
X126023432Y-93001064D01*
X126012081Y-93020003D01*
X125998927Y-93037738D01*
X125984099Y-93054099D01*
X125967738Y-93068927D01*
X125950003Y-93082081D01*
X125931064Y-93093432D01*
X125911104Y-93102873D01*
X125890314Y-93110312D01*
X125868895Y-93115677D01*
X125847054Y-93118917D01*
X125825000Y-93120000D01*
X124375000Y-93120000D01*
X124352946Y-93118917D01*
X124331105Y-93115677D01*
X124309686Y-93110312D01*
X124288896Y-93102873D01*
X124268936Y-93093432D01*
X124249997Y-93082081D01*
X124232262Y-93068927D01*
X124215901Y-93054099D01*
X124201073Y-93037738D01*
X124187919Y-93020003D01*
X124176568Y-93001064D01*
X124167127Y-92981104D01*
X124159688Y-92960314D01*
X124154323Y-92938895D01*
X124151083Y-92917054D01*
X124150000Y-92895000D01*
X124150000Y-92445000D01*
X124151083Y-92422946D01*
X124154323Y-92401105D01*
X124159688Y-92379686D01*
X124167127Y-92358896D01*
X124176568Y-92338936D01*
X124187919Y-92319997D01*
X124201073Y-92302262D01*
X124215901Y-92285901D01*
X124232262Y-92271073D01*
X124249997Y-92257919D01*
X124268936Y-92246568D01*
X124288896Y-92237127D01*
X124309686Y-92229688D01*
X124331105Y-92224323D01*
X124352946Y-92221083D01*
X124375000Y-92220000D01*
X125825000Y-92220000D01*
X125847054Y-92221083D01*
X125847054Y-92221083D01*
G37*
D12*
X125100000Y-92670000D03*
D11*
G36*
X125847054Y-90951083D02*
G01*
X125868895Y-90954323D01*
X125890314Y-90959688D01*
X125911104Y-90967127D01*
X125931064Y-90976568D01*
X125950003Y-90987919D01*
X125967738Y-91001073D01*
X125984099Y-91015901D01*
X125998927Y-91032262D01*
X126012081Y-91049997D01*
X126023432Y-91068936D01*
X126032873Y-91088896D01*
X126040312Y-91109686D01*
X126045677Y-91131105D01*
X126048917Y-91152946D01*
X126050000Y-91175000D01*
X126050000Y-91625000D01*
X126048917Y-91647054D01*
X126045677Y-91668895D01*
X126040312Y-91690314D01*
X126032873Y-91711104D01*
X126023432Y-91731064D01*
X126012081Y-91750003D01*
X125998927Y-91767738D01*
X125984099Y-91784099D01*
X125967738Y-91798927D01*
X125950003Y-91812081D01*
X125931064Y-91823432D01*
X125911104Y-91832873D01*
X125890314Y-91840312D01*
X125868895Y-91845677D01*
X125847054Y-91848917D01*
X125825000Y-91850000D01*
X124375000Y-91850000D01*
X124352946Y-91848917D01*
X124331105Y-91845677D01*
X124309686Y-91840312D01*
X124288896Y-91832873D01*
X124268936Y-91823432D01*
X124249997Y-91812081D01*
X124232262Y-91798927D01*
X124215901Y-91784099D01*
X124201073Y-91767738D01*
X124187919Y-91750003D01*
X124176568Y-91731064D01*
X124167127Y-91711104D01*
X124159688Y-91690314D01*
X124154323Y-91668895D01*
X124151083Y-91647054D01*
X124150000Y-91625000D01*
X124150000Y-91175000D01*
X124151083Y-91152946D01*
X124154323Y-91131105D01*
X124159688Y-91109686D01*
X124167127Y-91088896D01*
X124176568Y-91068936D01*
X124187919Y-91049997D01*
X124201073Y-91032262D01*
X124215901Y-91015901D01*
X124232262Y-91001073D01*
X124249997Y-90987919D01*
X124268936Y-90976568D01*
X124288896Y-90967127D01*
X124309686Y-90959688D01*
X124331105Y-90954323D01*
X124352946Y-90951083D01*
X124375000Y-90950000D01*
X125825000Y-90950000D01*
X125847054Y-90951083D01*
X125847054Y-90951083D01*
G37*
D12*
X125100000Y-91400000D03*
D11*
G36*
X125847054Y-89681083D02*
G01*
X125868895Y-89684323D01*
X125890314Y-89689688D01*
X125911104Y-89697127D01*
X125931064Y-89706568D01*
X125950003Y-89717919D01*
X125967738Y-89731073D01*
X125984099Y-89745901D01*
X125998927Y-89762262D01*
X126012081Y-89779997D01*
X126023432Y-89798936D01*
X126032873Y-89818896D01*
X126040312Y-89839686D01*
X126045677Y-89861105D01*
X126048917Y-89882946D01*
X126050000Y-89905000D01*
X126050000Y-90355000D01*
X126048917Y-90377054D01*
X126045677Y-90398895D01*
X126040312Y-90420314D01*
X126032873Y-90441104D01*
X126023432Y-90461064D01*
X126012081Y-90480003D01*
X125998927Y-90497738D01*
X125984099Y-90514099D01*
X125967738Y-90528927D01*
X125950003Y-90542081D01*
X125931064Y-90553432D01*
X125911104Y-90562873D01*
X125890314Y-90570312D01*
X125868895Y-90575677D01*
X125847054Y-90578917D01*
X125825000Y-90580000D01*
X124375000Y-90580000D01*
X124352946Y-90578917D01*
X124331105Y-90575677D01*
X124309686Y-90570312D01*
X124288896Y-90562873D01*
X124268936Y-90553432D01*
X124249997Y-90542081D01*
X124232262Y-90528927D01*
X124215901Y-90514099D01*
X124201073Y-90497738D01*
X124187919Y-90480003D01*
X124176568Y-90461064D01*
X124167127Y-90441104D01*
X124159688Y-90420314D01*
X124154323Y-90398895D01*
X124151083Y-90377054D01*
X124150000Y-90355000D01*
X124150000Y-89905000D01*
X124151083Y-89882946D01*
X124154323Y-89861105D01*
X124159688Y-89839686D01*
X124167127Y-89818896D01*
X124176568Y-89798936D01*
X124187919Y-89779997D01*
X124201073Y-89762262D01*
X124215901Y-89745901D01*
X124232262Y-89731073D01*
X124249997Y-89717919D01*
X124268936Y-89706568D01*
X124288896Y-89697127D01*
X124309686Y-89689688D01*
X124331105Y-89684323D01*
X124352946Y-89681083D01*
X124375000Y-89680000D01*
X125825000Y-89680000D01*
X125847054Y-89681083D01*
X125847054Y-89681083D01*
G37*
D12*
X125100000Y-90130000D03*
D11*
G36*
X125847054Y-88411083D02*
G01*
X125868895Y-88414323D01*
X125890314Y-88419688D01*
X125911104Y-88427127D01*
X125931064Y-88436568D01*
X125950003Y-88447919D01*
X125967738Y-88461073D01*
X125984099Y-88475901D01*
X125998927Y-88492262D01*
X126012081Y-88509997D01*
X126023432Y-88528936D01*
X126032873Y-88548896D01*
X126040312Y-88569686D01*
X126045677Y-88591105D01*
X126048917Y-88612946D01*
X126050000Y-88635000D01*
X126050000Y-89085000D01*
X126048917Y-89107054D01*
X126045677Y-89128895D01*
X126040312Y-89150314D01*
X126032873Y-89171104D01*
X126023432Y-89191064D01*
X126012081Y-89210003D01*
X125998927Y-89227738D01*
X125984099Y-89244099D01*
X125967738Y-89258927D01*
X125950003Y-89272081D01*
X125931064Y-89283432D01*
X125911104Y-89292873D01*
X125890314Y-89300312D01*
X125868895Y-89305677D01*
X125847054Y-89308917D01*
X125825000Y-89310000D01*
X124375000Y-89310000D01*
X124352946Y-89308917D01*
X124331105Y-89305677D01*
X124309686Y-89300312D01*
X124288896Y-89292873D01*
X124268936Y-89283432D01*
X124249997Y-89272081D01*
X124232262Y-89258927D01*
X124215901Y-89244099D01*
X124201073Y-89227738D01*
X124187919Y-89210003D01*
X124176568Y-89191064D01*
X124167127Y-89171104D01*
X124159688Y-89150314D01*
X124154323Y-89128895D01*
X124151083Y-89107054D01*
X124150000Y-89085000D01*
X124150000Y-88635000D01*
X124151083Y-88612946D01*
X124154323Y-88591105D01*
X124159688Y-88569686D01*
X124167127Y-88548896D01*
X124176568Y-88528936D01*
X124187919Y-88509997D01*
X124201073Y-88492262D01*
X124215901Y-88475901D01*
X124232262Y-88461073D01*
X124249997Y-88447919D01*
X124268936Y-88436568D01*
X124288896Y-88427127D01*
X124309686Y-88419688D01*
X124331105Y-88414323D01*
X124352946Y-88411083D01*
X124375000Y-88410000D01*
X125825000Y-88410000D01*
X125847054Y-88411083D01*
X125847054Y-88411083D01*
G37*
D12*
X125100000Y-88860000D03*
D11*
G36*
X125847054Y-87141083D02*
G01*
X125868895Y-87144323D01*
X125890314Y-87149688D01*
X125911104Y-87157127D01*
X125931064Y-87166568D01*
X125950003Y-87177919D01*
X125967738Y-87191073D01*
X125984099Y-87205901D01*
X125998927Y-87222262D01*
X126012081Y-87239997D01*
X126023432Y-87258936D01*
X126032873Y-87278896D01*
X126040312Y-87299686D01*
X126045677Y-87321105D01*
X126048917Y-87342946D01*
X126050000Y-87365000D01*
X126050000Y-87815000D01*
X126048917Y-87837054D01*
X126045677Y-87858895D01*
X126040312Y-87880314D01*
X126032873Y-87901104D01*
X126023432Y-87921064D01*
X126012081Y-87940003D01*
X125998927Y-87957738D01*
X125984099Y-87974099D01*
X125967738Y-87988927D01*
X125950003Y-88002081D01*
X125931064Y-88013432D01*
X125911104Y-88022873D01*
X125890314Y-88030312D01*
X125868895Y-88035677D01*
X125847054Y-88038917D01*
X125825000Y-88040000D01*
X124375000Y-88040000D01*
X124352946Y-88038917D01*
X124331105Y-88035677D01*
X124309686Y-88030312D01*
X124288896Y-88022873D01*
X124268936Y-88013432D01*
X124249997Y-88002081D01*
X124232262Y-87988927D01*
X124215901Y-87974099D01*
X124201073Y-87957738D01*
X124187919Y-87940003D01*
X124176568Y-87921064D01*
X124167127Y-87901104D01*
X124159688Y-87880314D01*
X124154323Y-87858895D01*
X124151083Y-87837054D01*
X124150000Y-87815000D01*
X124150000Y-87365000D01*
X124151083Y-87342946D01*
X124154323Y-87321105D01*
X124159688Y-87299686D01*
X124167127Y-87278896D01*
X124176568Y-87258936D01*
X124187919Y-87239997D01*
X124201073Y-87222262D01*
X124215901Y-87205901D01*
X124232262Y-87191073D01*
X124249997Y-87177919D01*
X124268936Y-87166568D01*
X124288896Y-87157127D01*
X124309686Y-87149688D01*
X124331105Y-87144323D01*
X124352946Y-87141083D01*
X124375000Y-87140000D01*
X125825000Y-87140000D01*
X125847054Y-87141083D01*
X125847054Y-87141083D01*
G37*
D12*
X125100000Y-87590000D03*
D11*
G36*
X125847054Y-85871083D02*
G01*
X125868895Y-85874323D01*
X125890314Y-85879688D01*
X125911104Y-85887127D01*
X125931064Y-85896568D01*
X125950003Y-85907919D01*
X125967738Y-85921073D01*
X125984099Y-85935901D01*
X125998927Y-85952262D01*
X126012081Y-85969997D01*
X126023432Y-85988936D01*
X126032873Y-86008896D01*
X126040312Y-86029686D01*
X126045677Y-86051105D01*
X126048917Y-86072946D01*
X126050000Y-86095000D01*
X126050000Y-86545000D01*
X126048917Y-86567054D01*
X126045677Y-86588895D01*
X126040312Y-86610314D01*
X126032873Y-86631104D01*
X126023432Y-86651064D01*
X126012081Y-86670003D01*
X125998927Y-86687738D01*
X125984099Y-86704099D01*
X125967738Y-86718927D01*
X125950003Y-86732081D01*
X125931064Y-86743432D01*
X125911104Y-86752873D01*
X125890314Y-86760312D01*
X125868895Y-86765677D01*
X125847054Y-86768917D01*
X125825000Y-86770000D01*
X124375000Y-86770000D01*
X124352946Y-86768917D01*
X124331105Y-86765677D01*
X124309686Y-86760312D01*
X124288896Y-86752873D01*
X124268936Y-86743432D01*
X124249997Y-86732081D01*
X124232262Y-86718927D01*
X124215901Y-86704099D01*
X124201073Y-86687738D01*
X124187919Y-86670003D01*
X124176568Y-86651064D01*
X124167127Y-86631104D01*
X124159688Y-86610314D01*
X124154323Y-86588895D01*
X124151083Y-86567054D01*
X124150000Y-86545000D01*
X124150000Y-86095000D01*
X124151083Y-86072946D01*
X124154323Y-86051105D01*
X124159688Y-86029686D01*
X124167127Y-86008896D01*
X124176568Y-85988936D01*
X124187919Y-85969997D01*
X124201073Y-85952262D01*
X124215901Y-85935901D01*
X124232262Y-85921073D01*
X124249997Y-85907919D01*
X124268936Y-85896568D01*
X124288896Y-85887127D01*
X124309686Y-85879688D01*
X124331105Y-85874323D01*
X124352946Y-85871083D01*
X124375000Y-85870000D01*
X125825000Y-85870000D01*
X125847054Y-85871083D01*
X125847054Y-85871083D01*
G37*
D12*
X125100000Y-86320000D03*
D11*
G36*
X125847054Y-84601083D02*
G01*
X125868895Y-84604323D01*
X125890314Y-84609688D01*
X125911104Y-84617127D01*
X125931064Y-84626568D01*
X125950003Y-84637919D01*
X125967738Y-84651073D01*
X125984099Y-84665901D01*
X125998927Y-84682262D01*
X126012081Y-84699997D01*
X126023432Y-84718936D01*
X126032873Y-84738896D01*
X126040312Y-84759686D01*
X126045677Y-84781105D01*
X126048917Y-84802946D01*
X126050000Y-84825000D01*
X126050000Y-85275000D01*
X126048917Y-85297054D01*
X126045677Y-85318895D01*
X126040312Y-85340314D01*
X126032873Y-85361104D01*
X126023432Y-85381064D01*
X126012081Y-85400003D01*
X125998927Y-85417738D01*
X125984099Y-85434099D01*
X125967738Y-85448927D01*
X125950003Y-85462081D01*
X125931064Y-85473432D01*
X125911104Y-85482873D01*
X125890314Y-85490312D01*
X125868895Y-85495677D01*
X125847054Y-85498917D01*
X125825000Y-85500000D01*
X124375000Y-85500000D01*
X124352946Y-85498917D01*
X124331105Y-85495677D01*
X124309686Y-85490312D01*
X124288896Y-85482873D01*
X124268936Y-85473432D01*
X124249997Y-85462081D01*
X124232262Y-85448927D01*
X124215901Y-85434099D01*
X124201073Y-85417738D01*
X124187919Y-85400003D01*
X124176568Y-85381064D01*
X124167127Y-85361104D01*
X124159688Y-85340314D01*
X124154323Y-85318895D01*
X124151083Y-85297054D01*
X124150000Y-85275000D01*
X124150000Y-84825000D01*
X124151083Y-84802946D01*
X124154323Y-84781105D01*
X124159688Y-84759686D01*
X124167127Y-84738896D01*
X124176568Y-84718936D01*
X124187919Y-84699997D01*
X124201073Y-84682262D01*
X124215901Y-84665901D01*
X124232262Y-84651073D01*
X124249997Y-84637919D01*
X124268936Y-84626568D01*
X124288896Y-84617127D01*
X124309686Y-84609688D01*
X124331105Y-84604323D01*
X124352946Y-84601083D01*
X124375000Y-84600000D01*
X125825000Y-84600000D01*
X125847054Y-84601083D01*
X125847054Y-84601083D01*
G37*
D12*
X125100000Y-85050000D03*
D13*
X105755000Y-100250001D03*
X108295000Y-100250001D03*
X110835000Y-100250001D03*
X113375000Y-100250001D03*
X143855000Y-100250001D03*
X141315000Y-100250001D03*
X138775000Y-100250001D03*
X136235000Y-100250001D03*
X133695000Y-100250001D03*
X131155000Y-100250001D03*
X128615000Y-100250001D03*
X126075000Y-100250001D03*
X123535000Y-100250001D03*
X120995000Y-100250001D03*
X118455000Y-100250001D03*
X115915000Y-100250001D03*
X143855000Y-79930001D03*
X141315000Y-79930001D03*
X138775000Y-79930001D03*
X136235000Y-79930001D03*
X133695000Y-79930001D03*
X131155000Y-79930001D03*
X128615000Y-79930001D03*
X126075000Y-79930001D03*
X123535000Y-79930001D03*
X120995000Y-79930001D03*
X118455000Y-79930001D03*
X115915000Y-79930001D03*
X108230000Y-95030000D03*
X110770000Y-95030000D03*
X113310000Y-95030000D03*
X118390000Y-95030000D03*
X110770000Y-92490000D03*
X113310000Y-92490000D03*
X115850000Y-92490000D03*
X118390000Y-92490000D03*
X118376700Y-85178900D03*
X115836700Y-85178900D03*
D14*
X102235000Y-81280000D03*
X102235000Y-99060000D03*
D15*
X105176100Y-79730700D03*
X105176100Y-81330700D03*
X109276100Y-81330700D03*
X109276100Y-79730700D03*
D16*
X118554500Y-87833200D03*
X116014500Y-87833200D03*
X113474500Y-87833200D03*
X110934500Y-87833200D03*
X108394500Y-87833200D03*
D13*
X101200000Y-95070000D03*
X101200000Y-92530000D03*
D16*
X101200000Y-84720000D03*
X101200000Y-87260000D03*
X101200000Y-89800000D03*
X105156000Y-94996000D03*
X105156000Y-92456000D03*
X105156000Y-89916000D03*
D11*
G36*
X148004010Y-80782407D02*
G01*
X148052546Y-80789606D01*
X148100143Y-80801529D01*
X148146343Y-80818059D01*
X148190699Y-80839038D01*
X148232786Y-80864264D01*
X148272198Y-80893494D01*
X148308554Y-80926446D01*
X148341506Y-80962802D01*
X148370736Y-81002214D01*
X148395962Y-81044301D01*
X148416941Y-81088657D01*
X148433471Y-81134857D01*
X148445394Y-81182454D01*
X148452593Y-81230990D01*
X148455001Y-81279999D01*
X148455001Y-81280001D01*
X148452593Y-81329010D01*
X148445394Y-81377546D01*
X148433471Y-81425143D01*
X148416941Y-81471343D01*
X148395962Y-81515699D01*
X148370736Y-81557786D01*
X148341506Y-81597198D01*
X148308554Y-81633554D01*
X148272198Y-81666506D01*
X148232786Y-81695736D01*
X148190699Y-81720962D01*
X148146343Y-81741941D01*
X148100143Y-81758471D01*
X148052546Y-81770394D01*
X148004010Y-81777593D01*
X147955001Y-81780001D01*
X147954999Y-81780001D01*
X147905990Y-81777593D01*
X147857454Y-81770394D01*
X147809857Y-81758471D01*
X147763657Y-81741941D01*
X147719301Y-81720962D01*
X147677214Y-81695736D01*
X147637802Y-81666506D01*
X147601446Y-81633554D01*
X147568494Y-81597198D01*
X147539264Y-81557786D01*
X147514038Y-81515699D01*
X147493059Y-81471343D01*
X147476529Y-81425143D01*
X147464606Y-81377546D01*
X147457407Y-81329010D01*
X147454999Y-81280001D01*
X147454999Y-81279999D01*
X147457407Y-81230990D01*
X147464606Y-81182454D01*
X147476529Y-81134857D01*
X147493059Y-81088657D01*
X147514038Y-81044301D01*
X147539264Y-81002214D01*
X147568494Y-80962802D01*
X147601446Y-80926446D01*
X147637802Y-80893494D01*
X147677214Y-80864264D01*
X147719301Y-80839038D01*
X147763657Y-80818059D01*
X147809857Y-80801529D01*
X147857454Y-80789606D01*
X147905990Y-80782407D01*
X147954999Y-80779999D01*
X147955001Y-80779999D01*
X148004010Y-80782407D01*
X148004010Y-80782407D01*
G37*
D17*
X147955000Y-81280000D03*
D11*
G36*
X148004010Y-98562407D02*
G01*
X148052546Y-98569606D01*
X148100143Y-98581529D01*
X148146343Y-98598059D01*
X148190699Y-98619038D01*
X148232786Y-98644264D01*
X148272198Y-98673494D01*
X148308554Y-98706446D01*
X148341506Y-98742802D01*
X148370736Y-98782214D01*
X148395962Y-98824301D01*
X148416941Y-98868657D01*
X148433471Y-98914857D01*
X148445394Y-98962454D01*
X148452593Y-99010990D01*
X148455001Y-99059999D01*
X148455001Y-99060001D01*
X148452593Y-99109010D01*
X148445394Y-99157546D01*
X148433471Y-99205143D01*
X148416941Y-99251343D01*
X148395962Y-99295699D01*
X148370736Y-99337786D01*
X148341506Y-99377198D01*
X148308554Y-99413554D01*
X148272198Y-99446506D01*
X148232786Y-99475736D01*
X148190699Y-99500962D01*
X148146343Y-99521941D01*
X148100143Y-99538471D01*
X148052546Y-99550394D01*
X148004010Y-99557593D01*
X147955001Y-99560001D01*
X147954999Y-99560001D01*
X147905990Y-99557593D01*
X147857454Y-99550394D01*
X147809857Y-99538471D01*
X147763657Y-99521941D01*
X147719301Y-99500962D01*
X147677214Y-99475736D01*
X147637802Y-99446506D01*
X147601446Y-99413554D01*
X147568494Y-99377198D01*
X147539264Y-99337786D01*
X147514038Y-99295699D01*
X147493059Y-99251343D01*
X147476529Y-99205143D01*
X147464606Y-99157546D01*
X147457407Y-99109010D01*
X147454999Y-99060001D01*
X147454999Y-99059999D01*
X147457407Y-99010990D01*
X147464606Y-98962454D01*
X147476529Y-98914857D01*
X147493059Y-98868657D01*
X147514038Y-98824301D01*
X147539264Y-98782214D01*
X147568494Y-98742802D01*
X147601446Y-98706446D01*
X147637802Y-98673494D01*
X147677214Y-98644264D01*
X147719301Y-98619038D01*
X147763657Y-98598059D01*
X147809857Y-98581529D01*
X147857454Y-98569606D01*
X147905990Y-98562407D01*
X147954999Y-98559999D01*
X147955001Y-98559999D01*
X148004010Y-98562407D01*
X148004010Y-98562407D01*
G37*
D17*
X147955000Y-99060000D03*
D18*
X111150000Y-81650000D03*
X111150000Y-79750000D03*
D19*
X107920000Y-85160000D03*
X105810000Y-85290000D03*
X102765167Y-89810365D03*
X103220000Y-92870000D03*
X104860000Y-98960000D03*
X107004999Y-98960000D03*
X113230000Y-81680000D03*
X123300000Y-85000000D03*
X106370000Y-93510000D03*
X108120000Y-93450000D03*
X126613597Y-97476403D03*
X139740000Y-97390000D03*
X122931893Y-93794699D03*
X111910000Y-90985000D03*
X103540000Y-94040000D03*
X104520000Y-97200000D03*
X110520000Y-97220000D03*
X115260000Y-96800000D03*
X117300000Y-97410000D03*
X119507347Y-98912653D03*
X106379299Y-89950000D03*
X107829299Y-89910000D03*
X120020000Y-89910000D03*
X120110000Y-92640000D03*
X121554764Y-94526430D03*
X122364500Y-87122000D03*
X122364500Y-87122000D03*
X110520000Y-98550000D03*
X112880000Y-98311000D03*
X103505000Y-88900000D03*
X121544997Y-91114999D03*
X127650000Y-92800000D03*
X127650000Y-94900000D03*
X129850000Y-96550000D03*
X135900000Y-96350000D03*
X129800000Y-92100000D03*
X131800000Y-90600000D03*
X133750000Y-92900000D03*
X133750000Y-94850000D03*
X132300000Y-92900000D03*
X131200000Y-95900000D03*
X116091723Y-81550000D03*
X117320000Y-81740000D03*
X122850000Y-89550000D03*
X131150000Y-89400000D03*
X131150000Y-87400000D03*
X118910000Y-97290000D03*
X119845875Y-95561201D03*
X120724834Y-95084301D03*
X127250000Y-85100000D03*
X129600000Y-86100000D03*
X113250000Y-80050000D03*
X123400000Y-87500000D03*
D20*
X105876100Y-79730700D02*
X109276100Y-79730700D01*
X105176100Y-79730700D02*
X105876100Y-79730700D01*
X107920000Y-85063700D02*
X107920000Y-85160000D01*
X111236300Y-81747400D02*
X107920000Y-85063700D01*
X111366300Y-81747400D02*
X111236300Y-81747400D01*
X102765167Y-88334833D02*
X102765167Y-89810365D01*
X105810000Y-85290000D02*
X102765167Y-88334833D01*
X102814999Y-93275001D02*
X102814999Y-96644999D01*
X103220000Y-92870000D02*
X102814999Y-93275001D01*
X102814999Y-96914999D02*
X104860000Y-98960000D01*
X102814999Y-96644999D02*
X102814999Y-96914999D01*
X110543590Y-95030000D02*
X110770000Y-95030000D01*
X107404998Y-98168592D02*
X110543590Y-95030000D01*
X107404998Y-98560001D02*
X107404998Y-98168592D01*
X107004999Y-98960000D02*
X107404998Y-98560001D01*
X113212600Y-81747400D02*
X111366300Y-81747400D01*
X125050000Y-85000000D02*
X125100000Y-85050000D01*
X123300000Y-85000000D02*
X125050000Y-85000000D01*
X124860999Y-81144002D02*
X125186001Y-80819000D01*
X122957409Y-81144002D02*
X124860999Y-81144002D01*
X119811510Y-84289901D02*
X122957409Y-81144002D01*
X119265699Y-84289901D02*
X119811510Y-84289901D01*
X125186001Y-80819000D02*
X126075000Y-79930001D01*
X118376700Y-85178900D02*
X119265699Y-84289901D01*
X122320999Y-81144002D02*
X122646001Y-80819000D01*
X119871598Y-81144002D02*
X122320999Y-81144002D01*
X122646001Y-80819000D02*
X123535000Y-79930001D01*
X115836700Y-85178900D02*
X119871598Y-81144002D01*
X105156000Y-94724000D02*
X106370000Y-93510000D01*
X105156000Y-94996000D02*
X105156000Y-94724000D01*
X122931893Y-93794699D02*
X126613597Y-97476403D01*
X141315000Y-98992766D02*
X141315000Y-100250001D01*
X140305685Y-97390000D02*
X141315000Y-98399315D01*
X141315000Y-98399315D02*
X141315000Y-98992766D01*
X139740000Y-97390000D02*
X140305685Y-97390000D01*
X108120000Y-92884315D02*
X108120000Y-93450000D01*
X110019315Y-90985000D02*
X108120000Y-92884315D01*
X111910000Y-90985000D02*
X110019315Y-90985000D01*
X103540000Y-96220000D02*
X104520000Y-97200000D01*
X103540000Y-94040000D02*
X103540000Y-96220000D01*
X110940000Y-96800000D02*
X115260000Y-96800000D01*
X110520000Y-97220000D02*
X110940000Y-96800000D01*
X118802653Y-98912653D02*
X119507347Y-98912653D01*
X117300000Y-97410000D02*
X118802653Y-98912653D01*
X106345299Y-89916000D02*
X106379299Y-89950000D01*
X105156000Y-89916000D02*
X106345299Y-89916000D01*
X107829299Y-89910000D02*
X120020000Y-89910000D01*
X120020000Y-92550000D02*
X120110000Y-92640000D01*
X120020000Y-89910000D02*
X120020000Y-92550000D01*
X127726001Y-99361002D02*
X128615000Y-100250001D01*
X126982723Y-99361002D02*
X127726001Y-99361002D01*
X122148151Y-94526430D02*
X126982723Y-99361002D01*
X121554764Y-94526430D02*
X122148151Y-94526430D01*
X124697999Y-86722001D02*
X124959990Y-86460010D01*
X122764499Y-86722001D02*
X124697999Y-86722001D01*
X124959990Y-86460010D02*
X125100000Y-86460010D01*
X122364500Y-87122000D02*
X122764499Y-86722001D01*
X101200000Y-95070000D02*
X101420000Y-95070000D01*
X111150998Y-98311000D02*
X112880000Y-98311000D01*
X110989999Y-98150001D02*
X110919999Y-98150001D01*
X110919999Y-98150001D02*
X110520000Y-98550000D01*
X111150998Y-98311000D02*
X110989999Y-98150001D01*
X103505000Y-90225000D02*
X103505000Y-88900000D01*
X101200000Y-92530000D02*
X103505000Y-90225000D01*
X123099998Y-92670000D02*
X125100000Y-92670000D01*
X121544997Y-91114999D02*
X123099998Y-92670000D01*
X136235000Y-99775000D02*
X136235000Y-100250001D01*
X126250000Y-91400000D02*
X127650000Y-92800000D01*
X125100000Y-91400000D02*
X126250000Y-91400000D01*
X129300000Y-96550000D02*
X129850000Y-96550000D01*
X127650000Y-94900000D02*
X129300000Y-96550000D01*
X135900000Y-99915001D02*
X136235000Y-100250001D01*
X135900000Y-96350000D02*
X135900000Y-99915001D01*
X127830000Y-90130000D02*
X129800000Y-92100000D01*
X125100000Y-90130000D02*
X127830000Y-90130000D01*
X133750000Y-92550000D02*
X133750000Y-92900000D01*
X131800000Y-90600000D02*
X133750000Y-92550000D01*
X133750000Y-100195001D02*
X133695000Y-100250001D01*
X133750000Y-94850000D02*
X133750000Y-100195001D01*
X128260000Y-88860000D02*
X132300000Y-92900000D01*
X125100000Y-88860000D02*
X128260000Y-88860000D01*
X131200000Y-100205001D02*
X131155000Y-100250001D01*
X131200000Y-95900000D02*
X131200000Y-100205001D01*
X105755000Y-97470400D02*
X108216700Y-95008700D01*
X105755000Y-100250001D02*
X105755000Y-97470400D01*
X107104299Y-93896299D02*
X107327701Y-94119701D01*
X107104299Y-84202501D02*
X107104299Y-93896299D01*
X109276100Y-82030700D02*
X107104299Y-84202501D01*
X107327701Y-94119701D02*
X108216700Y-95008700D01*
X109276100Y-81330700D02*
X109276100Y-82030700D01*
X105176100Y-81330700D02*
X109276100Y-81330700D01*
X113296700Y-95008700D02*
X111975400Y-96330000D01*
X111975400Y-96330000D02*
X109880000Y-96330000D01*
X109880000Y-96330000D02*
X109630000Y-96580000D01*
X109630000Y-99045001D02*
X110835000Y-100250001D01*
X109630000Y-96580000D02*
X109630000Y-99045001D01*
X113780000Y-99845001D02*
X113375000Y-100250001D01*
X114677700Y-81550000D02*
X108394500Y-87833200D01*
X115430000Y-81550000D02*
X114677700Y-81550000D01*
X115430000Y-81550000D02*
X116091723Y-81550000D01*
X113735028Y-85483850D02*
X113283850Y-85483850D01*
X110934500Y-87833200D02*
X113283850Y-85483850D01*
X114622699Y-84596179D02*
X113735028Y-85483850D01*
X114622699Y-84437301D02*
X114622699Y-84596179D01*
X117320000Y-81740000D02*
X114622699Y-84437301D01*
X121277499Y-83559999D02*
X121652498Y-83185000D01*
X121277499Y-84074823D02*
X121277499Y-83559999D01*
X118959421Y-86392901D02*
X121277499Y-84074823D01*
X114914799Y-86392901D02*
X118959421Y-86392901D01*
X113474500Y-87833200D02*
X114914799Y-86392901D01*
X130440001Y-83185000D02*
X133695000Y-79930001D01*
X121652498Y-83185000D02*
X130440001Y-83185000D01*
X117304701Y-89123401D02*
X119156599Y-89123401D01*
X116014500Y-87833200D02*
X117304701Y-89123401D01*
X119156599Y-89123401D02*
X119705001Y-88574999D01*
X121874999Y-88574999D02*
X122850000Y-89550000D01*
X119705001Y-88574999D02*
X121874999Y-88574999D01*
X131150000Y-89400000D02*
X131150000Y-87400000D01*
X120377700Y-86010000D02*
X118554500Y-87833200D01*
X138775000Y-79930001D02*
X138060001Y-80645000D01*
X138060001Y-80645000D02*
X137316723Y-80645000D01*
X122112701Y-84274999D02*
X120377700Y-86010000D01*
X133686724Y-84274999D02*
X122112701Y-84274999D01*
X137316723Y-80645000D02*
X133686724Y-84274999D01*
X115915000Y-97470400D02*
X118376700Y-95008700D01*
X115915000Y-100250001D02*
X115915000Y-97470400D01*
X120995000Y-99375000D02*
X120995000Y-100250001D01*
X118910000Y-97290000D02*
X120995000Y-99375000D01*
X120245874Y-96960875D02*
X123535000Y-100250001D01*
X120245874Y-95961200D02*
X120245874Y-96960875D01*
X119845875Y-95561201D02*
X120245874Y-95961200D01*
X125890534Y-100250001D02*
X126075000Y-100250001D01*
X120724834Y-95084301D02*
X125890534Y-100250001D01*
X137700000Y-92550000D02*
X141200000Y-96050000D01*
X137700000Y-83250000D02*
X137700000Y-92550000D01*
X136310000Y-93940000D02*
X137700000Y-92550000D01*
X125100000Y-93940000D02*
X136310000Y-93940000D01*
X111130700Y-79730700D02*
X111150000Y-79750000D01*
X109276100Y-79730700D02*
X111130700Y-79730700D01*
X135850000Y-85100000D02*
X127250000Y-85100000D01*
X137700000Y-83250000D02*
X135850000Y-85100000D01*
X134850000Y-86100000D02*
X129600000Y-86100000D01*
X137700000Y-83250000D02*
X134850000Y-86100000D01*
X111450000Y-80050000D02*
X111150000Y-79750000D01*
X113250000Y-80050000D02*
X111450000Y-80050000D01*
X125010000Y-87500000D02*
X125100000Y-87590000D01*
X123400000Y-87500000D02*
X125010000Y-87500000D01*
M02*
